<?xml version="1.0" encoding="UTF-8"?>
<svg width="100pt" height="100pt" version="1.1" viewBox="0 0 100 100" xmlns="http://www.w3.org/2000/svg">
 <path d="m92.855 20.699l-7.5391 22.309c-0.15234 0.44922-0.64453 0.69141-1.0898 0.53906l-14.805-5.0508c-0.21484-0.074219-0.39062-0.23047-0.49219-0.4375-0.10156-0.20312-0.11719-0.4375-0.042969-0.65625l0.003906-0.003906 7.5391-22.305c0.074218-0.21875 0.22656-0.39453 0.43359-0.49609 0.20312-0.10156 0.4375-0.11719 0.65625-0.042968l14.801 5.0508c0.44531 0.15625 0.68359 0.64453 0.53516 1.0938zm-28.285 15.363h2.4531l7.3281-21.676c0.26563-0.77734 0.80859-1.4023 1.5391-1.7656 0.73047-0.36328 1.5586-0.41797 2.3281-0.15234l2.8359 0.96875v-1.7969c0-0.47266-0.38281-0.86328-0.85547-0.86328h-15.629c-0.47266 0-0.85937 0.38672-0.85937 0.86328v23.562c0 0.47656 0.38672 0.85938 0.85937 0.85938zm4.1484 4.5195c-0.76953-0.26172-1.3945-0.8125-1.7539-1.5469-0.12109-0.24609-0.20312-0.50391-0.25391-0.76953h-2.1367c-1.6797 0-3.0508-1.375-3.0508-3.0625l-0.003907-18.797c-8.0312 2.9219-9.1445 3.3281-9.3438 3.3828l0.09375-0.015624c-0.21094 0.078124-0.38672 0.23828-0.48047 0.44531-0.097656 0.20703-0.10937 0.44141-0.027343 0.66016l7.9805 22.152c0.078124 0.21484 0.23437 0.39062 0.44531 0.48828 0.20703 0.097657 0.44141 0.10547 0.65625 0.027344l8.0195-2.918c-0.089843-0.03125-0.14453-0.046875-0.14453-0.046875zm-60.66 22.918l11.836-9.7812c1.1094-1.0273 3.125-1.625 4.8242-1.6562 0.42578-0.027344 0.85156 0 1.1914 0.058594l13.453 2.4258c0.87891 0.17188 2.1562 0.91406 2.3867 2.0547v0.62891c-0.085938 0.48438-0.39844 1.0547-0.99219 1.6523l-9.6523 9.582c-2.1836 2.082-4.1445 2.9648-6.3867 2.7969-0.53906-0.027344-1.1055-0.14062-1.7031-0.3125l-14.754-4.0547c-1.8477-0.51562-1.5078-2.2812-0.20312-3.3945zm12.918-0.96875c0.48047 0.73828 2.1836 0.85547 3.7461 0.54297 0.48047-0.085938 0.96484-0.19922 1.3906-0.39844 1.7578-0.65625 3.293-2.2266 2.043-3.4219-0.76953-0.71484-2.1836-0.68359-3.4336-0.42969-0.79688 0.19922-1.5039 0.42969-1.9883 0.65625-1.2227 0.59375-2.4141 2.0508-1.7578 3.0508zm6.4688 30.371l-0.76562-0.31641-3.5469-1.4258-7.0977-2.8516h-0.027344l-0.9375-0.37109c-1.1641-0.45703-2.3281-1.9961-3.0391-3.4219-0.085938-0.19922-0.14062-0.33984-0.22656-0.51562l-4.9375-12.43c-0.36719-0.88672-1.7617-4.5352 1.6172-3.4531l3.5469 1.0273 3.9766 1.0859h0.027344l6.1875 1.7383c0.3125 0.085938 0.625 0.19922 0.91016 0.28516 1.7852 0.53906 2.8086 1.0547 3.5469 2.0234 0.59766 0.82812 0.99609 1.9688 1.5039 3.7383l3.7773 12.945c0.054687 0.23047 0.085937 0.42969 0.085937 0.60156v0.28516c-0.11719 1.8555-3.0703 1.6797-4.6016 1.0547zm-15.414-17.082c0.85156 0.54297 1.8164 0.88281 2.3867 0.39844 0.96484-0.82422-0.054688-2.4805-1.0781-3.7344-0.39844-0.48438-0.82422-0.91016-1.3086-1.2266-0.79297-0.57031-1.6758-0.82812-2.3555-0.37109-1.0508 0.68359 0.14453 2.9102 0.9375 3.793 0.31641 0.33984 0.85156 0.79687 1.418 1.1406zm5.0547 7.3281c-0.3125-0.34375-0.68359-0.65625-1.0508-0.91406h-0.027344c-0.79687-0.57031-1.6172-0.88672-2.2695-0.42969-0.9375 0.62891 0.3125 2.6523 1.1367 3.4219 0.28516 0.25781 0.71094 0.62891 1.1367 0.91406h0.027343c0.79688 0.54297 1.7305 0.91406 2.3008 0.46094 0.875-0.6875-0.17578-2.3945-1.2539-3.4531zm6.0469-3.5625c0.96484 0.53906 2.043 0.82422 2.6953 0.28516 1.0781-0.91406-0.027344-2.5938-1.2227-4.0508-0.42578-0.51562-0.9375-0.96875-1.4727-1.2539-0.91016-0.54297-1.875-0.71484-2.6445-0.20312-1.2188 0.76953 0.17188 2.9375 0.99609 3.9062 0.33984 0.42969 0.96484 0.94141 1.6484 1.3164zm4.7109 7.2695c-0.3125-0.25391-0.70703-0.57031-1.1641-0.82812-0.87891-0.48438-1.8164-0.80078-2.5-0.3125-1.0781 0.68359 0.28516 2.7383 1.1094 3.5625 0.33984 0.28516 0.82031 0.68359 1.3906 1.0273 0.90625 0.51562 1.9609 0.88281 2.5547 0.42578 0.95312-0.72656-0.48438-3.0742-1.3906-3.875zm20.234-11.836v0.54297c-0.027344 1.9102-0.68359 3.5352-2.2422 5.418l-1.6445 1.9375-2.2148 2.6523-2.668 3.1953-2.1016 2.4805c-0.19922 0.25781-0.39844 0.48438-0.59766 0.62891-0.99219 0.88281-2.0703 0.57031-2.8359-0.37109-0.42578-0.54297-0.79688-1.2266-1.0234-2.082l-3.6328-12.805c-0.16797-0.57031-0.25391-1.1406-0.28516-1.7109v-0.48438c0.058594-1.4805 0.68359-2.9961 2.0469-4.3945l2.8945-2.8242 2.8359-2.8203 2.6953-2.6836 2.2148-2.1953c0.14453-0.17188 0.3125-0.28516 0.45312-0.42969 0.79688-0.57031 1.5625-0.65625 2.2148-0.31641 0.70703 0.375 1.2461 1.1719 1.4453 2.3086l2.1562 11.551c0.17578 0.86328 0.28906 1.6602 0.28906 2.4023zm-12.375 0.375c0.53516-1.7383 0.70703-4.1914-0.71094-4.8203-0.42578-0.16797-0.82031-0.11328-1.2188 0.11328-0.96484 0.51562-1.7891 1.9414-2.0703 2.8242-0.36719 1.1953-0.56641 3.9062 0.79297 4.4492 0.42578 0.14062 0.85156 0.085937 1.2773-0.058594 0.82422-0.39844 1.5625-1.3711 1.9297-2.5078zm2.0703 6.7852c-0.39844-0.19531-0.76563-0.14063-1.1641 0.11328-0.79297 0.54297-1.4766 1.8242-1.7891 2.6523-0.42578 1.168-0.59375 3.6523 0.53906 4.0508 0.42578 0.11328 0.85156 0.03125 1.2461-0.22656 0.68359-0.39844 1.2773-1.2852 1.6758-2.3398 0.62891-1.6836 0.74219-3.6211-0.50781-4.25zm2.5273-10.098c-0.33984-0.16797-0.67969-0.11328-0.99219 0.085938-0.85156 0.48438-1.5352 1.9375-1.8477 2.8203-0.36719 1.1719-0.39844 3.6797 0.73828 3.9961 0.36719 0.085937 0.76562 0.027344 1.1055-0.17188 0.71094-0.42578 1.332-1.3398 1.6992-2.4805 0.54688-1.7109 0.57812-3.6797-0.70312-4.25zm1.6758-3.1641c0.79688-0.37109 1.4219-1.4258 1.7617-2.6797 0.48047-1.7383 0.25391-3.7383-0.9375-4.2227-0.28125-0.11328-0.57031-0.085937-0.82422 0.058594-0.85156 0.45703-1.5625 2.0234-1.8125 2.9648-0.34375 1.1992-0.23047 3.7656 0.9375 4.0195 0.30859 0.058594 0.58984 0 0.875-0.14062zm3.293 4.5078c-0.34375-0.17188-0.71094-0.058593-1.0781 0.22656-0.71094 0.57031-1.4219 1.8242-1.6445 2.5664-0.33984 1.1133-0.36719 3.3672 0.65234 3.6484 0.33984 0.085937 0.68359 0.03125 0.99609-0.14453 0.67969-0.37109 1.2695-1.2461 1.5898-2.2812 0.48047-1.5664 0.48047-3.5039-0.51562-4.0156zm4.7305-68.426v45.004h-44.785v-45.004zm-7.707 23.465c0-10.664-8.6445-19.355-19.281-19.355 1.0781 0.92578 1.6016 2.1328 1.6016 3.582 0 1.0469-0.078125 1.8125-0.76172 2.6562-1.0391 1.2461-2.2852 2.3359-3.4023 3.5-2.0039 2.0938-4.0039 4.2266-6.0078 6.3203-0.96094 1.0078-1.5195 1.9727-1.5195 3.3789 0 2.5352 2.082 4.5898 4.5664 4.5898 2.6836 0 6.1641-3.625 8.4492-3.625 1.1602 0 2.1602 0.96875 2.1602 2.1328 0 0.5625-0.24219 1.168-0.67969 1.5312l-7.4062 6.2383c-1.5195 1.2852-2.3633 3.5234-2.3633 5.4531h23.367v-2.0938c0-1.5117 0.5625-3.1211 0.76172-4.6523 0.39844-3.1758 0.51562-6.4336 0.51562-9.6562zm-17.281-9.9766c-0.84375 0-1.5625 0.72656-1.5625 1.5664 0 0.84766 0.71875 1.5703 1.5625 1.5703 0.88281 0 1.6016-0.72266 1.6016-1.5703 0-0.84375-0.71875-1.5664-1.6016-1.5664zm69.773 31.516v45.004h-44.785v-45.004zm-35.605 11.75c0 3.8555 1.4727 5.8438 5.4336 5.8438h14.914c3.9648 0 5.4766-1.9883 5.4766-5.8438v-5.3359h-5.1641v5.2969h-5.1562v-5.2969h-5.2305v5.2969h-5.1523v-5.2969h-5.1211zm4.6914 7.6367v14.367h16.551v-14.367zm22.02 18.566l-5.3945-2.2227h-16.586l-4.8516 2.2227v2.0234h26.832z"/>
</svg>
