<?xml version="1.0" encoding="UTF-8"?>
<svg width="100pt" height="100pt" version="1.1" viewBox="0 0 100 100" xmlns="http://www.w3.org/2000/svg">
 <g>
  <path d="m70.301 94.496h-57.195c-0.92578 0-1.6719-0.74609-1.6719-1.6719v-51.371c-4.9922-1.6914-7.5195-4.4688-7.5195-8.2656 0-9.5977 16.602-17.113 37.785-17.113 21.191 0 37.793 7.5156 37.793 17.113 0 3.793-2.5273 6.5703-7.5195 8.2656v51.375c0.003906 0.92188-0.74609 1.668-1.6719 1.668zm-55.52-3.3438h53.848v-50.934c0-0.75 0.49609-1.4062 1.2148-1.6094 5.6484-1.6016 6.3047-3.8594 6.3047-5.4219 0-6.6484-13.84-13.766-34.445-13.766-20.602 0-34.441 7.1172-34.441 13.766 0 1.5625 0.65234 3.8242 6.3047 5.4219 0.71875 0.20703 1.2148 0.86328 1.2148 1.6094z"/>
  <path d="m70.301 94.496c-0.60938 0-1.1992-0.33984-1.4961-0.92578-0.41016-0.82812-0.078126-1.8281 0.74609-2.2461l7.6641-3.832 0.003906-51.57c0-0.75 0.49609-1.4062 1.2148-1.6094 5.6484-1.5977 6.3047-3.8594 6.3047-5.4219 0-6.6484-13.84-13.766-34.441-13.766-11.156 0-21.723 2.2695-28.27 6.0781-0.79688 0.45703-1.8242 0.19141-2.2852-0.60938-0.46484-0.79688-0.19141-1.8203 0.60547-2.2852 7.1367-4.1484 18.051-6.5273 29.949-6.5273 21.188 0 37.785 7.5156 37.785 17.113 0 3.7969-2.5273 6.5703-7.5195 8.2656v51.375c0 0.63281-0.35938 1.2109-0.92578 1.4961l-8.5898 4.2969c-0.23438 0.11328-0.49219 0.16797-0.74609 0.16797z"/>
  <path d="m86.41 84.883c-0.92578 0-1.6719-0.75-1.6719-1.6758v-4.6016c0-0.92578 0.74609-1.6719 1.6719-1.6719 0.92578 0 1.6719 0.74609 1.6719 1.6719v4.6016c0.003907 0.92578-0.74609 1.6758-1.6719 1.6758z"/>
  <path d="m86.41 73.59c-0.92578 0-1.6719-0.75-1.6719-1.6719v-31.789c0-0.70312 0.4375-1.3281 1.0938-1.5703 7.1992-2.6445 6.9062-9.1289 6.8906-9.4023-0.054687-0.91797 0.64453-1.7109 1.5625-1.7695 0.98047-0.066407 1.7148 0.62891 1.7773 1.5469 0.21094 3.0273-1.2344 9.2852-7.9805 12.324v30.664c0.003907 0.91797-0.74609 1.668-1.6719 1.668z"/>
  <path d="m46.32 78.816c-0.61719 0-1.2109-0.34375-1.5-0.93359-0.40625-0.82812-0.066406-1.8281 0.76172-2.2383 1.6289-0.80078 7.3867-6.1992 7.8906-8.1484-0.44922-0.10156-1.6914-0.17578-4.6172 0.52734-12.965 3.1055-17.273 3.2461-18.5 0.58594-0.97266-2.1094 0.42969-4.8672 10.375-12.062 6.6641-4.8203 8.6641-7.0664 9.2695-8-1.2773-0.14453-5.1641 0.12891-16.441 3.5156-3.5898 1.082-7.0703 1.7734-8.2031-0.47266-0.51562-1.0234-2.0781-4.1367 16.27-17.824 0.73438-0.55859 1.7852-0.41016 2.3398 0.33984 0.55469 0.74219 0.40234 1.7891-0.33984 2.3398-6.3125 4.7109-13.195 10.707-14.836 13.266 0.67188-0.054688 1.8438-0.26172 3.8086-0.85156 15.789-4.75 19.562-4.3125 20.727-1.9453 1.0469 2.1133-0.36328 4.918-10.633 12.344-6.6172 4.7891-8.4961 6.9648-9.0273 7.8359 1.2422 0.21484 4.7422-0.007812 14.414-2.3242 3.457-0.83203 7.5742-1.4258 8.6055 1.4258 1.5469 4.2773-8.3359 11.816-9.6133 12.449-0.25 0.11719-0.50391 0.17188-0.75 0.17188z"/>
 </g>
</svg>
