<?xml version="1.0" encoding="UTF-8"?>
<svg width="100pt" height="100pt" version="1.1" viewBox="0 0 100 100" xmlns="http://www.w3.org/2000/svg">
 <g>
  <path d="m80.469 19.297-2.5781 3.8281c1.7188 1.1719 3.3594 2.5 4.7656 3.9062 5.9375 5.9375 9.2188 13.828 9.2188 22.188s-3.2812 16.25-9.2188 22.109c-1.0156 1.0156-2.0312 1.875-3.2031 2.7344l0.46875-2.8125-4.5312-0.78125-1.7969 10.625 11.016 1.875 0.78125-4.5312-3.2031-0.54688c1.3281-1.0156 2.6562-2.1094 3.8281-3.2812 6.7969-6.7969 10.547-15.781 10.547-25.391s-3.75-18.672-10.547-25.391c-1.7188-1.6406-3.5938-3.2031-5.5469-4.5312z"/>
  <path d="m3.5156 49.219c0 9.6094 3.75 18.672 10.547 25.469 2.1094 2.1094 4.4531 3.9844 7.0312 5.4688l2.3438-3.9844c-2.2656-1.3281-4.2969-2.9688-6.1719-4.7656-5.8594-5.9375-9.1406-13.828-9.1406-22.188s3.2812-16.25 9.2188-22.109c0.46875-0.46875 0.9375-0.9375 1.4062-1.3281l-0.70312 3.0469 4.5312 1.0156 2.4219-10.391-10.938-2.5-1.0156 4.5312 2.8906 0.70312c-0.625 0.54688-1.25 1.0938-1.875 1.7188-6.7969 6.7188-10.547 15.703-10.547 25.312z"/>
  <path d="m32.5 30.234s0.9375 1.7969 3.3594 2.7344c1.7969 0.70312 4.375 0.9375 8.0469-0.46875 0 0-5.4688 4.8438-4.4531 10.234 0 0 9.7656-2.4219 11.328-7.3438 1.7188 4.9219 11.562 6.9531 11.562 6.9531 0.78125-5.3906-4.7656-10.078-4.7656-10.078 3.6719 1.25 6.25 0.9375 8.0469 0.23438 2.3438-1.0156 3.2031-2.8906 3.2031-2.8906-7.1875-7.1875-15.859-1.9531-15.859-1.9531l-0.15625-9.0625-4.6875 0.078125 0.15625 9.0625s-8.8281-4.9219-15.781 2.5z"/>
  <path d="m30.469 58.672c-0.15625-1.0938 0-2.0312 0.625-2.3438 0.9375-0.46875 2.4219 0.54688 3.2812 2.2656s0.78125 3.5156-0.078125 3.9844c-0.70312 0.39062-1.7188-0.15625-2.5781-1.1719 2.3438 4.5312 5.8594 9.6094 11.25 15.312 2.2656 2.4219 4.6875 3.6719 7.6562 3.5938h1.7969c2.9688-0.078125 5.3125-1.3281 7.5781-3.8281 1.6406-1.875 3.125-3.6719 4.375-5.3906-0.15625 0.23438-0.39062 0.46875-0.54688 0.70312-1.875 2.1094-4.4531 3.0469-5.625 2.0312s-0.54688-3.5938 1.3281-5.7812 4.4531-3.0469 5.625-2.0312c1.0156 0.85938 0.70312 2.9688-0.625 4.9219 3.5156-4.6875 5.8594-8.9062 7.2656-12.734-3.125-0.9375-5.2344-2.7344-6.6406-5-1.0156 2.1094-2.6562 3.3594-3.9062 2.9688-1.4844-0.46875-1.9531-3.125-1.0156-5.8594 0.70312-2.0312 1.9531-3.5938 3.2031-3.9844 0.078125-4.2188 2.0312-8.4375 5.5469-10.859-0.9375-1.0156-1.7969-1.7969-2.5-2.2656-0.15625 0.078125-0.3125 0.15625-0.54688 0.23438-1.6406 0.70312-3.4375 0.85938-5.5469 0.625 1.5625 2.0312 3.3594 5.0781 2.8125 8.5156l-0.15625 1.0156-1.0156-0.23438c-0.23438-0.15625-8.125-1.7969-11.25-5.9375-2.9688 4.1406-10.781 6.1719-11.172 6.25l-1.0156 0.23438-0.15625-1.0156c-0.625-3.4375 1.0156-6.5625 2.5-8.5938-2.0312 0.39062-3.9062 0.23438-5.5469-0.39062-0.15625-0.078125-0.3125-0.15625-0.54688-0.23438-2.7344 2.2656-10.547 10.234-4.375 25zm19.297 8.9062c0.078125 2.8125-1.0938 5.2344-2.6562 5.3125s-2.9688-2.1875-3.0469-5.0781 1.0938-5.2344 2.6562-5.3125c1.4844-0.078125 2.8906 2.1875 3.0469 5.0781zm-10.234-21.562c1.4062-0.70312 3.5938 0.78125 4.9219 3.3594 1.3281 2.5 1.25 5.2344-0.15625 5.9375s-3.5938-0.78125-4.9219-3.3594-1.1719-5.2344 0.15625-5.9375z"/>
 </g>
</svg>
