<?xml version="1.0" encoding="UTF-8"?>
<svg width="100pt" height="100pt" version="1.1" viewBox="0 0 100 100" xmlns="http://www.w3.org/2000/svg">
 <g>
  <path d="m90.383 69.23h-42.305c-3.1797 0-5.7695-2.5859-5.7695-5.7695v-42.309c0-3.1797 2.5859-5.7695 5.7695-5.7695h42.309c3.1797 0 5.7695 2.5859 5.7695 5.7695v42.309c-0.003906 3.1836-2.5898 5.7695-5.7734 5.7695zm-42.305-50c-1.0586 0-1.9219 0.86328-1.9219 1.9219v42.309c0 1.0625 0.86328 1.9219 1.9219 1.9219h42.309c1.0586 0 1.9219-0.86328 1.9219-1.9219v-42.309c0-1.0625-0.86328-1.9219-1.9219-1.9219z"/>
  <path d="m69.23 61.539c-10.605 0-19.23-8.6289-19.23-19.23 0-10.602 8.625-19.23 19.23-19.23s19.23 8.6289 19.23 19.23c0 10.602-8.625 19.23-19.23 19.23zm0-34.617c-8.4844 0-15.383 6.9023-15.383 15.383 0 8.4844 6.9023 15.383 15.383 15.383 8.4844 0 15.383-6.9023 15.383-15.383 0.003907-8.4805-6.8984-15.383-15.383-15.383z"/>
  <path d="m61.539 48.078c-1.0625 0-1.9219-0.85938-1.9219-1.9219v-3.8477c0-1.0625 0.85937-1.9219 1.9219-1.9219s1.9219 0.85938 1.9219 1.9219v3.8477c0 1.0625-0.85938 1.9219-1.9219 1.9219z"/>
  <path d="m76.922 48.078c-1.0625 0-1.9219-0.85938-1.9219-1.9219v-3.8477c0-1.0625 0.85938-1.9219 1.9219-1.9219s1.9219 0.85938 1.9219 1.9219v3.8477c0.003906 1.0625-0.85938 1.9219-1.9219 1.9219z"/>
  <path d="m71.152 36.539h-3.8477c-1.0625 0-1.9219-0.85937-1.9219-1.9219s0.85938-1.9219 1.9219-1.9219h3.8477c1.0625 0 1.9219 0.85938 1.9219 1.9219 0.003906 1.0625-0.85938 1.9219-1.9219 1.9219z"/>
  <path d="m19.832 60.098h-1.5625c-7.9531 0-14.422-6.4688-14.422-14.422v-14.062c0-1.0625 0.85938-1.9219 1.9219-1.9219h26.562c1.0625 0 1.9219 0.85938 1.9219 1.9219v14.059c0 7.9531-6.4688 14.426-14.422 14.426zm-12.141-26.562v12.137c0 5.832 4.7461 10.578 10.578 10.578h1.5625c5.832 0 10.578-4.7461 10.578-10.578v-12.141z"/>
  <path d="m7.8125 33.535c-1.0625 0-1.9219-0.85938-1.9219-1.9219v-8.1719c0-1.0625 0.85938-1.9219 1.9219-1.9219s1.9219 0.85938 1.9219 1.9219v8.1719c0 1.0586-0.85938 1.9219-1.9219 1.9219z"/>
  <path d="m30.289 33.535c-1.0625 0-1.9219-0.85938-1.9219-1.9219v-8.1719c0-1.0625 0.85937-1.9219 1.9219-1.9219s1.9219 0.85938 1.9219 1.9219v8.1719c0 1.0586-0.85938 1.9219-1.9219 1.9219z"/>
  <path d="m19.051 33.535c-1.0625 0-1.9219-0.85938-1.9219-1.9219v-14.305c0-1.0625 0.85938-1.9219 1.9219-1.9219s1.9219 0.85938 1.9219 1.9219v14.305c0 1.0586-0.85938 1.9219-1.9219 1.9219z"/>
  <path d="m71.152 84.617h-34.734c-0.61328-0.03125-12.707-0.78125-18.059-11.266-3.4258-6.7148-1.9414-13.258-1.1406-15.762 0.32422-1.0156 1.4062-1.5742 2.418-1.2461 1.0117 0.32422 1.5703 1.4062 1.2461 2.4141-0.65234 2.0508-1.875 7.4023 0.90234 12.844 4.3516 8.5273 14.629 9.1641 14.734 9.168h34.633c1.0625 0 1.9219 0.85938 1.9219 1.9219 0.003906 1.0625-0.85938 1.9258-1.9219 1.9258z"/>
 </g>
</svg>
