<?xml version="1.0" encoding="UTF-8"?>
<svg width="100pt" height="100pt" version="1.1" viewBox="0 0 100 100" xmlns="http://www.w3.org/2000/svg">
 <g>
  <path d="m80.102 61.09l-1.5859-5.75c-0.15234-0.63672-0.41016-1.1758-1-1.457 0.94141-0.66016 1.3516-1.8242 1.3516-3.5859-0.011719-6.207-0.011719-12.699-0.035157-19.66-0.011719-3.1523-0.011719-6.3867-0.023437-9.7383 0-1.8711-0.36328-3.832-2.9531-4.2344-0.39844-0.058593-0.85938-0.09375-1.4102-0.09375-5.043 0-9.8555 0.011719-14.828 0.023438l-17.641 0.035156c-5.8906 0.011719-10.781 0.023438-16.688 0.035156-2.918 0.011719-4.1641 1.2578-4.1523 4.1641 0 3.293 0.011719 6.6094 0.011719 9.9609 0.011718 6.3398 0.023437 12.828 0.046874 19.625 0 0.83594 0.011719 2.5039 1.2578 3.4922-0.5625 0.28125-0.74219 0.67188-0.95312 1.4336l-1.5859 5.7617-1.3984 5.0664c0 0.90625 0.84766 1.6445 1.8828 1.6445h59.242c1.0352 0 1.8828-0.74219 1.8828-1.6445zm-48.305-10.336h-6.5273v-30.258h49.461v30.258z"/>
  <path d="m80.031 69.836h-60.004c-0.63672 0-1.1523 0.51562-1.1523 1.1523s0.51562 1.1523 1.1523 1.1523h22.812v7.6094c0 0.22266 0.046875 0.43359 0.11719 0.63672h-11.582c-0.61328 0-1.1172 0.50391-1.1172 1.1172v0.80078c0 0.61328 0.50391 1.1172 1.1172 1.1172h37.242c0.61328 0 1.1172-0.50391 1.1172-1.1172l-0.003906-0.78906c0-0.61328-0.50391-1.1172-1.1172-1.1172h-11.582c0.070312-0.19922 0.11719-0.41016 0.11719-0.63672v-7.6094h22.871c0.63672 0 1.1523-0.51562 1.1523-1.1523 0.011719-0.64453-0.50391-1.1641-1.1406-1.1641z"/>
 </g>
</svg>
