<?xml version="1.0" encoding="UTF-8"?>
<svg width="100pt" height="100pt" version="1.1" viewBox="0 0 100 100" xmlns="http://www.w3.org/2000/svg">
 <g>
  <path d="m34.992 75.559c-0.91016-0.375-1.8672-0.56641-2.8438-0.56641-3.0273 0-5.7305 1.8047-6.8867 4.5977-1.5703 3.793 0.23828 8.1562 4.0312 9.7305 0.91016 0.375 1.8672 0.56641 2.8438 0.56641 3.0234 0 5.7305-1.8047 6.8867-4.5977 0.76172-1.8359 0.76172-3.8594 0-5.6992-0.76172-1.8398-2.1914-3.2695-4.0312-4.0312zm1.2617 8.582c-0.69141 1.668-2.3047 2.7461-4.1133 2.7461-0.58203 0-1.1523-0.11328-1.6953-0.33984-2.2656-0.9375-3.3438-3.543-2.4062-5.8086 0.69141-1.668 2.3047-2.7461 4.1133-2.7461 0.58203 0 1.1523 0.11328 1.6953 0.33984 1.0977 0.45312 1.9531 1.3086 2.4062 2.4062 0.44922 1.0938 0.45312 2.3047 0 3.4023z"/>
  <path d="m67.855 70.406c-1.6172 0-3.1992 0.31641-4.7266 0.94922-0.51953 0.21484-1.1562-0.054688-1.3672-0.56641l-5.7422-13.859 16.203-39.117c0.99219-2.3984 0.99609-5.043 0.003906-7.4375-0.99219-2.3984-2.8594-4.2656-5.2617-5.2578-0.76562-0.31641-1.6445 0.046874-1.9609 0.8125l-15.059 36.344-14.941-36.078c-0.31641-0.76562-1.1953-1.1289-1.9609-0.8125-2.3984 0.99219-4.2695 2.8594-5.2617 5.2578-0.99219 2.3945-0.99219 5.0391 0.003906 7.4375l16.094 38.852-5.6328 13.594c-0.10547 0.25781-0.30859 0.45703-0.56641 0.5625-0.26172 0.10547-0.54297 0.10547-0.82422-0.007813-3.2227-1.3359-6.875-1.2344-10.023 0.27344-3.1445 1.5078-5.5156 4.3125-6.5039 7.6914-1.5859 5.4609 0.87891 11.41 5.8633 14.152 1.8516 1.0156 3.9102 1.5312 5.9727 1.5312 1.375 0 2.75-0.23047 4.0664-0.69141 3.2891-1.1602 5.9453-3.6719 7.2773-6.8945 0.91016-2.1992 1.1641-4.5938 0.73828-6.9219-0.44922-2.4297-0.14062-4.9258 0.88672-7.2188l4.3398-9.668c0.10547-0.23438 0.24609-0.44141 0.40625-0.63672 0.27344 0.25781 0.50781 0.55859 0.66406 0.90625l4.3359 9.6641c0.98828 2.2031 1.2656 4.7461 0.82812 7.5625-0.34375 2.2188-0.066406 4.4922 0.79688 6.5781 1.9062 4.6133 6.3672 7.5938 11.355 7.5938 2.0586 0 4.1172-0.53125 5.9531-1.5391 4.9883-2.7383 7.4531-8.6875 5.8594-14.148-1.5469-5.3281-6.2969-8.9062-11.816-8.9062zm-0.71875-61.793c1.0234 0.72266 1.8242 1.7227 2.3164 2.9062 0.6875 1.6562 0.6875 3.4805-0.003906 5.1406l-15.055 36.352-2.8242-6.8164zm-24.742 63.16c-1.2773 2.8516-1.6602 5.957-1.1016 8.9883 0.32422 1.7578 0.12891 3.5625-0.55859 5.2266-1.0078 2.4375-3.0156 4.3359-5.5039 5.2148-2.5234 0.89062-5.2227 0.66406-7.5977-0.63672-3.7617-2.0703-5.625-6.5625-4.4258-10.684 0.76172-2.6016 2.5078-4.668 4.9219-5.8281 2.3789-1.1406 5.1406-1.2148 7.6016-0.19531 0.99609 0.41406 2.0977 0.41406 3.0977 0s1.7812-1.1914 2.1914-2.1875l4.6992-11.348c0.40625 0.42578 0.87891 0.78516 1.3945 1.0742-0.14062 0.22656-0.27344 0.46484-0.38281 0.71094zm29.977 19.055c-1.4141 0.77734-2.9336 1.1719-4.5117 1.1719-3.7734 0-7.1445-2.2539-8.5859-5.7383-0.65234-1.5781-0.86328-3.2969-0.60156-4.9688 0.52734-3.3984 0.17188-6.5117-1.0586-9.25l-4.3359-9.6641c-0.57422-1.2852-1.6133-2.3125-2.8711-2.9062-0.027344-0.015625-0.058594-0.027344-0.089844-0.039062-0.32812-0.14844-0.67188-0.27734-1.0234-0.35938-0.89062-0.21484-1.6328-0.84766-1.9844-1.6953l-0.41016-0.99219c-0.007813-0.019531-0.015626-0.039063-0.023438-0.058594l-16.32-39.395c-0.6875-1.6602-0.6875-3.4883-0.003907-5.1445 0.49219-1.1836 1.293-2.1836 2.3164-2.9062l26.121 63.059c0.83203 2.0078 3.207 3.0547 5.3125 2.1758 1.1367-0.47266 2.3359-0.71094 3.5547-0.71094 4.1719 0 7.7656 2.7109 8.9375 6.7422 1.2031 4.1211-0.65625 8.6172-4.4219 10.68z"/>
  <path d="m67.852 75.254c-0.97656 0-1.9336 0.19141-2.8438 0.56641-1.8398 0.76172-3.2695 2.1914-4.0312 4.0312-0.76172 1.8398-0.76172 3.8633 0 5.6992 1.1562 2.793 3.8594 4.5977 6.8867 4.5977 0.98047 0 1.9336-0.19141 2.8438-0.56641 3.793-1.5703 5.6016-5.9375 4.0312-9.7305-1.1562-2.793-3.8594-4.5977-6.8867-4.5977zm1.707 11.559c-0.54297 0.22656-1.1133 0.33984-1.6953 0.33984-1.8086 0-3.4258-1.0781-4.1133-2.7461-0.45312-1.0977-0.45312-2.3086 0-3.4023 0.45312-1.0977 1.3086-1.9531 2.4062-2.4062 0.54297-0.22656 1.1133-0.33984 1.6953-0.33984 1.8086 0 3.4258 1.0781 4.1172 2.7461 0.9375 2.2617-0.14453 4.8711-2.4102 5.8086z"/>
  <path d="m51.77 55.688c0 3-4.5039 3-4.5039 0s4.5039-3 4.5039 0"/>
  <path d="m23.793 29.168c0-0.82812-0.67188-1.5-1.5-1.5h-4.332v3h4.332c0.82812 0 1.5-0.67188 1.5-1.5z"/>
  <path d="m10.625 27.668c-0.82812 0-1.5 0.67188-1.5 1.5s0.67188 1.5 1.5 1.5h4.332v-3z"/>
  <path d="m14.957 35c0 0.82812 0.67188 1.5 1.5 1.5s1.5-0.67188 1.5-1.5v-4.332h-3z"/>
  <path d="m17.957 23.332c0-0.82812-0.67188-1.5-1.5-1.5s-1.5 0.67188-1.5 1.5v4.332h3z"/>
  <path d="m89.375 55.211h-4.332v3h4.332c0.82812 0 1.5-0.67188 1.5-1.5 0-0.82813-0.67188-1.5-1.5-1.5z"/>
  <path d="m77.707 55.211c-0.82812 0-1.5 0.67187-1.5 1.5 0 0.82812 0.67188 1.5 1.5 1.5h4.332v-3z"/>
  <path d="m82.043 62.543c0 0.82812 0.67188 1.5 1.5 1.5s1.5-0.67188 1.5-1.5v-4.332h-3z"/>
  <path d="m85.043 50.879c0-0.82812-0.67188-1.5-1.5-1.5s-1.5 0.67188-1.5 1.5v4.332h3z"/>
 </g>
</svg>
