<?xml version="1.0" encoding="UTF-8"?>
<svg width="100pt" height="100pt" version="1.1" viewBox="0 0 100 100" xmlns="http://www.w3.org/2000/svg">
 <g>
  <path d="m87.395 29.582c3.168-2.2266 4.9883-5.4766 4.9883-9.0039 0-5.9453-5.3359-10.957-12.203-11.582l-0.16406-2.0859c-0.042969-0.57422-0.52344-1.0156-1.0977-1.0156h-6.4414c-0.57422 0-1.0547 0.44141-1.0977 1.0156l-0.58203 7.3867c-0.023437 0.30469 0.082031 0.60938 0.28906 0.83203 0.21094 0.22656 0.50391 0.35156 0.80859 0.35156h0.28906l-0.29297 7.8047c0 0.21094-0.23828 0.4375-0.60156 0.4375l-0.64453 0.007813h-4.7344c-1.1875 0-2.1523 0.92188-2.1523 2.0547v7.4219c0 0.097657 0.03125 0.18359 0.054688 0.27734-0.14062 0.23438-0.26562 0.48047-0.33984 0.75391-0.019531 0.078125-0.050781 0.22656-0.054687 0.26562l-0.96875 5.8633c-0.44922 2.7148-0.90234 5.4531-1.3945 8.2109-0.54688 3.0664-1.2969 12.805-0.64453 29.859 0.13281 3.5273 0.42188 7.1406 0.85938 10.738 0.22656 1.8398 1.5469 3.3398 3.293 3.7266 3.5938 0.79688 7.3477 1.1992 11.156 1.1992 3.7969 0 7.5352-0.40234 11.113-1.1914 1.7461-0.38672 3.0703-1.8867 3.2969-3.7266 0.43359-3.5898 0.72266-7.207 0.85938-10.746 0.65234-17.059-0.097656-26.797-0.64844-29.859-0.44531-2.4883-0.85156-4.9609-1.2617-7.4141l-1.1016-6.6602c-0.078124-0.48438-0.30469-0.89844-0.58594-1.2656 0-0.011719 0.007813-0.019531 0.007813-0.03125zm-10.719 2.5234v-6.1719h2.9375l0.21875-0.003906v6.1797zm-5.3555 0v-6.1719h3.1523v6.1758zm10.715-6.2383 3.1523-0.082032v6.3242h-3.1523zm8.1406-5.2852c0 2.2891-1.0117 4.4375-2.7812 6.1406v-0.9375c0-1.1328-0.96875-2.0547-2.1562-2.0547h-5.625c-0.32422 0-0.60156-0.19922-0.60156-0.48438l-0.31641-7.7617h0.80078c0.30469 0 0.60156-0.12891 0.80859-0.35156 0.20703-0.22656 0.3125-0.52734 0.28906-0.83203l-0.24219-3.0547c5.5547 0.66016 9.8242 4.6328 9.8242 9.3359zm-16.68-12.48h4.4023l0.41016 5.1836h-5.2227zm0.59766 15.23 0.29297-7.8477h2.1055l0.31641 7.8047c0 0.15625 0.066406 0.28906 0.09375 0.44141h-2.8945c0.023438-0.13672 0.085938-0.25781 0.085938-0.39844zm-4.9805 2.6016v6.1758h-3.1602l-0.042969-6.1758zm19.059 23.027c0.49609 2.7734 1.2617 12.48 0.61719 29.387-0.13672 3.4805-0.42187 7.0352-0.84766 10.566-0.10938 0.91797-0.74609 1.6562-1.582 1.8438-6.8477 1.5156-14.449 1.5117-21.312-0.007812-0.83594-0.1875-1.4727-0.92578-1.582-1.8398-0.42969-3.5391-0.71094-7.0898-0.84766-10.559-0.64844-16.906 0.11719-26.617 0.61328-29.391 0.49609-2.7656 0.94922-5.5117 1.3984-8.2344l0.97656-5.9023c0.003906-0.007813 0.003906-0.015625 0.007812-0.027344 0.074219-0.28516 0.33203-0.48828 0.60938-0.48828h18.969c0.30078 0 0.57031 0.23828 0.62109 0.55469l1.1016 6.6602c0.39844 2.4609 0.80859 4.9414 1.2578 7.4375z"/>
  <path d="m75.312 53.543c-4.6367 0.15625-8.5625 3.5312-8.9375 7.6836l-1.4141 15.543c-0.082032 0.90625 0.20703 1.7695 0.80859 2.4297 0.61328 0.67188 1.5039 1.0547 2.4453 1.0547h14.965c0.94141 0 1.832-0.38281 2.4453-1.0547 0.60156-0.66016 0.89062-1.5234 0.80859-2.4336l-1.4531-15.98c-0.38672-4.2305-4.6992-7.3789-9.668-7.2422zm8.6836 24.176c-0.19922 0.21484-0.48828 0.33594-0.81641 0.33594h-14.965c-0.32812 0-0.61719-0.12109-0.81641-0.33594-0.18359-0.19922-0.26953-0.46484-0.24219-0.74609l1.4141-15.543c0.27734-3.0664 3.2734-5.5625 6.8203-5.6797 3.7695-0.15625 7.1211 2.2227 7.3984 5.2422l1.4531 15.98c0.019531 0.27734-0.066407 0.54688-0.24609 0.74609z"/>
  <path d="m52.367 54.914c-4.8438-3.6289-11.418-2.5312-14.023-1.8906-0.039062 0.007812-0.082031 0.007812-0.12109 0.015624 0.13281-3.2422 1.9102-4.1602 2.0195-4.2109 0.55078-0.24219 0.80859-0.87891 0.57422-1.4375-0.23828-0.5625-0.88281-0.82812-1.4453-0.58594-0.14062 0.058593-3.1641 1.4492-3.332 6.2148-3.2383-0.79688-9.3359-1.5938-13.992 1.8945-3.4844 2.6094-5.3867 7.0781-5.6562 13.273-0.09375 2.1328 0.1875 4.2109 0.80469 6.1992h-7.668c-0.51953 0-1.0234 0.21484-1.3789 0.58984-0.35938 0.375-0.54688 0.88672-0.52344 1.4102 0.47266 9.4727 8.2773 16.891 17.77 16.891 4.7422 0 9.0625-1.8516 12.258-4.8867 5.7539-0.11719 11.262-2.4844 15.168-6.5625 3.582-3.7422 5.4297-8.5898 5.207-13.645-0.27344-6.1914-2.1758-10.66-5.6602-13.27zm-16.82 0.25c0.48047 0.11719 0.97266 0.16406 1.4648 0.17578 0.039062 0.003906 0.078125 0.023437 0.11719 0.023437h0.054688c0.56641 0 1.1328-0.0625 1.6836-0.19922 2.1406-0.52344 7.2773-1.375 11.281 0.97656-1.3789 1.4844-3.6758 0.72656-3.9648 0.62109-0.35938-0.12891-0.75781-0.066407-1.0547 0.16797-0.29688 0.23437-0.45703 0.60547-0.41797 0.98047 0.14062 1.3945 0.96875 2.7227 1.7578 3.707-3.2734-0.011719-4.7422-2.6992-4.8086-2.8281-0.25391-0.49609-0.83203-0.71875-1.3594-0.53125-0.52344 0.19141-0.81641 0.74219-0.69141 1.2852 0.54297 2.3203-0.39844 4.1719-1.2773 5.3125-1.3594-4.6562-2.4805-5.875-3.0664-6.1797-0.28906-0.14844-0.625-0.16406-0.92578-0.039062-0.30078 0.125-0.53125 0.375-0.62891 0.67969-0.46094 1.4453-1.1953 2.3594-2.1719 2.7188-0.90234 0.33984-1.9297 0.19531-2.7812-0.058594 1.418-1.5391 1.832-3.9805 1.8906-4.3555 0.050781-0.33984-0.058594-0.6875-0.30078-0.93359-0.23828-0.24609-0.58203-0.36328-0.92578-0.32422-2.4766 0.3125-3.3945 0.19531-4.1016-0.78906 3.8125-1.6523 8.2773-0.89062 10.227-0.41016zm-10.156 35.914c-8.2109 0-14.984-6.3398-15.551-14.488h8.8828 0.023438 22.199c-0.56641 8.1484-7.3398 14.488-15.555 14.488zm25.836-10.77c-3.0195 3.1562-7.1133 5.1602-11.5 5.7266 2.0039-2.7188 3.2578-6.0312 3.4375-9.6445 0.027344-0.51953-0.16016-1.0312-0.51953-1.4102-0.35938-0.37891-0.86328-0.59375-1.3828-0.59375h-21.738c-0.69531-1.9453-1.0234-3.9883-0.93359-6.1016 0.24219-5.5078 1.8516-9.4102 4.7812-11.605 0.007812-0.007813 0.019531-0.011719 0.027344-0.015626 1.2031 1.8008 2.7617 2.1445 4.7031 2.0469-0.36328 1.0273-0.98437 2.1992-1.9023 2.3203-0.46094 0.0625-0.83203 0.40625-0.92969 0.85938-0.097656 0.45312 0.097657 0.91797 0.49219 1.1641 0.14062 0.089843 3.5234 2.1602 6.5312 1.0586 1.0898-0.39844 1.9805-1.1406 2.6523-2.207 0.45313 0.98047 1.0703 2.6289 1.7656 5.3672 0.089843 0.35937 0.35547 0.64844 0.70312 0.76562 0.11719 0.042969 0.24219 0.0625 0.36328 0.0625 0.23828 0 0.46875-0.078124 0.66797-0.22266 0.14453-0.10938 2.8242-2.1875 3.4219-5.6094 1.6328 1.2305 4.0469 2.0664 7.1719 1.1758 0.38672-0.11328 0.6875-0.42578 0.77344-0.82422 0.085938-0.39453-0.050781-0.80469-0.35938-1.0703-0.40625-0.35156-1.332-1.2852-1.9531-2.3164 1.4805 0.074219 3.207-0.32422 4.4297-1.793 2.3672 2.2852 3.6836 5.918 3.9023 10.84 0.19141 4.4531-1.4453 8.7227-4.6055 12.027z"/>
  <path d="m33.559 80.047 0.6875-0.86719c-0.48047-0.46094-1.0469-0.71094-1.7266-0.65234-0.64062 0.039062-1.2227 0.35547-1.6484 0.88281-1.2969 1.625-3.3008 2.5547-5.4844 2.5547-2.1406 0-4.1797-0.94531-5.457-2.5273-0.44531-0.54688-1.0508-0.85938-1.7109-0.88672-0.74219-0.015625-1.2773 0.23828-1.7578 0.74609-0.58203 0.625-0.84766 1.5273-0.71875 2.4141 0.64062 4.1719 4.8125 7.3164 9.7031 7.3164 4.8828 0 8.9531-3.0156 9.6758-7.1719 0.16797-0.96875-0.13672-1.9688-0.79297-2.6016zm-8.1172 6.7812c-3.8125 0-7.043-2.3438-7.5234-5.4453-0.039063-0.24609 0.054687-0.47656 0.29688-0.55859 1.7148 2.125 4.3281 3.3438 7.1719 3.3438 2.8594 0 5.4844-1.2344 7.3438-3.3906l0.070312 0.066406c0.10938 0.11328 0.19531 0.36328 0.14844 0.64062-0.53516 3.0469-3.7617 5.3438-7.5078 5.3438z"/>
  <path d="m20.316 83.363c-0.27734 0-0.50391 0.24609-0.50391 0.55078 0 0.30469 0.22656 0.55078 0.50391 0.55078s0.50391-0.24609 0.50391-0.55078c0-0.30469-0.22266-0.55078-0.50391-0.55078z"/>
  <path d="m21.961 84.523c-0.27734 0-0.50391 0.24609-0.50391 0.55078 0 0.30469 0.22656 0.55078 0.50391 0.55078 0.27734 0 0.50391-0.24609 0.50391-0.55078 0-0.30078-0.22266-0.55078-0.50391-0.55078z"/>
  <path d="m24.16 85.203c-0.27734 0-0.50391 0.24609-0.50391 0.55078 0 0.30469 0.22656 0.55078 0.50391 0.55078s0.50391-0.24609 0.50391-0.55078c0-0.30078-0.22656-0.55078-0.50391-0.55078z"/>
  <path d="m26.82 85.203c-0.27734 0-0.50391 0.24609-0.50391 0.55078 0 0.30469 0.22656 0.55078 0.50391 0.55078 0.27734 0 0.50391-0.24609 0.50391-0.55078 0-0.30078-0.22656-0.55078-0.50391-0.55078z"/>
  <path d="m28.992 84.652c-0.27734 0-0.50391 0.24609-0.50391 0.55078s0.22656 0.55078 0.50391 0.55078c0.27734 0 0.50391-0.24609 0.50391-0.55078s-0.22656-0.55078-0.50391-0.55078z"/>
  <path d="m30.566 83.363c-0.27734 0-0.50391 0.24609-0.50391 0.55078 0 0.30469 0.22656 0.55078 0.50391 0.55078s0.50391-0.24609 0.50391-0.55078c0-0.30469-0.22656-0.55078-0.50391-0.55078z"/>
 </g>
</svg>
