<?xml version="1.0" encoding="UTF-8"?>
<svg width="100pt" height="100pt" version="1.1" viewBox="0 0 100 100" xmlns="http://www.w3.org/2000/svg">
 <path d="m45.812 27c-0.16016 0.035156-0.3125 0.10938-0.4375 0.21875l-4.6562 3.7812h-29.312c-1.3789-0.023438-2.375 1.0195-2.4062 1.4062v39.219c0.03125 0.39453 1.0312 1.3945 2.4062 1.375h77.188c1.3828 0.054688 2.4375-0.98047 2.4062-1.375v-39.219c0.03125-1.3867-0.96875-1.3867-2.4062-1.4062h-29.188l-4.7188-3.7812c-0.17578-0.14062-0.39844-0.21875-0.625-0.21875h-8.25zm0.53125 2h7.375l3.3125 2.6562v7.3125h-14v-7.2812zm-29.344 9.9688h-6v-5.9062c2.0195-0.035156 4.2852-0.039062 6.0312-0.042969 0 1-0.03125 4.1328-0.03125 5.9492zm2-5.9688h6v5.9688h-6zm8 0h6v5.9688h-6zm8 0h6.0312v5.9688h-6.0312zm24.031 0.019531c1.9883 0 3.9805-0.019531 5.9688-0.019531v5.9688h-5.9688zm7.9688-0.019531h6v5.9688h-6zm8 0h6v5.9688h-6zm8 0c1.9688 0.019531 4.0312 0.019531 6 0.0625v5.9062h-6zm-72 7.9688h6v6h-6zm8 0h6v6h-6zm8 0h6v6h-6zm8 0h6.0312v6h-6.0312zm8.0312 0h6v6h-6zm8 0h6v6h-6zm8 0h5.9688v6h-5.9688zm7.9688 0h6v6h-6zm8 0h6.0312v6h-6.0312zm8.0312 0h5.9688v14h-14v-6c2.0312 0.050781 5.4219 0.13281 8.0312 0.0625zm-72.031 8h6v6h-6zm8 0h6v6h-6zm8 0h6v6h-6zm8 0h6v6h-6zm8 0h6.0312l-0.03125 6h-6zm8.0312 0h5.9688v6h-6zm7.9688 0h6v6h-6zm8 0h6v6h-6zm-56 8h14v6h-14zm16 0h6v6h-6zm8 0h6v6h-6zm8 0h6v6h-6zm8 0h6v6h-6zm8 0h6v6h-6zm8 0h6v6h-6zm8 0h14v6h-14zm-64 8h10v6.0312c-3.3008-0.019531-6.7188 0.089844-9.9688 0.019531zm12 0h10v6.0312h-10zm12 0h30v6.0312h-30zm32 0h10v6.0312h-10zm12 0h10v6c-2.9688 0.050781-6.9688 0.050781-10 0.03125z"/>
</svg>
