<?xml version="1.0" encoding="UTF-8"?>
<svg width="100pt" height="100pt" version="1.1" viewBox="0 0 100 100" xmlns="http://www.w3.org/2000/svg">
 <path d="m72.727 42.426h-9.0898v24.242c0 0.83594-0.67969 1.5156-1.5156 1.5156-0.83594 0-1.5156-0.67969-1.5156-1.5156v-24.242h-9.0898v15.148c0 0.83984-0.67969 1.5156-1.5156 1.5156s-1.5156-0.67578-1.5156-1.5156v-15.148h-9.0898v15.148c0 0.83984-0.67969 1.5156-1.5156 1.5156h-6.4844l-8.7461 26.238c-0.20703 0.61719-0.78516 1.0352-1.4375 1.0352h-16.664c-1.0352 0-1.7656-1.0117-1.4375-1.9922l8.6367-25.914c-0.21094-0.09375-0.43359-0.19922-0.66797-0.3125-1.5273-0.75-3.0508-1.7109-4.4805-2.9141-4.1094-3.4688-6.5977-8.2109-6.5977-14.32s2.4883-10.852 6.5977-14.32c1.4297-1.207 2.9531-2.168 4.4805-2.9141 0.92188-0.45312 1.6562-0.73828 2.1055-0.87891 0.14844-0.046875 0.30078-0.070313 0.45312-0.070313h24.242c0.83594 0 1.5156 0.67969 1.5156 1.5156v15.152h9.0898v-15.152c0-0.83594 0.67969-1.5156 1.5156-1.5156s1.5156 0.67969 1.5156 1.5156v15.152h9.0898v-24.242c0-0.83594 0.67969-1.5156 1.5156-1.5156 0.83594 0 1.5156 0.67969 1.5156 1.5156v24.242h9.0898v-15.152c0-0.83594 0.67969-1.5156 1.5156-1.5156 0.83594 0 1.5156 0.67969 1.5156 1.5156v15.152h6.1875c0.71875-4.3008 4.4609-7.5781 8.9648-7.5781 5.0195 0 9.0898 4.0703 9.0898 9.0938 0 5.0195-4.0703 9.0898-9.0898 9.0898-4.5039 0-8.2461-3.2773-8.9648-7.5742h-6.1875v15.148c0 0.83984-0.67969 1.5156-1.5156 1.5156-0.83594 0-1.5156-0.67578-1.5156-1.5156zm-66.078 40.906h13.473l8.7461-26.234c0.20312-0.62109 0.78516-1.0352 1.4375-1.0352h6.0586v-30.305h-22.48c-0.33203 0.12109-0.84375 0.32813-1.4727 0.63672-1.3164 0.64453-2.6328 1.4766-3.8555 2.5078-3.4648 2.9258-5.5234 6.8477-5.5234 12.008 0 5.1562 2.0586 9.082 5.5234 12.004 1.2227 1.0312 2.5391 1.8633 3.8555 2.5078 0.77734 0.38281 1.3711 0.60938 1.6797 0.70703 0.80859 0.25391 1.2539 1.1211 0.98438 1.9258zm84.262-36.363c3.3477 0 6.0586-2.7109 6.0586-6.0586s-2.7109-6.0625-6.0586-6.0625-6.0625 2.7148-6.0625 6.0625 2.7148 6.0586 6.0625 6.0586zm-63.637-3.0312c0 0.83984-0.67969 1.5156-1.5156 1.5156-0.83594 0-1.5156-0.67578-1.5156-1.5156v-6.0586c0-0.83594 0.67969-1.5156 1.5156-1.5156 0.83594 0 1.5156 0.67969 1.5156 1.5156zm-12.121 0c0 0.83984-0.67969 1.5156-1.5156 1.5156-0.83594 0-1.5156-0.67578-1.5156-1.5156v-6.0586c0-0.83594 0.67969-1.5156 1.5156-1.5156 0.83594 0 1.5156 0.67969 1.5156 1.5156z" fill-rule="evenodd"/>
</svg>
