<?xml version="1.0" encoding="UTF-8"?>
<svg width="100pt" height="100pt" version="1.1" viewBox="0 0 100 100" xmlns="http://www.w3.org/2000/svg">
 <g>
  <path d="m9.6484 75.438c0-0.96875-0.78516-1.7539-1.7539-1.7539h-3.5078c-0.96875 0-1.7539 0.78516-1.7539 1.7539v5.2656h7.0156z"/>
  <path d="m23.684 75.438c0-0.96875-0.78516-1.7539-1.7539-1.7539h-3.5078c-0.96875 0-1.7539 0.78516-1.7539 1.7539v5.2656h7.0156z"/>
  <path d="m37.719 1.7539c0-0.96875-0.78516-1.7539-1.7539-1.7539h-3.5078c-0.96875 0-1.7539 0.78516-1.7539 1.7539v5.2617h7.0156z"/>
  <path d="m51.754 1.7539c0-0.96875-0.78516-1.7539-1.7539-1.7539h-3.5078c-0.96875 0-1.7539 0.78516-1.7539 1.7539v5.2617h7.0156z"/>
  <path d="m65.789 1.7539c0-0.96875-0.78516-1.7539-1.7539-1.7539h-3.5078c-0.96875 0-1.7539 0.78516-1.7539 1.7539v5.2617h7.0156z"/>
  <path d="m79.824 1.7539c0-0.96875-0.78516-1.7539-1.7539-1.7539h-3.5078c-0.96875 0-1.7539 0.78516-1.7539 1.7539v5.2617h7.0156z"/>
  <path d="m93.859 1.7539c0-0.96875-0.78516-1.7539-1.7539-1.7539h-3.5078c-0.96875 0-1.7539 0.78516-1.7539 1.7539v5.2617h7.0156z"/>
  <path d="m39.473 52.633h-3.5078c-0.96875 0-1.7539 0.78516-1.7539 1.7539v5.2617h7.0156v-5.2617c0-0.96875-0.78516-1.7539-1.7539-1.7539z"/>
  <path d="m81.578 73.684h-3.5078c-0.96875 0-1.7539 0.78516-1.7539 1.7539v5.2656h7.0156v-5.2656c0-0.96875-0.78516-1.7539-1.7539-1.7539z"/>
  <path d="m97.367 75.438c0-0.96875-0.78516-1.7539-1.7539-1.7539h-3.5078c-0.96875 0-1.7539 0.78516-1.7539 1.7539v5.2656h7.0156z"/>
  <path d="m78.07 31.578c-0.96875 0-1.7539 0.78516-1.7539 1.7539v5.2656h7.0156v-5.2656c0-0.96875-0.78516-1.7539-1.7539-1.7539z"/>
  <path d="m92.105 31.578c-0.96875 0-1.7539 0.78516-1.7539 1.7539v5.2656h7.0156v-5.2656c0-0.96875-0.78516-1.7539-1.7539-1.7539z"/>
  <path d="m97.367 40.352h-45.613c-0.96875 0-1.7539 0.78516-1.7539 1.7539v14.035c0 0.96875 0.78516 1.7539 1.7539 1.7539h45.613c0.96875 0 1.7539-0.78516 1.7539-1.7539v-14.035c0-0.96875-0.78516-1.7539-1.7539-1.7539z"/>
  <path d="m97.367 82.457h-33.332c-0.96875 0-1.7539 0.78516-1.7539 1.7539v14.035c0 0.96875 0.78516 1.7539 1.7539 1.7539h33.332c0.96875 0 1.7539-0.78516 1.7539-1.7539v-14.035c0-0.96875-0.78516-1.7539-1.7539-1.7539z"/>
  <path d="m32.457 63.156v14.035c0 0.96875 0.78516 1.7539 1.7539 1.7578h31.578c0.96875-0.003907 1.7539-0.78906 1.7539-1.7578v-14.035c0-0.96875-0.78516-1.75-1.7539-1.7539h-31.578c-0.96875 0.003906-1.7539 0.78516-1.7539 1.7539z"/>
  <path d="m30.703 15.789h63.156c0.96875 0 1.7539-0.78516 1.7539-1.7539v-3.5078c0-0.96875-0.78516-1.7539-1.7539-1.7539h-63.156c-0.96875 0-1.7539 0.78516-1.7539 1.7539v3.5078c0 0.96875 0.78516 1.7539 1.7539 1.7539z"/>
  <path d="m48.246 82.457h-45.613c-0.96875 0-1.7539 0.78516-1.7539 1.7539v14.035c0 0.96875 0.78516 1.7539 1.7539 1.7539h45.613c0.96875 0 1.7539-0.78516 1.7539-1.7539v-14.035c0-0.96875-0.78516-1.7539-1.7539-1.7539z"/>
  <path d="m65.789 36.844c0.96875-0.003906 1.7539-0.78906 1.7539-1.7578v-14.035c0-0.96484-0.78516-1.75-1.7539-1.7539h-21.051c-0.96875 0.003906-1.7539 0.78906-1.7539 1.7539v14.035c0 0.96875 0.78516 1.7539 1.7539 1.7578z"/>
 </g>
</svg>
