<?xml version="1.0" encoding="UTF-8"?>
<svg width="100pt" height="100pt" version="1.1" viewBox="0 0 100 100" xmlns="http://www.w3.org/2000/svg">
 <g>
  <path d="m49.957 76.27c-0.007812-0.050781-0.019531-0.09375-0.03125-0.14453-0.050781-0.17969-0.12891-0.34766-0.23828-0.5l-3.9844-5.3125 3.9844-5.3125c0.41797-0.55469 0.41797-1.3203 0-1.875l-4.0625-5.4102 4.1445-6.9102c0.32812-0.54297 0.29688-1.2305-0.082031-1.7422l-4.0625-5.4102 4.1445-6.9102c0.32812-0.54297 0.29688-1.2305-0.082031-1.7422l-3.9844-5.3125 3.9844-5.3125c0.10938-0.14844 0.1875-0.32031 0.23828-0.5 0.015625-0.046875 0.023438-0.09375 0.03125-0.14453 0.027344-0.14453 0.035157-0.28906 0.023438-0.4375v-0.10156c-0.023438-0.15625-0.070313-0.30859-0.14062-0.45312-0.007813-0.019531-0.023438-0.03125-0.035156-0.046875-0.019532-0.039062-0.042969-0.074218-0.070313-0.10547-0.082031-0.125-0.18359-0.23828-0.29688-0.33594-0.023438-0.019531-0.03125-0.046875-0.054688-0.0625-0.023437-0.015625-0.03125-0.011719-0.046874-0.023438h-0.003907c-0.14844-0.10547-0.31641-0.18359-0.49219-0.23437-0.03125-0.007813-0.0625 0-0.09375-0.015626v0.003907c-0.10156-0.023438-0.20312-0.039063-0.30859-0.042969h-35.938c-4.3125 0.003906-7.8086 3.5-7.8125 7.8125v40.625c0.003906 4.3125 3.5 7.8086 7.8125 7.8125h35.949c0.15234-0.003906 0.30469-0.027344 0.44922-0.070312 0.042968-0.011719 0.078124-0.035157 0.12109-0.054688 0.10547-0.042969 0.20703-0.09375 0.30078-0.15625 0.015626-0.011719 0.035157-0.015625 0.054688-0.027344 0.015625-0.011718 0.035156-0.042968 0.054688-0.0625 0.11719-0.097656 0.21875-0.21094 0.30078-0.33594 0.023437-0.035157 0.050781-0.070313 0.070312-0.10547 0.007813-0.015625 0.023438-0.03125 0.035157-0.046875 0.070312-0.14453 0.11719-0.29688 0.14062-0.45312v-0.10156c0.015626-0.14844 0.007813-0.29688-0.019531-0.44141zm-37.457-1.2695c-2.5898 0-4.6875-2.0977-4.6875-4.6875v-40.625c0-2.5898 2.0977-4.6875 4.6875-4.6875h32.812l-2.8125 3.75c-0.41797 0.55469-0.41797 1.3203 0 1.875l4.0625 5.4102-4.1445 6.9102c-0.32812 0.54297-0.29688 1.2305 0.082031 1.7422l4.0625 5.4102-4.1445 6.9102c-0.32812 0.54297-0.29688 1.2305 0.082031 1.7422l3.9844 5.3125-3.9844 5.3125c-0.41797 0.55469-0.41797 1.3203 0 1.875l2.8125 3.75z"/>
  <path d="m87.5 21.875h-31.25c-0.035156 0-0.0625 0.019531-0.097656 0.023438-0.15234 0.011718-0.30078 0.046874-0.44531 0.10547-0.066406 0.015625-0.12891 0.039063-0.19141 0.066406-0.20312 0.10156-0.37891 0.25-0.51562 0.42969l-4.6875 6.25c-0.41797 0.55469-0.41797 1.3203 0 1.875l4.0625 5.4102-4.1445 6.9102c-0.32812 0.54297-0.29688 1.2305 0.082031 1.7422l4.0625 5.4102-4.1445 6.9102c-0.32812 0.54297-0.29688 1.2305 0.082031 1.7422l3.9844 5.3125-3.9844 5.3125c-0.41797 0.55469-0.41797 1.3203 0 1.875l4.6875 6.25c0.27734 0.37891 0.71875 0.60156 1.1875 0.60938 0.023438 0 0.039062 0.015625 0.0625 0.015625h31.25c4.3125-0.003906 7.8086-3.5 7.8125-7.8125v-40.625c-0.003906-4.3125-3.5-7.8086-7.8125-7.8125zm4.6875 48.438c0 2.5898-2.0977 4.6875-4.6875 4.6875h-30.469l-3.5156-4.6875 3.9844-5.3125c0.41797-0.55469 0.41797-1.3203 0-1.875l-4.0625-5.4102 4.1445-6.9102c0.32812-0.54297 0.29688-1.2305-0.082031-1.7422l-4.0625-5.4102 4.1445-6.9102c0.32812-0.54297 0.29688-1.2305-0.082031-1.7422l-3.9844-5.3125 3.5156-4.6875h30.469c2.5898 0 4.6875 2.0977 4.6875 4.6875z"/>
  <path d="m32.812 36.004c-0.003906-2.625-2.1289-4.75-4.7539-4.7539h-9.2422c-2.625 0.003906-4.75 2.1289-4.7539 4.7539v6.1172c0.003906 2.625 2.1289 4.75 4.7539 4.7539h9.2422c2.625-0.003906 4.75-2.1289 4.7539-4.7539zm-13.996-1.6289h3.0586v3.125h-4.6875v-1.4961c0-0.89844 0.73047-1.6289 1.6289-1.6289zm-1.6289 7.7461v-1.4961h4.6875v3.125h-3.0586c-0.89844 0-1.6289-0.73047-1.6289-1.6289zm12.5 0c0 0.89844-0.73047 1.6289-1.6289 1.6289h-3.0586v-9.375h3.0586c0.89844 0 1.6289 0.73047 1.6289 1.6289z"/>
  <path d="m78.125 56.25c-1.375 0.007812-2.7266 0.38672-3.9062 1.0938-1.1797-0.70703-2.5312-1.0859-3.9062-1.0938-4.3164 0-7.8125 3.4961-7.8125 7.8125s3.4961 7.8125 7.8125 7.8125c1.375-0.007812 2.7266-0.38672 3.9062-1.0938 1.1797 0.70703 2.5312 1.0859 3.9062 1.0938 4.3164 0 7.8125-3.4961 7.8125-7.8125s-3.4961-7.8125-7.8125-7.8125zm-3.9062 10.395c-1.0391-1.5625-1.0391-3.5938 0-5.1562 1.0391 1.5625 1.0391 3.5938 0 5.1562zm-8.5938-2.582c0-2.5898 2.0977-4.6875 4.6875-4.6875 0.47656 0.007812 0.95312 0.085938 1.4062 0.23828-1.8711 2.6719-1.8711 6.2266 0 8.8984-0.45312 0.15234-0.92969 0.23047-1.4062 0.23828-2.5898 0-4.6875-2.0977-4.6875-4.6875zm12.5 4.6875c-0.47656-0.007812-0.95312-0.085938-1.4062-0.23828 1.8711-2.6719 1.8711-6.2266 0-8.8984 0.45312-0.15234 0.92969-0.23047 1.4062-0.23828 2.5898 0 4.6875 2.0977 4.6875 4.6875s-2.0977 4.6875-4.6875 4.6875z"/>
  <path d="m18.75 57.812h-3.125c-0.86328 0-1.5625 0.69922-1.5625 1.5625s0.69922 1.5625 1.5625 1.5625h3.125c0.86328 0 1.5625-0.69922 1.5625-1.5625s-0.69922-1.5625-1.5625-1.5625z"/>
  <path d="m28.125 57.812h-3.125c-0.86328 0-1.5625 0.69922-1.5625 1.5625s0.69922 1.5625 1.5625 1.5625h3.125c0.86328 0 1.5625-0.69922 1.5625-1.5625s-0.69922-1.5625-1.5625-1.5625z"/>
  <path d="m18.75 64.062h-3.125c-0.86328 0-1.5625 0.69922-1.5625 1.5625s0.69922 1.5625 1.5625 1.5625h3.125c0.86328 0 1.5625-0.69922 1.5625-1.5625s-0.69922-1.5625-1.5625-1.5625z"/>
  <path d="m28.125 64.062h-3.125c-0.86328 0-1.5625 0.69922-1.5625 1.5625s0.69922 1.5625 1.5625 1.5625h3.125c0.86328 0 1.5625-0.69922 1.5625-1.5625s-0.69922-1.5625-1.5625-1.5625z"/>
  <path d="m37.5 57.812h-3.125c-0.86328 0-1.5625 0.69922-1.5625 1.5625s0.69922 1.5625 1.5625 1.5625h3.125c0.86328 0 1.5625-0.69922 1.5625-1.5625s-0.69922-1.5625-1.5625-1.5625z"/>
  <path d="m37.5 64.062h-3.125c-0.86328 0-1.5625 0.69922-1.5625 1.5625s0.69922 1.5625 1.5625 1.5625h3.125c0.86328 0 1.5625-0.69922 1.5625-1.5625s-0.69922-1.5625-1.5625-1.5625z"/>
 </g>
</svg>
