<?xml version="1.0" encoding="UTF-8"?>
<svg width="100pt" height="100pt" version="1.1" viewBox="0 0 100 100" xmlns="http://www.w3.org/2000/svg">
 <g>
  <path d="m50 2.5c-26.199 0-47.5 21.301-47.5 47.5s21.301 47.5 47.5 47.5 47.5-21.301 47.5-47.5-21.301-47.5-47.5-47.5zm30.801 72.898-18.102-18.098c0.10156 0.89844 0.30078 1.6992 0.60156 2.3984 1.3008 2.3008 1.8984 4.8984 1.8984 7.5v3.3984l10.102 10.102c-7.1992 5.8984-16.199 9.1992-25.398 9.1992-21.902 0-39.801-17.898-39.801-39.898 0-9.1992 3.3008-18.199 9.1992-25.398l16.301 16.301c0.5-1.3984 1.1016-2.6992 1.8984-3.8984l2-2.8984-14.898-14.805c7.1992-5.8984 16.199-9.1992 25.398-9.1992 22 0 39.898 17.898 39.898 39.898 0 9.1992-3.1992 18.199-9.0977 25.398z"/>
  <path d="m60.398 46.102c0-2.3008-0.69922-4.5-2-6.3008l-3.6992-5.5h-9.3984l-3.6992 5.5c-1.3008 1.8984-1.8984 4.1016-1.8984 6.3008 0 1.8008 0.5 3.5 1.3008 5.1016 0.80078 1.5 1.3008 3.3984 1.3008 5.5s-0.5 4-1.3008 5.5c-0.89844 1.5-1.3008 3.3008-1.3008 5.1016v4.1992c0 2.1992 1.8008 4.1016 4 4.1016h12.602c2.1992 0 4.1016-1.8008 4.1016-4.1016v-4.1992c0-1.8008-0.5-3.5-1.3008-5.1016-0.80078-1.5-1.3008-3.3984-1.3008-5.5s0.5-4 1.3008-5.5c0.79297-1.6016 1.293-3.3047 1.293-5.1016z"/>
  <path d="m45.398 31.699h9.1992c0.80078 0 1.5-0.69922 1.5-1.5v-4.1016c0-0.80078-0.69922-1.5-1.5-1.5h-9.1992c-0.89844 0-1.5 0.69922-1.5 1.5v4.1016c-0.097657 0.80078 0.60156 1.5 1.5 1.5z"/>
 </g>
</svg>
