<?xml version="1.0" encoding="UTF-8"?>
<svg width="100pt" height="100pt" version="1.1" viewBox="0 0 100 100" xmlns="http://www.w3.org/2000/svg">
 <g>
  <path d="m52.297 13.871-1.4727-2.7578c-0.96484 0.51562-1.9141 1.0977-2.8203 1.7266l1.7852 2.5664c0.80859-0.5625 1.6523-1.0781 2.5078-1.5352z"/>
  <path d="m43.574 21.609-2.5586-1.793c-0.63281 0.90234-1.2148 1.8477-1.7344 2.8164l2.7539 1.4805c0.45703-0.86328 0.97656-1.7031 1.5391-2.5039z"/>
  <path d="m47.484 17.227-2.0742-2.3398c-0.82031 0.73047-1.6094 1.5156-2.3398 2.3359l2.332 2.0781c0.64844-0.72656 1.3477-1.4258 2.082-2.0742z"/>
  <path d="m67.004 60.766 0.36719 3.1016c1.1133-0.13281 2.2266-0.33203 3.3086-0.59375l-0.73438-3.0352c-0.96094 0.23047-1.9531 0.41016-2.9414 0.52734z"/>
  <path d="m88.363 41.82c-1.9453 8.0312-7.7305 14.578-15.48 17.512l1.1055 2.9219c8.7148-3.2969 15.223-10.664 17.41-19.699z"/>
  <path d="m64.062 1.5625c-18.953 0-34.375 15.422-34.375 34.375 0 5.6055 1.3594 10.895 3.7461 15.574l-4.9844 9.9648-22.578 17.27c-2.6992 2.0625-4.3086 5.3203-4.3086 8.7188 0 6.0508 4.9219 10.973 10.973 10.973 3.3945 0 6.6562-1.6094 8.7188-4.3086l17.266-22.582 9.9648-4.9844c4.6797 2.3906 9.9727 3.75 15.578 3.75 18.953 0 34.375-15.422 34.375-34.375s-15.422-34.375-34.375-34.375zm-45.289 90.668c-1.4766 1.9297-3.8086 3.082-6.2383 3.082-4.3281 0-7.8477-3.5234-7.8477-7.8477 0-2.4297 1.1523-4.7617 3.082-6.2344l15.586-11.914 7.3359 7.3359zm13.828-18.086-6.7461-6.7461 3.6953-2.8242 5.8789 5.8789zm5.207-5.7344-6.2188-6.2188 3.7227-7.4453c2.5977 3.957 5.9844 7.3438 9.9414 9.9414zm26.254-1.2227c-17.23 0-31.25-14.02-31.25-31.25s14.02-31.25 31.25-31.25 31.25 14.02 31.25 31.25-14.02 31.25-31.25 31.25z"/>
  <path d="m65.023 53.441 19.98-11.879c1.5625-1.043 2.4961-2.7852 2.4961-4.707 0-2.6484-1.8516-4.8594-4.3242-5.4453 0.76562-1.0234 1.1992-2.25 1.1992-3.5508 0-3.3008-2.6836-5.9844-5.9844-5.9844-0.10156 0-0.19531 0.023438-0.29688 0.03125 0.007812-0.10156 0.03125-0.19922 0.03125-0.29688 0-3.3008-2.6836-5.9844-5.9844-5.9844-1.3008 0-2.5312 0.43359-3.5547 1.1992-0.58203-2.4727-2.793-4.3242-5.4414-4.3242-1.9141 0-3.6797 0.96094-4.7422 2.6172l-11.844 19.859-2.8086-2.8125-6.8984 6.8984 24.086 24.086 6.8984-6.8984zm-3.9648-36.676c0.45703-0.71484 1.2383-1.1406 2.0859-1.1406 1.3672 0 2.4805 1.1133 2.4805 2.4805v1.5625l-4.2305 4.2305 2.2109 2.2109 6.5156-6.5156c0.54297-0.54688 1.2578-0.84375 2.0195-0.84375 1.5781 0 2.8594 1.2812 2.8594 2.8594 0 0.76172-0.29688 1.4805-0.83594 2.0195l-1.8281 1.8281 2.2109 2.2109 1.8281-1.8281c0.53906-0.54297 1.2539-0.83984 2.0156-0.83984 1.5781 0 2.8594 1.2812 2.8594 2.8594 0 0.76172-0.29688 1.4805-0.83594 2.0195l-4.9531 4.9531 2.2109 2.2109 2.6641-2.668h1.5625c1.3633 0 2.4766 1.1133 2.4766 2.5234 0 0.83203-0.41406 1.6016-1.0391 2.0195l-20.594 12.242-13.906-13.906zm-19.785 22.297 2.4766-2.4766 19.664 19.664-2.4766 2.4766z"/>
  <path d="m12.5 82.812c-2.5859 0-4.6875 2.1016-4.6875 4.6875s2.1016 4.6875 4.6875 4.6875 4.6875-2.1016 4.6875-4.6875-2.1016-4.6875-4.6875-4.6875zm0 6.25c-0.85938 0-1.5625-0.69922-1.5625-1.5625s0.70312-1.5625 1.5625-1.5625 1.5625 0.69922 1.5625 1.5625-0.70312 1.5625-1.5625 1.5625z"/>
 </g>
</svg>
