<?xml version="1.0" encoding="UTF-8"?>
<svg width="100pt" height="100pt" version="1.1" viewBox="0 0 100 100" xmlns="http://www.w3.org/2000/svg">
 <g>
  <path d="m83 90.602v-81.203c0-4.1992-3.3984-7.3984-7.3984-7.3984h-51.203c-4.1992 0-7.3984 3.3984-7.3984 7.3984v81c0 4.1992 3.3984 7.3984 7.3984 7.3984h51c4.2031 0.20312 7.6016-3.1953 7.6016-7.1953zm-38.602-82.602h11.398c1 0 2 0.80078 2 2 0 1-1 2-2 2h-11.398c-1 0-2-1-2-2s0.80078-2 2-2zm5.6016 86.199c-2.3984 0-4.3984-2-4.3984-4.3984 0-2.3984 2-4.3984 4.3984-4.3984s4.3984 2 4.3984 4.3984c0 2.3984-2 4.3984-4.3984 4.3984zm23-12.598h-46v-63.203h46z"/>
  <path d="m39.801 60c0 4.8008 4.6016 7.8008 10.602 3.3984 4-2.8008 7.1992 5.8008 7-3.3984-0.19922-4.8008-3.3984-11.801-8.1992-11.801-4.8047 0-9.4023 7-9.4023 11.801z"/>
  <path d="m39 51c1.6016-0.19922 2.3984-3 2-6-0.39844-3.1992-2-5.3984-3.6016-5.1992-1.6016 0.19922-2.3984 3-2 6 0.40234 3 2 5.3984 3.6016 5.1992z"/>
  <path d="m58.199 50c1.1992 1 3.6016 0 5.1992-2.1992 1.6016-2.1992 1.8008-4.6016 0.60156-5.6016s-3.6016 0-5.1992 2.1992c-1.6016 2.2031-1.8008 4.6016-0.60156 5.6016z"/>
  <path d="m46 46.398c2-0.19922 3.3984-2.8008 3.1992-6.1992-0.19922-3.1992-2-5.8008-3.8008-5.6016-2 0.19922-3.3984 2.8008-3.1992 6.1992 0.19922 3.2031 2 5.8047 3.8008 5.6016z"/>
  <path d="m53.398 46.199c1.8008 0.39844 4-2 4.6016-5.1992s-0.39844-6-2.3984-6.3984c-2-0.39844-4 2-4.6016 5.1992-0.60156 3 0.39844 6 2.3984 6.3984z"/>
 </g>
</svg>
