<?xml version="1.0" encoding="UTF-8"?>
<svg width="100pt" height="100pt" version="1.1" viewBox="0 0 100 100" xmlns="http://www.w3.org/2000/svg">
 <g>
  <path d="m92.188 9.375h-1.5625v-1.5625c0-0.74219-0.52344-1.3828-1.25-1.5312-0.64844-0.12891-15.891-3.1562-25.312-3.1562-7.5 0-11.023 1.4375-14.062 4.1094-3.0391-2.6719-6.5625-4.1094-14.062-4.1094-9.4219 0-24.664 3.0273-25.312 3.1562-0.72656 0.14844-1.25 0.78906-1.25 1.5312v1.5625h-1.5625c-2.5898 0-4.6875 2.0977-4.6875 4.6875v75c0 2.5898 2.0977 4.6875 4.6875 4.6875h37.766c0.66406 1.875 2.4336 3.1289 4.4219 3.1289s3.7578-1.2539 4.4219-3.1289h37.766c2.5898 0 4.6875-2.0977 4.6875-4.6875v-75c0-2.5898-2.0977-4.6875-4.6875-4.6875zm-40.625 0.66016c2.6562-2.5117 5.5234-3.7852 12.5-3.7852 7.5859 0 19.559 2.125 23.438 2.8516v74.922c-5.3242-1.0078-20.781-3.3203-35.938-0.035157zm-39.062-0.9375c3.8789-0.72266 15.852-2.8477 23.438-2.8477 6.9766 0 9.8438 1.2773 12.5 3.7891v73.945c-15.156-3.2812-30.613-0.96875-35.938 0.035156zm81.25 79.965c0 0.41406-0.16406 0.8125-0.45703 1.1055s-0.69141 0.45703-1.1055 0.45703h-39.062c-0.86328 0-1.5625 0.69922-1.5625 1.5625s-0.69922 1.5625-1.5625 1.5625-1.5625-0.69922-1.5625-1.5625c0-0.41406-0.16406-0.8125-0.45703-1.1055s-0.69141-0.45703-1.1055-0.45703h-39.062c-0.86328 0-1.5625-0.69922-1.5625-1.5625v-75c0-0.86328 0.69922-1.5625 1.5625-1.5625h1.5625v73.438c0 0.47656 0.21484 0.92578 0.58984 1.2227 0.37109 0.29688 0.85938 0.40625 1.3242 0.30078 0.19922-0.046876 20.156-4.5508 38.332-0.007813 0.25 0.0625 0.50781 0.0625 0.75781 0 18.148-4.5312 38.133-0.039063 38.332 0.007813 0.46484 0.10547 0.95312-0.003907 1.3242-0.30078 0.375-0.29688 0.58984-0.74609 0.58984-1.2227v-73.438h1.5625c0.41406 0 0.8125 0.16406 1.1055 0.45703s0.45703 0.69141 0.45703 1.1055z"/>
  <path d="m84.375 14.062h-6.25v-3.125h-3.125v3.125h-10.938v-3.125h-3.125v3.125h-6.25v21.875h29.688zm-3.125 18.75h-23.438v-15.625h3.125v3.125h3.125v-3.125h10.938v3.125h3.125v-3.125h3.125z"/>
  <path d="m67.188 39.062h-12.5v21.875h12.5zm-3.125 18.75h-6.25v-15.625h6.25z"/>
  <path d="m70.312 48.438h14.062v-9.375h-14.062zm3.125-6.25h7.8125v3.125h-7.8125z"/>
  <path d="m70.312 60.938h14.062v-9.375h-14.062zm3.125-6.25h7.8125v3.125h-7.8125z"/>
  <path d="m84.375 64.062h-29.688v15.625h29.688zm-3.125 12.5h-23.438v-9.375h23.438z"/>
  <path d="m45.312 15.625h-6.25v-3.125h-3.125v3.125h-10.938v-3.125h-3.125v3.125h-6.25v34.375h29.688zm-3.125 31.25h-23.438v-3.125h23.438zm-21.875-6.25 6.25-8.332 6.25 8.332zm21.875 0h-5.4688l-4.8516-6.4727 4.1992-5.2461 6.1211 6.1172zm0-10.023-5.1445-5.1445c-0.31641-0.3125-0.75-0.48047-1.1914-0.45312-0.44531 0.023438-0.85547 0.23438-1.1328 0.58203l-4.7891 5.9844-2.1172-2.8203c-0.30859-0.375-0.76562-0.58984-1.25-0.58984s-0.94141 0.21484-1.25 0.58984l-6.5625 8.75v-18.75h3.125v3.125h3.125v-3.125h10.938v3.125h3.125v-3.125h3.125z"/>
  <path d="m35.938 78.125h3.125v-3.125h6.25v-21.875h-29.688v21.875h6.25v3.125h3.125v-3.125h10.938zm-10.938-6.25v-3.125h-3.125v3.125h-3.125v-15.625h23.438v15.625h-3.125v-3.125h-3.125v3.125z"/>
  <path d="m21.875 60.938c0 1.8945 1.1406 3.6055 2.8945 4.332 1.75 0.72266 3.7656 0.32422 5.1094-1.0156 1.3398-1.3438 1.7383-3.3594 1.0156-5.1094-0.72656-1.7539-2.4375-2.8945-4.332-2.8945-2.5898 0-4.6875 2.0977-4.6875 4.6875zm4.6875-1.5625c0.63281 0 1.2031 0.37891 1.4453 0.96484 0.23828 0.58203 0.10547 1.2539-0.33984 1.7031-0.44922 0.44531-1.1211 0.57812-1.7031 0.33984-0.58594-0.24219-0.96484-0.8125-0.96484-1.4453 0-0.86328 0.69922-1.5625 1.5625-1.5625z"/>
  <path d="m68.75 21.875h3.125v3.125h-3.125z"/>
  <path d="m64.062 26.562h3.125v3.125h-3.125z"/>
 </g>
</svg>
