<?xml version="1.0" encoding="UTF-8"?>
<svg width="100pt" height="100pt" version="1.1" viewBox="0 0 100 100" xmlns="http://www.w3.org/2000/svg">
 <g>
  <path d="m57.031 72.344c1.1211 0.94922-0.30078 2.6289-1.4219 1.6797-1.1172-0.94531 0.30078-2.625 1.4219-1.6797"/>
  <path d="m18.602 69.602c0.5 0.60156 1.1992 0.89844 1.8984 0.89844 0.30078 0 0.69922-0.10156 1-0.19922l3.6016-1.6992 23.898-11c0.80078-0.39844 1.3008-1.1992 1.3008-2.1016 0-0.19922 0-0.30078-0.10156-0.5 0.19922-0.10156 0.30078-0.19922 0.39844-0.30078 0.10156-0.10156 0.19922-0.30078 0.30078-0.39844 0.19922 0 0.30078 0.10156 0.5 0.10156 0.19922 0 0.30078 0 0.5-0.10156 0.10156 0.19922 0.19922 0.30078 0.30078 0.39844 0.39844 0.5 1 0.69922 1.6016 0.69922 0.30078 0 0.5 0 0.80078-0.10156l24.699-9.2969 3.8008-1.3008c1-0.39844 1.6016-1.3984 1.5-2.5-0.19922-2.1992-1.3008-6.6992-6.3984-12.199-5.1016-5.3984-9.5-6.8008-11.699-7.1016-0.39844-0.10156-0.69922 0-1.1016 0.10156-0.10156-0.19922-0.30078-0.39844-0.5-0.5-1.6992-1.3984-5.8008-3.6992-13.199-3.8008-7.3984-0.10156-11.5 2.1016-13.199 3.5-0.30078 0.19922-0.5 0.5-0.69922 0.80078-0.19922 0-0.5-0.10156-0.69922 0-2.1992 0.30078-6.6992 1.6016-11.898 6.8008-5.1992 5.3008-6.3984 9.6992-6.6992 11.898 0 0.39844 0 0.69922 0.10156 1-0.19922 0.10156-0.39844 0.30078-0.5 0.5-1.3008 1.8008-3.5 5.8984-3.3984 13.301 0.1875 7.5 2.5898 11.398 3.8906 13.102zm29.699-13.801l-24 11c-0.10156 0-0.19922 0-0.30078-0.10156-1.1016-1.3008-2.8984-4.3984-3-10.301-0.10156-6.1992 1.8008-9.3984 2.6016-10.5 0-0.10156 0.10156-0.10156 0.19922-0.10156h0.10156l24.398 9.5c0.10156 0 0.10156 0.10156 0.10156 0.19922-0.003906 0.20312-0.003906 0.20312-0.10156 0.30469zm-9.1992-27.102c0.10156 0 0.19922 0.10156 0.19922 0.10156l10.098 24.199v0.30078c-0.10156 0.10156-0.19922 0.10156-0.30078 0.10156l-24.602-9.6016c-0.10156 0-0.19922-0.10156-0.10156-0.19922 0.19922-1.3008 1-4.8984 5.3008-9.3008 4.3047-4.5 8.0039-5.4023 9.4062-5.6016-0.10156 0 0 0 0 0zm12.5 23.602c-0.10156 0-0.19922 0-0.19922-0.10156l-10.203-24.301c0-0.10156 0-0.19922 0.10156-0.30078 1.1016-0.80078 4.1016-2.6992 10-2.6992h0.39844c6.1992 0.10156 9.3008 2.1016 10.402 3 0.10156 0.10156 0.10156 0.19922 0.10156 0.30078l-10.398 24c-0.003907 0.10156-0.10547 0.10156-0.20313 0.10156zm2.5 1c-0.10156 0-0.19922 0-0.30078-0.10156-0.10156-0.10156-0.10156-0.19922 0-0.30078l10.398-24.199c0-0.10156 0.10156-0.10156 0.19922-0.10156 1.3008 0.19922 4.8984 1.1016 9.1016 5.6016 4.1992 4.5 5 8.1992 5.1016 9.5 0 0.10156-0.10156 0.19922-0.19922 0.19922zm12.098-28.402c1.8984 0.30078 5.8008 1.5 10.5 6.5 4.8984 5.1992 5.8008 9.3984 5.8984 11 0 0.19922-0.10156 0.39844-0.19922 0.39844l-1.6992 0.60156c-0.30078-2-1.3984-5.8984-5.6016-10.398-4.3008-4.5-8-5.8008-10-6.1992l0.69922-1.6016c0.003906-0.30078 0.20312-0.39844 0.40234-0.30078zm-26.5-1.1992c1.5-1.1992 5.1016-3.1992 12-3.1016 6.8984 0.10156 10.5 2.1992 12 3.3984 0.10156 0.10156 0.19922 0.30078 0.10156 0.5l-0.69922 1.6016c-1.6992-1.1992-5.1992-3.1016-11.398-3.1992-6.1992-0.10156-9.6992 1.6992-11.398 2.8984l-0.69922-1.6016c-0.10547-0.19531-0.003907-0.39453 0.09375-0.49609zm-13.098 7.4023c5-5.1016 9.1992-6.1016 10.801-6.3008 0.19922 0 0.39844 0.10156 0.39844 0.19922l0.69922 1.6992c-2 0.30078-5.8008 1.6016-10.199 6-4.3984 4.3984-5.5 8.1016-5.8984 10.199l-1.6992-0.60156c-0.19922-0.10156-0.30078-0.19922-0.30078-0.39844 0.29688-1.8984 1.3984-5.8984 6.1992-10.797zm-6.9023 13.297c0.10156-0.10156 0.30078-0.19922 0.5-0.10156l1.6992 0.69922c-1.1992 1.6992-2.8984 5.3008-2.8008 11.5 0.10156 6.1992 2 9.6992 3.1992 11.301l-1.6016 0.69922c-0.19922 0.10156-0.39844 0-0.5-0.10156-1.1992-1.5-3.3008-5-3.5-11.898-0.09375-6.8945 1.8047-10.496 3.0039-12.098z"/>
  <path d="m26.801 57c-2 0-3.5 1.6992-3.5 3.6016 0 1 0.39844 1.8008 1.1016 2.5 0.69922 0.60156 1.5 1 2.5 1h0.10156c2 0 3.5-1.6992 3.5-3.6016-0.10547-2-1.7031-3.6016-3.7031-3.5zm1.1992 4.6016c-0.30078 0.30078-0.69922 0.5-1.1016 0.5-0.89844 0-1.6016-0.69922-1.6016-1.5 0-0.89844 0.69922-1.6016 1.5-1.6016s1.5 0.69922 1.6016 1.5c0 0.39844-0.097657 0.80078-0.39844 1.1016z"/>
  <path d="m32.398 50.5c-0.89844 0-1.8008 0.39844-2.3984 1.1016-0.60156 0.69922-1 1.5-1 2.3984s0.39844 1.8008 1.1016 2.3984c0.60156 0.60156 1.5 1 2.3984 1h0.10156c1.8984 0 3.3984-1.6016 3.3984-3.5 0-0.89844-0.39844-1.8008-1.1016-2.3984-0.69922-0.60156-1.5977-1.1016-2.5-1zm0.10156 4.8008c-0.39844 0-0.69922-0.10156-1-0.39844-0.30078-0.30078-0.39844-0.60156-0.39844-1 0-0.39844 0.10156-0.69922 0.39844-1 0.30078-0.30078 0.60156-0.39844 1-0.39844 0.80078 0 1.3984 0.60156 1.3984 1.3984 0 0.69922-0.59766 1.3984-1.3984 1.3984z"/>
  <path d="m25.102 54c0.80078 0 1.5-0.30078 2.1016-0.89844 0.59766-0.60156 0.79688-1.3008 0.79688-2.1016 0-1.6016-1.3984-2.8984-3-2.8984h-0.10156c-1.6016 0-2.8984 1.3984-2.8984 3 0 0.80078 0.30078 1.5 0.89844 2.1016 0.70312 0.49609 1.4023 0.79688 2.2031 0.79688zm-1-2.8984c0-0.5 0.39844-1 0.89844-1s1 0.39844 1 1c0 0.30078-0.10156 0.5-0.30078 0.69922s-0.39844 0.30078-0.69922 0.30078-0.5-0.10156-0.69922-0.30078-0.19922-0.5-0.19922-0.69922z"/>
  <path d="m39.602 53c-1.5 0-2.6992 1.3008-2.6992 2.8008s1.3008 2.6992 2.6992 2.6992h0.10156c0.69922 0 1.3984-0.30078 1.8984-0.80078s0.80078-1.1992 0.80078-2c0-0.69922-0.30078-1.3984-0.80078-1.8984-0.60156-0.60156-1.3008-0.80078-2-0.80078zm0.59766 3.1992c-0.10156 0.10156-0.30078 0.19922-0.5 0.19922-0.39844 0-0.69922-0.30078-0.69922-0.69922 0-0.19922 0.10156-0.39844 0.19922-0.5 0.10156-0.10156 0.30078-0.19922 0.5-0.19922s0.39844 0.10156 0.5 0.19922c0.10156 0.10156 0.19922 0.30078 0.19922 0.5s-0.097657 0.40234-0.19922 0.5z"/>
  <path d="m28.199 43.801c0.69922 0.69922 1.6016 1 2.5 1 0.89844 0 1.8008-0.39844 2.5-1.1016 0.69922-0.69922 1-1.6016 1-2.5 0-0.89844-0.39844-1.8008-1.1016-2.5-1.3984-1.3984-3.6992-1.3984-5 0-1.2969 1.4023-1.1992 3.6992 0.10156 5.1016zm1.4023-3.6992c0.30078-0.30078 0.69922-0.5 1.1016-0.5 0.39844 0 0.80078 0.19922 1.1016 0.5 0.30078 0.30078 0.5 0.69922 0.5 1.1016 0 0.39844-0.19922 0.80078-0.5 1.1016-0.30078 0.30078-0.69922 0.5-1.1016 0.5-0.39844 0-0.80078-0.19922-1.1016-0.5-0.30078-0.30078-0.5-0.69922-0.5-1.1016 0.097657-0.40234 0.29688-0.80469 0.5-1.1016z"/>
  <path d="m37 43.102c0.60156 0.60156 1.5 1 2.3984 1 0.89844 0 1.8008-0.39844 2.3984-1 1.3008-1.3008 1.3008-3.5 0-4.8008s-3.5-1.3008-4.8008 0c-1.2969 1.3008-1.2969 3.5 0.003906 4.8008zm1.3984-3.4023c0.30078-0.30078 0.60156-0.39844 1-0.39844 0.39844 0 0.69922 0.10156 1 0.39844 0.60156 0.60156 0.60156 1.5 0 2-0.30078 0.30078-0.60156 0.39844-1 0.39844-0.39844 0-0.69922-0.10156-1-0.39844-0.5-0.59766-0.5-1.5 0-2z"/>
  <path d="m36.301 36.301c0.80078 0 1.6016-0.30078 2.1016-0.89844 1.1992-1.1992 1.1016-3 0-4.1992-0.60156-0.60156-1.3008-0.89844-2.1016-0.89844s-1.5 0.30078-2.1016 0.89844c-1.1992 1.1992-1.1016 3 0 4.1992 0.60156 0.59766 1.3008 0.89844 2.1016 0.89844zm-0.69922-3.6016c0.19922-0.19922 0.39844-0.30078 0.69922-0.30078s0.5 0.10156 0.69922 0.30078 0.30078 0.39844 0.30078 0.69922c0 0.30078-0.10156 0.5-0.30078 0.69922-0.19922 0.19922-0.39844 0.30078-0.69922 0.30078s-0.5-0.10156-0.69922-0.30078c-0.40234-0.39844-0.40234-0.99609 0-1.3984z"/>
  <path d="m41.199 49c0.5 0.5 1.1992 0.80078 1.8984 0.80078 0.69922 0 1.3984-0.30078 1.8984-0.80078s0.80078-1.1992 0.80078-1.8984c0-0.69922-0.30078-1.3984-0.80078-1.8984s-1.1992-0.80078-1.8984-0.80078c-0.69922 0-1.3984 0.30078-1.8984 0.80078-1.0977 0.99609-1.0977 2.7969 0 3.7969zm1.4023-2.3984c0.10156-0.10156 0.39844-0.19922 0.5-0.19922 0.19922 0 0.39844 0.10156 0.5 0.19922 0.10156 0.10156 0.19922 0.30078 0.19922 0.5 0 0.19922-0.10156 0.39844-0.19922 0.5-0.10156 0.10156-0.30078 0.19922-0.5 0.19922-0.19922 0-0.39844-0.10156-0.5-0.19922-0.30078-0.30078-0.30078-0.70312 0-1z"/>
  <path d="m50.898 30.699c0-2-1.6016-3.6016-3.5-3.6016-2 0-3.6016 1.6016-3.6016 3.5 0 2 1.6016 3.6016 3.5 3.6016 2.0039 0 3.6016-1.5977 3.6016-3.5zm-3.5977 1.5c-0.89844 0-1.6016-0.69922-1.6016-1.6016 0-0.89844 0.69922-1.5 1.6016-1.5 0.89844 0 1.6016 0.69922 1.5 1.6016 0.097657 0.80078-0.60156 1.5-1.5 1.5z"/>
  <path d="m53.699 39.898c0.10156 0 0.10156 0 0 0 1.8984 0 3.3984-1.5 3.5-3.3984 0-1.8984-1.5-3.3984-3.3984-3.5-1.8984 0-3.3984 1.5-3.3984 3.3984-0.10156 1.9023 1.4961 3.5 3.2969 3.5zm0.10156-4.8984c0.80078 0 1.3984 0.69922 1.3984 1.3984 0 0.80078-0.60156 1.3984-1.3984 1.3984-0.80078 0-1.3984-0.69922-1.3984-1.3984-0.003906-0.69922 0.59766-1.3984 1.3984-1.3984z"/>
  <path d="m56.801 32.102s0.097657 0 0 0c0.80078 0 1.6016-0.30078 2.1016-0.80078 0.60156-0.60156 0.89844-1.3008 0.89844-2.1016s-0.30078-1.5-0.80078-2.1016c-0.60156-0.60156-1.3008-0.89844-2.1016-0.89844-0.80078 0-1.5 0.30078-2.1016 0.80078-0.60156 0.60156-0.89844 1.3008-0.89844 2.1016 0 0.80078 0.30078 1.5 0.80078 2.1016 0.60156 0.59766 1.3008 0.89844 2.1016 0.89844zm-0.60156-3.7031c0.19922-0.19922 0.39844-0.30078 0.69922-0.30078 0.30078 0 0.5 0.10156 0.69922 0.30078 0.19922 0.19922 0.30078 0.39844 0.30078 0.69922 0 0.30078-0.10156 0.5-0.30078 0.69922-0.19922 0.19922-0.5 0.30078-0.69922 0.30078-0.30078 0-0.5-0.10156-0.69922-0.30078s-0.30078-0.39844-0.30078-0.69922c0-0.19922 0.10156-0.49609 0.30078-0.69922z"/>
  <path d="m54.5 43.602c0-1.5-1.1992-2.8008-2.6992-2.8008s-2.8008 1.1992-2.8008 2.6992c0 0.69922 0.30078 1.3984 0.80078 2s1.1992 0.80078 1.8984 0.80078 1.3984-0.30078 1.8984-0.80078c0.60156-0.5 0.90234-1.1992 0.90234-1.8984zm-2.3008 0.5c-0.10156 0.10156-0.30078 0.19922-0.5 0.19922s-0.39844-0.10156-0.5-0.19922c-0.097657-0.10156-0.19922-0.30078-0.19922-0.5 0-0.39844 0.30078-0.69922 0.69922-0.69922 0.39844 0 0.69922 0.30078 0.69922 0.80078 0.10156 0.097656 0 0.29688-0.19922 0.39844z"/>
  <path d="m66.5 38.699c0.89844 0 1.8008-0.30078 2.3984-1 0.69922-0.69922 1.1016-1.5 1.1016-2.5s-0.30078-1.8984-1-2.5c-0.69922-0.69922-1.5-1.1016-2.5-1.1016s-1.8984 0.30078-2.5 1c-1.3984 1.3008-1.5 3.6016-0.19922 5 0.80078 0.70312 1.8008 1.1016 2.6992 1.1016zm-1.1016-4.6992c0.30078-0.30078 0.69922-0.39844 1.1016-0.39844 0.39844 0 0.80078 0.19922 1.1016 0.5 0.30078 0.30078 0.39844 0.69922 0.39844 1.1016 0 0.39844-0.19922 0.80078-0.5 1.1016-0.60156 0.60156-1.6016 0.60156-2.1992-0.10156-0.5-0.60156-0.5-1.6016 0.097657-2.2031z"/>
  <path d="m66.898 40.398c-0.89844 0-1.8008 0.30078-2.5 0.89844-1.3984 1.3008-1.3984 3.5-0.10156 4.8008 0.69922 0.69922 1.6016 1.1016 2.5 1.1016 0.80078 0 1.6992-0.30078 2.3008-0.89844 0.69922-0.60156 1-1.5 1.1016-2.3984 0.10156-0.89844-0.30078-1.8008-0.89844-2.5-0.60156-0.70312-1.5-0.90234-2.4023-1.0039zm0.90234 4.5c-0.60156 0.5-1.5 0.5-2-0.10156s-0.5-1.5 0.10156-2c0.30078-0.30078 0.60156-0.39844 1-0.39844 0.39844 0 0.80078 0.19922 1 0.39844 0.30078 0.30078 0.39844 0.60156 0.39844 1-0.10156 0.50391-0.30078 0.80469-0.5 1.1016z"/>
  <path d="m72.199 38.801c-0.60156 0.5-0.89844 1.3008-0.89844 2.1016 0 0.80078 0.30078 1.5 0.80078 2.1016 0.60156 0.60156 1.3984 0.89844 2.1992 0.89844 0.69922 0 1.5-0.30078 2-0.80078 1.1992-1.1016 1.1992-3 0.10156-4.1992-1.2031-1.1016-3.1016-1.2031-4.2031-0.10156zm2.6992 2.8984c-0.39844 0.39844-1 0.30078-1.3984 0-0.19922-0.19922-0.30078-0.39844-0.30078-0.69922s0.10156-0.5 0.30078-0.69922 0.39844-0.30078 0.69922-0.30078 0.5 0.10156 0.69922 0.30078c0.19922 0.19922 0.30078 0.39844 0.30078 0.69922-0.097657 0.30078-0.19922 0.5-0.30078 0.69922z"/>
  <path d="m58.301 45.301c-1.1016 1-1.1992 2.8008-0.10156 3.8984 0.5 0.5 1.1992 0.80078 1.8984 0.89844h0.10156c0.69922 0 1.3984-0.30078 1.8984-0.69922 1.1016-1 1.1992-2.8008 0.10156-3.8984-1-1.1992-2.8008-1.1992-3.8984-0.19922zm2.3984 2.5977c-0.10156 0.10156-0.30078 0.19922-0.5 0.19922s-0.39844-0.10156-0.5-0.19922c-0.30078-0.30078-0.30078-0.80078 0-1.1016 0.10156-0.10156 0.30078-0.19922 0.5-0.19922s0.39844 0.10156 0.5 0.19922c0.40234 0.30469 0.30078 0.80469 0 1.1016z"/>
  <path d="m68 55.102c0-0.60156-0.39844-1-1-1s-1 0.39844-1 1v17.801c0 0.60156 0.39844 1 1 1s1-0.39844 1-1z"/>
  <path d="m74.199 51.199v16c0 0.60156 0.39844 1 1 1 0.60156 0 1-0.39844 1-1v-16c0-0.60156-0.39844-1-1-1-0.59766 0-1 0.40234-1 1z"/>
  <path d="m56.301 71.102c0.60156 0 1-0.39844 1-1v-10.801c0-0.60156-0.39844-1-1-1-0.60156 0-1 0.39844-1 1v10.801c0 0.5 0.39844 1 1 1z"/>
  <path d="m33.301 69.5v6.5c0 0.60156 0.39844 1 1 1 0.60156 0 1-0.39844 1-1v-6.5c0-0.60156-0.39844-1-1-1-0.60156 0-1 0.5-1 1z"/>
  <path d="m67 75.102c-0.60156 0-1 0.39844-1 1v3.1992c0 0.60156 0.39844 1 1 1s1-0.39844 1-1v-3.1992c0-0.5-0.5-1-1-1z"/>
  <path d="m39.699 75.602c-0.60156 0-1 0.39844-1 1v3.1992c0 0.60156 0.39844 1 1 1 0.60156 0 1-0.39844 1-1v-3.1992c0-0.5-0.39844-1-1-1z"/>
  <path d="m40.699 67.102c0-0.60156-0.39844-1-1-1-0.60156 0-1 0.39844-1 1v6.3008c0 0.60156 0.39844 1 1 1 0.60156 0 1-0.39844 1-1z"/>
 </g>
</svg>
