<?xml version="1.0" encoding="UTF-8"?>
<svg width="100pt" height="100pt" version="1.1" viewBox="0 0 100 100" xmlns="http://www.w3.org/2000/svg">
 <g>
  <path d="m77.25 71.133c3.1523-0.44141 5.3477-3.3672 4.8828-6.5195l-2.5195-17.691c1.25-2.2891 1.5391-4.9414 0.78906-7.4219-1.4805-4.8828-6.7305-7.6914-11.922-6.4219l-26.52 6.5742c-4.25 1.0586-7.1719 4.9023-7.25 9.1719l-26.461 6.2148c-3.0977 0.73047-5.0391 3.8477-4.3086 6.9414 0.36719 1.5 1.2695 2.7695 2.5977 3.5977 1.3086 0.80859 2.8477 1.0586 4.3477 0.71094l32.789-7.7305c0.96094 0.097656 1.9609 0 2.9219-0.23047l22.211-5.5 1.9219 13.422c0.21094 1.5195 1 2.8672 2.25 3.7891 0.86719 0.67188 1.9023 1.0586 2.9805 1.1133h-72.059v3.8477h92.309v-3.8477h-19.23c0.097656 0 0.17188 0 0.26953-0.019532z"/>
  <path d="m88.52 40.383c4.2305 0 7.6914-3.4414 7.6914-7.6914 0-4.2305-3.4609-7.6914-7.6914-7.6914-4.25 0-7.6914 3.4609-7.6914 7.6914 0 4.25 3.4414 7.6914 7.6914 7.6914z"/>
 </g>
</svg>
