<?xml version="1.0" encoding="UTF-8"?>
<svg width="100pt" height="100pt" version="1.1" viewBox="0 0 100 100" xmlns="http://www.w3.org/2000/svg">
 <path d="m92.352 23.699l-41-23.199c-1-0.5-2.1016-0.5-3.1016 0l-41.398 23.5c-0.19922 0.10156-0.5 0.30078-0.69922 0.5-0.10156 0.10156-0.19922 0.30078-0.39844 0.5-0.10156 0.10156-0.19922 0.30078-0.30078 0.5-0.10156 0.10156-0.10156 0.30078-0.10156 0.39844v0.19922c-0.10156 0.20312-0.10156 0.40234-0.10156 0.60156v48.102c0 1.1016 0.60156 2.1992 1.6016 2.6992l41.5 22.199c0.5 0.19922 1 0.39844 1.5 0.39844h0.19922c0.5 0 1-0.10156 1.5-0.39844l41.5-22.199c1-0.5 1.6016-1.6016 1.6016-2.6992l-0.003906-48.102c0.10156-1.5-0.89844-2.6992-2.2969-3zm-42.5-17l15.102 8.6016-16.301 10-15.402-9.1992zm-21.801 75l-16.602-8.8984v-19.801l16.602 8.6992zm0-22.301l-16.602-8.6992v-21.098l16.602 9.3984zm-15.5-31.5l18.602-10.602 15.5 9.1016-17.602 10.801zm36.5 65l-0.19922-0.10156-18.699-10v-20l18.699 9.8008 0.19922 0.10156zm0-22.398l-0.19922-0.10156-18.699-9.8008-0.003906-20.398 18.699 10.602 0.19922 0.10156zm0.89844-21.398l-0.097657-0.10156-18.703-10.602 17.5-10.699 19 11.199 0.10156 0.10156zm18 34.699l-16.801 9-0.19922 0.10156v-20.203l0.19922-0.10156 16.801-8.8008zm0-22.5l-16.801 8.8008-0.19922 0.10156v-19.402l17.102-9.6992v20.199zm1.8008-23.602c-0.10156-0.10156-0.10156-0.10156-0.19922-0.19922l-18.801-11.102 16.301-10 20.102 11.398 0.10156 0.10156-17.398 9.8984c-0.003907 0.003906-0.10547 0.003906-0.10547-0.097656zm18.801 35.102l-18.398 9.8984-0.003906-20.098 18.398-9.6992zm0-22.199l-18.398 9.6992-0.003906-20.301 18.398-10.5z"/>
</svg>
