<?xml version="1.0" encoding="UTF-8"?>
<svg width="100pt" height="100pt" version="1.1" viewBox="0 0 100 100" xmlns="http://www.w3.org/2000/svg">
 <path d="m23.211 61.801c-0.14063 1.1289-0.21484 2.2695-0.21484 3.418 0 7.1875 2.8281 14.012 7.9102 19.094s11.906 7.9102 19.098 7.9102c7.1875 0 14.012-2.8281 19.094-7.9102 5.082-5.082 7.9102-11.906 7.9102-19.094 0-1.1484-0.074218-2.2891-0.21484-3.418zm16.684 6.543c1.6445 0 2.9766 1.332 2.9766 2.9766 0 1.6445-1.332 2.9766-2.9766 2.9766s-2.9766-1.332-2.9766-2.9766c0-1.6445 1.332-2.9766 2.9766-2.9766zm19.68-4.2969c1.9414 0 3.5156 1.5742 3.5156 3.5156s-1.5742 3.5156-3.5156 3.5156c-1.9414 0-3.5156-1.5742-3.5156-3.5156s1.5742-3.5156 3.5156-3.5156zm-4.4453 15.723c1.3203 0 2.3906 1.0703 2.3906 2.3906 0 1.3203-1.0703 2.3906-2.3906 2.3906-1.3203 0-2.3906-1.0703-2.3906-2.3906 0-1.3203 1.0703-2.3906 2.3906-2.3906zm8.2852-73.59v26.949c6.0977 2.5469 11.309 6.7773 15.055 12.102 3.9805 5.6602 6.3164 12.555 6.3164 19.988 0 9.6055-3.8945 18.297-10.188 24.594-6.293 6.293-14.988 10.188-24.594 10.188-9.6055 0-18.301-3.8945-24.594-10.188-6.293-6.293-10.188-14.988-10.188-24.594 0-7.4336 2.3398-14.328 6.3164-19.988 3.75-5.3242 8.9609-9.5547 15.055-12.102v-26.949h-3.875v-6.1797h34.574v6.1797zm-5.0273 2.4609h-16.766v27.953l-1.668 0.60156c-5.8203 2.0859-10.805 5.9453-14.309 10.922-3.3984 4.832-5.3945 10.73-5.3945 17.102 0 8.2148 3.3281 15.652 8.7109 21.039 5.3828 5.3828 12.824 8.7148 21.039 8.7148s15.652-3.332 21.039-8.7148c5.3828-5.3828 8.7148-12.824 8.7148-21.039 0-6.3711-1.9961-12.266-5.3945-17.102-3.5039-4.9766-8.4883-8.8359-14.309-10.922l-1.668-0.60156v-27.953zm-9.8398 24.742c1.3359 0 2.418 1.082 2.418 2.4141 0 1.3359-1.082 2.418-2.418 2.418s-2.4141-1.082-2.4141-2.418 1.082-2.4141 2.4141-2.4141zm-1.6367 15.039c2.5352 0 4.5898 2.0547 4.5898 4.5898 0 2.5352-2.0547 4.5898-4.5898 4.5898s-4.5898-2.0547-4.5898-4.5898c0-2.5352 2.0547-4.5898 4.5898-4.5898z" fill-rule="evenodd"/>
</svg>
