<?xml version="1.0" encoding="UTF-8"?>
<svg width="100pt" height="100pt" version="1.1" viewBox="0 0 100 100" xmlns="http://www.w3.org/2000/svg">
 <g>
  <path d="m74.848 34.406c-3.6133 0-6.5469 2.9258-6.5469 6.5469 0 3.6172 2.9297 6.5156 6.5469 6.5156 3.6172 0 6.5469-2.8945 6.5469-6.5156s-2.9258-6.5469-6.543-6.5469zm-27.652 12.496c-0.46484 0.003906-0.76953 0.65625-0.47266 1.0156l2.7188 3.1562-0.25391 0.19141-3.7617-2.3711h-0.03125c-0.54297-0.25391-1.1289 0.66406-0.66406 1.043l3.7266 2.4336-0.0625 0.25391-3.7305-1.1719c-0.3125-0.10156-0.6875 0.13281-0.78906 0.44531s0.066406 0.65625 0.375 0.75781l4.0156 1.3594v0.37891l-3.1289 0.79297c-0.53125 0.22266-0.32031 1.2266 0.25391 1.2031l3.5117-0.63281 0.59766 0.1875 2.0859 0.53125 5.1953 7.0078c1.1094 1.0977 3.1172 1.0977 4.2305 0l5.2578-5.2266 0.023438 7.2148v11.883c0 0.15625 0.023437 0.3125 0.042969 0.46484v0.21094h0.019531c0.039062 0.21875 0.10156 0.42969 0.1875 0.63672 0.17188 0.41797 0.43359 0.80859 0.75 1.125 0.30469 0.30469 0.67188 0.54688 1.0625 0.71875l15.5-2.4102c0.050781-0.19531 0.050781-0.39844 0.0625-0.59375h-0.011719v-0.011718l-0.011719-19.168 1.0312 0.95312v3.0938l0.13281-0.13281 0.011718 0.03125c0.027344-0.039063 0.050782-0.082032 0.082032-0.12109l0.035156-0.035156c0.007812-0.007813 0.015625-0.039063 0.019531-0.050782 0.8125-1.1445 1.3125-2.5234 1.3125-4.0312v-2.7812c0-1.5977-0.54688-3.0586-1.4883-4.2266-0.79688-0.98828-2.2461-1.2891-3.5938-1.3633-0.20703-0.035156-0.4375-0.054687-0.72266-0.054687h-11.418c-1.0859 0-2.0742 0.31641-2.9922 0.75781-0.5 0.23828-1.0078 0.46094-1.4336 0.80859-0.019532 0.015625-0.046875 0.019531-0.0625 0.03125-0.33594 0.27734-0.62109 0.59766-0.90234 0.93359-0.011719 0.011719-0.023438 0.019531-0.03125 0.03125l-4.9922 4.9609-3.9414-3.6406-0.0625-0.19141-0.31641-0.85547-0.1875-1.8047c-0.011719-0.019531-0.019531-0.042969-0.03125-0.0625l-0.31641-1.4844v-1.4258c0.007812-0.32812-0.27734-0.625-0.60156-0.63281-0.32812-0.007812-0.65625 0.27344-0.66016 0.59766l-0.097656 1.3906c-0.003907 0.03125-0.003907 0.0625 0 0.09375l0.0625 1.582-0.28516 0.34766h-0.21875c-0.21875-0.078125-0.43359-0.10547-0.66406-0.125l-0.72656-0.37891-3.1602-3.4453c-0.082031-0.10156-0.21875-0.16016-0.34766-0.19141h-0.0625-0.0625zm12.797 18.648c-0.20703 0.027344-0.39844 0.17188-0.45703 0.37891-0.082031 0.27344 0.089844 0.60937 0.36328 0.69141l1.1641 0.39062c0.015625 0.007812 0.039062 0.019531 0.054688 0.027343l1.3906 0.27734 0.22266 0.33203-0.13672 0.5-0.66797 0.77734-3.6406 1.8906c-0.12891 0.070313-0.24219 0.19141-0.28125 0.33594-0.12891 0.40234 0.37109 0.85156 0.75 0.66406l3.3047-1.5547 0.11328 0.19141-2.8906 2.6953h-0.03125c-0.21094 0.19922-0.22656 0.56641-0.027344 0.77734 0.19922 0.21094 0.59375 0.22656 0.80859 0.027344l2.8867-2.6094 0.21875 0.10938-1.832 2.9141c-0.15625 0.23828-0.097657 0.59375 0.14062 0.75 0.23828 0.15625 0.62109 0.10156 0.77734-0.14063l2.082-3.082 0.28125 0.054688-0.03125 2.8594c0.050781 0.40625 0.63281 0.50781 0.91797 0.28125v-9.0273l-1.1133 0.14062-1.5547-0.28125h-0.082032l-1.3047-0.054687-1.2227-0.30469c-0.070312-0.019531-0.14062-0.027344-0.21094-0.019531zm14.07 15.41h1z"/>
  <path d="m19.945 20.711c-0.22656-0.015626-0.4375-0.011719-0.63672 0.011718-0.83203 0.097656-1.4922 0.48828-2.0273 1.0938-1.0703 1.207-1.5664 3.3047-1.3984 5.1484 0.17578 1.9414-0.12891 3.8828-0.80078 5.4766-0.39844 0.9375-0.95703 1.6953-1.6055 2.3242 2.6953-0.33594 4.5195-1.4453 5.707-2.7969-0.83594-1.125-1.3398-2.5156-1.3398-4.0273 0-2.9414 1.8789-5.4453 4.4922-6.3945-0.015626-0.023437-0.019532-0.046875-0.035157-0.070313-0.89453-0.48047-1.6797-0.71484-2.3555-0.76562zm4.7188 1.3086c-0.64453 0-1.2617 0.10547-1.8438 0.29688 0 0.007813 0.003907 0.015625 0.003907 0.023438-0.30469 0.10156-0.59766 0.22656-0.87891 0.37109v-0.027344c-0.070312 0.035156-0.13281 0.082031-0.19922 0.125-0.050782 0.03125-0.10156 0.058594-0.15625 0.09375-0.22266 0.13672-0.43359 0.28516-0.63672 0.44922-0.054687 0.042969-0.10938 0.082032-0.16016 0.12891-0.20703 0.17969-0.39844 0.37109-0.57812 0.57812-0.054688 0.0625-0.10547 0.125-0.15625 0.1875-0.15234 0.19141-0.29688 0.39062-0.42578 0.60156-0.074218 0.12109-0.13672 0.24609-0.20312 0.375-0.070313 0.13281-0.13281 0.26953-0.19141 0.40625-0.066406 0.15625-0.125 0.3125-0.17969 0.47266-0.035156 0.10156-0.058594 0.21094-0.085938 0.3125-0.042968 0.15625-0.10156 0.30469-0.12891 0.46484 0.007812 0 0.011719 0.003906 0.019531 0.003906-0.054687 0.29688-0.089843 0.59766-0.09375 0.91016-0.003906 0-0.011719-0.003907-0.015625-0.003907 0 0.050782-0.007812 0.10156-0.007812 0.15234 0 2.1797 1.1797 4.0625 2.9297 5.0781 0.003907 0 0.007813 0.003907 0.011719 0.007813 0.26953 0.15625 0.55469 0.28906 0.84766 0.40234 0.054688 0.019531 0.10547 0.039062 0.16016 0.054687 0.26172 0.089844 0.53516 0.17188 0.8125 0.22266 0.03125 0.007813 0.0625 0.019531 0.09375 0.023438v-0.011719c0.29688 0.050781 0.60156 0.085938 0.91016 0.09375 0 0.003906 0 0.007812-0.003907 0.011719 0.050782 0 0.10156 0.007812 0.15234 0.007812 1.5781 0 3.0039-0.62109 4.0547-1.6289 0.035156-0.035156 0.074218-0.066406 0.10938-0.10156 1.0664-1.0625 1.7305-2.5312 1.7305-4.1602 0-0.13672-0.023438-0.26953-0.03125-0.40625-0.007813-0.10547-0.011719-0.20703-0.023438-0.3125-0.015625-0.14062-0.039062-0.27734-0.0625-0.41016-0.042969-0.23047-0.097656-0.45703-0.16797-0.67578-0.003906-0.011719-0.003906-0.027344-0.011719-0.042969h-0.003906c-0.097656-0.30469-0.21875-0.59766-0.36328-0.87891-0.12109-0.23828-0.26172-0.46484-0.41406-0.67969 0-0.003906-0.003906-0.003906-0.007812-0.007812-0.11719-0.16406-0.24609-0.31641-0.37891-0.46875-0.046875-0.054688-0.089844-0.11328-0.14062-0.16406-0.15625-0.16797-0.32422-0.32031-0.5-0.46875-0.027344-0.023437-0.050781-0.046875-0.078125-0.070312-0.18359-0.15234-0.37891-0.28906-0.58203-0.42188-0.023437-0.015625-0.046874-0.027344-0.070312-0.042969-0.20703-0.12891-0.42188-0.24219-0.64062-0.34375-0.023437-0.011719-0.050781-0.023437-0.074219-0.03125-0.71875-0.3125-1.5039-0.50391-2.3438-0.50391h-0.003906zm24.68 11.469c-0.10938 0.027344-0.21094 0.089844-0.28125 0.17969l-2.7305 2.9609-0.60938 0.30469c-0.19922 0.019531-0.39844 0.058594-0.58984 0.125h-0.17578l-0.25391-0.30859 0.050781-1.3477v-0.074219l-0.074218-1.1992c-0.007813-0.28125-0.28125-0.51953-0.5625-0.51172-0.28125 0.007812-0.51953 0.25781-0.51172 0.53516v1.2227l-0.28125 1.2734c-0.011719 0.015624-0.019531 0.035156-0.023438 0.050781l-0.15625 1.5312-0.28125 0.73828-3.3398 3.3398-4.9297-4.3594c-0.23438-0.27734-0.47656-0.54688-0.75391-0.77344-0.015625-0.011719-0.042969-0.015625-0.054688-0.027343-1.0898-0.88281-2.4727-1.4141-3.9844-1.4141h-0.39453c-2.7969 0.66406-5.5938 1.7148-8.3906 0h-1.5273c-1.3672 0-3.0508 0.20312-3.8984 1.2578-0.84766 1.0547-1.3438 2.3711-1.3438 3.8125v2.5117c0 1.3633 0.45312 2.0664 1.1875 3.0977 0.007812 0.011719 0.011718 0.039063 0.019531 0.042969l0.03125 0.03125c0.027344 0.035157 0.046875 0.074219 0.074219 0.10938l0.011718-0.03125 4.9492 4.5039c0.33594 0.33594 0.76172 0.58594 1.2188 0.70703l8.8633 2.9375 1.1055 1.0977 0.3125 0.45312 0.28125 3.3906c0.11719 0.53516 1.0898 0.48828 1.1562-0.054688l-0.03125-3.1094 0.3125-0.054688 2.2617 3.3359c0.16797 0.25781 0.5625 0.33984 0.82031 0.17187 0.25781-0.16797 0.33594-0.5625 0.16797-0.82031l-1.9766-3.1641 0.22266-0.11328 3.1406 2.8281c0.23047 0.21484 0.63281 0.19922 0.84375-0.03125 0.21484-0.23047 0.20312-0.63281-0.027344-0.84766h-0.027344l-3.1094-2.9102 0.11328-0.22656 3.5625 1.6953c0.41016 0.20312 0.95703-0.26953 0.82031-0.70703-0.039062-0.15234-0.14453-0.28906-0.28125-0.36719l-3.957-2.0625-0.70703-0.82031-0.16797-0.53516 0.25391-0.37109 1.5-0.3125c0.019532-0.007813 0.039063-0.015626 0.054688-0.027344l1.2695-0.42578c0.29688-0.089843 0.48438-0.4375 0.39453-0.73437-0.089844-0.29688-0.4375-0.48438-0.73438-0.39453l-1.3281 0.33984-1.4102 0.054688h-0.085938l-1.668 0.28125-1.3555 0.39062-1.6836-0.42969-6.3125-2.0234-4.6328-4.6328h1.2734l3.8125 3.8125 3.0703 1c0.25781-0.47656 0.40234-1.0312 0.41406-1.6211l-1.6875-2.8945v-1.7227l0.5625 0.96875 1.9531 3.3594c0.039063 0.066406 0.058594 0.14062 0.058594 0.21484 0 0.70703-0.17188 1.3789-0.46875 1.9727l2.043 0.66406 1.7969 0.4375v-0.0625c0.007812-0.003906 0.015625 0.003907 0.023437-0.003906 0.86328-0.67578 1.4062-1.7891 1.4062-3.0117l-1.4297-2.457v-0.32422l0.070312-1.3906v-0.050781l4.8984 4.1719c0.90625 0.89453 2.5391 0.89453 3.4414 0 1.6211-1.6172 2.8008-3.1562 4.4219-4.7695l2.1211-0.60156 0.50781-0.17969 3.0117 0.53516c0.49219 0.023438 0.68359-0.82812 0.23047-1.0156l-2.7031-0.6875v-0.30859l3.4414-1.1719c0.26953-0.085937 0.42188-0.39844 0.33203-0.66406-0.085937-0.26562-0.39844-0.44141-0.66406-0.35547l-3.2109 0.99219-0.050781-0.22656 3.1875-2.0938c0.39844-0.32422-0.09375-1.1094-0.55859-0.89062h-0.027344l-3.2383 2.0391-0.20312-0.15234 2.3203-2.7305c0.25-0.30859-0.011719-0.86719-0.41016-0.86719h-0.050781c-0.019531-0.003907-0.035156-0.003907-0.050781-0.003907zm-32.746 15.441c0.46875 3.9961 1.7461 7.9883 0 11.984-0.16406 0.375 0.070313 0.80859 0.22656 1.1875 0.15625 0.37891 0.39062 0.73047 0.67578 1.0195 0.27344 0.27344 0.60547 0.49609 0.96094 0.64844 5.1914 0.45703 9.75-0.50781 13.988-2.1758 0.042969-0.17578 0.042969-0.35938 0.054687-0.53516-0.019531-0.003906-0.039062 0.003906-0.054687 0-0.097657-0.027344-0.19141-0.066406-0.28125-0.11328-0.007813-0.003906-0.019531 0.003907-0.027344 0-0.097656-0.050781-0.19531-0.12109-0.28125-0.19531-0.082031-0.070312-0.13672-0.14453-0.19922-0.22656-0.058594-0.078126-0.097656-0.14063-0.14062-0.22266-0.046875-0.09375-0.085937-0.17969-0.11328-0.28125-0.027344-0.09375-0.046875-0.18359-0.054688-0.28125l-0.14453-1.8438-0.10938-1.3008-0.68359-0.92578-8.918-3.0273c-0.61328-0.16406-1.1914-0.48438-1.6406-0.93359z"/>
 </g>
</svg>
