<?xml version="1.0" encoding="UTF-8"?>
<svg width="100pt" height="100pt" version="1.1" viewBox="0 0 100 100" xmlns="http://www.w3.org/2000/svg">
 <g>
  <path d="m19.289 92.188c5.5625 3.7891 13.031 7.8125 19.789 7.8125 1.6328 0.015625 3.2539-0.25 4.7969-0.78125l19.984-7.4375 1.2422 0.94531c0.45703 0.36719 0.93359 0.71094 1.4297 1.0234 3.9219 2.3086 8.7109 2.6016 12.883 0.78125 4.9375-2.1406 7.8125-5.3359 8.0547-8.9922s-2.9062-7.2031-3.9062-8.2031l-0.14844-0.13281 0.09375-0.046875 2.7812-0.90625c0.82031-0.26953 1.2656-1.1523 0.99609-1.9727-0.26953-0.82031-1.1523-1.2656-1.9727-0.99609l-8.4219 2.5625c-0.83203 0.23828-1.3125 1.1016-1.0742 1.9336 0.23828 0.83203 1.1016 1.3125 1.9336 1.0742l1.3125-0.375 2.4688 1.2266c1.5156 1.625 2.9375 3.9062 2.8203 5.6172-0.22656 3.2891-3.9688 5.3828-6.1797 6.3438-3.2617 1.4258-7.0039 1.207-10.078-0.58594-0.13281-0.085937-0.67969-0.50781-1.0859-0.78125-2.3438-1.7734-2.6094-2-3.5078-1.6719l-20.688 7.6562c-6.875 2.4297-16.586-3.125-21.758-6.6562-8-5.4531-18.555-13.961-17.93-24.781 0.29688-4.8516 2.5469-9.4609 4.7266-13.922 0.39844-0.78125 0.78125-1.625 1.1797-2.4375 3.1797-6.7188 9.9141-13.773 15.328-19.438l0.39844-0.42188 2.7266 0.97656c0.8125 0.29297 1.707-0.13281 2-0.94531s-0.13281-1.707-0.94531-2l-21.875-7.8125c-0.39844-0.17578-0.85156-0.17969-1.25-0.003906-0.40234 0.17188-0.71094 0.5-0.85547 0.91016-0.14453 0.41016-0.11328 0.86328 0.089844 1.25 0.20312 0.38281 0.55469 0.66797 0.97656 0.78125l15.945 5.6875c-1.6719 1.7578-3.4453 3.625-5.2031 5.5859-0.10547-0.066407-0.21875-0.12109-0.33594-0.16406l-9.375-3.125c-0.82031-0.27734-1.707 0.16406-1.9844 0.98438s0.16406 1.707 0.98438 1.9844l8.5078 2.8359c-0.9375 1.1016-1.8516 2.2188-2.7188 3.3516l-4.0156-1.3438c-0.82031-0.27344-1.707 0.16797-1.9805 0.98828-0.27344 0.82031 0.16797 1.707 0.98828 1.9805l3.0781 1.0234c-1.2344 1.7695-2.3281 3.6367-3.2656 5.5781-0.375 0.78125-0.78125 1.5625-1.1641 2.3984-2.3438 4.7344-4.6875 9.6328-5.0391 15.109-0.76562 12.406 10.617 21.664 19.242 27.531z"/>
  <path d="m73.055 9.5859c-0.09375-0.70703-0.65625-1.2617-1.3672-1.3438-0.71094-0.082032-1.3867 0.32422-1.6406 0.99219l-6.625 16.898-15.703-25.391c-0.34375-0.55859-1.0039-0.83984-1.6445-0.70703-0.64453 0.13281-1.1367 0.65234-1.2305 1.3008l-3.4375 23.25-20.312-14.016c-0.33984-0.25391-0.76953-0.35937-1.1875-0.28906-0.41797 0.066406-0.79297 0.30469-1.0352 0.65234-0.23828 0.35156-0.32812 0.78125-0.24219 1.1992 0.082032 0.41797 0.33203 0.78125 0.69141 1.0078l22.414 15.445c0.44531 0.30859 1.0195 0.36328 1.5156 0.14844s0.84375-0.67578 0.92188-1.2109l3.125-21.492 15.109 24.438c0.30859 0.50781 0.87891 0.79297 1.4727 0.74219 0.58984-0.054688 1.1016-0.4375 1.3164-0.99219l5.5859-14.281 3.5781 25.734c0.085937 0.64062 0.55859 1.1602 1.1875 1.3086 0.62891 0.14844 1.2812-0.10547 1.6484-0.63672l9.6328-13.977-1.8594 23c-0.050781 0.60937 0.26172 1.1914 0.79688 1.4883 0.53516 0.30078 1.1953 0.25781 1.6875-0.10547l7.2031-5.2891-5.6797 12.93c-0.28906 0.65625-0.09375 1.4297 0.47656 1.8672l8.0312 6.1797c0.68359 0.52734 1.6641 0.39844 2.1914-0.28516 0.52734-0.68359 0.39844-1.6641-0.28516-2.1914l-7.0312-5.4688 7.5391-17.188c0.27734-0.64453 0.09375-1.3945-0.45313-1.8359-0.54687-0.44141-1.3203-0.46484-1.8906-0.054688l-9.1953 6.7891 2.0547-25.414c0.066407-0.71094-0.35937-1.375-1.0312-1.6133-0.67187-0.23828-1.4219 0.007813-1.8203 0.59766l-10.664 15.484z"/>
  <path d="m60.117 43.75c0.62109 0 1.1836-0.36328 1.4336-0.92969 0.25-0.57031 0.14062-1.2305-0.27734-1.6875-8.9688-9.7656-17.984-9.8828-18.367-9.8828-0.86328 0-1.5625 0.69922-1.5625 1.5625s0.69922 1.5625 1.5625 1.5625c0.078125 0 8.0078 0.10156 16.055 8.8672 0.29687 0.32422 0.71484 0.50781 1.1562 0.50781z"/>
  <path d="m71.477 56.25h0.24219c0.77734 0.007812 1.4414-0.55469 1.5625-1.3203 1.2812-8.2734-6.3125-15.18-6.6328-15.469-0.64844-0.57422-1.6406-0.51953-2.2148 0.12891-0.57422 0.64844-0.51953 1.6406 0.12891 2.2148 0.070312 0.0625 6.6484 6.0703 5.6328 12.664-0.13281 0.84375 0.4375 1.6367 1.2812 1.7812z"/>
  <path d="m24.148 61.508c0.16406 2.5469 2.4297 4.5234 3.7656 5.4688 0.67188 0.45313 1.3867 0.83984 2.1328 1.1484 1.0234 0.46094 2.3438 1.1172 3.0469-0.22656 0.19141-0.36719 0.22656-0.79688 0.10156-1.1953-0.125-0.39453-0.40234-0.72266-0.77344-0.91406-0.35938-0.1875-0.72656-0.35156-1.0938-0.51562-0.55859-0.23047-1.0977-0.51172-1.6016-0.84375-1.4375-1.0234-2.4062-2.25-2.4609-3.125-0.050781-1.6289 1.0625-3.0664 2.6562-3.4219 2.0859-0.36328 4.2031 0.40625 5.5703 2.0234 0.58203 0.64844 1.5781 0.69922 2.2266 0.11719 0.3125-0.28125 0.49609-0.67188 0.51953-1.0898 0.023438-0.41797-0.12109-0.82422-0.40234-1.1367-2.0781-2.375-5.2344-3.5117-8.3516-3.0078-3.2031 0.59766-5.4805 3.4609-5.3359 6.7188z"/>
  <path d="m45.047 60.938c2.0938 0 4.1719-1.9062 5.1562-4.75 1.1953-3.4375 0.32812-6.6875-2.0312-7.5469-0.36719-0.13281-0.75-0.20312-1.1406-0.20312-2.0938 0-4.1719 1.9062-5.1562 4.75-1.1953 3.4375-0.32812 6.6875 2.0312 7.5469 0.36719 0.13281 0.75 0.20312 1.1406 0.20312z"/>
  <path d="m27.531 51.961c0.35156 0.11328 0.72266 0.17187 1.0938 0.17187 2.0703 0 4.1328-1.7266 5.1406-4.3047 0.69922-1.6172 0.72266-3.4492 0.0625-5.0859-0.41016-0.91406-1.1797-1.6172-2.125-1.9453-0.35156-0.11328-0.72266-0.17188-1.0938-0.17188-2.0703 0-4.1328 1.7266-5.1406 4.3047-0.69531 1.6133-0.72266 3.4375-0.070312 5.0703 0.40625 0.92188 1.1797 1.6328 2.1328 1.9609z"/>
  <path d="m7.1797 64.781c-0.38281 0.59375-0.32031 1.375 0.15625 1.8984l22.656 25c0.42969 0.46875 1.0977 0.63281 1.6953 0.41406l25.781-9.4453c0.625-0.23047 1.0352-0.83203 1.0195-1.5-0.011719-0.66406-0.44922-1.25-1.082-1.4531l-48.43-15.555c-0.67578-0.21875-1.4141 0.042969-1.7969 0.64062zm27.906 13.344c3.5078 0 6.25 2.0625 6.25 4.6875 0 0.86328-0.69922 1.5625-1.5625 1.5625-0.86328 0-1.5625-0.69922-1.5625-1.5625 0-0.64062-1.2188-1.5625-3.125-1.5625-0.86328 0-1.5625-0.69922-1.5625-1.5625s0.69922-1.5625 1.5625-1.5625z"/>
 </g>
</svg>
