<?xml version="1.0" encoding="UTF-8"?>
<svg width="100pt" height="100pt" version="1.1" viewBox="0 0 100 100" xmlns="http://www.w3.org/2000/svg">
 <g>
  <path d="m90.43 0h-53.711c-0.86328 0-1.5625 0.69922-1.5625 1.5625s0.69922 1.5625 1.5625 1.5625h53.711c3.5586 0.003906 6.4414 2.8867 6.4453 6.4453v58.203c-0.003906 3.5586-2.8867 6.4414-6.4453 6.4453h-54.234l7.4922-7.4922c0.60938-0.60937 0.60938-1.6016 0-2.2109s-1.6016-0.60938-2.2109 0l-30.344 30.344v-25.914c0-0.86328-0.69922-1.5625-1.5625-1.5625-0.86328 0-1.5625 0.69922-1.5625 1.5625v5.0703c-2.8672-0.71875-4.8789-3.293-4.8828-6.25v-58.195c0.003906-3.5586 2.8867-6.4414 6.4453-6.4453h14.648c0.86328 0 1.5625-0.69922 1.5625-1.5625s-0.69922-1.5625-1.5625-1.5625h-14.648c-5.2852 0.0039062-9.5664 4.2852-9.5703 9.5703v58.203c0.0078125 4.6758 3.3945 8.6641 8.0078 9.4297v21.43c0.003907 0.62891 0.38281 1.1953 0.96484 1.4375 0.58203 0.24219 1.2539 0.10938 1.6992-0.33594l22.398-22.391h57.359c5.2852-0.003906 9.5664-4.2852 9.5703-9.5703v-58.203c-0.003906-5.2852-4.2852-9.5664-9.5703-9.5703z"/>
  <path d="m34.375 23.438h-6.25c-1.7266 0-3.125 1.3984-3.125 3.125v25c0 0.82812 0.32812 1.625 0.91406 2.2109 0.58594 0.58594 1.3828 0.91406 2.2109 0.91406h6.25c0.82812 0 1.625-0.32812 2.2109-0.91406 0.58594-0.58594 0.91406-1.3828 0.91406-2.2109v-1.0859c3.0977 0.73047 5.875 2.4453 7.9219 4.8828 1.9766 2.3047 4.8633 3.6289 7.8984 3.625h17.727c2.2266 0.003906 4.2305-1.3438 5.0703-3.4062 0.32422-0.80078-0.058594-1.7148-0.85938-2.0391-0.80078-0.32422-1.7148 0.058594-2.0391 0.85938-0.35938 0.88281-1.2188 1.4609-2.1719 1.4609h-17.727c-2.125 0-4.1406-0.92578-5.5234-2.5391-2.6328-3.1406-6.2695-5.2734-10.297-6.0391v-16.227h3.6641c2.6953-0.003907 4.8789-2.1875 4.8828-4.8828v-11.57c0.039063-1.1523 0.82031-2.1445 1.9297-2.4609 0.69141-0.125 1.3984 0.066406 1.9336 0.51953 0.53125 0.45312 0.83594 1.125 0.82422 1.8242v10.156c0 0.82812 0.32812 1.625 0.91406 2.2109 0.58594 0.58594 1.3828 0.91406 2.2109 0.91406h20.312c1.293 0 2.3438 1.0508 2.3438 2.3438s-1.0508 2.3438-2.3438 2.3438h-4.6875c-0.86328 0-1.5625 0.69922-1.5625 1.5625s0.69922 1.5625 1.5625 1.5625h6.25c1.293 0 2.3438 1.0508 2.3438 2.3438s-1.0508 2.3438-2.3438 2.3438h-6.25c-0.86328 0-1.5625 0.69922-1.5625 1.5625s0.69922 1.5625 1.5625 1.5625h5.4688c1.293 0 2.3438 1.0508 2.3438 2.3438s-1.0508 2.3438-2.3438 2.3438h-5.4688c-0.86328 0-1.5625 0.69922-1.5625 1.5625s0.69922 1.5625 1.5625 1.5625h5.4688c2.1328 0.003906 4.0742-1.2344 4.9727-3.1719 0.89453-1.9375 0.58203-4.2188-0.80078-5.8438 1.3906-1.1055 2.1602-2.8164 2.0586-4.5938-0.10156-1.7734-1.0586-3.3867-2.5664-4.3281 1.1953-1.668 1.3594-3.8633 0.42187-5.6875s-2.8164-2.9688-4.8672-2.9688h-20.312v-10.156c0-1.6133-0.71094-3.1445-1.9453-4.1836-1.2344-1.0391-2.8633-1.4805-4.4531-1.207-2.6211 0.5625-4.5039 2.8594-4.5391 5.5391v11.57c0 0.97266-0.78516 1.7578-1.7578 1.7578h-3.6641v-1.3672c0-0.82812-0.32812-1.625-0.91406-2.2109-0.58594-0.58594-1.3828-0.91406-2.2109-0.91406zm-6.25 28.125v-25h6.25v25z"/>
  <path d="m32.031 1.5625c0 2.082-3.125 2.082-3.125 0s3.125-2.082 3.125 0"/>
 </g>
</svg>
