<?xml version="1.0" encoding="UTF-8"?>
<svg width="100pt" height="100pt" version="1.1" viewBox="0 0 100 100" xmlns="http://www.w3.org/2000/svg">
 <g>
  <path d="m89.062 62.5h-5.8359l7.3555-30.891c0.19922-0.83203-0.3125-1.6641-1.1406-1.875l-6.25-1.5625c-0.82422-0.20703-1.6641 0.28516-1.8867 1.1055l-9.0625 33.223h-3.5312c1.0312-1.3438 1.5977-2.9922 1.6016-4.6875v-4.6875h-4.6875c-3.7891 0.007812-7.0234 2.7344-7.6758 6.4648-1.2148-1.7578-3.1016-2.9375-5.2109-3.2539-2.1133-0.31641-4.2617 0.25391-5.9375 1.5781 3.1992-13.68 3.1992-13.852 3.1992-14.164 0-1.7539-0.73828-3.4258-2.0312-4.6094s-3.0234-1.7695-4.7695-1.6133c-1.3008-3.7617-4.8477-6.2852-8.8281-6.2852-3.9805 0-7.5234 2.5234-8.8281 6.2852-1.7461-0.15234-3.4727 0.43359-4.7656 1.6172-1.2891 1.1836-2.0273 2.8555-2.0273 4.6055 0 0.42188 0.007812 1.1328 2.6562 9.4844-0.36328-0.0625-0.72656-0.097656-1.0938-0.10938h-4.6875v4.6875c0.003906 1.6953 0.57031 3.3438 1.6016 4.6875h-6.2891c-0.86328 0-1.5625 0.69922-1.5625 1.5625 0 14.543 13.633 23.75 17.188 25.898v5.3516c0 0.41406 0.16406 0.8125 0.45703 1.1055s0.69141 0.45703 1.1055 0.45703h43.75c0.41406 0 0.8125-0.16406 1.1055-0.45703s0.45703-0.69141 0.45703-1.1055v-5.3516c3.5547-2.1484 17.188-11.355 17.188-25.898 0-0.41406-0.16406-0.8125-0.45703-1.1055s-0.69141-0.45703-1.1055-0.45703zm-5.1445-30.926 3.2656 0.81641-7.168 30.109h-4.5312zm-22.98 29.363c0-2.5898 2.0977-4.6875 4.6875-4.6875h1.5625v1.5625c0 2.5898-2.0977 4.6875-4.6875 4.6875h-1.5625zm-9.375-1.5625c1.9844 0.003906 3.7539 1.2539 4.4219 3.125h-8.8438c0.66797-1.8711 2.4375-3.1211 4.4219-3.125zm-8.0781 3.125h-8.8438c0.66406-1.875 2.4336-3.1289 4.4219-3.1289s3.7578 1.2539 4.4219 3.1289zm-21.609-18.75c-0.023438-1.0391 0.48047-2.0195 1.3398-2.6055 0.85938-0.58594 1.957-0.69531 2.9141-0.29297 0.44141 0.16797 0.93359 0.12891 1.3398-0.10937 0.40625-0.23438 0.6875-0.64063 0.76172-1.1055 0.46875-3.0312 3.0781-5.2656 6.1445-5.2656s5.6758 2.2344 6.1445 5.2656c0.074219 0.46484 0.35547 0.87109 0.76172 1.1055 0.40625 0.23828 0.89844 0.27734 1.3398 0.10937 0.94141-0.39453 2.0156-0.29687 2.8672 0.26563 0.85547 0.55859 1.375 1.5078 1.3867 2.5273-0.21094 1.1094-2.0391 8.9648-3.2422 14.109-1.3281-0.97266-2.9258-1.5-4.5703-1.5039-3.7109 0.003906-6.9102 2.6133-7.6562 6.25h-3.2812v-1.5625c-0.007812-2.3477-1.0781-4.5664-2.9102-6.0312-2.9023-9.0547-3.3086-10.863-3.3398-11.156zm-3.125 14.062v-1.5625h1.5625c2.5898 0 4.6875 2.0977 4.6875 4.6875v1.5625h-1.5625c-2.5898 0-4.6875-2.0977-4.6875-4.6875zm52.703 29.688h-7.3906v3.125h6.25v3.125h-40.625v-3.125h20.312v-3.125h-21.453c-1.7578-1.0391-10.699-6.7031-14.414-15.625h17.117v-3.125h-18.148c-0.26562-1.0234-0.44531-2.0703-0.53906-3.125h74.875c-0.09375 1.0547-0.27344 2.1016-0.53906 3.125h-33.773v3.125h32.742c-3.7148 8.9219-12.656 14.586-14.414 15.625z"/>
  <path d="m34.375 68.75h3.125v3.125h-3.125z"/>
  <path d="m40.625 68.75h3.125v3.125h-3.125z"/>
  <path d="m46.875 68.75h3.125v3.125h-3.125z"/>
  <path d="m47.641 27.117c-0.39062 0.90234-0.48438 1.9062-0.26562 2.8633 0.67188 3.1562 4.3164 6.3672 8.4727 7.4688h0.003906c3.1758 0.86328 6.4297 1.4062 9.7188 1.6133h0.054688c0.58594 0 1.1211-0.32812 1.3906-0.84766 0.26562-0.52344 0.21875-1.1484-0.12109-1.625-0.015625-0.023438-1.7656-2.457-4.7188-6.293-1.3125-1.7031-4.793-5.7188-8.793-6.1953-1.2188-0.14844-2.457 0.09375-3.5273 0.69531-1.7656-0.80469-2.9219-2.543-2.9805-4.4844h-3.125c0 2.7969 1.4805 5.3867 3.8906 6.8047zm4.9844 0.066406c0.12891 0 0.25781 0.007812 0.38672 0.023437 1.9297 0.22656 4.4922 2.1406 6.6875 5 1 1.3047 1.8633 2.4414 2.5625 3.375h0.003906c-1.8945-0.27734-3.7656-0.66016-5.6172-1.1523-3.2539-0.85938-5.8398-3.3281-6.2188-5.0977l0.003906 0.003907c-0.16406-0.58203 0.054687-1.2031 0.54688-1.5547 0.46094-0.38672 1.043-0.59766 1.6445-0.59375z"/>
  <path d="m28.125 46.875h3.125v3.125h-3.125z"/>
  <path d="m35.938 50h3.125v3.125h-3.125z"/>
  <path d="m17.102 28.125c0.41016 0.023438 1.8906 0.09375 3.8438 0.09375 3.8906 0 9.668-0.28906 12.594-1.8359h0.003907c1.9453-1.1406 3.3828-2.9805 4.0117-5.1484 0.76953-2.0586 0.68359-4.3398-0.23438-6.3359-1.9297-3.6484-7.7578-4.1875-11.488-2.2188-4.4531 2.3555-9.4805 12.074-10.039 13.172v0.003907c-0.23828 0.46875-0.22656 1.0312 0.039062 1.4883 0.26172 0.46094 0.74219 0.75391 1.2695 0.78125zm9.1094-8.6328-4.7617 2.7773c0.73438-1.1562 1.5352-2.3203 2.3438-3.3828zm1.9141 2.5v2.6719c-1.7422 0.22266-3.4961 0.35547-5.2539 0.39063zm6.4609-1.7188c-0.39063 1.3867-1.2812 2.582-2.5 3.3516-0.26953 0.12891-0.55078 0.24219-0.83594 0.33594v-3.793l3.6758-2.1445h0.003907c0.011718 0.76172-0.10547 1.5195-0.34375 2.2422zm-1.1797-4.9727-3.332 1.9453-3.8984-0.97656v-0.003906c0.34375-0.30859 0.71875-0.58594 1.1211-0.8125 1.9102-0.96484 4.1523-1.0234 6.1094-0.16016z"/>
  <path d="m70.312 15.625h3.125c0.41406 0 0.8125-0.16406 1.1055-0.45703s0.45703-0.69141 0.45703-1.1055c-0.007812-6.0391-4.8984-10.93-10.938-10.938h-3.125c-0.86328 0-1.5625 0.69922-1.5625 1.5625 0.007812 6.0391 4.8984 10.93 10.938 10.938zm-6.25-9.375c3.7109 0.003906 6.9102 2.6133 7.6562 6.25h-1.4062c-3.7109-0.003906-6.9102-2.6133-7.6562-6.25z"/>
  <path d="m51.562 15.625c1.8945 0 3.6055-1.1406 4.332-2.8945 0.72266-1.75 0.32422-3.7656-1.0156-5.1094-1.3438-1.3398-3.3594-1.7383-5.1094-1.0156-1.7539 0.72656-2.8945 2.4375-2.8945 4.332 0 2.5898 2.0977 4.6875 4.6875 4.6875zm0-6.25c0.63281 0 1.2031 0.37891 1.4453 0.96484 0.23828 0.58203 0.10547 1.2539-0.33984 1.7031-0.44922 0.44531-1.1211 0.57812-1.7031 0.33984-0.58594-0.24219-0.96484-0.8125-0.96484-1.4453 0-0.86328 0.69922-1.5625 1.5625-1.5625z"/>
  <path d="m68.75 25c0 1.8945 1.1406 3.6055 2.8945 4.332 1.75 0.72266 3.7656 0.32422 5.1094-1.0156 1.3398-1.3438 1.7383-3.3594 1.0156-5.1094-0.72656-1.7539-2.4375-2.8945-4.332-2.8945-2.5898 0-4.6875 2.0977-4.6875 4.6875zm6.25 0c0 0.63281-0.37891 1.2031-0.96484 1.4453-0.58203 0.23828-1.2539 0.10547-1.7031-0.33984-0.44531-0.44922-0.57812-1.1211-0.33984-1.7031 0.24219-0.58594 0.8125-0.96484 1.4453-0.96484 0.41406 0 0.8125 0.16406 1.1055 0.45703s0.45703 0.69141 0.45703 1.1055z"/>
  <path d="m57.812 45.312h3.125v3.125h-3.125z"/>
  <path d="m62.5 18.75h3.125v3.125h-3.125z"/>
  <path d="m37.5 4.6875h3.125v3.125h-3.125z"/>
  <path d="m70.312 39.062h3.125v3.125h-3.125z"/>
 </g>
</svg>
