<?xml version="1.0" encoding="UTF-8"?>
<svg width="100pt" height="100pt" version="1.1" viewBox="0 0 100 100" xmlns="http://www.w3.org/2000/svg">
 <g>
  <path d="m36.375 64.016c1.4375 0 2.6133-1.1602 2.6016-2.6016v-35.43c0-0.26562 0.21484-0.48047 0.48047-0.48047h17.992c1.4375 0 2.6016-1.1602 2.6016-2.6016 0-1.4375-1.1602-2.6016-2.6016-2.6016l-17.992 0.003907c-3.1328 0-5.6836 2.5508-5.6836 5.6836v35.43c0 1.4375 1.1641 2.5977 2.6016 2.5977z"/>
  <path d="m40.074 71.465l-4.6094 2.9805c-0.125 0.0625-0.25391 0.050782-0.32812 0.023438-0.089844-0.023438-0.21484-0.074219-0.28906-0.21484l-17.715-30.684c-0.089843-0.14062-0.074218-0.27734-0.050781-0.36719 0.023438-0.089844 0.074219-0.21484 0.21484-0.28906l10.922-6.5156c1.2383-0.74609 1.6406-2.3359 0.91016-3.5742-0.74609-1.2383-2.3359-1.6406-3.5742-0.91016l-10.883 6.4883c-1.3008 0.75781-2.2344 1.9805-2.625 3.4453-0.39062 1.4766-0.1875 3.0039 0.56641 4.3164l17.703 30.668c0.75781 1.3125 1.9961 2.2617 3.4609 2.6523 0.49219 0.14062 0.99609 0.20312 1.4883 0.20312 0.98438 0 1.957-0.25391 2.8398-0.75781l0.0625-0.039063 4.7344-3.0664c1.2109-0.78125 1.5547-2.3867 0.76953-3.5977-0.78125-1.2031-2.3828-1.543-3.5977-0.76172z"/>
  <path d="m87.953 40.492c-0.40234-1.4766-1.3398-2.7031-2.6523-3.4609l-15.805-9.1289c-0.85938-0.49219-1.832-0.75781-2.8281-0.75781-2.0312 0-3.9258 1.0859-4.9375 2.8398l-17.715 30.684c-0.75781 1.3125-0.96094 2.8555-0.56641 4.3164 0.40234 1.4766 1.3398 2.7031 2.6523 3.4609l15.82 9.1289c0.85938 0.49219 1.832 0.75781 2.8281 0.75781 2.0312 0 3.9141-1.0977 4.9258-2.8398l17.715-30.684c0.75391-1.3125 0.95703-2.8516 0.5625-4.3164zm-5.0859 1.7188l-17.715 30.68c-0.089844 0.17578-0.27734 0.23828-0.41797 0.23828-0.074219 0-0.15234-0.023437-0.22656-0.0625l-15.809-9.1289c-0.14062-0.074219-0.1875-0.20312-0.21484-0.28906-0.011719-0.089844-0.023437-0.22656 0.050781-0.36719l17.715-30.684c0.089844-0.17578 0.27734-0.23828 0.41797-0.23828 0.074219 0 0.15234 0.011719 0.21484 0.0625l15.809 9.1289c0.14062 0.074219 0.1875 0.20312 0.21484 0.28906 0.023438 0.09375 0.035156 0.23047-0.039062 0.37109z"/>
 </g>
</svg>
