<?xml version="1.0" encoding="UTF-8"?>
<svg width="100pt" height="100pt" version="1.1" viewBox="0 0 100 100" xmlns="http://www.w3.org/2000/svg">
 <g>
  <path d="m64.199 95.801c-1.1992 2-4 2.6016-6 1.8008l-3.8008-1.3984h-0.19922l10-3.8008c0.60156 1.1992 0.60156 2.1992 0 3.3984z"/>
  <path d="m35 88.602c-3-1.1992-16-6.1992-15.199-6-3.1992-1.1992-4.6016-4.6016-3-7.1992 1.8008-2.8008 5.6016-3.8008 8.8008-2.1992 15.602 7.3984 21 10 20.801 9.8008h0.19922c-0.40234 0.19531-10.602 4.9961-11.602 5.5977z"/>
  <path d="m50 20.199c6 0 10.801 4.8008 10.801 10.801s-4.8008 10.801-10.801 10.801-10.801-4.8008-10.801-10.801 4.8008-10.801 10.801-10.801z"/>
  <path d="m24 39.602c-4.6016-6.1992-3.6016-14.602 2.3984-19.398 6.6016-5.1992 14-9 14-14.199 0-2.1992 1.8008-4 4-4 2.1992 0 4 1.8008 4 4 0 10-10.199 15.199-17 20.602-2.3984 2-3 5.3984-1 8l8.3984 11.199c7.3984-1.3984 14.801-1.3984 22.199 0l8.3984-11.199c2-2.3984 1.3984-6-1-8-6.6016-5.3984-16.602-10.398-16.602-20.602 0-2.1992 1.8008-4 4-4s4 1.8008 4 4c0 5.1992 7.1992 9 13.602 14.199 5.8008 4.8008 6.8008 13.199 2.1992 19.199l-9.1992 12.199c-1.8008 7.3984-2.1992 14.801-1.1992 22-0.19922 0-16.602 8-15.602 7.3984l-15.195-7c0.80078-7.3984 0.39844-14.801-1.1992-22.199z"/>
  <path d="m80.199 82.801c-3.6016 1.3984 13.398-5.1992-38.398 14.801-2 0.80078-4.8008 0.19922-6-1.8008s-0.19922-4.1992 1.8008-5.1992c3.8008-1.8008-13.398 6.3984 36.801-17.398 3-1.6016 7-0.39844 8.8008 2.1992 1.7969 2.7969 0.39844 5.9961-3.0039 7.3984z"/>
 </g>
</svg>
