<?xml version="1.0" encoding="UTF-8"?>
<svg width="100pt" height="100pt" version="1.1" viewBox="0 0 100 100" xmlns="http://www.w3.org/2000/svg">
 <path d="m91.523 26.625c2.668 0 5.0703 1.6094 6.0898 4.0703 1.0234 2.4648 0.45703 5.3008-1.4258 7.1836-1.8867 1.8867-4.7227 2.4531-7.1875 1.4297-2.4609-1.0195-4.0703-3.4219-4.0703-6.0898 0.003906-3.6406 2.9531-6.5898 6.5938-6.5938m0-1.8828c-3.4258 0-6.5195 2.0664-7.832 5.2344-1.3086 3.168-0.58594 6.8125 1.8398 9.2344 2.4219 2.4258 6.0703 3.1523 9.2383 1.8398 3.1641-1.3125 5.2305-4.4023 5.2305-7.832 0-4.6797-3.793-8.4766-8.4766-8.4766zm-35.652 44.262 17.211-16.352c0.375-0.35547 0.39453-0.95312 0.035157-1.332-0.35938-0.37891-0.95703-0.39453-1.3359-0.035156l-15.836 15.051c-0.51562-3.5391-2.2188-11.41-7.625-19.52-4.1953-6.2891-9.7617-11.391-16.555-15.156-8.4453-4.6797-18.805-7.2969-30.785-7.7734-0.25-0.007813-0.49609 0.078125-0.67969 0.25-0.18359 0.16797-0.28906 0.40625-0.30078 0.65625-0.019531 0.51953 0.38281 0.95703 0.90234 0.97656 11.66 0.46094 21.719 2.9883 29.898 7.5156 6.5273 3.6172 11.871 8.4883 15.906 14.508 6.8906 10.289 7.5742 20.484 7.5742 20.582 0.019531 0.36719 0.25391 0.6875 0.59375 0.82422 0.33984 0.13281 0.73047 0.058593 0.99609-0.19531zm20.863-20.133 6.4414-5.9766c0.37891-0.35547 0.40234-0.94922 0.050781-1.332-0.35547-0.38281-0.94922-0.40234-1.332-0.050781l-6.4414 5.9727c-0.18359 0.16797-0.29297 0.40234-0.30078 0.65234-0.011719 0.25 0.078125 0.49609 0.25 0.67578 0.35156 0.38281 0.94922 0.40625 1.332 0.050781zm-0.24219-9.5625 3.7656-3.4258v0.003907c0.38281-0.35156 0.41406-0.94531 0.0625-1.332-0.35156-0.38672-0.94531-0.41406-1.332-0.0625l-3.7656 3.4258c-0.38672 0.34766-0.41406 0.94531-0.0625 1.3281 0.34766 0.38672 0.94531 0.41406 1.3281 0.0625zm9.9297 9.9297 3.7656-3.4258v0.003906c0.38672-0.34766 0.41406-0.94531 0.0625-1.332-0.34766-0.38281-0.94531-0.41016-1.3281-0.0625l-3.7656 3.4258h-0.003906c-0.38281 0.35156-0.41016 0.94531-0.0625 1.332 0.35156 0.38281 0.94531 0.41016 1.332 0.0625zm-33.973 19.645c0.14844-0.19922 0.21484-0.44922 0.17969-0.69922-0.035156-0.24609-0.16797-0.46875-0.36719-0.61719l-4.0781-3.0547c-0.41406-0.3125-1.0039-0.22656-1.3164 0.1875-0.3125 0.41797-0.22656 1.0078 0.1875 1.3203l4.0742 3.0547v-0.003907c0.19922 0.15234 0.44922 0.21484 0.69922 0.17969 0.24609-0.035156 0.46875-0.16797 0.61719-0.36719zm8.3477 0.16016 3.9219-3.2539v0.003907c0.20703-0.15625 0.33984-0.38672 0.37109-0.64453 0.027344-0.25391-0.046875-0.51172-0.21094-0.71094-0.16406-0.19922-0.40234-0.32031-0.65625-0.33984-0.25781-0.015625-0.51172 0.070313-0.70312 0.24219l-3.9219 3.2539c-0.37109 0.33984-0.41016 0.91016-0.089844 1.2969 0.32031 0.39062 0.88672 0.45703 1.2891 0.15234zm8.9805 1.9336c0-0.51953-0.42188-0.94141-0.94141-0.94141h-26.199c-0.51953 0-0.94141 0.42188-0.94141 0.94141 0 0.51953 0.42188 0.94141 0.94141 0.94141h26.199c0.51953 0 0.94141-0.42188 0.94141-0.94141zm8.4766 4.0234c0-0.51953-0.42188-0.94141-0.94141-0.94141h-26.199c-0.51953 0-0.94141 0.42188-0.94141 0.94141s0.42188 0.94141 0.94141 0.94141h26.199c0.51953 0 0.94141-0.42188 0.94141-0.94141zm6.5938-4.0234c0-0.51953-0.42188-0.94141-0.94531-0.94141h-11.984c-0.51953 0-0.94141 0.42188-0.94141 0.94141 0 0.51953 0.42188 0.94141 0.94141 0.94141h11.984c0.52344 0 0.94531-0.42188 0.94531-0.94141zm-36.73 4.1953c0-0.51953-0.42188-0.94141-0.94141-0.94141h-11.988c-0.51953 0-0.94141 0.42188-0.94141 0.94141s0.42188 0.94141 0.94141 0.94141h11.988c0.51953 0 0.94141-0.42188 0.94141-0.94141zm-9.2695-4.1953c0-0.51953-0.42188-0.94141-0.94141-0.94141h-10.141c-0.51953 0-0.94141 0.42188-0.94141 0.94141 0 0.51953 0.42188 0.94141 0.94141 0.94141h10.141c0.51953 0 0.94141-0.42188 0.94141-0.94141z"/>
</svg>
