<?xml version="1.0" encoding="UTF-8"?>
<svg width="100pt" height="100pt" version="1.1" viewBox="0 0 100 100" xmlns="http://www.w3.org/2000/svg">
 <g>
  <path d="m70.312 95.312v-16.762c0.003906-7.6953-1.2383-15.34-3.6719-22.637l-0.67969-2.0391c-1.2578-3.7695-1.8984-7.7148-1.8984-11.688v-1.9102c0.085938-5.1562 0.91016-10.27 2.4492-15.191 1.4805-5.1172 0.50781-10.633-2.6406-14.934-3.1484-4.2969-8.1133-6.8945-13.438-7.0273-4.6758-0.17188-9.207 1.6211-12.5 4.9453-4.8438 5.0703-10.996 20.383-11.25 21.031-0.19531 0.48047-0.13672 1.0273 0.14844 1.457 0.28906 0.42969 0.77344 0.6875 1.293 0.69141h4.6875v7.6406c0.003906 2.6797 2.1797 4.8555 4.8594 4.8594h4.5156v4.3203l-3.6211 7.2422c-3.7734 7.5703-5.7422 15.914-5.7539 24.375v15.625c0 0.41406 0.16406 0.8125 0.45703 1.1055s0.69141 0.45703 1.1055 0.45703h34.375c0.41406 0 0.8125-0.16406 1.1055-0.45703s0.45703-0.69141 0.45703-1.1055zm-3.125-1.5625h-31.25v-14.062c0.011719-7.9766 1.8672-15.844 5.4258-22.98l3.793-7.5703c0.10547-0.21875 0.16016-0.45703 0.15625-0.69922v-6.25c0-0.41406-0.16406-0.8125-0.45703-1.1055s-0.69141-0.45703-1.1055-0.45703h-6.0781c-0.95703 0-1.7344-0.77734-1.7344-1.7344v-5.7969c1.418 0.84766 3.0391 1.2891 4.6875 1.2812 1.8398 0.023438 3.6406-0.52344 5.1562-1.5625h1.0938c0.41406 0 0.8125 0.16406 1.1055 0.45703s0.45703 0.69141 0.45703 1.1055v21.719c-4.4727 2.625-7.5625 8.3086-8.5703 11.648-0.28516 0.95312-2.707 9.418 0.40234 13.855v-0.003906c1.0469 1.5039 2.7461 2.418 4.5742 2.4688 5.668 0.3125 10.641 0.91016 14.078 5.0352l0.80859 0.97266h0.003906c0.29688 0.35547 0.73828 0.55859 1.2031 0.55469 0.10938 0 0.21875-0.011719 0.32422-0.03125 0.5625-0.12109 1.0156-0.54297 1.1758-1.0938 0.13281-0.46875 3.2109-11.395 1.5938-19.484v-0.003906c-0.73438-3.8086-2.0586-7.4766-3.9297-10.875-0.58203-1.0391-1.3594-1.957-2.2891-2.6992v-22.062c-0.007812-6.0391-4.8984-10.93-10.938-10.938h-1.0938c-1.5156-1.0391-3.3164-1.5859-5.1562-1.5625-4.3086 0-7.8125 2.8047-7.8125 6.25h-2.3438c1.875-4.3945 6.3047-14.312 9.7266-17.891 2.6836-2.6836 6.3672-4.1289 10.164-3.9844 4.3555 0.10938 8.418 2.2344 10.992 5.7539 2.5742 3.5156 3.3711 8.0273 2.1602 12.215-1.625 5.2031-2.4883 10.609-2.5742 16.059v1.9102c0 4.3086 0.69141 8.5859 2.0547 12.672l0.67969 2.0391v0.003906c2.332 6.9805 3.5195 14.289 3.5156 21.648zm-15.625-48.438h3.125v3.125h-3.125zm0 6.25h3.125v3.3867c-1.0273-0.23438-2.0898-0.25391-3.125-0.0625zm-1.1406 6.9609c0.78906-0.43359 1.6719-0.66406 2.5703-0.68359 0.52344 0.003906 1.043 0.089844 1.5352 0.26172 1.2305 0.47656 2.2422 1.3867 2.8477 2.5547 1.707 3.1172 2.918 6.4766 3.5938 9.9609 1 5-0.0625 11.508-0.84766 15.176-4.1172-3.918-9.4961-4.543-15.102-4.8555-0.875 0.003906-1.6914-0.42188-2.1875-1.1406-1.6992-2.418-0.88281-8.125 0.03125-11.156 1.0898-3.6328 4.2148-8.4102 7.5586-10.117zm4.2656-16.336h-3.125v-7.8125c0-2.5898-2.0977-4.6875-4.6875-4.6875h-1.6211c-0.36719 0-0.71875 0.12891-1 0.35938-1.0352 0.80469-2.3164 1.2305-3.6289 1.2031-2.5391 0-4.6875-1.4297-4.6875-3.125s2.1484-3.125 4.6875-3.125c1.3125-0.027344 2.5938 0.39844 3.6289 1.2031 0.28125 0.23047 0.63281 0.35938 1 0.35938h1.6211c4.3125 0.003906 7.8086 3.5 7.8125 7.8125z"/>
  <path d="m12.422 46.875c2.4688 0.007812 4.832-0.97266 6.5742-2.7227l8.6719-8.6719c0.44531-0.44922 0.57812-1.1211 0.33594-1.7031-0.23828-0.58594-0.80859-0.96484-1.4414-0.96484h-6.25v3.125h2.4766l-6.0039 6.0039c-1.7656 1.7656-4.418 2.293-6.7266 1.3398-2.3047-0.95703-3.8086-3.207-3.8086-5.7031v-4.7656h-3.125v4.7656c0.007812 5.1328 4.1641 9.2891 9.2969 9.2969z"/>
  <path d="m31.25 45.312v-6.25c0-0.63281-0.37891-1.2031-0.96484-1.4414-0.58203-0.24219-1.2539-0.10938-1.7031 0.33594l-8.3477 8.3477c-2.9727 2.9766-3.8633 7.4492-2.2539 11.336s5.4023 6.4219 9.6094 6.4219h2.0977v-3.125h-2.0977c-2.9453 0-5.5977-1.7734-6.7227-4.4922-1.1289-2.7188-0.50391-5.8477 1.5781-7.9297l5.6797-5.6797v2.4766z"/>
 </g>
</svg>
