<?xml version="1.0" encoding="UTF-8"?>
<svg width="100pt" height="100pt" version="1.1" viewBox="0 0 100 100" xmlns="http://www.w3.org/2000/svg">
 <g>
  <path d="m79.168 83.332c-0.41797 0-0.83203 0-1.25-0.20703l-58.332-16.668c-2.293-0.625-3.543-2.918-2.918-5.207 0.625-2.293 2.918-3.543 5.207-2.918l58.332 16.668c2.293 0.625 3.543 2.918 2.918 5.207-0.41797 1.875-2.082 3.125-3.957 3.125z"/>
  <path d="m20.832 83.332c-1.875 0-3.543-1.25-3.957-3.125-0.625-2.293 0.625-4.582 2.918-5.207l58.332-16.668c2.293-0.625 4.582 0.625 5.207 2.918s-0.625 4.582-2.918 5.207l-58.332 16.668c-0.41406 0.20703-0.83203 0.20703-1.25 0.20703z"/>
  <path d="m64.582 45.832c0 8.125-6.457 14.582-14.582 14.582s-14.582-6.457-14.582-14.582c0-11.25 6.25-18.75 6.25-18.75 11.043 11.043 13.332-0.20703 10.418-10.418-0.003907 0.003907 12.496 6.2539 12.496 29.168z"/>
 </g>
</svg>
