<?xml version="1.0" encoding="UTF-8"?>
<svg width="100pt" height="100pt" version="1.1" viewBox="0 0 100 100" xmlns="http://www.w3.org/2000/svg">
 <g>
  <path d="m93.473 33.168l-13.473-3.6094v-20.809c0-2.0703-1.6797-3.75-3.75-3.75h-37.5c-2.0703 0-3.75 1.6797-3.75 3.75v7.8867l-15.488 2.0391c-0.98438 0.12891-1.8789 0.64453-2.4844 1.4336-0.60547 0.78906-0.87109 1.7852-0.74219 2.7734l1.5117 11.48-11.078 2.9688c-2 0.53516-3.1875 2.5938-2.6523 4.5938l13.59 50.711c0.25781 0.96094 0.88672 1.7812 1.7461 2.2773 0.57422 0.33203 1.2227 0.50391 1.875 0.50391 0.32422 0 0.65234-0.042969 0.97266-0.12891l35.621-9.5469 20.07 5.3789c0.32422 0.085937 0.65234 0.12891 0.97266 0.12891 1.6562 0 3.1719-1.1055 3.6211-2.7812l13.586-50.707c0.53516-2.0039-0.64844-4.0586-2.6484-4.5938zm-49.25 43.742l0.96875-3.6172 19.004-2.5039c0.68359-0.089843 1.168-0.71875 1.0742-1.4023l-0.90625-6.8867h11.887c0.69141 0 1.25-0.55859 1.25-1.25v-27.188l13.469 3.6094-12.941 48.297zm30.777-16.91h-35v-50h35zm-37.5 1.25c0 0.69141 0.55859 1.25 1.25 1.25h23.094l0.78516 5.9766-34.699 4.5703-6.5273-49.574 16.098-2.1211zm-11.887 13.359c0.042969 0.32812 0.21484 0.62891 0.48047 0.82812 0.21875 0.16797 0.48828 0.25781 0.76172 0.25781 0.054687 0 0.10938-0.003906 0.16406-0.011718l15.492-2.0391-1.0234 3.8242c-0.17969 0.66797 0.21875 1.3516 0.88281 1.5312l10.676 2.8594-30.879 8.2734-12.945-48.293 11.668-3.125z"/>
  <path d="m65.883 27.902c-1.0664-1.0664-2.4805-1.6523-3.9922-1.6523-1.5078 0-2.9258 0.58594-3.9883 1.6523l-0.40234 0.40625-0.40234-0.40234c-1.0664-1.0664-2.4844-1.6523-3.9922-1.6523-1.5078 0-2.9258 0.58594-3.9883 1.6523-1.0664 1.0664-1.6523 2.4844-1.6523 3.9883 0 1.5078 0.58594 2.9258 1.6523 3.9883l8.3828 8.3828 8.3828-8.3828c1.0664-1.0664 1.6523-2.4844 1.6523-3.9883 0-1.5078-0.58594-2.9258-1.6523-3.9922zm-0.84766 3.9922c0 0.83984-0.32812 1.6289-0.92188 2.2227l-6.6133 6.6133-6.6172-6.6172c-0.59375-0.59375-0.92187-1.3828-0.92187-2.2227s0.32812-1.6289 0.92187-2.2227 1.3828-0.92188 2.2227-0.92188c0.83984 0 1.6289 0.32812 2.2227 0.92188l2.1719 2.1719 2.1719-2.1719c1.1875-1.1875 3.2578-1.1875 4.4453 0 0.59375 0.59766 0.91797 1.3867 0.91797 2.2266z"/>
 </g>
</svg>
