<?xml version="1.0" encoding="UTF-8"?>
<svg width="100pt" height="100pt" version="1.1" viewBox="0 0 100 100" xmlns="http://www.w3.org/2000/svg">
 <path d="m78.5 26.5c3 0 5.5-2.5 5.5-5.5s-2.5-5.5-5.5-5.5-5.5 2.3984-5.5 5.5 2.5 5.5 5.5 5.5zm0-7c0.80078 0 1.5 0.69922 1.5 1.5s-0.69922 1.5-1.5 1.5-1.5-0.69922-1.5-1.5 0.69922-1.5 1.5-1.5zm-70.898 16.801c-3 0-5.5 2.5-5.5 5.5s2.5 5.5 5.5 5.5 5.5-2.5 5.5-5.5-2.5-5.5-5.5-5.5zm0 7c-0.80078 0-1.5-0.69922-1.5-1.5s0.69922-1.5 1.5-1.5c0.80078 0 1.5 0.69922 1.5 1.5s-0.70312 1.5-1.5 1.5zm80.699 22.801c0 1.3984-1.1016 2.5-2.5 2.5-1.3984 0-2.5-1.1016-2.5-2.5 0-1.3984 1.1016-2.5 2.5-2.5 1.3984 0 2.5 1.0977 2.5 2.5zm-67.699 14.297c0 1.3984-1.1016 2.5-2.5 2.5-1.3984 0-2.5-1.1016-2.5-2.5 0-1.3984 1.1016-2.5 2.5-2.5 1.3984 0 2.5 1.1016 2.5 2.5zm51.898-29.5c0-1.3984 1.1016-2.5 2.5-2.5s2.5 1.1016 2.5 2.5c0 1.3984-1.1016 2.5-2.5 2.5-1.3008 0-2.5-1.0977-2.5-2.5zm-50-21.797c0-1.3984 1.1016-2.5 2.5-2.5s2.5 1.1016 2.5 2.5c0 1.3984-1.1016 2.5-2.5 2.5s-2.5-1.1016-2.5-2.5zm59.5 47.297c0 1.1016-0.89844 2-2 2h-3v3c0 1.1016-0.89844 2-2 2s-2-0.89844-2-2v-3h-3c-1.1016 0-2-0.89844-2-2 0-1.1016 0.89844-2 2-2h3v-3c0-1.1016 0.89844-2 2-2s2 0.89844 2 2v3h3c1.1992 0 2 0.90234 2 2zm13.398-39.5c0 1.1016-0.89844 2-2 2h-3v3c0 1.1016-0.89844 2-2 2-1.1016 0-2-0.89844-2-2v-3h-3c-1.1016 0-2-0.89844-2-2 0-1.1016 0.89844-2 2-2h3v-3c0-1.1016 0.89844-2 2-2 1.1016 0 2 0.89844 2 2v3h3c1.1016 0 2 0.90234 2 2zm-88.297-23.797c0-1.1016 0.89844-2 2-2h3v-3c0-1.1016 0.89844-2 2-2 1.1016 0 2 0.89844 2 2v3h3c1.1016 0 2 0.89844 2 2 0 1.1016-0.89844 2-2 2h-3v3c0 1.1016-0.89844 2-2 2-1.1016 0-2-0.89844-2-2v-3h-3c-1.1016 0-2-0.90234-2-2zm67.898 73.398h-11.898v-14.699h1c1.1016 0 2-0.89844 2-2v-50.699c0-1.1016-0.89844-2-2-2h-1v-10c0-1.1016-0.89844-2-2-2h-9.3984l0.10156-0.10156c0.5-1 0.10156-2.1992-0.89844-2.6992s-2.1992-0.10156-2.6992 0.89844l-0.89844 1.8984h-8.3984c-1.1016 0-2 0.89844-2 2v10h-1c-1.1016 0-2 0.89844-2 2v14.199l-9.8008 20.602c-0.69922-0.19922-1.5-0.30078-2.3008-0.30078-5.3984 0-9.6992 4.3984-9.6992 9.6992s4.3984 9.6992 9.6992 9.6992c5.3984 0 9.6992-4.3984 9.6992-9.6992 0-3.1016-1.5-5.8984-3.8008-7.6992l6.1992-13v27.199c0 1.1016 0.89844 2 2 2h1v14.699l-11.906 0.003906c-1.1016 0-2 0.89844-2 2v7.1992c0 1.1016 0.89844 2 2 2h50c1.1016 0 2-0.89844 2-2v-7.1992c0-1.1016-0.80078-2-2-2zm-53.199-17.5c-3.1992 0-5.6992-2.6016-5.6992-5.6992 0-3.1016 2.6016-5.6992 5.6992-5.6992 0.89844 0 1.6992 0.19922 2.5 0.60156 1.8984 0.89844 3.3008 2.8984 3.3008 5.1992-0.10156 3.0977-2.6016 5.5977-5.8008 5.5977zm16.098-47.898h1.8008l-1.8008 3.8008zm24.203 0v3.1992h-15.902c-1.1016 0-2 0.89844-2 2 0 1.1016 0.89844 2 2 2h15.898v3.1992h-4.8984c-1.1016 0-2 0.89844-2 2s0.89844 2 2 2h4.8984v3.1992h-24.199v-3.1992h13.102c1.1016 0 2-0.89844 2-2s-0.89844-2-2-2h-11.898l5-10.5h18zm-24.203 46.699v-3.1992h4.8984c1.1016 0 2-0.89844 2-2 0-1.1016-0.89844-2-2-2h-4.8984v-3.1992h20c1.1016 0 2-0.89844 2-2 0-1.1016-0.89844-2-2-2h-20v-10.602h24.199v3.1992h-20c-1.1016 0-2 0.89844-2 2s0.89844 2 2 2h20v10.5h-13.098c-1.1016 0-2 0.89844-2 2s0.89844 2 2 2h13.102v3.1992h-24.203zm21.203-58.699v8h-13.102l3.8008-8zm-18.203 0h4.5l-3.8008 8h-0.69922zm0 62.699h18.199v14.699h-18.199zm32.102 22h-46v-3.1992h46z"/>
</svg>
