<?xml version="1.0" encoding="UTF-8"?>
<svg width="100pt" height="100pt" version="1.1" viewBox="0 0 100 100" xmlns="http://www.w3.org/2000/svg">
 <g>
  <path d="m7.8125 45.312h3.3125l6.0742 47.074c0.10156 0.78125 0.76562 1.3633 1.5508 1.3633h36.781c1.7734 1.9844 4.3086 3.1211 6.9688 3.125h2.4453c1.7188 0 3.4102-0.40234 4.9453-1.168 2.2344-1.1094 4.8594-1.1094 7.0938 0 1.5352 0.76562 3.2266 1.168 4.9453 1.168h2.4453c5.1758-0.003906 9.3711-4.1992 9.375-9.375v-9.375c-0.003906-5.1758-4.1992-9.3711-9.375-9.375h-2.4453c-1.7188 0-3.4102 0.40234-4.9453 1.168-2.2344 1.1094-4.8594 1.1094-7.0938 0-0.89062-0.4375-1.8359-0.75391-2.8125-0.9375l3.0469-23.668h3.3125c0.41406 0 0.8125-0.16406 1.1055-0.45703s0.45703-0.69141 0.45703-1.1055v-6.25c0-0.41406-0.16406-0.8125-0.45703-1.1055s-0.69141-0.45703-1.1055-0.45703h-6.25v-4.6875c0-0.41406-0.16406-0.8125-0.45703-1.1055l-7.3555-7.3555v-4.8516l2.3672-1.8945 4.0469 8.0938 2.7969-1.3984-4.3477-8.6914 1.9336-1.5469h5.7031c0.41406 0 0.8125-0.16406 1.1055-0.45703s0.45703-0.69141 0.45703-1.1055v-6.25c0-0.41406-0.16406-0.8125-0.45703-1.1055s-0.69141-0.45703-1.1055-0.45703h-15.625c-7.7617 0.007812-14.055 6.3008-14.062 14.062 0 0.41406 0.16406 0.8125 0.45703 1.1055s0.69141 0.45703 1.1055 0.45703h3.125v4.0391l-4.2305 4.2305c-0.29297 0.29297-0.45703 0.69141-0.45703 1.1055v7.8125h-3.125v-12.5c-0.003906-0.19531-0.042969-0.38672-0.11328-0.5625-0.03125-0.0625-0.0625-0.12109-0.097657-0.17969-0.039062-0.082031-0.082031-0.16016-0.13281-0.23437l-5.9062-7.3828v-10.391c0-0.41406-0.16406-0.8125-0.45703-1.1055s-0.69141-0.45703-1.1055-0.45703h-9.375c-0.86328 0-1.5625 0.69922-1.5625 1.5625v10.391l-5.9062 7.3828c-0.050781 0.074218-0.09375 0.15234-0.13281 0.23437-0.035157 0.058594-0.066407 0.11719-0.097657 0.17969-0.070312 0.17578-0.10938 0.36719-0.11328 0.5625v12.5h-6.25c-0.86328 0-1.5625 0.69922-1.5625 1.5625v6.25c0 0.41406 0.16406 0.8125 0.45703 1.1055s0.69141 0.45703 1.1055 0.45703zm76.562 48.438h-2.4453c-1.2305 0-2.4453-0.28906-3.5469-0.83594-3.1133-1.5508-6.7773-1.5508-9.8906 0-1.1016 0.54688-2.3164 0.83594-3.5469 0.83594h-2.4453c-3.4531 0-6.25-2.7969-6.25-6.25v-2.4062c1.7148 1.5469 3.9414 2.4062 6.25 2.4062h2.4453c1.7188 0 3.4102-0.40234 4.9453-1.168 2.2344-1.1094 4.8594-1.1094 7.0938 0 1.5352 0.76562 3.2266 1.168 4.9453 1.168h2.4453c2.3086 0 4.5352-0.85938 6.25-2.4062v2.4062c0 1.6562-0.66016 3.2461-1.832 4.418s-2.7617 1.832-4.418 1.832zm-5.9922-21.039c1.1016-0.54688 2.3164-0.83594 3.5469-0.83594h2.4453c3.4531 0 6.25 2.7969 6.25 6.25s-2.7969 6.25-6.25 6.25h-2.4453c-1.2305 0-2.4453-0.28906-3.5469-0.83594-3.1133-1.5508-6.7773-1.5508-9.8906 0-1.1016 0.54688-2.3164 0.83594-3.5469 0.83594h-2.4453c-3.4531 0-6.25-2.7969-6.25-6.25s2.7969-6.25 6.25-6.25h2.4453c1.2305 0 2.4453 0.28906 3.5469 0.83594 3.1172 1.5469 6.7734 1.5469 9.8906 0zm-14.434-3.9609h-1.4492c-5.1758 0.003906-9.3711 4.1992-9.375 9.375v9.375c0.003906 1.0664 0.1875 2.1211 0.54688 3.125h-33.547l-5.8477-45.312h7.5977v28.125c0 1.6562 0.66016 3.2461 1.832 4.418s2.7617 1.832 4.418 1.832h15.625c1.6562 0 3.2461-0.66016 4.418-1.832s1.832-2.7617 1.832-4.418v-13.098l4.082 2.0391v0.003906c1.1875 0.58594 2.5625 0.67188 3.8203 0.24219 1.2539-0.42969 2.2852-1.3438 2.8633-2.5352 0.60547-1.1992 0.70703-2.5938 0.28516-3.8672-0.41406-1.2773-1.3281-2.332-2.5312-2.9297l-8.5195-4.2578v-3.7227h16.973zm-20.199-29.688h3.125v10.938c-0.003906 0.59375 0.33203 1.1406 0.86328 1.4062l9.375 4.6875c0.45703 0.22656 0.80469 0.625 0.96094 1.1094 0.16406 0.52344 0.10547 1.0859-0.15625 1.5625-0.21484 0.43359-0.59375 0.76562-1.0547 0.91797-0.46094 0.15234-0.96094 0.11719-1.3945-0.097656l-6.3438-3.1719c-0.48438-0.23828-1.0547-0.20703-1.5117 0.074219-0.45703 0.28516-0.73828 0.78516-0.73828 1.3242v15.625c0 0.82812-0.32812 1.625-0.91406 2.2109-0.58594 0.58594-1.3828 0.91406-2.2109 0.91406v-14.062h-3.125v14.062h-3.125v-14.062h-3.125v14.062h-3.125v-14.062h-3.125v14.062c-1.7266 0-3.125-1.3984-3.125-3.125v-34.375zm28.125 3.125h-21.875v-3.125h21.875zm-1.5625-32.812h-3.125v-3.125h3.125zm-14.062-3.125h7.8125v3.9375l-6.7969 5.4375h-11.844c0.78516-5.3789 5.3945-9.3672 10.828-9.375zm0 12.5v3.125h-6.25v-3.125zm-10.938 10.023 3.7734-3.7734h8.082l6.8945 6.8984v4.0391h-18.75zm-22.688-11.586h7.875l3.75 4.6875h-15.375zm0.8125-10.938h6.25v7.8125h-6.25zm-6.25 18.75h18.75v10.938h-18.75zm-7.8125 14.062h12.5v3.125h-12.5z"/>
  <path d="m82.812 75h3.125v3.125h-3.125z"/>
  <path d="m67.188 75h3.125v3.125h-3.125z"/>
  <path d="m60.938 76.562h3.125v3.125h-3.125z"/>
  <path d="m76.562 76.562h3.125v3.125h-3.125z"/>
 </g>
</svg>
