<?xml version="1.0" encoding="UTF-8"?>
<svg width="100pt" height="100pt" version="1.1" viewBox="0 0 100 100" xmlns="http://www.w3.org/2000/svg">
 <g>
  <path d="m51.797 38.488c-1.3125 0-2.5156-0.86719-2.8867-2.1914-0.44531-1.5938 0.48828-3.25 2.082-3.6953l24.078-6.7227c1.5977-0.44531 3.25 0.48828 3.6953 2.082 0.44531 1.5977-0.48438 3.25-2.082 3.6953l-24.078 6.7227c-0.26953 0.074219-0.54297 0.10938-0.80859 0.10938z"/>
  <path d="m51.797 50.359c-1.3125 0-2.5156-0.86719-2.8867-2.1914-0.44531-1.5977 0.48828-3.25 2.082-3.6953l24.078-6.7227c1.5977-0.44531 3.25 0.48828 3.6953 2.082s-0.48438 3.25-2.082 3.6953l-24.078 6.7227c-0.26953 0.070312-0.54297 0.10938-0.80859 0.10938z"/>
  <path d="m9.0859 67.023c0.97266 1.2461 5.4141 6.0898 15.75 6.0898 5.2188 0 11.148-1.2539 17.633-3.7305l1.7422-0.66406v6.3906l11.434-15.473-11.859-10.375v6.4023l-0.88281 0.28906c-0.38672 0.12891-9.5625 3.1055-18.715 3.1055-6.9219 0-12.039-1.7656-15.102-5.1602z"/>
  <path d="m84.883 7.25c-1.9805 0.43359-4.4531 1.0664-7.2344 1.8242l0.003906-1.918c0-3.8867-3.25-7.875-7.0469-7.0469-10.121 2.2148-33.031 9.6328-45.004 12.207-3.7969 0.81641-7.0469 4.0195-7.0469 7.9023v18.984c-7.6055 1.4102-9.8359 5.6836-10.484 8.1523 0.66016 2.2656 1.9062 3.9531 3.2891 5.1953 1.2891 1.293 2.9922 2.2695 5.1094 2.9258 0.58984 0.19531 0.95312 0.27344 0.95312 0.27344v-0.003906c0.69531 0.17578 1.4453 0.30859 2.2188 0.42188 0.11719 0.019531 0.23438 0.035156 0.35156 0.050781 0.31641 0.042969 0.64062 0.078125 0.96875 0.10938 0.23437 0.023437 0.48047 0.039063 0.72266 0.058594 0.25 0.019531 0.5 0.039062 0.75781 0.050781 0.53125 0.027344 1.0742 0.042969 1.6406 0.046875v-34.871c-0.085937-1.9297 0.66406-3.5352 2.9219-4.1367 9.832-2.6289 43.605-11.844 43.605-11.844 0.83984 0 1.5234 0.68359 1.5234 1.5234v3.4609c-10.816 3.0742-24.078 7.0859-32.246 8.8438-3.7969 0.81641-7.0469 4.0195-7.0469 7.9023v28.336c2.1016-0.35156 3.9961-0.76953 5.5234-1.1484l-0.003906-25.797c-0.085937-1.9297 0.66406-3.5352 2.9219-4.1367 6.5273-1.7461 23.605-6.3906 34.352-9.3203l2.0234-0.55078c4.3398-1.1836 7.2344-1.9727 7.2344-1.9727 0.83984 0 1.5234 0.68359 1.5234 1.5234v65.543c0 0.83984-0.71484 1.293-1.5234 1.5234-10.84 3.082-31.828 9.9844-45.004 13.066-0.81641 0.19141-1.5234-0.68359-1.5234-1.5234v-2.9766c0.003907 0 0.003907 0 0.007813-0.003907v-6.0273c-0.003906 0-0.003906 0-0.007813 0.003906l-0.003906-10.414c-1.8906 0.5625-3.7344 1.0312-5.5234 1.3789v10.574c-2.5703 0.69531-5.0078 1.3203-7.2344 1.8438-0.81641 0.19141-1.5234-0.68359-1.5234-1.5234l0.003906-10.102c-2.0469-0.046875-3.8828-0.26562-5.5234-0.60547v10.707c0 3.8867 3.1992 7.5938 7.0469 7.0469 2.1406-0.30469 4.5859-0.80469 7.2344-1.4414v1.5352c0 3.8867 3.1992 7.5938 7.0469 7.0469 11.602-1.6484 32.402-9.1094 45.004-13.066 3.707-1.1641 7.043-2.5469 7.043-7.0469l-0.003906-65.543c0-3.8828-3.25-7.875-7.0469-7.043z"/>
 </g>
</svg>
