<?xml version="1.0" encoding="UTF-8"?>
<svg width="100pt" height="100pt" version="1.1" viewBox="0 0 100 100" xmlns="http://www.w3.org/2000/svg">
 <g>
  <path d="m82.5 44.41c-18.969-9.1172-40.883 4.8555-40.883 25.59 0 7.207 2.6484 13.824 7.207 18.824-14.117 4.1172-24.559 0.88281-31.91-9.707 1.0312-0.88281 1.9102-2.207 1.9102-3.6758l2.3516-21.176c0.14844-0.73438-0.29297-1.3242-1.0312-1.6172-0.73438-0.14844-1.4688 0.14844-1.7656 0.73437l-9.7031 18.969c-2.207 3.8242 1.0312 8.6758 5.5898 8.0898 5.8828 8.6758 13.676 13.09 23.531 13.09 4.1172 0 8.5312-0.73438 13.383-2.3516 3.8242 3.3828 8.9688 5.8828 11.91 6.3242 33.086 8.5273 50-38.238 19.41-53.094zm-71.324 29.266 6.1758-11.91-1.4688 13.383c0 0.58984-0.29297 1.0312-0.58984 1.4688-0.44141-0.58984-0.73438-1.3242-1.1758-1.9102-0.44141-0.73438-1.3242-1.0312-1.9102-0.58984-1.4688 0.73437-0.44141 2.207 0 3.2344-0.44141-0.44141-1.7656-2.3516-1.0312-3.6758zm43.824 16.766c19.559-3.6758 32.352-22.352 28.824-41.766 1.0312 0.73438 2.0586 1.4688 2.9414 2.207 4.4102 12.207 1.4688 25.883-7.793 35-4.4102 4.4102-9.8516 7.3516-15.734 8.8242-2.9453-0.88281-5.7383-2.3555-8.2383-4.2656zm2.0586-26.91c1.4688 1.1758 2.9414 2.3516 4.2656 3.6758-3.9688 5.7344-5.293 12.941-3.8242 19.707-0.73438 0.29297-1.4688 0.44141-2.3516 0.58984-4.1172-7.6523-3.3828-17.211 1.9102-23.973zm3.3828 22.352c-1.1758-5.5898-0.14844-11.469 2.9414-16.324 2.6484 3.2344 4.707 7.0586 5.8828 11.176-2.6484 2.207-5.7344 3.8242-8.8242 5.1484zm4.707-40.883c6.9102 2.793 12.5 7.9414 16.176 14.41-0.44141 3.3828-1.4688 6.7656-2.9414 9.8516-3.9688-9.8516-12.059-17.352-22.059-20.59 2.5-1.7617 5.5859-2.9375 8.8242-3.6719zm15.293 1.7656c0.58984 2.5 1.0312 5.1484 1.0312 7.6484-2.9414-3.9688-6.6172-7.3516-10.883-9.8516 3.5273-0.003906 6.9102 0.87891 9.8516 2.2031zm-27.207 4.1172c10.883 2.793 19.707 11.031 23.09 21.766-1.4688 2.3516-2.9414 4.1172-4.707 5.8828-3.5312-10.734-12.059-19.117-22.793-22.5 1.1758-1.9141 2.793-3.6797 4.4102-5.1484zm-5.8828 7.793c2.6484 0.73438 5 1.9102 7.3516 3.2344-5.7344 7.5-6.6172 17.648-2.5 26.031h-0.29297c-4.5586-4.5586-7.3516-10.883-7.3516-17.941 0-4.1172 1.0312-7.9414 2.793-11.324zm22.5 36.914c4.2656-1.7656 8.0898-4.4102 11.324-7.6484 8.5312-8.5312 12.059-20.59 10-32.207 11.473 16.766-0.58594 40-21.324 39.855z"/>
  <path d="m21.324 44.852 26.324 2.6484c4.707 1.7656 14.266-15 15.59-19.852 0.29297-0.88281 1.0312-3.3828-0.73438-4.5586-0.14844-0.14844-0.44141-0.14844-0.58984-0.14844l-29.852-3.0898-6.0312-11.617c-0.14844-0.44141-0.44141-0.73438-0.73438-1.1758-3.8281-5.4414-11.031-7.207-16.914-4.1172-6.3242 3.2344-8.6758 11.027-5.4414 17.352l9.707 18.676c1.7617 3.3828 5 5.5898 8.6758 5.8828zm-3.8242-4.5586c9.8516-2.3516 18.531-8.2344 24.41-16.324l9.1172 0.88281c-4.4102 7.6484-10.734 13.824-18.531 18.09-9.5547-1.1758-11.906-0.29297-14.996-2.6484zm31.031 4.5586c-0.29297-0.14844 0.14844 0-11.031-1.1758 7.0586-4.707 12.793-10.883 16.91-18.383l6.1758 0.58984c-0.4375 4.4102-9.2617 17.793-12.055 18.969zm-9.8555-21.176c-5.7344 7.207-13.969 12.352-23.234 14.117-0.44141-0.88281-2.0586-3.9688-3.9688-7.6484 6.7656-0.73438 13.234-3.8242 18.09-8.5312l0.29297 0.58984c0.29297 0.44141 0.73438 0.73438 1.1758 0.73438zm-10.734-4.8516c-4.707 4.8516-11.176 7.9414-18.09 8.5312l-4.2617-8.2383h2.3516c6.3242 0 12.352-3.0898 16.031-8.2344zm-18.09-13.383c4.2656-2.207 9.4102-1.0312 12.5 2.6484-3.6758 6.0312-10.734 9.1172-17.648 7.6484-0.73438-3.9727 1.1797-8.2383 5.1484-10.297z"/>
 </g>
</svg>
