<?xml version="1.0" encoding="UTF-8"?>
<svg width="100pt" height="100pt" version="1.1" viewBox="0 0 100 100" xmlns="http://www.w3.org/2000/svg">
 <g>
  <path d="m30.551 34.219c0.77344 0.38672 1.7109 0.074219 2.0977-0.69922 0.38672-0.77344 0.074218-1.7109-0.69922-2.0977-1.5781-0.79688-3.0703-1.7578-4.4492-2.8672 1.5586-1.9844 2.7188-4.2539 3.4141-6.6797h1.8984c0.86328 0 1.5625-0.69922 1.5625-1.5625s-0.69922-1.5625-1.5625-1.5625h-6.25v-1.5625c0-0.86328-0.69922-1.5625-1.5625-1.5625s-1.5625 0.69922-1.5625 1.5625v1.5625h-6.25c-0.86328 0-1.5625 0.69922-1.5625 1.5625s0.69922 1.5625 1.5625 1.5625h10.453c-0.57812 1.6523-1.4141 3.1992-2.4844 4.582-0.72266-0.72266-1.3867-1.5-1.9883-2.3242-0.48047-0.71484-1.4453-0.90234-2.1602-0.42578-0.71484 0.47656-0.91016 1.4414-0.4375 2.1602 0.71875 1.0156 1.5234 1.9648 2.4062 2.8398-1.3945 1.1641-3 2.0547-4.7266 2.6211-0.81641 0.27344-1.2617 1.1602-0.98828 1.9805 0.27344 0.82031 1.1562 1.2617 1.9766 0.98828 2.2383-0.73047 4.3086-1.9102 6.082-3.4609 1.6172 1.3164 3.3711 2.4492 5.2305 3.3828z"/>
  <path d="m45.234 26.562h23.613c2.5352 0.003906 4.5898 2.0547 4.5898 4.5898v14.16l-1.875-2.5c-0.51953-0.69141-1.4961-0.83203-2.1875-0.3125s-0.83203 1.4961-0.3125 2.1875l4.6875 6.25c0.29688 0.39453 0.75781 0.625 1.25 0.625 0.16797 0 0.33594-0.027344 0.49219-0.078125 0.64062-0.21484 1.0703-0.8125 1.0703-1.4844v-18.848c-0.003906-4.2578-3.457-7.7109-7.7148-7.7148h-23.613c-0.54688-7.0508-4.7148-13.309-11.012-16.527-6.3008-3.2148-13.816-2.9258-19.848 0.76562-6.0312 3.6914-9.707 10.254-9.707 17.324s3.6758 13.633 9.707 17.324c6.0312 3.6914 13.547 3.9805 19.848 0.76562 6.2969-3.2188 10.465-9.4766 11.012-16.527zm-37.422-1.5625c0-4.5586 1.8125-8.9297 5.0352-12.152s7.5938-5.0352 12.152-5.0352 8.9297 1.8125 12.152 5.0352 5.0352 7.5938 5.0352 12.152-1.8125 8.9297-5.0352 12.152-7.5938 5.0352-12.152 5.0352c-4.5586-0.003906-8.9258-1.8164-12.148-5.0391-3.2227-3.2227-5.0352-7.5898-5.0391-12.148z"/>
  <path d="m75 54.688c-5.1133 0.007812-10.035 1.9414-13.785 5.418-3.75 3.4727-6.0508 8.2344-6.4492 13.332h-23.613c-2.5352 0-4.5859-2.0547-4.5898-4.5898v-14.16l1.875 2.5c0.51953 0.69141 1.4961 0.83203 2.1875 0.3125s0.83203-1.4961 0.3125-2.1875l-4.6875-6.25c-0.40234-0.53906-1.1055-0.75781-1.7422-0.54297-0.64062 0.21094-1.0703 0.80859-1.0703 1.4805v18.848c0.003906 4.2578 3.457 7.7109 7.7148 7.7148h23.613c0.41016 5.2773 2.8672 10.188 6.8438 13.684 3.9805 3.4922 9.1641 5.293 14.453 5.0195 5.2852-0.27344 10.258-2.6016 13.852-6.4883 3.5938-3.8867 5.5312-9.0234 5.3906-14.316-0.13672-5.293-2.3359-10.324-6.1328-14.016-3.793-3.6953-8.8789-5.7617-14.172-5.7578zm0 37.5c-4.5586 0-8.9297-1.8125-12.152-5.0352s-5.0352-7.5938-5.0352-12.152 1.8125-8.9297 5.0352-12.152 7.5938-5.0352 12.152-5.0352 8.9297 1.8125 12.152 5.0352 5.0352 7.5938 5.0352 12.152c-0.003906 4.5586-1.8164 8.9258-5.0391 12.148-3.2227 3.2227-7.5898 5.0352-12.148 5.0391z"/>
  <path d="m76.406 66.488c-0.29297-0.49219-0.82422-0.79297-1.3984-0.79297-0.57422 0-1.1055 0.30078-1.3984 0.79297l-7.8125 15.625c-0.18359 0.37109-0.21484 0.80078-0.085937 1.1953 0.13281 0.39062 0.41406 0.71875 0.78516 0.90234 0.77344 0.38672 1.7109 0.074218 2.0977-0.69922l6.4062-12.832 2.9414 5.8828h-2.9414c-0.86328 0-1.5625 0.69922-1.5625 1.5625s0.69922 1.5625 1.5625 1.5625h4.5039l1.9102 3.8242c0.38672 0.77344 1.3242 1.0859 2.0977 0.69922 0.77344-0.38672 1.0859-1.3242 0.69922-2.0977z"/>
 </g>
</svg>
