<?xml version="1.0" encoding="UTF-8"?>
<svg width="100pt" height="100pt" version="1.1" viewBox="0 0 100 100" xmlns="http://www.w3.org/2000/svg">
 <g>
  <path d="m40.367 75.238c-13.918 0-25.238-11.324-25.238-25.238s11.32-25.238 25.238-25.238c13.914 0 25.238 11.324 25.238 25.238s-11.324 25.238-25.238 25.238zm0-49.477c-13.363 0-24.238 10.875-24.238 24.238s10.871 24.238 24.238 24.238c13.363 0 24.238-10.875 24.238-24.238s-10.875-24.238-24.238-24.238z"/>
  <path d="m40.367 85.016c-19.305 0-35.012-15.707-35.012-35.016s15.707-35.016 35.016-35.016c19.305 0 35.012 15.707 35.012 35.016s-15.707 35.016-35.016 35.016zm0-68.031c-18.203 0-33.012 14.812-33.012 33.016s14.809 33.016 33.016 33.016c18.199 0 33.012-14.812 33.012-33.016s-14.812-33.016-33.016-33.016z"/>
  <path d="m90.605 55.945h-13.184c-2.2656 0-4.043-1.2539-4.043-2.8555v-6.1836c0-1.6016 1.7734-2.8555 4.043-2.8555h13.184c2.2656 0 4.043 1.2539 4.043 2.8555v6.1836c-0.003907 1.6016-1.7773 2.8555-4.043 2.8555zm-13.184-9.8906c-1.3242 0-2.043 0.60547-2.043 0.85547v6.1836c0 0.24609 0.71484 0.85547 2.043 0.85547h13.184c1.3242 0 2.043-0.60547 2.043-0.85547v-6.1836c0-0.24609-0.71484-0.85547-2.043-0.85547z"/>
  <path d="m39.129 67.316s-14.844-7.4219-13.605-14.844c0 0 12.371 3.7109 13.605 14.844z"/>
  <path d="m38.578 59.047s-13.766-9.2695-11.582-16.469c0 0 11.789 5.2695 11.582 16.469z"/>
  <path d="m38.855 48.762s-9.7656-6.5742-8.2188-11.684c0.003906 0 8.3672 3.7422 8.2188 11.684z"/>
  <path d="m41.605 48.762s9.7656-6.5742 8.2188-11.684c0 0-8.3633 3.7422-8.2188 11.684z"/>
  <path d="m41.605 59.047s13.766-9.2695 11.582-16.469c0.003906 0-11.785 5.2695-11.582 16.469z"/>
  <path d="m41.605 67.316s14.844-7.4219 13.605-14.844c0 0-12.371 3.7109-13.605 14.844z"/>
  <path d="m40.074 33.027c-0.058594-0.074219-3.3516 5.2578-0.089844 9.4297 0 0 0.058594 0.15234 0.089844 0.11719 0.03125 0.039062 0.089843-0.11719 0.089843-0.11719 3.2656-4.1758-0.03125-9.5078-0.089843-9.4297z"/>
 </g>
</svg>
