<?xml version="1.0" encoding="UTF-8"?>
<svg width="100pt" height="100pt" version="1.1" viewBox="0 0 100 100" xmlns="http://www.w3.org/2000/svg">
 <g>
  <path d="m49.332 2.5547c-26.164 0-47.449 21.285-47.449 47.449 0.003907 26.16 21.289 47.445 47.449 47.445 26.164 0 47.449-21.285 47.449-47.449 0-26.16-21.285-47.445-47.449-47.445zm-2.5 88.973c-12.512 0-22.691-10.18-22.691-22.691 0-12.516 10.18-22.695 22.691-22.695 12.516 0 22.695 10.18 22.695 22.695 0 12.512-10.18 22.691-22.695 22.691zm-38.039-30.527c0-3.2383 2.6367-5.875 5.875-5.875s5.8711 2.6367 5.8711 5.875-2.6367 5.875-5.875 5.875c-3.2383 0-5.8711-2.6367-5.8711-5.875zm50.668-23.668c0-7.8359 6.3711-14.207 14.207-14.207 7.8359 0 14.207 6.3711 14.207 14.207-0.003906 7.8359-6.375 14.207-14.211 14.207-7.832 0-14.203-6.3711-14.203-14.207zm-10.129-30.527c12.285 0 23.383 5.1641 31.258 13.43-2.1406-0.87109-4.4766-1.3594-6.9258-1.3594-10.18 0-18.461 8.2812-18.461 18.461 0 2.2109 0.41016 4.3242 1.1289 6.2891-2.957-1.1172-6.1562-1.7344-9.5039-1.7344-10.105 0-18.922 5.5938-23.535 13.848-1.7812-2.9062-4.9805-4.8594-8.6328-4.8594-3.3828 0-6.3789 1.6758-8.2188 4.2305-0.19922-1.6758-0.3125-3.3789-0.3125-5.1055 0.007813-23.82 19.387-43.199 43.203-43.199zm-37.984 63.754c1.0391 0.36328 2.1523 0.57031 3.3164 0.57031 1.9219 0 3.7109-0.54688 5.2422-1.4805 0.19531 6.6016 2.7734 12.609 6.9023 17.199-6.4688-3.9727-11.824-9.6016-15.461-16.289zm50.09 20.898c7.418-4.8047 12.34-13.148 12.34-22.625 0-4.8672-1.3047-9.4336-3.5703-13.379 1.1211 0.21484 2.2734 0.33594 3.457 0.33594 8.7852 0 16.145-6.1758 17.996-14.41 0.56641 2.7852 0.86328 5.668 0.86328 8.6211 0.003906 19.617-13.141 36.211-31.086 41.457z"/>
  <path d="m23.832 45.125c6.2266 0 11.293-5.0664 11.293-11.293 0-6.2266-5.0664-11.293-11.293-11.293-6.2266 0-11.293 5.0664-11.293 11.293 0 6.2266 5.0664 11.293 11.293 11.293zm0-18.332c3.8828 0 7.0391 3.1562 7.0391 7.0391 0 3.8828-3.1562 7.0391-7.0391 7.0391-3.8828 0-7.0391-3.1562-7.0391-7.0391 0-3.8828 3.1562-7.0391 7.0391-7.0391z"/>
  <path d="m48.836 28.477c5.1328 0 9.3086-4.1758 9.3086-9.3086 0-5.1328-4.1758-9.3086-9.3086-9.3086-5.1328 0-9.3086 4.1758-9.3086 9.3086-0.003906 5.1328 4.1719 9.3086 9.3086 9.3086zm0-14.367c2.7891 0 5.0586 2.2695 5.0586 5.0586 0 2.7891-2.2695 5.0586-5.0586 5.0586-2.7891 0-5.0586-2.2695-5.0586-5.0586 0-2.7891 2.2695-5.0586 5.0586-5.0586z"/>
 </g>
</svg>
