<?xml version="1.0" encoding="UTF-8"?>
<svg width="100pt" height="100pt" version="1.1" viewBox="0 0 100 100" xmlns="http://www.w3.org/2000/svg">
 <g>
  <path d="m14.699 56.801h2.1016l0.69922 3.8984h-2.8008c-0.30078 0-0.60156 0.10156-0.80078 0.39844-0.19922 0.19922-0.30078 0.60156-0.19922 0.80078l2 8.5c0.10156 0.5 0.5 0.80078 1 0.80078h2.1016l0.69922 3.8984h-2.8008c-0.30078 0-0.60156 0.10156-0.80078 0.39844-0.19922 0.19922-0.30078 0.60156-0.19922 0.80078l2 8.5c0.10156 0.5 0.5 0.80078 1 0.80078h59.602c0.5 0 0.89844-0.30078 1-0.80078l2-8.5c0.10156-0.30078 0-0.60156-0.19922-0.80078-0.19922-0.19922-0.5-0.39844-0.80078-0.39844h-2.8008l0.69922-3.8984h2c0.5 0 0.89844-0.30078 1-0.80078l2-8.5c0.10156-0.30078 0-0.60156-0.19922-0.80078-0.19922-0.19922-0.5-0.39844-0.80078-0.39844h-2.8008l0.69922-3.8984h2c0.5 0 0.89844-0.30078 1-0.80078l2-8.5c0.10156-0.30078 0-0.60156-0.19922-0.80078-0.19922-0.19922-0.5-0.39844-0.80078-0.39844h-12.398v-5.5c0.60156 0.19922 1.1016 0.30078 1.6992 0.30078 1.5 0 3-0.69922 3.8984-2 1.8008-2.6016 1.3008-8.1016 1.1992-8.6992 0-0.10156-0.10156-0.19922-0.10156-0.30078v-0.10156c-0.10156-0.10156-0.10156-0.19922-0.19922-0.30078-0.10156-0.10156-0.19922-0.10156-0.39844-0.19922h-0.10156-0.30078c-0.30078 0.10156-1.6992 0.39844-3.1992 1-2.5-4.3008-10.699-7.6016-11.102-7.6992-0.10156 0-0.19922 0-0.30078-0.10156h-0.10156c-0.10156 0-0.19922 0-0.39844 0.10156l-0.30078 0.30078v0.10156c-0.10156 0.10156-0.10156 0.19922-0.10156 0.30078-0.10156 0.39844-2.5 9.3008-0.19922 13.898 0.89844 1.6992 2.3008 3 4.1992 3.6016 0.69922 0.19922 1.5 0.39844 2.1992 0.39844 0.60156 0 1.1992-0.10156 1.8008-0.19922v5.3008h-20v-5.5c0.60156 0.19922 1.1016 0.30078 1.6992 0.30078 1.5 0 3-0.69922 3.8984-2 1.8008-2.6016 1.3008-8.1016 1.1992-8.6992 0-0.10156-0.10156-0.19922-0.10156-0.30078v-0.10156c-0.10156-0.10156-0.19922-0.19922-0.30078-0.30078-0.10156-0.10156-0.19922-0.10156-0.39844-0.19922h-0.10156-0.30078c-0.30078 0.10156-1.6992 0.39844-3.1992 1-2.5-4.3008-10.699-7.6016-11.102-7.6992-0.10156 0-0.19922 0-0.30078-0.10156h-0.10156c-0.10156 0-0.19922 0-0.39844 0.10156-0.10156 0.10156-0.19922 0.19922-0.30078 0.30078v0.10156c-0.10156 0.10156-0.10156 0.19922-0.10156 0.30078-0.10156 0.39844-2.5 9.3008-0.19922 13.898 0.89844 1.6992 2.3008 3 4.1992 3.6016 0.69922 0.19922 1.5 0.39844 2.1992 0.39844 0.60156 0 1.1992-0.10156 1.8008-0.19922v5.3008h-20v-5.5c0.60156 0.19922 1.1016 0.30078 1.6992 0.30078 1.5 0 3-0.69922 3.8984-2 1.8008-2.6016 1.3008-8.1016 1.1992-8.6992 0-0.10156-0.10156-0.19922-0.10156-0.30078v-0.10156l-0.30078-0.30078c-0.10156-0.10156-0.19922-0.10156-0.39844-0.19922h-0.10156-0.30078c-0.30078 0.10156-1.6992 0.39844-3.1992 1-2.5-4.3008-10.699-7.6016-11.102-7.6992-0.10156 0-0.19922 0-0.30078-0.10156h-0.10156c-0.10156 0-0.19922 0-0.39844 0.10156-0.10156 0.10156-0.19922 0.19922-0.30078 0.30078v0.10156c-0.10156 0.10156-0.10156 0.19922-0.10156 0.30078-0.10156 0.39844-2.5 9.3008-0.19922 13.898 1.3008 2.5 3.8008 3.8984 6.3984 3.8984 0.60156 0 1.1992-0.10156 1.8008-0.19922v5.3008h-13c-0.30078 0-0.60156 0.10156-0.80078 0.39844-0.19922 0.19922-0.30078 0.60156-0.19922 0.80078l2 8.5c-0.26953-0.007812 0.12891 0.29297 0.62891 0.29297zm60.301-24.5l-3.8984 5.6016c-0.60156-0.89844-0.69922-2.1992 0-3.1992 0.69922-1.0039 2.3984-1.8047 3.8984-2.4023zm0.69922 5.5977c-0.69922 1-1.8984 1.3984-3 1.1016l3.8984-5.6016c0.003906 1.7031-0.19922 3.6016-0.89844 4.5zm-3.3984-6.5977c-1.1016 0.60156-2.1992 1.3008-2.8008 2.1992-0.19922 0.19922-0.30078 0.39844-0.39844 0.69922l-4.3008-8.5c2.6992 1.4023 6.0977 3.5 7.5 5.6016zm-6 7.6992c-1.3008-0.39844-2.3984-1.3008-3-2.6016-1.3008-2.5-0.80078-6.8984-0.30078-9.6992l6.3008 12.301c-1 0.30078-2 0.30078-3 0zm-13.301-6.6992l-3.8984 5.6016c-0.19922-0.30078-0.39844-0.69922-0.39844-1.1016-0.10156-0.69922 0-1.5 0.5-2.1016 0.59766-1 2.2969-1.8008 3.7969-2.3984zm-2.3008 6.6992l3.8984-5.6016c0 1.6992-0.30078 3.5-1 4.5-0.59766 1-1.7969 1.4023-2.8984 1.1016zm-0.39844-7.6992c-1.1016 0.60156-2.1992 1.3008-2.8008 2.1992-0.19922 0.19922-0.30078 0.39844-0.39844 0.69922l-4.3008-8.5c2.6992 1.4023 6.0977 3.5 7.5 5.6016zm-6 7.6992c-1.3008-0.39844-2.3984-1.3008-3-2.6016-1.3008-2.5-0.80078-6.8984-0.30078-9.6992l6.3008 12.301c-1 0.30078-2 0.30078-3 0zm-13.199-6.6992l-3.8984 5.6016c-0.60156-0.89844-0.69922-2.1992 0-3.1992 0.69531-1.0039 2.2969-1.8047 3.8984-2.4023zm-1.2031 6.8008c-0.39844 0.10156-0.80078 0-1.1992 0l3.8984-5.6016c0 1.6992-0.30078 3.5-1 4.5-0.29688 0.5-0.89844 1-1.6992 1.1016zm-1.5977-7.8008c-1.1016 0.60156-2.1992 1.3008-2.8008 2.1992-0.19922 0.19922-0.30078 0.39844-0.39844 0.69922l-4.3008-8.5c2.6992 1.4023 6.0977 3.5 7.5 5.6016zm-9 5.0977c-1.3008-2.5-0.80078-6.8984-0.30078-9.6992l6.3008 12.301c-2.3008 0.69922-4.8008-0.39844-6-2.6016zm58.199 47.203h-58l-1.5-6.5h61.102zm-2-8.5h-54l-0.69922-3.8984h55.398zm4-5.9023h-62l-1.5-6.5h65.102zm-2-8.5h-58l-0.69922-3.8984h59.398zm5.6016-12.398l-1.5 6.5h-66l-1.6016-6.5z"/>
  <path d="m20.699 51.602c0 1.5977-2.3984 1.5977-2.3984 0 0-1.6016 2.3984-1.6016 2.3984 0"/>
  <path d="m22.699 66c0 1.6016-2.3984 1.6016-2.3984 0s2.3984-1.6016 2.3984 0"/>
  <path d="m24.699 80.398c0 1.6016-2.3984 1.6016-2.3984 0 0-1.5977 2.3984-1.5977 2.3984 0"/>
  <path d="m79.199 51.602c0 1.5977-2.3984 1.5977-2.3984 0 0-1.6016 2.3984-1.6016 2.3984 0"/>
  <path d="m77.199 66c0 1.6016-2.3984 1.6016-2.3984 0s2.3984-1.6016 2.3984 0"/>
  <path d="m75.199 80.398c0 1.6016-2.3984 1.6016-2.3984 0 0-1.5977 2.3984-1.5977 2.3984 0"/>
 </g>
</svg>
