<?xml version="1.0" encoding="UTF-8"?>
<svg width="100pt" height="100pt" version="1.1" viewBox="0 0 100 100" xmlns="http://www.w3.org/2000/svg">
 <path d="m81.891 28.445c0-4.4453-2.7773-8.332-7.4453-11.445 0.10938-0.55469 0.10938-1.1094 0.10938-1.668 0-8-10.777-14.109-25-14.109-14.223 0-24.887 6.1094-24.887 14.109 0 0.55469 0.10938 1.1094 0.10938 1.668-4.668 3.1094-7.4453 7-7.4453 11.445v52.664c0 10 14.109 17.777 32.223 17.777 18.109 0 32.223-7.7773 32.223-17.777 0.11328 0 0.11328-52.664 0.11328-52.664zm-50-14.891c0.77734-1 2.1094-2 3.8906-2.8906 3.5508-1.8867 8.6641-2.8867 13.887-2.8867 5.2227 0 10.332 1 13.891 2.8906 1.7773 0.89062 3.1094 1.8906 3.8906 2.8906 0.44531 0.66797 0.66797 1.2227 0.66797 1.7773 0 1.332-1.2227 2.7773-3.332 4.1094-0.33203 0.22266-0.77734 0.44531-1.2227 0.66797-3.5547 1.7773-8.668 2.8906-13.891 2.8906s-10.332-1-13.891-2.8906c-0.44531-0.22266-0.77734-0.44531-1.2227-0.66797-2.1094-1.332-3.332-2.7773-3.332-4.1094-0.003906-0.55859 0.21875-1.2266 0.66406-1.7812zm-3.8906 9.1133c4.2227 4.2227 12.109 6.8906 21.668 6.8906 9.4453 0 17.445-2.668 21.668-6.8906 2.5547 1.7773 4 3.7773 4 5.668v0.66797c-0.33203 6.4453-11.891 11.777-25.668 11.777-13.777 0-25.332-5.332-25.668-11.777v-0.55469c0-2.0039 1.4453-4.0039 4-5.7812zm-4 35.109c0.33203 0.89062 1 1.7773 1.8906 2.4453-0.22266 0.55469-0.33203 1.1094-0.33203 1.668 0 0.66797 0.22266 1.332 0.55469 2-0.77734 0.33203-1.4453 0.77734-2.1094 1.2227zm8.2227-1.5547c0 0.10938 0.10938 0.33203 0.10938 0.44531-1.4453 0.33203-2.668 0.89062-3.668 1.5547-0.22266-0.10938-0.44531-0.22266-0.66797-0.33203-0.66797-0.44531-1.1094-0.89062-1.1094-1.332 0-0.77734 1.8906-2.2227 5.332-2.668-0.10938 0.44531-0.22266 0.89062-0.22266 1.332 0.11328 0.33203 0.22656 0.66797 0.22656 1zm37.445 1.332c-1.1094 0.77734-3.2227 1.5547-6.1094 1.5547h-0.55469c-0.10938-0.22266-0.33203-0.33203-0.44531-0.55469 1.2227-0.44531 2.2227-1.1094 2.8906-1.7773 0.77734-0.77734 1.332-1.668 1.4453-2.668 2.332 0.55469 3.668 1.668 3.668 2.332-0.007812 0.22656-0.23047 0.66797-0.89453 1.1133zm1.6641 5.1133c0 0.22266-0.22266 0.55469-0.66797 1 0 0 0-0.10938-0.10937-0.10938-0.55469-0.66797-1.332-1.332-2.2227-1.8906 0.10938 0 0.22266-0.10938 0.33203-0.10938 0.44531-0.10938 0.77734-0.22266 1.1094-0.44531 1.1172 0.55469 1.5586 1.2188 1.5586 1.5547zm-16 4.7773c0.66797-0.10937 1.332-0.10937 1.8906-0.33203 0.55469-0.10938 1.1094-0.22266 1.668-0.44531 0.44531-0.10938 1-0.33203 1.4453-0.55469 0.22266-0.10938 0.44531-0.22266 0.55469-0.33203 0.33203-0.22266 0.66797-0.44531 0.89062-0.55469 0.22266-0.10937 0.33203-0.33203 0.55469-0.44531 0.44531-0.33203 0.77734-0.77734 1-1.2227 2.1094 0.22266 3.5547 0.89062 4.332 1.5547 0.10938 0.10938 0.22266 0.22266 0.33203 0.33203 0.22266 0.22266 0.33203 0.44531 0.33203 0.66797 0 0.10938 0 0.22266-0.10938 0.44531-0.10938 0.10938-0.22266 0.33203-0.44531 0.44531-0.77734 0.66797-2.2227 1.332-4.4453 1.668-0.66797 0.10938-1.332 0.10938-2.1094 0.10938-0.44531 0-0.89062 0-1.332-0.10938-0.77734-0.10938-1.4453-0.10938-2-0.33203h-0.10938c-1.0039-0.23047-1.8906-0.5625-2.4492-0.89453zm0 3.6641c-0.22266 0.10938-0.44531 0.22266-0.66797 0.33203-0.10937 0-0.10937 0-0.22266 0.10938-0.44531 0.10938-0.89062 0.33203-1.4453 0.44531-0.77734 0.22266-1.668 0.33203-2.7773 0.33203h-0.66797c-0.66797 0-1.332 0-1.8906-0.10938-1.4453-0.22266-2.5547-0.55469-3.4453-0.89062-0.55469-0.33203-1-0.55469-1.332-0.89062-0.22266-0.22266-0.44531-0.55469-0.44531-0.77734 0-0.10938 0-0.22266 0.10938-0.33203 0.10938-0.22266 0.33203-0.44531 0.66797-0.77734 0.22266-0.22266 0.55469-0.33203 0.89062-0.55469 0.10938 0 0.10938-0.10938 0.22266-0.10938 1-0.44531 2.4453-0.89062 4.332-1 0.66797 0.22266 1.4453 0.33203 2.332 0.44531 0.33203 1 1 1.8906 2 2.5547 0.23047 0.11328 0.33984 0.11328 0.33984 0.11328 0.33203 0.22266 0.55469 0.33203 0.89062 0.55469 0.10938 0 0.22266 0.10937 0.22266 0.10937 0.44531 0.11328 0.66406 0.33594 0.88672 0.44531zm8.4453-17.441c-0.22266 0.77734-2 2.1094-5.332 2.5547h-0.44531-1.2227-0.22266c-1.2227 0-2.332-0.10938-3.2227-0.33203h-0.10938c-0.10938 0-0.33203-0.10938-0.44531-0.10938v-0.10938-0.10938-0.33203c0-1.2227-0.55469-2.332-1.5547-3.2227 0.10938 0 0.10938-0.10937 0.22266-0.10937 1.2227-0.55469 3-1 5.2227-1 0.77734 0 1.5547 0.10937 2.2227 0.10937 3.1094 0.44531 4.7773 1.7773 4.7773 2.5547 0.10938-0.007812 0.10938 0.10547 0.10938 0.10547zm-11.887 5.2227c0.33203 0.10938 0.77734 0.22266 1.1094 0.33203 0.44531 0.10938 1 0.22266 1.5547 0.22266 0.33203 0 0.66797 0.10938 0.89062 0.10938h1.2227 0.55469 0.33203 0.44531c0.55469 0.22266 1.1094 0.44531 1.4453 0.66797 0.22266 0.10938 0.44531 0.33203 0.55469 0.44531l0.33203 0.33203c0.10938 0.22266 0.22266 0.33203 0.22266 0.55469 0 0.22266-0.10938 0.33203-0.22266 0.55469l-0.10938 0.10938c-0.44531 0.44531-1.2227 1-2.4453 1.4453-0.10938 0-0.22266 0.10938-0.44531 0.10938-0.10938 0-0.22266 0.10937-0.33203 0.10937h-0.22266c-0.66797 0.10938-1.5547 0.33203-2.4453 0.33203h-0.10938-0.77734c-0.77734 0-1.4453 0-2-0.10938-0.89062-0.10938-1.5547-0.33203-2.2227-0.44531-0.10938 0-0.33203-0.10938-0.44531-0.22266h-0.10938c-0.89062-0.33203-1.5547-0.89062-1.8906-1.2227-0.10938-0.10547-0.10938-0.21484-0.10938-0.32422-0.10938-0.10938-0.10938-0.33203-0.10938-0.44531 0-0.10937 0-0.22266 0.10938-0.44531s0.22266-0.33203 0.44531-0.55469c0.44531-0.10937 0.77734-0.22266 1.2227-0.33203 0.77734-0.33203 1.4453-0.66797 2-1 0.44141-0.11328 0.99609-0.11328 1.5547-0.22266zm-3-2.7812c-0.22266 0.22266-0.55469 0.44531-1 0.66797-0.55469 0.33203-1.332 0.55469-2.2227 0.77734-0.44531 0.10937-1 0.22266-1.5547 0.22266h-0.44531-0.10938-1.2227c-0.55469 0-1.1094 0-1.668-0.10938-0.22266 0-0.44531 0-0.66797-0.10938-1-0.10938-1.8906-0.44531-2.668-0.66797-0.55469-0.22266-1.1094-0.55469-1.4453-0.77734-0.10938-0.10938-0.22266-0.22266-0.33203-0.33203-0.22266-0.22266-0.33203-0.44531-0.33203-0.66797 0-0.33203 0.33203-0.77734 1-1.2227 1-0.66797 2.8906-1.332 5.4453-1.4453h0.10938 0.55469c1.5547 0 2.8906 0.22266 4 0.55469 1.668 0.44531 2.668 1.2227 3 1.7773 0.10938 0.10938 0.10938 0.22266 0.10938 0.33203 0.003906 0.33594-0.21875 0.66797-0.55078 1zm-9.668 4.7812c0.55469 0.10938 1 0.10938 1.5547 0.22266h0.66797 1 0.10938 0.33203c0.10938 0.10938 0.33203 0.22266 0.44531 0.33203 0 0.33203 0.10938 0.66797 0.10938 1 0 0.10938-0.10938 0.22266-0.22266 0.33203-0.33203 0.33203-0.89062 0.77734-1.5547 1.1094h-0.10937c-0.33203 0.22266-0.77734 0.33203-1.332 0.44531-0.10938 0-0.22266 0-0.22266 0.10938-0.77734 0.22266-1.5547 0.33203-2.5547 0.33203h-0.44531-0.33203-0.10938c-2.5547 0-4.5547-0.55469-5.668-1.2227-0.22266-0.10938-0.33203-0.22266-0.55469-0.33203-0.22266-0.10938-0.44531-0.33203-0.55469-0.44531-0.22266-0.22266-0.33203-0.44531-0.33203-0.66797 0-0.10938 0-0.22266 0.10938-0.22266 0.33203-0.89062 2.332-2.1094 5.668-2.332 0.99609 0.55859 2.4414 1.1172 3.9961 1.3398zm-11.891 5.8867c0.44531-0.22266 0.89062-0.33203 1.4453-0.44531h0.10938c0.10938 0.10938 0.33203 0.22266 0.44531 0.33203 0.22266 0.10938 0.44531 0.22266 0.77734 0.33203h0.10938c0.10938 0.10938 0.33203 0.10938 0.44531 0.22266 1.668 0.66797 3.668 1 5.7773 1 0.89062 0 1.7773-0.10938 2.668-0.22266 0.22266 0.22266 0.33203 0.44531 0.33203 0.66797 0 0.10938 0 0.22266-0.10938 0.33203-0.22266 0.44531-0.77734 0.89062-1.668 1.332-0.44531 0.22266-0.89062 0.33203-1.4453 0.55469-1 0.33203-2.332 0.55469-3.8906 0.55469-3.668 0-6-1.1094-6.7773-2.1094-0.22266-0.22266-0.33203-0.44531-0.33203-0.66797 0.003906-0.55078 0.78125-1.3281 2.1133-1.8828zm-1.8867 14.223c0-0.66797 1.5547-2 4.332-2.4453v0.44531 0.33203c0.10938 1.7773 1.5547 3.332 3.668 4.332h0.10938-1.1094c-4.4453 0.003907-7-1.7734-7-2.6641zm7.6641-2.1094c0-0.22266 0.10938-0.33203 0.22266-0.55469l0.10938-0.10938c0.10938-0.10937 0.10938-0.10937 0.22266-0.22266 0.44531-0.44531 1.2227-0.89062 2.2227-1.2227 0.55469 0.55469 1.332 1.1094 2.2227 1.5547 0.10938 0.10937 0.22266 0.10937 0.33203 0.22266 0.66797 0.33203 1.332 0.55469 2.1094 0.77734 0.22266 0.10937 0.55469 0.10937 0.77734 0.22266 0.44531 0.10938 0.89062 0.10938 1.332 0.22266 0.55469 0.10938 1.2227 0.10938 1.8906 0.10938-0.55469 0.44531-0.89062 0.89062-1.2227 1.4453-0.10938 0-0.33203 0.10937-0.44531 0.10937-0.33203 0-0.55469 0.10938-0.89062 0.10938-0.55469 0.10937-1.1094 0.10937-1.7773 0.10937h-0.89062c-0.55469 0-1.1094-0.10937-1.668-0.22266-2.9883-0.55078-4.5469-1.7734-4.5469-2.5508zm7.3359 6c0.89063 0 1.7773-0.10938 2.668-0.22266 0.44531 1.1094 1.332 2.1094 2.668 2.8906-3.4453-0.10938-5.668-1.2227-6.332-2.1094 0.32812-0.11719 0.66016-0.33984 0.99609-0.55859zm4.6641-8.2227c-0.10938 0-0.10938 0 0 0-0.66797 0-1.2227 0-1.7773-0.10938-0.44531 0-0.89062-0.10938-1.332-0.22266-1.332-0.33203-2.332-0.77734-3-1.2227-0.55469-0.44531-0.89062-0.89062-0.89062-1.2227 0-0.10938 0-0.22266 0.10938-0.33203 0.10938 0 0.10938-0.10938 0.22266-0.10938 0.44531-0.10938 0.77734-0.33203 1.1094-0.55469 0.33203-0.22266 0.77734-0.44531 1-0.66797l0.66797 0.66797c0.10938 0 0.10938 0.10938 0.22266 0.10938 0.44531 0.33203 1 0.66797 1.5547 1 1.1094 0.55469 2.332 1 3.7773 1.2227 0.44531 0.10938 0.77734 0.10938 1.2227 0.10938 0.22266 0 0.55469 0 0.77734 0.10937h1 0.77734c-0.33203 0.22266-0.77734 0.33203-1.2227 0.55469-0.44531 0.10938-1.1094 0.33203-1.668 0.44531-0.88281 0.10938-1.6602 0.22266-2.5508 0.22266zm1.7812 5.5547c0.55469-0.44531 1.4453-0.89062 2.668-1.2227 0.10938 0 0.10938 0.10938 0.22266 0.10938 0.10938 0.10938 0.33203 0.22266 0.44531 0.33203 0.89063 0.55469 1.8906 1 3 1.2227 0.89063 0.22266 1.7773 0.44531 2.7773 0.44531 0.55469 0 1.1094 0.10938 1.668 0.10938 0.77734 0 1.4453 0 2.1094-0.10938h0.22266v0.10938 0.10938c0 0.66797-1.2227 1.7773-3.5547 2.332h-0.22266c-0.89062 0.22266-2 0.33203-3.332 0.33203h-0.66797c-0.66797 0-1.2227-0.10938-1.7773-0.22266-2.332-0.33203-3.8906-1.332-4.4453-2-0.10938-0.22266-0.22266-0.33203-0.22266-0.55469 0.21875-0.21484 0.55078-0.66016 1.1094-0.99219zm10.887-2.2227c-1.1094 0-2-0.10938-2.7773-0.22266-0.89062-0.22266-1.668-0.44531-2.332-0.66797-0.33203-0.10938-0.66797-0.33203-0.89062-0.55469 0.77734-0.33203 1.332-0.77734 1.8906-1.2227l0.22266-0.22266c0.77734-0.66797 1.2227-1.4453 1.4453-2.332 0.44531-0.10938 0.89062-0.10938 1.4453-0.10938h1.1094c0.66797 0 1.332 0 1.8906 0.10938 0.33203 0.10938 0.77734 0.22266 1.1094 0.22266 0.33203 0.10938 0.66797 0.10938 1 0.22266 2 0.55469 3 1.5547 3 2.1094 0 0.10938 0 0.22266-0.10938 0.33203 0 0.10938-0.10938 0.10938-0.10938 0.22266-0.44531 0.55469-1.5547 1.332-3.2227 1.668-0.33203 0.10937-0.66797 0.10937-1.1094 0.22266-0.89453 0.11328-1.6719 0.22266-2.5625 0.22266zm5.5547 2.4453c0.66797-0.22266 1.332-0.55469 1.8906-0.89062 1.2227 0.55469 1.8906 1.2227 1.8906 1.7773 0 0.10938 0 0.22266-0.10938 0.44531-0.44531 0.77734-2 1.668-4.4453 2.1094 0.44531-0.66797 0.77734-1.332 0.89062-2v-0.44531c-0.003907-0.44141-0.11719-0.77344-0.11719-0.99609zm3.5586-10.555c-0.77734 0.10938-1.5547 0.22266-2.5547 0.22266-0.55469 0-1.1094 0-1.5547-0.10938 1.332-0.10938 2.4453-0.33203 3.5547-0.66797 2-0.66797 3.5547-1.668 4.4453-2.8906 0.44531 0.33203 0.66797 0.66797 0.66797 1-0.003907 0.66406-1.5586 1.8867-4.5586 2.4453zm1 4.332c0.22266-0.22266 0.55469-0.33203 0.77734-0.55469 2.1094 0.55469 3.1094 1.5547 3.1094 2.2227 0 0.55469-1 1.5547-3 2.1094-0.33203-0.33203-0.77734-0.55469-1.1094-0.89062 0.33203-0.55469 0.44531-1.2227 0.44531-1.8906-0.003906-0.32812-0.11328-0.66406-0.22266-0.99609zm6.7773-6.332v-0.44531c0-1.2227-0.66797-2.4453-1.668-3.332 1-0.89062 1.5547-2 1.5547-3.2227 0-1.332-0.66797-2.5547-1.8906-3.5547 0.66797-0.77734 1.1094-1.7773 1.1094-2.7773 0-3-3.4453-5.332-8.2227-5.8906-1.7773-1.7773-5-3-9-3-3.668 0-6.7773 1-8.5547 2.5547-1.5547-0.55469-3.5547-0.89062-5.668-0.89062-2.668 0-5 0.55469-6.7773 1.332-0.55469 0-1.1094-0.10937-1.668-0.10937-5.1094 0-9.1094 2-10.109 4.668l0.003906-19.332c4.7773 4.8906 14.332 8.1094 25.668 8.1094 11.332 0 20.891-3.2227 25.668-8.1094v34.332c-0.003906-0.11328-0.22266-0.22266-0.44531-0.33203zm0.66406 11.332c-0.10938 5.2227-10.668 11.109-25.668 11.109-10.555 0-18.891-2.8906-22.891-6.332 1.668 0.66797 3.668 1 5.7773 1 1.332 0 2.5547-0.10938 3.668-0.33203 1.2227 2.5547 5.1094 4.332 9.8906 4.332 2.7773 0 5.332-0.55469 7.1094-1.5547 1.2227 0 2.2227-0.10937 3.332-0.33203 1.1094 0.22266 2.2227 0.33203 3.4453 0.33203 5.8906 0 10.332-2.5547 10.332-6v-0.33203c2.332-0.77734 3.8906-2.1094 4.4453-3.7773 0.33203 0.66797 0.44531 1.2227 0.44531 1.8906 0.11328-0.22656 0.11328-0.11719 0.11328-0.003906v0z"/>
</svg>
