<?xml version="1.0" encoding="UTF-8"?>
<svg width="100pt" height="100pt" version="1.1" viewBox="0 0 100 100" xmlns="http://www.w3.org/2000/svg">
 <g>
  <path d="m46.875 73.438h15.625c0.86328 0 1.5625-0.69922 1.5625-1.5625s-0.69922-1.5625-1.5625-1.5625h-15.625c-0.86328 0-1.5625 0.69922-1.5625 1.5625s0.69922 1.5625 1.5625 1.5625z"/>
  <path d="m67.188 73.438h4.6875c0.86328 0 1.5625-0.69922 1.5625-1.5625s-0.69922-1.5625-1.5625-1.5625h-4.6875c-0.86328 0-1.5625 0.69922-1.5625 1.5625s0.69922 1.5625 1.5625 1.5625z"/>
  <path d="m70.07 56.25c0 0.41406 0.16797 0.8125 0.46094 1.1055s0.6875 0.45703 1.1016 0.45703h4.6875c0.86328 0 1.5625-0.69922 1.5625-1.5625s-0.69922-1.5625-1.5625-1.5625h-4.6875c-0.86328 0-1.5625 0.69922-1.5625 1.5625z"/>
  <path d="m35.695 42.188h1.5625c0.86328 0 1.5625-0.69922 1.5625-1.5625s-0.69922-1.5625-1.5625-1.5625h-1.5625c-0.86328 0-1.5625 0.69922-1.5625 1.5625s0.69922 1.5625 1.5625 1.5625z"/>
  <path d="m45.312 17.188h3.125v3.125h-3.125z"/>
  <path d="m51.562 17.188h3.125v3.125h-3.125z"/>
  <path d="m48.438 25h3.125v3.125h-3.125z"/>
  <path d="m43.75 23.438h3.125v3.125h-3.125z"/>
  <path d="m53.125 23.438h3.125v3.125h-3.125z"/>
  <path d="m65.625 28.309c0.64844 0 1.2266-0.39844 1.457-1.0039 0.23438-0.60156 0.066407-1.2891-0.41406-1.7188-0.16016-0.14453-0.25391-0.34766-0.25781-0.5625-0.007812-0.21484 0.074219-0.42188 0.22656-0.57422 0.15234-0.15234 0.35938-0.23438 0.57422-0.22656 0.21484 0.003906 0.41797 0.097656 0.5625 0.25781 0.27344 0.31641 0.66406 0.50781 1.082 0.53516 0.41797 0.023437 0.82812-0.11719 1.1406-0.39844 0.30859-0.27734 0.49609-0.67188 0.51562-1.0898 0.019531-0.41797-0.12891-0.82812-0.41406-1.1328-0.71484-0.80078-1.7305-1.2734-2.8047-1.3008-1.0742-0.03125-2.1094 0.38281-2.8711 1.1406-0.75781 0.76172-1.1719 1.7969-1.1406 2.8711 0.027344 1.0742 0.5 2.0898 1.3008 2.8047 0.28516 0.25781 0.65625 0.39844 1.043 0.39844z"/>
  <path d="m87.5 62.5c-1.207 0-2.4023 0.23438-3.5195 0.69141 0.6875-0.71484 1.2344-1.5547 1.6094-2.4727l1.0938-2.7266c0.44531-1.1172 0.44531-2.3633 0-3.4766l-1.0938-2.7383v-0.003906c-1.1836-2.9648-4.0547-4.9062-7.2461-4.8984h-0.023438c0.41797-0.54688 0.75781-1.1445 1.0195-1.7812l1.0938-2.7266c0.44531-1.1172 0.44531-2.3633 0-3.4766l-1.0938-2.7383v-0.003906c-0.9375-2.3359-2.9531-4.0703-5.4023-4.6562 1.7383-1.8164 2.6758-4.2539 2.5977-6.7617-0.074218-2.5117-1.1562-4.8867-3.0039-6.5938-1.8438-1.7031-4.2969-2.5977-6.8047-2.4766-2.5117 0.125-4.8672 1.25-6.5391 3.125-0.86719-2.6562-2.4648-5.0117-4.6133-6.8008l-4.5703-3.8125c-0.58203-0.48438-1.4258-0.48438-2.0039 0l-4.5703 3.8125c-1.3125 1.0977-2.4258 2.4102-3.293 3.8828-3.9297-2.9023-8.7656-4.293-13.637-3.9258l-7.3086 0.55859c-0.058594 0-0.10938 0.023438-0.16406 0.03125l-0.10156 0.019531v0.003907c-0.17188 0.042968-0.33594 0.11328-0.48438 0.21094-0.019531 0.011719-0.035156 0.03125-0.054687 0.046875h-0.003907c-0.13672 0.10156-0.25391 0.22656-0.35156 0.36719-0.011719 0.015624-0.03125 0.023437-0.042969 0.042968-0.011719 0.019532 0 0.015625-0.007812 0.027344-0.007813 0.007812-0.019531 0.023438-0.027344 0.039062-0.078125 0.14453-0.12891 0.30469-0.15625 0.46875-0.007813 0.039063-0.015625 0.078126-0.019531 0.12109-0.023438 0.17578-0.019532 0.35156 0.015625 0.52344l0.007812 0.027344h0.003907c0.023437 0.11328 0.0625 0.22656 0.11719 0.33203l4.1875 8.3945c1.6562 3.3164 4.1875 6.1133 7.3203 8.0938h-6.1328c-3.1914-0.003906-6.0664 1.9375-7.25 4.9062l-1.0938 2.7305c-0.44531 1.1133-0.44531 2.3594 0 3.4727l1.0938 2.7422c1.1875 2.9648 4.0586 4.9062 7.25 4.8984h0.023437c-0.41797 0.54688-0.76172 1.1445-1.0234 1.7812l-1.0938 2.7305c-0.44531 1.1133-0.44531 2.3594 0 3.4727l1.0938 2.7422c0.26953 0.65234 0.62109 1.2617 1.0508 1.8203-0.29688-0.03125-0.59766-0.046875-0.91016-0.046875-1.9648 0-3.8789 0.625-5.4688 1.7812-3.875-2.8203-9.2578-2.2539-12.461 1.3125-3.207 3.5664-3.1953 8.9766 0.023438 12.531h-0.84375c-0.86328 0-1.5625 0.69922-1.5625 1.5625v3.125c0.003906 4.3125 3.5 7.8086 7.8125 7.8125h78.125c4.3125-0.003906 7.8086-3.5 7.8125-7.8125v-3.125c0-0.41406-0.16406-0.8125-0.45703-1.1055s-0.69141-0.45703-1.1055-0.45703h-0.84375c2.4766-2.75 3.1016-6.6992 1.5938-10.078-1.5039-3.3789-4.8633-5.5547-8.5625-5.5469zm6.25 9.375c0 2.5273-1.5234 4.8086-3.8594 5.7734-2.3359 0.96875-5.0234 0.43359-6.8086-1.3555-1.7891-1.7852-2.3242-4.4727-1.3555-6.8086 0.96484-2.3359 3.2461-3.8594 5.7734-3.8594 1.6562 0 3.2461 0.66016 4.418 1.832s1.832 2.7617 1.832 4.418zm-64.062 0c0 2.5273-1.5234 4.8086-3.8594 5.7734-2.3359 0.96875-5.0234 0.43359-6.8086-1.3555-1.7891-1.7852-2.3242-4.4727-1.3555-6.8086 0.96484-2.3359 3.2461-3.8594 5.7734-3.8594 1.6562 0 3.2461 0.66016 4.418 1.832s1.832 2.7617 1.832 4.418zm0.71875-6.25h3.9688v3.125c0 2.5898 2.0977 4.6875 4.6875 4.6875s4.6875-2.0977 4.6875-4.6875v-3.125h30.141c1.918-0.007812 3.6445 1.1562 4.3594 2.9336l0.26562 0.66797h-0.003906c-0.10547 0.35938-0.1875 0.72266-0.24609 1.0938h-1.7031c-0.86328 0-1.5625 0.69922-1.5625 1.5625 0 0.86328 0.69922 1.5625 1.5625 1.5625h1.7031c0.058594 0.37109 0.14453 0.73438 0.24609 1.0938l-0.25781 0.65625c-0.71875 1.7773-2.4453 2.9375-4.3633 2.9297h-43.484c3.207-3.5508 3.207-8.9492 0-12.5zm21.156-20.312v-10.938h18.75v7.8125c-0.011719 2.1289-1.4531 3.9844-3.5156 4.5156-0.69141 0.17969-1.1719 0.80078-1.1719 1.5117v4.1289c0 1.0469-0.42188 2.0508-1.1719 2.7852l-0.03125 0.023438c-1.5039 1.4648-3.9023 1.4648-5.4062 0l-0.03125-0.023438c-0.75-0.73438-1.1719-1.7383-1.1719-2.7852v-7.0312c0-0.86328-0.69922-1.5625-1.5625-1.5625s-1.5625 0.69922-1.5625 1.5625-0.69922 1.5625-1.5625 1.5625-1.5625-0.69922-1.5625-1.5625zm6.0781-14.062c0.51562-0.50391 0.98047-1.0547 1.3867-1.6484 0.33594 0.58984 0.73438 1.1445 1.1914 1.6484zm-2.9531 18.75v2.3438c0.007812 0.80078 0.15234 1.5938 0.42969 2.3438h-5.1172v-4.6875zm-7.8125 7.8125c0 2.5898-2.0977 4.6875-4.6875 4.6875-0.86328 0-1.5625 0.69922-1.5625 1.5625v4.6875c0 0.86328-0.69922 1.5625-1.5625 1.5625s-1.5625-0.69922-1.5625-1.5625v-18.75h9.375zm33.438 20.062c0.070312 0.085938 0.15625 0.16406 0.22656 0.25h-0.39844c0.050781-0.082031 0.10547-0.16406 0.17188-0.25zm0-12c-0.10156-0.14844-0.19531-0.3125-0.3125-0.44531 0.33594-0.070313 0.66406-0.16406 0.98438-0.28125-0.23438 0.23047-0.46094 0.47266-0.67188 0.72656zm2.3828-12.934 0.69531 1.7461h-2.3828c-0.86328 0-1.5625 0.69922-1.5625 1.5625s0.69922 1.5625 1.5625 1.5625h2.3789l-0.69922 1.7422h0.003906c-0.72266 1.7695-2.4375 2.9336-4.3477 2.9453h-29.938c1.0312-1.3477 1.5898-2.9922 1.5938-4.6875h7.3516c2.5391 2.0859 6.1953 2.0859 8.7344 0h0.86719c0.41406 0 0.8125-0.16406 1.1055-0.45703 0.29297-0.29297 0.45703-0.69141 0.45703-1.1055-0.003906-0.37891-0.14844-0.74219-0.40234-1.0195 0.41797-0.90625 0.63281-1.8906 0.63672-2.8867v-2.3438h9.5938c1.9102 0.011719 3.6211 1.1719 4.3438 2.9375zm-10.859-6.0664c1.0352-1.3438 1.5977-2.9922 1.6016-4.6875h3.7031l-0.69922 1.7422c-0.72266 1.7695-2.4375 2.9336-4.3477 2.9453zm4.6016-9.5625 0.70312 1.75h-3.7031v-4.4844c1.3594 0.41797 2.4609 1.4219 3 2.7344zm-9.25-18.562c2.5273 0 4.8086 1.5234 5.7734 3.8594 0.96875 2.3359 0.43359 5.0234-1.3555 6.8086-1.7852 1.7891-4.4727 2.3242-6.8086 1.3555-2.3359-0.96484-3.8594-3.2461-3.8594-5.7734 0-3.4531 2.7969-6.25 6.25-6.25zm-20.758-4.3633 3.5703-2.9805 3.5742 2.9766c2.6914 2.2383 4.2422 5.5547 4.2383 9.0547 0 4.3164-3.4961 7.8125-7.8125 7.8125s-7.8125-3.4961-7.8125-7.8125c-0.003906-3.4961 1.5508-6.8164 4.2422-9.0508zm-7.332 9.6875-4.8633-3.0703-1.0938-5.4922h-0.003906c2.4375 0.60156 4.7148 1.7266 6.6719 3.3008-0.49219 1.4922-0.74219 3.0547-0.74609 4.625 0 0.21484 0.019531 0.42188 0.03125 0.63672zm-11.352-9.0156c0.69922-0.046875 1.4062-0.054688 2.1055-0.015625l0.73047 3.6602-5.4492-3.4375zm-3.5391 3.3125 10.504 6.6289h-6.5859c-0.023438 0-0.039062 0.011719-0.058594 0.011719-0.84375-1-1.5703-2.0938-2.168-3.2539zm7.2305 9.7539h8.2227l0.67969 0.42969c0.53125 0.99609 1.2148 1.9062 2.0195 2.6953h-1.0781c-3.5234-0.003906-6.9609-1.0938-9.8438-3.125zm-11.484 15.812-0.70312-1.75h10.195c0.86328 0 1.5625-0.69922 1.5625-1.5625s-0.69922-1.5625-1.5625-1.5625h-10.195l0.69531-1.7422h0.003907c0.72266-1.7695 2.4375-2.9297 4.3477-2.9453h24.141v4.6875h-6.4844c-0.86328 0-1.5625 0.69922-1.5625 1.5625s0.69922 1.5625 1.5625 1.5625h6.4844v3.125c0.003906 0.53516 0.10156 1.0625 0.28906 1.5625h-24.43c-1.9102-0.015625-3.6211-1.1719-4.3438-2.9375zm14.422 6.0625v12.5h-3.8281c-1.9102-0.015625-3.6211-1.1719-4.3438-2.9375l-0.70312-1.75h4.1875c0.86328 0 1.5625-0.69922 1.5625-1.5625s-0.69922-1.5625-1.5625-1.5625h-4.1875l0.69531-1.7422h0.003907c0.72266-1.7695 2.4375-2.9297 4.3477-2.9453zm-28.125 21.875c-0.003906-2.2578 1.2109-4.3438 3.1797-5.4492 1.9688-1.1094 4.3828-1.0625 6.3086 0.11328-0.44922 0.64844-0.82031 1.3516-1.0938 2.0938-1.7031-1.0781-3.9453-0.68359-5.1758 0.91016-1.2344 1.5938-1.0547 3.8633 0.41797 5.2422 0.64453 0.55859 1.6172 0.5 2.1875-0.13672 0.57031-0.63281 0.52734-1.6094-0.10156-2.1875-0.16016-0.14453-0.25391-0.34766-0.25781-0.5625-0.007813-0.21484 0.074218-0.42188 0.22656-0.57422 0.15234-0.15234 0.35938-0.23438 0.57422-0.22656 0.21484 0.003906 0.41797 0.097656 0.5625 0.25781 0.25391 0.28125 0.60547 0.45312 0.98438 0.49219v0.027344c0 1.9102 0.58203 3.7695 1.6758 5.3359-1.9258 1.1758-4.3398 1.2227-6.3086 0.11328-1.9688-1.1055-3.1836-3.1914-3.1797-5.4492zm87.5 10.938c0 2.5898-2.0977 4.6875-4.6875 4.6875h-78.125c-2.5898 0-4.6875-2.0977-4.6875-4.6875v-1.5625h87.5z"/>
  <path d="m85.938 75.184c0.64844 0 1.2266-0.39844 1.457-1.0039 0.23438-0.60156 0.066407-1.2891-0.41406-1.7188-0.16016-0.14453-0.25391-0.34766-0.25781-0.5625-0.007812-0.21484 0.074219-0.42188 0.22656-0.57422 0.15234-0.15234 0.35938-0.23438 0.57422-0.22656 0.21484 0.003906 0.41797 0.097656 0.5625 0.25781 0.27344 0.31641 0.66406 0.50781 1.082 0.53516 0.41797 0.023437 0.82812-0.11719 1.1406-0.39844 0.30859-0.27734 0.49609-0.67188 0.51562-1.0898 0.019531-0.41797-0.12891-0.82812-0.41406-1.1328-0.71484-0.80078-1.7305-1.2734-2.8047-1.3008-1.0742-0.03125-2.1094 0.38281-2.8711 1.1406-0.75781 0.76172-1.1719 1.7969-1.1406 2.8711 0.027344 1.0742 0.5 2.0898 1.3008 2.8047 0.28516 0.25781 0.65625 0.39844 1.043 0.39844z"/>
  <path d="m21.875 75.184c0.64844 0 1.2266-0.39844 1.457-1.0039 0.23438-0.60156 0.066407-1.2891-0.41406-1.7188-0.16016-0.14453-0.25391-0.34766-0.25781-0.5625-0.007812-0.21484 0.074219-0.42188 0.22656-0.57422 0.15234-0.15234 0.35938-0.23438 0.57422-0.22656 0.21484 0.003906 0.41797 0.097656 0.5625 0.25781 0.57812 0.62891 1.5547 0.67188 2.1875 0.10156 0.63672-0.57031 0.69531-1.543 0.13672-2.1875-0.71484-0.80078-1.7305-1.2734-2.8047-1.3008-1.0742-0.03125-2.1094 0.38281-2.8711 1.1406-0.75781 0.76172-1.1719 1.7969-1.1406 2.8711 0.027344 1.0742 0.5 2.0898 1.3008 2.8047 0.28516 0.25781 0.65625 0.39844 1.043 0.39844z"/>
 </g>
</svg>
