<?xml version="1.0" encoding="UTF-8"?>
<svg width="100pt" height="100pt" version="1.1" viewBox="0 0 100 100" xmlns="http://www.w3.org/2000/svg">
 <path d="m99.699 57.398c-0.10156-0.39844-0.5-0.69922-0.89844-0.69922h-7c-3.6992-3.8008-8.6992-5.8008-14-5.8008-3.5 0-6.8008 0.89844-9.6992 2.5-2.1016-3-5.6016-4.8984-9.3984-4.8984-3.1992 0-6.3008 1.3984-8.3984 3.6992-1.3008-1.8008-2.1016-4-2.1016-6.3008v-6.6992h3c0.5 0 0.89844-0.39844 0.89844-0.89844s-0.39844-0.89844-0.89844-0.89844h-3v-1.1016h3c0.5 0 0.89844-0.39844 0.89844-0.89844s-0.39844-0.89844-0.89844-0.89844h-3v-1.1016h3c0.5 0 0.89844-0.39844 0.89844-0.89844s-0.39844-0.89844-0.89844-0.89844h-3v-1.1016h3c0.5 0 0.89844-0.39844 0.89844-0.89844s-0.39844-0.89844-0.89844-0.89844h-3v-1.1992c0-0.5-0.39844-0.89844-0.89844-0.89844s-0.89844 0.39844-0.89844 0.89844v18.699c0 3.3008 1.1992 6.1992 3.3008 8.5l0.10156 0.10156c0.80078 0.89844 1.6992 1.6016 2.6992 2.1992h-4.8984c-2.6016-2.3008-4.1016-5.5-4.1016-9l-0.007812-20.809c0-0.5-0.39844-0.89844-0.89844-0.89844s-0.89844 0.39844-0.89844 0.89844v20.5c0 3.3008 1.1992 6.5 3.3008 9h-12.605c2.1016-1.3008 3.8008-3.1992 4.8984-5.5 0.69922-1.6016 1.1016-3.3984 1.1016-5.1992v-18.801c0-0.5-0.39844-0.89844-0.89844-0.89844s-0.89844 0.39844-0.89844 0.89844v1.1992h-0.39844c-2.6992 0-4.8984 1.8984-5.3008 4.5h-8.8008c-0.39844-1.5-1.8008-2.6016-3.3984-2.6016l-14.902 0.003906c-2 0-3.5 1.6016-3.5 3.5 0 1.8984 1.6016 3.5 3.5 3.5h14.801c1.6016 0 3-1.1016 3.3984-2.6016h8.8008c0.5 2.5 2.6992 4.5 5.3008 4.5h0.39844v6.6992c0 1.3008-0.19922 2.5-0.69922 3.6992-2.1016-0.80078-4.3984-1.1992-6.6992-1.1992-6.3984 0-12.5 3.1016-16.301 8.1992l-11.402 0.003906c-0.39844 0-0.80078 0.30078-0.89844 0.69922-0.10156 0.39844 0 0.80078 0.39844 1.1016l15.301 10.398v3.8984c0 0.5 0.39844 0.89844 0.89844 0.89844l65.902 0.003906c0.5 0 0.89844-0.39844 0.89844-0.89844v-3.8984l15.301-10.398c0.5-0.20703 0.60156-0.60547 0.5-1.0078zm-81-21.898h-14.898c-0.89844 0-1.6016-0.69922-1.6016-1.6016 0-0.89844 0.69922-1.6016 1.6016-1.6016h14.801c0.89844 0 1.6016 0.69922 1.6016 1.6016 0.097656 0.80078-0.60156 1.6016-1.5039 1.6016zm17.5 1.8008c-1.8984 0-3.5-1.6016-3.5-3.5 0-1.8984 1.6016-3.5 3.5-3.5h0.39844v7.1016l-0.39844-0.003906zm41.602 15.5c4.1016 0 8 1.3984 11.199 3.8984h-22.398c3.0977-2.5 7-3.8984 11.199-3.8984zm-26.301 0.89844c1.8008-2.1016 4.3984-3.3008 7.1992-3.3008 3.1016 0 6 1.5 7.8008 4-0.69922 0.5-1.3008 1-1.8984 1.5-1.3008-1.8984-3.5-3.1016-5.8984-3.1016-2 0-3.8984 0.89844-5.3008 2.3008-0.70312-0.39844-1.3008-0.89844-1.9023-1.3984zm11.301 3h-3.8008c-1.3008 0-2.6016-0.30078-3.8008-0.69922 1-0.80078 2.1992-1.3008 3.5-1.3008 1.6016 0 3.1016 0.80078 4.1016 2zm-33.602-6.3008c2 0 4 0.30078 5.8984 1-0.60156 1-1.3008 1.8008-2.1016 2.6016-1.1992-0.30078-2.5-0.5-3.8008-0.5-3.3984 0-6.8008 1.1992-9.5 3.3008h-4.3984c3.5039-4.1016 8.6016-6.4023 13.902-6.4023zm1.6992 5c-1.5 0.80078-3.3008 1.3008-5.1016 1.3008h-2.5c1.8008-0.89844 3.8984-1.3984 5.8984-1.3984 0.60547 0 1.1055 0.097657 1.7031 0.097657zm51.203 16.402h-64v-2.5h64zm0.59766-4.4023h-65.301l-13-8.8008h91.199z"/>
</svg>
