<?xml version="1.0" encoding="UTF-8"?>
<svg width="100pt" height="100pt" version="1.1" viewBox="0 0 100 100" xmlns="http://www.w3.org/2000/svg">
 <g>
  <path d="m25.898 62.719c-1.7148 0-3.1094 1.3984-3.1094 3.1133 0 0.55469 0.44531 1 1 1 0.55469 0 1-0.44531 1-1 0-0.61328 0.5-1.1133 1.1094-1.1133 0.61328 0 1.1133 0.5 1.1133 1.1133 0 0.55469 0.44531 1 1 1 0.55469 0 1-0.44531 1-1 0-1.7148-1.3984-3.1133-3.1133-3.1133z"/>
  <path d="m70.945 70.645 0.44922-0.51562c0.085938-0.050781 0.16406-0.11719 0.23438-0.19141 1.7773-1.9766 3.0117-4.3906 3.5742-6.9727 0.11719-0.53906-0.22656-1.0703-0.76562-1.1875-0.53906-0.11719-1.0703 0.22656-1.1875 0.76562-0.47656 2.1836-1.5039 4.2266-2.9844 5.9219-0.09375 0.054687-0.17578 0.125-0.25 0.20312l-0.51562 0.60156c-2.5156 2.4258-5.8125 3.7617-9.293 3.7617h-1.4297c-0.55469 0-1 0.44531-1 1s0.44531 1 1 1h1.4297c4 0 7.793-1.5352 10.738-4.3867z"/>
  <path d="m53.203 73.031h-0.75c-0.55469 0-1 0.44531-1 1s0.44531 1 1 1h0.75c0.55469 0 1-0.44531 1-1s-0.44531-1-1-1z"/>
  <path d="m89.348 54.07c-0.71094-0.72266-1.6641-1.1211-2.6914-1.1211-2.0938 0-3.8008 1.7031-3.8008 3.8008v6.9258c0 4.0742-2.8047 7.5-6.582 8.4688 2.7656-3.5547 4.2812-7.8945 4.2812-12.477 0-6.0156-2.75-11.539-7.5469-15.145-4.4648-3.3633-9.9961-4.5742-15.352-3.4219v-8.4141c3.0547-0.48438 5.3945-3.1328 5.3945-6.3242 0-3.5273-2.8672-6.3945-6.3945-6.3945-1.0195 0-2.0117 0.23828-2.9023 0.69531-0.89062-0.45703-1.8828-0.69531-2.9023-0.69531-3.5273 0-6.3945 2.8672-6.3945 6.3945 0 3.1914 2.3438 5.8438 5.3945 6.3242v11.402l-16.605 7.2812c0.11719-1.4492-0.03125-2.7773-0.48438-3.9648-0.085938-0.21875-0.17578-0.41797-0.28125-0.63672-1.7305-3.5664-5.418-4.0977-8.1133-3.0742-2.6992 1.0195-5.1172 3.8633-4.0469 7.7109 0.066407 0.21875 0.13281 0.42969 0.21094 0.64453 0.51562 1.3594 1.4258 2.6016 2.707 3.707l-2.5547 1.1211c-2.1562 0.9375-3.9805 2.4805-5.2773 4.4609-0.46875 0.71484-0.82812 1.4844-1.1328 2.2773-2.6289 0.10156-4.7422 2.2617-4.7422 4.9219 0 2.7188 2.2109 4.9297 4.9297 4.9297 0.10156 0 0.20703-0.011719 0.3125-0.019531 2.0508 4.0195 6.1914 6.5781 10.758 6.5781h48.559c9.0156 0 16.352-7.3359 16.352-16.352v-6.9258c0.011719-1.0234-0.38281-1.9805-1.0938-2.6797zm-42.887-27.707c0-2.4219 1.9727-4.3945 4.3945-4.3945 0.84375 0 1.6602 0.23828 2.3594 0.6875 0.32812 0.21094 0.75391 0.21094 1.0859 0 0.69922-0.45312 1.5156-0.6875 2.3594-0.6875 2.4219 0 4.3945 1.9727 4.3945 4.3945 0 2.4297-1.9727 4.4023-4.3945 4.4023-0.55469 0-1 0.44531-1 1v9.875c-0.050781 0.015625-0.09375 0.039063-0.14062 0.054687-0.53516 0.17969-1.0508 0.37109-1.543 0.58984-0.007812 0.003906-0.011718 0.003906-0.019531 0.007813l-2.1016 0.91797v-11.445c0-0.55469-0.44531-1-1-1-2.4258 0-4.3945-1.9727-4.3945-4.4023zm-24.047 24.988c-0.0625-0.17187-0.11719-0.34375-0.16406-0.5-0.73438-2.6328 0.89453-4.5508 2.832-5.2812 0.57031-0.21484 1.1914-0.33594 1.8125-0.33594 1.4766 0 2.9531 0.6875 3.7891 2.4062 0.082031 0.17188 0.15234 0.33594 0.21875 0.5 0.44531 1.1719 0.51953 2.5742 0.21875 4.1719l-5.7969 2.543c-1.4453-1.0469-2.4258-2.2227-2.9102-3.5039zm-10.867 17.188c0-1.3398 0.89844-2.4727 2.1211-2.8281-0.011719 0.058593-0.015625 0.11719-0.023438 0.17578-0.039062 0.23047-0.070312 0.46484-0.097656 0.69922-0.011719 0.11328-0.027344 0.22266-0.039063 0.33594-0.03125 0.34375-0.046874 0.68359-0.046874 1.0273 0 0.37109 0.023437 0.74219 0.054687 1.1055 0.007813 0.10156 0.023437 0.20703 0.035156 0.30859 0.035157 0.28906 0.078125 0.57812 0.13281 0.86328 0.015625 0.082032 0.027344 0.16406 0.046875 0.24609 0.070312 0.32031 0.14844 0.63672 0.24219 0.94922-1.3789-0.23828-2.4258-1.4375-2.4258-2.8828zm4.7461 3.4219c-0.55469-1.2695-0.83594-2.6172-0.83594-4.0078 0-1.0156 0.15625-2.0312 0.46484-3.0234v-0.003907c0.27344-0.87891 0.66406-1.7148 1.1719-2.4883 1.082-1.6523 2.6055-2.9375 4.418-3.7266l9.3789-4.1133 1.5117-0.66016h0.003906l22.359-9.8086c0.69531-0.30469 1.4062-0.5625 2.1797-0.78516 0 0 0.003907 0 0.003907-0.003906 1.5469-0.44531 3.1172-0.66406 4.6758-0.66406 3.6172 0 7.1719 1.1797 10.188 3.4453 4.2891 3.2266 6.75 8.1641 6.75 13.547 0 4.9102-1.9102 9.5234-5.375 12.992-0.023438 0.019532-0.042969 0.039063-0.058594 0.054688 0 0-0.003906 0-0.003906 0.003906-2.0469 2.0312-4.5 3.5039-7.168 4.3789-1.832 0.60156-3.7617 0.92969-5.7461 0.92969l-34.664 0.003906c-4.0273 0-7.6602-2.3828-9.2539-6.0703zm72.16-8.2812c0 7.9141-6.4375 14.352-14.352 14.352h-5.0703c0.13281-0.0625 0.25781-0.14062 0.38672-0.20703 0.20703-0.10547 0.41406-0.21484 0.61719-0.32812 0.33594-0.1875 0.66406-0.38281 0.98828-0.58984 0.1875-0.11719 0.37891-0.23438 0.56641-0.35938 0.42969-0.28906 0.84375-0.59766 1.2539-0.92188 0.10938-0.085938 0.21875-0.17578 0.32812-0.26562 0.35938-0.30078 0.71484-0.60547 1.0586-0.93359 5.8711-0.070312 10.625-4.8672 10.625-10.75v-6.9258c0-0.99219 0.80859-1.8008 1.8008-1.8008 0.48438 0 0.93359 0.1875 1.2773 0.53516 0.33594 0.33203 0.52344 0.78125 0.52344 1.2656z"/>
 </g>
</svg>
