<?xml version="1.0" encoding="UTF-8"?>
<svg width="100pt" height="100pt" version="1.1" viewBox="0 0 100 100" xmlns="http://www.w3.org/2000/svg">
 <g>
  <path d="m50 59c-8.2852 0-15 4.0352-15 10 0 6 0.80078 12.062 2.3984 17.426 0.92969 3.1211 2.8281 6.9922 2.8281 6.9922 0.42578 0.87109 1.6719 1.582 2.7734 1.582h14c1.1016 0 2.3477-0.71094 2.7734-1.582 0 0 1.8945-3.8711 2.8242-6.9922 1.6016-5.3633 2.4023-11.426 2.4023-17.426 0-5.9648-6.7148-10-15-10z"/>
  <path d="m59 44c0 4.9688-4.0312 9-9 9s-9-4.0312-9-9 4.0312-9 9-9 9 4.0312 9 9"/>
  <path d="m50 5c-21.504 0-39 17.496-39 39 0 13.973 7.3906 26.246 18.461 33.133-0.28125-2.5195-0.4375-5.0977-0.45313-7.6914-7.3281-6.0547-12.008-15.211-12.008-25.441 0-18.195 14.805-33 33-33s33 14.805 33 33c0 10.23-4.6797 19.387-12.008 25.441-0.015626 2.5938-0.17188 5.168-0.45313 7.6914 11.07-6.8867 18.461-19.16 18.461-33.133 0-21.504-17.496-39-39-39z"/>
  <path d="m36.859 56.262c-3.0039-3.2188-4.8594-7.5234-4.8594-12.262 0-9.9258 8.0742-18 18-18s18 8.0742 18 18c0 4.7383-1.8555 9.043-4.8594 12.262 1.8242 1.0664 3.3867 2.3672 4.6211 3.8633 3.875-4.2656 6.2383-9.9258 6.2383-16.125 0-13.234-10.766-24-24-24s-24 10.766-24 24c0 6.1992 2.3633 11.859 6.2344 16.121 1.2383-1.4922 2.7969-2.793 4.625-3.8594z"/>
 </g>
</svg>
