<?xml version="1.0" encoding="UTF-8"?>
<svg width="100pt" height="100pt" version="1.1" viewBox="0 0 100 100" xmlns="http://www.w3.org/2000/svg">
 <g>
  <path d="m59.375 66.668h2.082c0.76562 0 1.1094-0.55469 0.76562-1.25l-1.1797-2.3594c-0.34766-0.69531-0.90234-0.69531-1.25 0l-1.1797 2.3594c-0.34766 0.69141-0.003906 1.25 0.76172 1.25z"/>
  <path d="m30.973 24.93c-7.6406 4.793-12.082 12.57-12.988 17.777-0.070313 0.55469 0.27734 1.1094 0.83203 1.1797h0.20703c0.48437 0 0.90234-0.34766 1.043-0.83203 0.83203-4.7227 5-11.875 12.016-16.32 0.48438-0.27734 0.625-0.97266 0.34766-1.457-0.34766-0.48438-0.97266-0.625-1.457-0.34766z"/>
  <path d="m72.082 20.902c-5.9727-4.2344-13.332-6.5977-21.18-6.8047-0.14062-2.0156-0.48438-4.0977-1.25-4.582-1.7344-1.1836-4.5117 0.41406-2.293 1.25 0.90234 0.34766 1.3906 1.7344 1.668 3.332-9.0273 0.14062-17.293 2.9844-23.957 8.4023-9.0977 7.4297-14.375 18.402-14.375 30.207 0 11.109 4.793 21.734 13.125 29.098 6.9453 6.1797 15.766 6.668 25.832 6.668 9.3047 0 19.859-0.625 27.43-8.1953 7.3594-7.3594 11.457-17.152 11.457-27.57 0.003907-12.637-6.1797-24.512-16.457-31.805zm-26.598-3.0547c0.27734-0.070312 0.55469-0.27734 0.625-0.55469l0.14062-0.625 3.1953 0.83203v1.5977c0.55469 1.1094 1.5273-0.14062 1.5273-0.14062s0-0.625 0.070313-1.5273l2.5-0.625v0.070312c-0.070313 0.20703-0.070313 0.41797 0 0.625 0.14062 0.20703 0.27734 0.34766 0.55469 0.34766l6.25 0.76562-3.125 0.41797c-1.043 0.14062-1.3203 0.69531-1.3906 0.97266-0.070312 0.27734-0.070312 0.83203 0.76562 1.3906l2.9844 1.8047-7.8477-2.082c-0.48438-0.14063-1.1797-0.20703-1.875-0.20703s-1.3906 0.070313-1.875 0.20703l-7.918 2.082 3.0547-1.875c0.83203-0.55469 0.83203-1.1094 0.76562-1.3906-0.070313-0.27734-0.34766-0.83203-1.3906-0.97266l-3.125-0.41797zm29.168 60c-5.9727 5.9727-14.305 7.1523-25 7.1523-9.3047 0-17.5-0.41797-23.473-5.7656-6.1797-5.4844-10.207-12.918-11.527-20.973 8.75 1.668 19.582 2.5 33.609 2.5 16.043 0 27.707-0.90234 36.457-2.8477-1.1094 7.5039-4.5781 14.445-10.066 19.934zm7.293-20.832v-2.5c0-0.41797-0.27734-0.69531-0.69531-0.69531s-0.69531 0.27734-0.69531 0.69531v2.707c-1.8047 0.27734-3.6094 0.48438-5.5547 0.69531v-2.707c0-0.41797-0.27734-0.69531-0.69531-0.69531-0.41797 0-0.69531 0.27734-0.69531 0.69531v2.7773 0.070313c-1.8047 0.14062-3.6797 0.27734-5.5547 0.34766v-2.5c0-0.41797-0.27734-0.69531-0.69531-0.69531s-0.69531 0.27734-0.69531 0.69531v2.5703c-1.8047 0.070313-3.6797 0.14063-5.5547 0.14063v-2.0156c0-0.41797-0.27734-0.69531-0.69531-0.69531-0.41797 0-0.69531 0.27734-0.69531 0.69531v2.0156c-1.8047 0-3.6797 0.070312-5.5547 0.070312v-2.082c0-0.41797-0.27734-0.69531-0.69531-0.69531s-0.69531 0.27734-0.69531 0.69531v2.082h-4.5156-1.043v-2.082c0-0.41797-0.27734-0.69531-0.69531-0.69531s-0.69531 0.27734-0.69531 0.69531v2.082h-5.5547v-2.082c0-0.41797-0.27734-0.69531-0.69531-0.69531s-0.69531 0.27734-0.69531 0.69531v2.082c-1.875 0-3.75-0.070312-5.5547-0.070312v-1.9453c0-0.41797-0.27734-0.69531-0.69531-0.69531-0.41797 0-0.69531 0.27734-0.69531 0.69531v1.875c-1.875-0.070313-3.75-0.14062-5.5547-0.27734v-2.293c0-0.41797-0.27734-0.69531-0.69531-0.69531-0.41797 0-0.69531 0.27734-0.69531 0.69531v2.2227c-1.875-0.14062-3.75-0.34766-5.5547-0.55469v-2.3594c0-0.41797-0.27734-0.69531-0.69531-0.69531s-0.69531 0.27734-0.69531 0.69531v2.2227c-1.25-0.20703-2.4297-0.34766-3.6094-0.625-0.14062-1.3203-0.27734-2.707-0.27734-4.0977 0-10.695 4.793-20.766 13.125-27.5 2.918-2.3594 6.1797-4.168 9.7227-5.4844l5 0.69531-5.418 3.2656c-0.34766 0.20703-1.043 0.55469-0.90234 1.25 0.070312 0.14062 0.20703 0.55469 0.83203 0.55469 0.20703 0 0.55469-0.070312 0.97266-0.14062l10.695-2.8477c0.76562-0.20703 2.2227-0.20703 2.9844 0l10.625 2.8477c0.41797 0.070313 0.69531 0.14062 0.97266 0.14062 0.69531 0 0.83203-0.41797 0.83203-0.55469 0.14062-0.625-0.55469-1.043-0.90234-1.25l-5.418-3.2656 4.9297-0.69531c2.7773 0.97266 5.3477 2.3594 7.707 4.0273 9.375 6.668 15 17.5 15 28.957 0 1.25-0.070312 2.5-0.20703 3.75-0.81641 0.13281-1.7891 0.33984-2.7617 0.48047zm-19.168-32.223v-0.69531z"/>
 </g>
</svg>
