<?xml version="1.0" encoding="UTF-8"?>
<svg width="100pt" height="100pt" version="1.1" viewBox="0 0 100 100" xmlns="http://www.w3.org/2000/svg">
 <g>
  <path d="m6.668 36.668c-0.92188 0-1.668-0.74609-1.668-1.6641v-30c0.003906-2.7617 2.2383-4.9961 5-5h80c2.7617 0.0039062 4.9961 2.2383 5 5v21.668c0 0.92188-0.74609 1.668-1.668 1.668s-1.668-0.74609-1.668-1.668v-21.668c0-0.92188-0.74609-1.668-1.668-1.668h-80c-0.92188 0-1.668 0.74609-1.668 1.668v30c0 0.92188-0.74609 1.668-1.6641 1.668z"/>
  <path d="m55 93.332h-6.668c-0.92188 0-1.668-0.74609-1.668-1.668 0-0.92187 0.74609-1.668 1.668-1.668h6.668c0.92188 0 1.668 0.74609 1.668 1.668 0 0.92188-0.74609 1.668-1.668 1.668z"/>
  <path d="m28.332 93.332h-18.332c-2.7617-0.003906-4.9961-2.2383-5-5v-30c0-0.92188 0.74609-1.668 1.668-1.668s1.668 0.74609 1.668 1.668v30c0 0.92188 0.74609 1.668 1.668 1.668h18.332c0.92187 0 1.668 0.74609 1.668 1.668s-0.74609 1.668-1.668 1.668z"/>
  <path d="m90 93.332h-18.332c-0.92188 0-1.668-0.74609-1.668-1.668 0-0.92187 0.74609-1.668 1.668-1.668h18.332c0.92188 0 1.668-0.74609 1.668-1.668v-40c0-0.92188 0.74609-1.668 1.668-1.668 0.92187 0 1.668 0.74609 1.668 1.668v40c-0.003906 2.7617-2.2383 4.9961-5 5z"/>
  <path d="m16.668 16.668c-2.7617 0-5-2.2383-5-5s2.2383-5 5-5 5 2.2383 5 5c-0.003907 2.7617-2.2383 4.9961-5 5zm0-6.668c-0.92188 0-1.668 0.74609-1.668 1.668s0.74609 1.668 1.668 1.668 1.668-0.74609 1.668-1.668-0.74609-1.668-1.668-1.668z"/>
  <path d="m83.332 16.668c-2.7617 0-5-2.2383-5-5s2.2383-5 5-5 5 2.2383 5 5c-0.003906 2.7617-2.2383 4.9961-5 5zm0-6.668c-0.92188 0-1.668 0.74609-1.668 1.668s0.74609 1.668 1.668 1.668 1.668-0.74609 1.668-1.668-0.74609-1.668-1.668-1.668z"/>
  <path d="m16.668 86.668c-2.7617 0-5-2.2383-5-5s2.2383-5 5-5 5 2.2383 5 5c-0.003907 2.7617-2.2383 4.9961-5 5zm0-6.668c-0.92188 0-1.668 0.74609-1.668 1.668s0.74609 1.668 1.668 1.668 1.668-0.74609 1.668-1.668-0.74609-1.668-1.668-1.668z"/>
  <path d="m83.332 86.668c-2.7617 0-5-2.2383-5-5s2.2383-5 5-5 5 2.2383 5 5c-0.003906 2.7617-2.2383 4.9961-5 5zm0-6.668c-0.92188 0-1.668 0.74609-1.668 1.668s0.74609 1.668 1.668 1.668 1.668-0.74609 1.668-1.668-0.74609-1.668-1.668-1.668z"/>
  <path d="m96.668 50h-20c-1.8398-0.003906-3.332-1.4922-3.332-3.332v-18.332c0.003906-1.8398 1.4922-3.332 3.332-3.332h20c1.8398 0.003906 3.332 1.4922 3.332 3.332v18.332c-0.003906 1.8398-1.4922 3.332-3.332 3.332zm-20-21.668v18.332h20.004l-0.003906-18.332z"/>
  <path d="m71.668 86.668h-16.668c-0.92188 0-1.668-0.74609-1.668-1.6641v-18.332c0.003907-1.8398 1.4922-3.332 3.332-3.332h13.332c1.8398 0.003906 3.332 1.4922 3.332 3.332v18.332c0 0.92188-0.74609 1.668-1.6641 1.668zm-15-3.332h13.332v-16.668h-13.332z"/>
  <path d="m68.332 100h-10c-2.7617-0.003906-4.9961-2.2383-5-5v-10c0-0.92188 0.74609-1.668 1.6641-1.668h16.668c0.92188 0 1.668 0.74609 1.668 1.6641v10c-0.003906 2.7617-2.2383 4.9961-5 5zm-11.668-13.332v8.332c0 0.92188 0.74609 1.668 1.668 1.668h10c0.92188 0 1.668-0.74609 1.668-1.668v-8.332z"/>
  <path d="m46.668 98.332h-16.668c-1.8398-0.003906-3.332-1.4922-3.332-3.332v-16.668c0.003906-1.8398 1.4922-3.332 3.332-3.332h16.668c1.8398 0.003906 3.332 1.4922 3.332 3.332v16.668c-0.003906 1.8398-1.4922 3.332-3.332 3.332zm-16.668-20v16.668h16.672l-0.003906-16.668z"/>
  <path d="m60 60h-20c-1.8398-0.003906-3.332-1.4922-3.332-3.332v-20c0.003906-1.8398 1.4922-3.332 3.332-3.332h20c1.8398 0.003906 3.332 1.4922 3.332 3.332v20c-0.003906 1.8398-1.4922 3.332-3.332 3.332zm-20-23.332v20h20.004l-0.003906-20z"/>
  <path d="m26.668 10c-0.21875-0.003906-0.43359-0.046875-0.63281-0.13281-0.20312-0.085938-0.38672-0.20313-0.55078-0.35156-0.14453-0.16797-0.26953-0.35156-0.36719-0.55078-0.078126-0.20312-0.11719-0.41797-0.11719-0.63281 0.003906-0.44141 0.17969-0.86328 0.48438-1.1836 0.39453-0.39063 0.95703-0.55859 1.5-0.44922 0.10938 0.015625 0.21875 0.050781 0.31641 0.10156 0.10156 0.03125 0.19922 0.082031 0.28125 0.14844 0.09375 0.058593 0.18359 0.125 0.26562 0.19922 0.30469 0.32031 0.47656 0.74219 0.48438 1.1836-0.003906 0.21875-0.046875 0.43359-0.13281 0.63281-0.085938 0.20312-0.20312 0.38672-0.35156 0.55078-0.16406 0.14844-0.34766 0.26562-0.55078 0.35156-0.19922 0.085937-0.41406 0.12891-0.63281 0.13281z"/>
  <path d="m26.668 16.668c-0.21875-0.003907-0.43359-0.046875-0.63281-0.13281-0.20312-0.085937-0.38672-0.20312-0.55078-0.35156-0.14453-0.16797-0.26953-0.35156-0.36719-0.55078-0.078126-0.20312-0.11719-0.41797-0.11719-0.63281 0.003906-0.44141 0.17578-0.86719 0.48438-1.1836 0.16016-0.14844 0.34766-0.26562 0.55078-0.35156 0.29688-0.13281 0.62891-0.16797 0.94922-0.10156 0.10938 0.015625 0.21875 0.050781 0.31641 0.10156 0.10547 0.035156 0.20703 0.085937 0.30078 0.14844 0.085938 0.0625 0.17188 0.12891 0.25 0.19922l0.19922 0.25c0.0625 0.09375 0.11328 0.19531 0.14844 0.30078 0.046875 0.09375 0.082031 0.19531 0.097656 0.30078 0.019531 0.10938 0.03125 0.22266 0.035156 0.33203-0.003906 0.21875-0.046875 0.43359-0.13281 0.63281-0.15234 0.41797-0.48047 0.75-0.89844 0.89844-0.19922 0.085937-0.41406 0.12891-0.63281 0.13281z"/>
  <path d="m33.332 10c-0.21875-0.003906-0.43359-0.046875-0.63281-0.13281-0.20312-0.085938-0.38672-0.20313-0.55078-0.35156-0.14844-0.16406-0.26563-0.34766-0.35156-0.55078-0.085937-0.19922-0.12891-0.41406-0.13281-0.63281 0.003907-0.44141 0.17969-0.86328 0.48438-1.1836 0.39453-0.39063 0.95703-0.55859 1.5-0.44922 0.10937 0.015625 0.21875 0.050781 0.31641 0.10156 0.10547 0.035157 0.20703 0.085938 0.30078 0.14844 0.085937 0.0625 0.17188 0.12891 0.25 0.19922 0.30469 0.32031 0.47656 0.74219 0.48438 1.1836-0.003906 0.21875-0.046875 0.43359-0.13281 0.63281-0.085938 0.20312-0.20313 0.38672-0.35156 0.55078-0.16406 0.14844-0.34766 0.26562-0.55078 0.35156-0.19922 0.085937-0.41406 0.12891-0.63281 0.13281z"/>
  <path d="m33.332 16.668c-0.21875-0.003907-0.43359-0.046875-0.63281-0.13281-0.20312-0.085937-0.38672-0.20312-0.55078-0.35156-0.14844-0.16406-0.26563-0.34766-0.35156-0.55078-0.085937-0.19922-0.12891-0.41406-0.13281-0.63281 0.003907-0.11328 0.011719-0.22266 0.03125-0.33203 0.019532-0.10547 0.054688-0.20703 0.10156-0.30078 0.035156-0.10547 0.085937-0.20703 0.14844-0.30078 0.0625-0.085937 0.12891-0.17188 0.19922-0.25 0.66797-0.61719 1.6992-0.61719 2.3672 0 0.070312 0.078125 0.13672 0.16016 0.19922 0.25 0.0625 0.09375 0.11328 0.19531 0.14844 0.30078 0.046875 0.09375 0.082031 0.19531 0.097656 0.30078 0.019531 0.10938 0.03125 0.22266 0.035157 0.33203-0.003907 0.21875-0.046876 0.43359-0.13281 0.63281-0.15234 0.41797-0.48047 0.75-0.89844 0.89844-0.19922 0.085938-0.41406 0.12891-0.63281 0.13281z"/>
  <path d="m40 10c-0.21875-0.003906-0.43359-0.046875-0.63281-0.13281-0.20313-0.085938-0.38672-0.20313-0.55078-0.35156-0.15234-0.16016-0.27734-0.34766-0.36719-0.55078-0.078125-0.20312-0.11719-0.41797-0.11719-0.63281 0-0.92188 0.74609-1.668 1.668-1.668s1.668 0.74609 1.668 1.668c-0.003907 0.21875-0.046875 0.43359-0.13281 0.63281-0.085937 0.20312-0.20312 0.38672-0.35156 0.55078-0.3125 0.3125-0.73828 0.48828-1.1836 0.48438z"/>
  <path d="m40 16.668c-0.21875-0.003907-0.43359-0.046875-0.63281-0.13281-0.20313-0.085937-0.38672-0.20312-0.55078-0.35156-0.14844-0.16406-0.26562-0.34766-0.35156-0.55078-0.085938-0.19922-0.12891-0.41406-0.13281-0.63281 0.003907-0.44141 0.17578-0.86719 0.48438-1.1836 0.66797-0.61719 1.6992-0.61719 2.3672 0 0.30859 0.31641 0.48047 0.74219 0.48438 1.1836-0.003907 0.21875-0.046875 0.43359-0.13281 0.63281-0.15234 0.41797-0.48047 0.75-0.89844 0.89844-0.19922 0.085938-0.41406 0.12891-0.63281 0.13281z"/>
  <path d="m46.668 10c-0.21875-0.003906-0.43359-0.046875-0.63281-0.13281-0.20312-0.085938-0.38672-0.20313-0.55078-0.35156-0.14453-0.16797-0.26953-0.35156-0.36719-0.55078-0.078126-0.20312-0.11719-0.41797-0.11719-0.63281 0.003906-0.44141 0.17969-0.86328 0.48438-1.1836 0.39453-0.39063 0.95703-0.55859 1.5-0.44922 0.10938 0.015625 0.21875 0.050781 0.31641 0.10156 0.10547 0.035157 0.20703 0.085938 0.30078 0.14844 0.085938 0.0625 0.17188 0.12891 0.25 0.19922 0.30469 0.32031 0.47656 0.74219 0.48438 1.1836-0.003907 0.21875-0.046876 0.43359-0.13281 0.63281-0.085937 0.20312-0.20312 0.38672-0.35156 0.55078-0.3125 0.3125-0.73828 0.48828-1.1836 0.48438z"/>
  <path d="m46.668 16.668c-0.21875-0.003907-0.43359-0.046875-0.63281-0.13281-0.20312-0.085937-0.38672-0.20312-0.55078-0.35156-0.14453-0.16797-0.26953-0.35156-0.36719-0.55078-0.078126-0.20312-0.11719-0.41797-0.11719-0.63281 0.003906-0.44141 0.17578-0.86719 0.48438-1.1836 0.16016-0.14844 0.34766-0.26562 0.55078-0.35156 0.29688-0.13281 0.62891-0.16797 0.94922-0.10156 0.10938 0.015625 0.21875 0.050781 0.31641 0.10156 0.10547 0.035156 0.20703 0.085937 0.30078 0.14844 0.085938 0.0625 0.17188 0.12891 0.25 0.19922l0.19922 0.25c0.0625 0.09375 0.11328 0.19531 0.14844 0.30078 0.046875 0.09375 0.082031 0.19531 0.097656 0.30078 0.019531 0.10938 0.03125 0.22266 0.035156 0.33203-0.003906 0.21875-0.046875 0.43359-0.13281 0.63281-0.15234 0.41797-0.48047 0.75-0.89844 0.89844-0.19922 0.085937-0.41406 0.12891-0.63281 0.13281z"/>
  <path d="m53.332 10c-0.44141 0.003906-0.87109-0.16797-1.1836-0.48438-0.14844-0.16406-0.26563-0.34766-0.35156-0.55078-0.085937-0.19922-0.12891-0.41406-0.13281-0.63281 0.003907-0.44141 0.17578-0.86719 0.48438-1.1836 0.64844-0.65234 1.7031-0.65625 2.3555-0.007813 0.31641 0.31641 0.49609 0.74609 0.49219 1.1914-0.003906 0.21875-0.046875 0.43359-0.13281 0.63281-0.085937 0.20312-0.20312 0.38672-0.35156 0.55078-0.3125 0.3125-0.73828 0.48828-1.1836 0.48438z"/>
  <path d="m53.332 16.668c-0.21875-0.003907-0.43359-0.046875-0.63281-0.13281-0.20312-0.085937-0.38672-0.20312-0.55078-0.35156-0.14844-0.16406-0.26563-0.34766-0.35156-0.55078-0.085937-0.19922-0.12891-0.41406-0.13281-0.63281 0.003907-0.11328 0.011719-0.22266 0.03125-0.33203 0.019532-0.10547 0.054688-0.20703 0.10156-0.30078 0.035156-0.10547 0.085937-0.20703 0.14844-0.30078 0.0625-0.085937 0.12891-0.17188 0.19922-0.25 0.39844-0.39453 0.96875-0.5625 1.5156-0.44922 0.10547 0.019531 0.20312 0.054687 0.30078 0.10156 0.10547 0.035156 0.20703 0.085938 0.30078 0.14844 0.085937 0.058593 0.16406 0.125 0.23438 0.19922 0.48828 0.46875 0.63672 1.1953 0.36719 1.8164-0.085937 0.20703-0.21094 0.39453-0.36719 0.55078-0.31641 0.30078-0.73047 0.47266-1.168 0.48438z"/>
  <path d="m60 10c-0.44141 0.003906-0.87109-0.16797-1.1836-0.48438-0.15234-0.16016-0.27734-0.34766-0.36719-0.55078-0.078125-0.20312-0.11719-0.41797-0.11719-0.63281-0.003906-0.92188 0.73828-1.6719 1.6562-1.6758 0.44922-0.003906 0.87891 0.17578 1.1914 0.49219 0.30859 0.31641 0.48047 0.74219 0.48437 1.1836-0.003906 0.21875-0.046874 0.43359-0.13281 0.63281-0.085938 0.20312-0.20312 0.38672-0.35156 0.55078-0.16406 0.14844-0.34766 0.26562-0.55078 0.35156-0.19922 0.085937-0.41406 0.12891-0.63281 0.13281z"/>
  <path d="m60 16.668c-0.21875-0.003907-0.43359-0.046875-0.63281-0.13281-0.20313-0.085937-0.38672-0.20312-0.55078-0.35156-0.14844-0.16406-0.26562-0.34766-0.35156-0.55078-0.085938-0.19922-0.12891-0.41406-0.13281-0.63281 0.003907-0.44141 0.17578-0.86719 0.48438-1.1836 0.66797-0.61719 1.6992-0.61719 2.3672 0 0.30859 0.31641 0.48047 0.74219 0.48438 1.1836-0.003907 0.21875-0.046875 0.43359-0.13281 0.63281-0.15234 0.41797-0.48047 0.75-0.89844 0.89844-0.19922 0.085938-0.41406 0.12891-0.63281 0.13281z"/>
  <path d="m66.668 10c-0.44141 0.003906-0.87109-0.16797-1.1836-0.48438-0.14844-0.16406-0.26562-0.34766-0.35156-0.55078-0.085937-0.19922-0.12891-0.41406-0.13281-0.63281 0-0.92188 0.74609-1.668 1.668-1.668s1.668 0.74609 1.668 1.668c-0.003907 0.21875-0.046876 0.43359-0.13281 0.63281-0.085937 0.20312-0.20312 0.38672-0.35156 0.55078-0.3125 0.3125-0.73828 0.48828-1.1836 0.48438z"/>
  <path d="m66.668 16.668c-0.21875-0.003907-0.43359-0.046875-0.63281-0.13281-0.20312-0.085937-0.38672-0.20312-0.55078-0.35156-0.14453-0.16797-0.26953-0.35156-0.36719-0.55078-0.078126-0.20312-0.11719-0.41797-0.11719-0.63281 0.003906-0.44141 0.17578-0.86719 0.48438-1.1836 0.078125-0.070312 0.16016-0.13672 0.25-0.19922 0.09375-0.0625 0.19531-0.11328 0.30078-0.14844 0.09375-0.046875 0.19531-0.082031 0.30078-0.10156 0.21484-0.050782 0.4375-0.050782 0.64844 0 0.10938 0.015624 0.21875 0.050781 0.31641 0.10156 0.10547 0.035156 0.20703 0.085938 0.30078 0.14844 0.085938 0.0625 0.17188 0.12891 0.25 0.19922l0.19922 0.25c0.0625 0.09375 0.11328 0.19531 0.14844 0.30078 0.046875 0.09375 0.082031 0.19531 0.097656 0.30078 0.019531 0.10938 0.03125 0.22266 0.035156 0.33203-0.003906 0.21875-0.046875 0.43359-0.13281 0.63281-0.15234 0.41797-0.48047 0.75-0.89844 0.89844-0.19922 0.085938-0.41406 0.12891-0.63281 0.13281z"/>
  <path d="m73.332 10c-0.44141 0.003906-0.87109-0.16797-1.1836-0.48438-0.14453-0.16797-0.26953-0.35156-0.36719-0.55078-0.078125-0.20312-0.11719-0.41797-0.11719-0.63281 0.003907-0.44141 0.17969-0.86328 0.48438-1.1836 0.16016-0.15234 0.34766-0.26953 0.55078-0.35156 0.62109-0.26172 1.3359-0.12109 1.8164 0.35156 0.30469 0.32031 0.47656 0.74219 0.48438 1.1836 0.003906 0.21484-0.035156 0.43359-0.11719 0.63281-0.097656 0.19922-0.21875 0.38281-0.36719 0.55078-0.16406 0.14844-0.34766 0.26562-0.55078 0.35156-0.19922 0.085937-0.41406 0.12891-0.63281 0.13281z"/>
  <path d="m73.332 16.668c-0.21875-0.003907-0.43359-0.046875-0.63281-0.13281-0.20312-0.085937-0.38672-0.20312-0.55078-0.35156-0.14844-0.16406-0.26563-0.34766-0.35156-0.55078-0.085937-0.19922-0.12891-0.41406-0.13281-0.63281 0.003907-0.11328 0.011719-0.22266 0.03125-0.33203 0.019532-0.10547 0.054688-0.20703 0.10156-0.30078 0.035156-0.10547 0.085937-0.20703 0.14844-0.30078 0.0625-0.085937 0.12891-0.17188 0.19922-0.25 0.39844-0.39453 0.96875-0.5625 1.5156-0.44922 0.10547 0.019531 0.20312 0.054687 0.30078 0.10156 0.10547 0.035156 0.20703 0.085938 0.30078 0.14844 0.085937 0.058593 0.16406 0.125 0.23438 0.19922 0.48828 0.46875 0.63672 1.1953 0.36719 1.8164-0.085937 0.20703-0.21094 0.39453-0.36719 0.55078-0.31641 0.30078-0.73047 0.47266-1.168 0.48438z"/>
  <path d="m13.332 60h-10c-1.8398-0.003906-3.332-1.4922-3.332-3.332v-20c0.0039062-1.8398 1.4922-3.332 3.332-3.332h10c0.92188 0 1.668 0.74609 1.668 1.6641v23.332c0 0.92188-0.74609 1.668-1.6641 1.668zm-10-23.332v20h8.332v-20z"/>
  <path d="m20 68.332h-6.668c-0.92188 0-1.668-0.74609-1.668-1.6641v-40c0-0.92188 0.74609-1.668 1.6641-1.668h6.668c0.92188 0 1.668 0.74609 1.668 1.6641v40c0 0.92188-0.74609 1.668-1.6641 1.668zm-5-3.332h3.332v-36.668h-3.332z"/>
  <path d="m25 28.332h-5c-0.92188 0-1.668-0.74609-1.668-1.668 0-0.92187 0.74609-1.668 1.668-1.668h5c0.92188 0 1.668 0.74609 1.668 1.668 0 0.92188-0.74609 1.668-1.668 1.668z"/>
  <path d="m25 35h-5c-0.92188 0-1.668-0.74609-1.668-1.668s0.74609-1.668 1.668-1.668h5c0.92188 0 1.668 0.74609 1.668 1.668s-0.74609 1.668-1.668 1.668z"/>
  <path d="m25 41.668h-5c-0.92188 0-1.668-0.74609-1.668-1.668s0.74609-1.668 1.668-1.668h5c0.92188 0 1.668 0.74609 1.668 1.668s-0.74609 1.668-1.668 1.668z"/>
  <path d="m25 48.332h-5c-0.92188 0-1.668-0.74609-1.668-1.668 0-0.92187 0.74609-1.668 1.668-1.668h5c0.92188 0 1.668 0.74609 1.668 1.668 0 0.92188-0.74609 1.668-1.668 1.668z"/>
  <path d="m25 55h-5c-0.92188 0-1.668-0.74609-1.668-1.668s0.74609-1.668 1.668-1.668h5c0.92188 0 1.668 0.74609 1.668 1.668s-0.74609 1.668-1.668 1.668z"/>
  <path d="m25 61.668h-5c-0.92188 0-1.668-0.74609-1.668-1.668s0.74609-1.668 1.668-1.668h5c0.92188 0 1.668 0.74609 1.668 1.668s-0.74609 1.668-1.668 1.668z"/>
  <path d="m25 68.332h-5c-0.92188 0-1.668-0.74609-1.668-1.668 0-0.92187 0.74609-1.668 1.668-1.668h5c0.92188 0 1.668 0.74609 1.668 1.668 0 0.92188-0.74609 1.668-1.668 1.668z"/>
  <path d="m63.332 86.668c-0.92188 0-1.668-0.74609-1.668-1.6641v-8.332c0-0.92188 0.74609-1.668 1.668-1.668s1.668 0.74609 1.668 1.668v8.332c0 0.92188-0.74609 1.668-1.6641 1.668z"/>
  <path d="m35 90c-0.92188 0-1.668-0.74609-1.668-1.6641v-3.332c0-0.92188 0.74609-1.668 1.668-1.668s1.668 0.74609 1.668 1.668v3.332c0 0.92187-0.74609 1.668-1.6641 1.668z"/>
  <path d="m41.668 90c-0.92188 0-1.668-0.74609-1.668-1.6641v-3.332c0-0.92188 0.74609-1.668 1.668-1.668s1.668 0.74609 1.668 1.668v3.332c0 0.92187-0.74609 1.668-1.6641 1.668z"/>
  <path d="m88.332 35h-6.668c-0.92187 0-1.668-0.74609-1.668-1.668s0.74609-1.668 1.668-1.668h6.668c0.92188 0 1.668 0.74609 1.668 1.668s-0.74609 1.668-1.668 1.668z"/>
  <path d="m88.332 43.332h-6.668c-0.92187 0-1.668-0.74609-1.668-1.668 0-0.92187 0.74609-1.668 1.668-1.668h6.668c0.92188 0 1.668 0.74609 1.668 1.668 0 0.92188-0.74609 1.668-1.668 1.668z"/>
 </g>
</svg>
