<?xml version="1.0" encoding="UTF-8"?>
<svg width="100pt" height="100pt" version="1.1" viewBox="0 0 100 100" xmlns="http://www.w3.org/2000/svg">
 <g>
  <path d="m57.672 21.141c0 3.9883-3.2305 7.2188-7.2188 7.2188s-7.2227-3.2305-7.2227-7.2188 3.2344-7.2188 7.2227-7.2188 7.2188 3.2305 7.2188 7.2188"/>
  <path d="m34.27 29.949c0.19922 0.32031 0.45703 0.60156 0.76172 0.82422 0 0 5.8789 5.1797 5.8789 5.5664l0.20703 4.9492c2.0195-0.23828 4.2695-0.59375 6.6211-0.96484 3.8594-0.60938 8.0859-1.2461 12.453-1.6172l-0.19141-2.8672c0-0.50391 5.3672-5.0625 5.3672-5.0625 0.30469-0.22656 0.5625-0.50781 0.76172-0.82422l7.9102-12.703c0.875-1.4062 0.44531-3.2539-0.96094-4.1289-1.4023-0.875-3.2578-0.44922-4.1289 0.95703l-7.6133 12.215s-6.2734 4.0508-11.137 4.0508-11.137-4.0508-11.137-4.0508l-7.6094-12.215c-0.875-1.4062-2.7266-1.8359-4.1328-0.95703s-1.8359 2.7227-0.95703 4.1289z"/>
  <path d="m61.121 53.008-0.10547-1.5938c-4.4141 0.34766-8.7227 1.0117-12.66 1.6328-2.375 0.375-4.6406 0.72656-6.7227 0.97656l-1.0156 11.051-5.9219-4.0391c-1.8281-1.2461-4.3125-0.77344-5.5586 1.0508-1.2422 1.8242-0.77344 4.3125 1.0508 5.5547l11.012 7.5078c0.67578 0.45703 1.4609 0.69531 2.2539 0.69531 0.52344 0 1.0469-0.10547 1.543-0.30859 1.25-0.52344 2.1484-1.6406 2.3906-2.9766l3.9609-14.219 4.7148 10.836v14.164c0 2.207 1.793 4 4 4s4-1.793 4-4v-15c0-0.54688-0.11328-1.0938-0.33203-1.5977z"/>
  <path d="m38.98 43.508c-9.25 0.66797-15.926-4.1641-15.926-4.1641v8.7695s6.6758 4.8359 15.926 4.1641c9.25-0.66406 24.508-5.1016 37.961-2.0508v-8.7695c-13.453-3.0547-28.711 1.3828-37.961 2.0508z"/>
 </g>
</svg>
