<?xml version="1.0" encoding="UTF-8"?>
<svg width="100pt" height="100pt" version="1.1" viewBox="0 0 100 100" xmlns="http://www.w3.org/2000/svg">
 <path d="m98.527 31.438l-27.266-19.035c-0.33594-0.30078-0.75-0.51953-1.2031-0.625-2.3828-0.53906-4.8672-0.93359-7.4141-1.1719-1.957-0.16406-3.6797-0.24219-5.2695-0.24219l-1.0234 0.019531c-7.3516 0.097657-14.973 1.5156-22.656 4.2188-2.0195 0.71875-3.9883 1.5078-5.8203 2.3359-4.375 1.9258-6.9609 3.5508-7.0703 3.6172-0.30469 0.19141-0.56641 0.44141-0.77344 0.73828l-19.223 27.539c-0.85156 1.2188-0.55078 2.8984 0.66797 3.75l15.215 10.617c1.2188 0.85156 2.8984 0.55469 3.75-0.67188l3.1016-4.4414 3.1289 29.145c0.082031 0.74219 0.46484 1.418 1.0625 1.8672 0.46875 0.35156 1.0391 0.53906 1.6172 0.53906 0.15625 0 0.31641-0.015625 0.47266-0.042969l55.793-9.9297c0.73437-0.13281 1.3828-0.55859 1.7891-1.1875 0.40625-0.625 0.53516-1.3945 0.35156-2.1172l-7.0586-28.199 4.1406 2.8945c0.58203 0.40625 1.3086 0.57031 2.0156 0.44141 0.70703-0.125 1.332-0.52344 1.7383-1.1094l10.602-15.195c0.84766-1.2266 0.55078-2.9023-0.66797-3.7539zm-40.102-6.7734c-2.4844 2.8125-6.1367 4.7695-10.277 5.5039-8.2344 1.4688-15.871-2.4023-17.234-8.6719 0.875-0.37891 1.7656-0.74609 2.6797-1.0977 0.019531 0.29687 0.050781 0.60156 0.097656 0.92187 0.47656 2.6562 2.3281 4.7344 5.2031 5.8516 1.6055 0.625 3.5 0.94141 5.5391 0.94141 1.2383 0 2.5352-0.11719 3.8438-0.35547 7.5039-1.332 11.926-5.75 11-11-0.058594-0.3125-0.14062-0.62891-0.24609-0.96094 0.71484 0.023437 1.4727 0.066406 2.2695 0.12109 0.47656 3-0.53516 6.0977-2.875 8.7461zm-22.934-4.9844c7.1211-2.5039 14.164-3.8203 20.895-3.9102l0.71094-0.011719c0.1875 0.4375 0.33594 0.88281 0.41797 1.3203 0.85156 4.832-4.1797 7.957-9.5508 8.9102-3.1484 0.57031-6.1328 0.39453-8.4141-0.49219-1.6055-0.62109-3.6172-1.9102-4.082-4.4766-0.074219-0.45703-0.085938-0.88281-0.070312-1.3047 0.027343-0.011719 0.058593-0.023438 0.09375-0.035156zm-17.926 37.555l-10.797-7.5352 1.5547-2.2305 10.895 7.3867zm14.156 26.551l-0.27344-2.5625 27.227-4.6758c0.14062 0.24609 0.38281 0.42969 0.6875 0.45703 0.027344 0 0.054688 0.003906 0.082031 0.003906 0.42969 0 0.79297-0.3125 0.87109-0.74219l3.5039-0.60156c0.0625-0.011718 0.10938-0.042968 0.16406-0.0625l0.33594 0.035157-0.039062 0.45312c-0.042969 0.49609 0.32812 0.92969 0.82031 0.96875 0.023438 0.003906 0.050782 0.003906 0.070313 0.003906 0.46484 0 0.85547-0.35547 0.89453-0.82812l0.035156-0.42188 4.4219 0.4375c0.03125 0.003906 0.0625 0.003906 0.089843 0.003906 0.21094 0 0.41406-0.070312 0.57422-0.20703 0.1875-0.15625 0.30078-0.37891 0.32031-0.61719l0.085938-1.0703 9.7148-1.5781 0.52344 2.0859zm23.961-12.328l0.73438 0.050781c0.019531 0.003907 0.039062 0.003907 0.0625 0.003907 0.46875 0 0.86328-0.36328 0.89453-0.83984 0.03125-0.49219-0.34375-0.92188-0.83594-0.95312l-0.70703-0.046875 0.26953-3.3008 1.0273 0.074218c0.023438 0.003907 0.046875 0.003907 0.070313 0.003907 0.46484 0 0.85938-0.35938 0.89453-0.83203 0.035156-0.49609-0.33594-0.92578-0.82812-0.96094l-1.0156-0.070312 0.16797-2.0195 5.7812 0.57812-0.058594 0.57812c-0.046875 0.49609 0.3125 0.93359 0.80859 0.98438 0.027343 0 0.058593 0.003907 0.089843 0.003907 0.45703 0 0.84766-0.34766 0.89453-0.80859l0.058594-0.57422 2.7148 0.26953-0.070312 0.70703c-0.050781 0.49219 0.30859 0.93359 0.80469 0.98047 0.027344 0.003906 0.058594 0.007813 0.089844 0.007813 0.45312 0 0.84766-0.34766 0.89062-0.80859l0.070313-0.70312 2.1641 0.21484-0.30469 3.7148-0.65625-0.0625c-0.48047-0.023438-0.92969 0.31641-0.97656 0.8125-0.046875 0.49219 0.32031 0.93359 0.8125 0.97656l0.67188 0.066406-0.40625 4.8828-3.5391-0.34766 0.097657-1.1602c0.042969-0.49609-0.32031-0.92969-0.81641-0.97266-0.47656-0.027344-0.92969 0.32031-0.97266 0.8125l-0.097656 1.1406-3.8984-0.38672 0.058594-0.65625c0.042969-0.49219-0.32812-0.92969-0.82031-0.96875-0.44922-0.019531-0.92578 0.32422-0.96875 0.82031l-0.0625 0.61719-3.2227-0.32031zm18.043-28.969l7.1445 28.539-9.125 1.4844 0.23828-2.8555 1.1289 0.10938c0.03125 0.003906 0.058594 0.003906 0.089844 0.003906 0.45703 0 0.84766-0.34375 0.89062-0.80859 0.046875-0.49219-0.3125-0.92969-0.80859-0.98047l-1.1562-0.11328 0.38281-4.6172c0.042969-0.48828-0.31641-0.91797-0.80859-0.96484l-3.043-0.30469 0.09375-0.94531c0.046875-0.49219-0.3125-0.92969-0.80859-0.98047-0.49219-0.023438-0.92969 0.30859-0.98437 0.80469l-0.09375 0.94141-2.7188-0.27344 0.10937-1.1016c0.050782-0.49609-0.30859-0.93359-0.80469-0.98438-0.51953-0.058594-0.93359 0.30859-0.98047 0.80469l-0.10938 1.1055-6.6875-0.67187c-0.23828-0.027344-0.48047 0.050781-0.66406 0.20312-0.1875 0.15625-0.30078 0.375-0.32031 0.61719l-0.24609 2.9492-0.95312-0.070313c-0.50391-0.050781-0.92188 0.33984-0.95703 0.83203-0.035156 0.49609 0.33984 0.92187 0.83594 0.95703l0.93359 0.066406-0.27344 3.3086-0.98438-0.066407c-0.48438-0.027343-0.92578 0.33984-0.95703 0.83203-0.035156 0.49609 0.33984 0.92578 0.83594 0.96094l0.95703 0.0625-0.19141 2.3594c-0.042968 0.48828 0.31641 0.92188 0.80859 0.96484l2.8594 0.28516-26.109 4.4844-3.1172-29.094c-0.11719-1.1172-0.92187-2.043-2.0117-2.3242-0.22266-0.058593-0.44922-0.082031-0.66797-0.082031-0.86719 0-1.6992 0.42188-2.2109 1.1562l-2.9961 4.3047-10.895-7.3867 14.766-21.152c0.59766-0.34766 1.793-1.0156 3.4609-1.832 1.8633 6.6211 8.918 11.059 17.113 11.059 1.3398 0 2.707-0.11719 4.0859-0.36719 4.9336-0.87891 9.3164-3.2461 12.336-6.6641 2.8281-3.1992 4.1562-6.9648 3.8398-10.727 1.1328 0.16797 2.2539 0.35938 3.3477 0.59375l21.691 15.141-7.5312 10.766-4.582-3.1914c-0.92188-0.64062-2.1445-0.64453-3.0664-0.007812-0.92188 0.64062-1.3594 1.7852-1.0859 2.8711zm11.992 2.5977l-1.7812-1.2383 7.5352-10.77 1.7617 1.2305z"/>
</svg>
