<?xml version="1.0" encoding="UTF-8"?>
<svg width="100pt" height="100pt" version="1.1" viewBox="0 0 100 100" xmlns="http://www.w3.org/2000/svg">
 <g>
  <path d="m80.199 43h-13.5l-21.301-23.801v-12.598c0-0.80078-0.69922-1.5-1.5-1.5h-38.898c-0.80078 0-1.5 0.69922-1.5 1.5v63.699c0 0.80078 0.69922 1.5 1.5 1.5h8.3984c-2.8984 2.3984-4.6992 6-4.6992 10 0 7.1992 5.8008 13 13 13s13-5.8008 13-13c0-1-0.10156-2-0.39844-3 8.6992-8.3984 22.602-8.3984 31.398 0-0.19922 1-0.39844 2-0.39844 3 0 7.1992 5.8008 13 13 13s13-5.8008 13-13c0-4-1.8008-7.6016-4.6992-10h8.3984c0.80078 0 1.5-0.69922 1.5-1.5v-11c0-9-7.3008-16.301-16.301-16.301zm-58.5 48.898c-5.5 0-10-4.5-10-10s4.5-10 10-10 10 4.5 10 10-4.5 10-10 10zm8.3008-20.098h9.3984c-2.1992 1-4.3008 2.3008-6.1992 4-0.80078-1.5-1.8984-2.9023-3.1992-4zm30.602 0h9.3984c-1.3008 1.1016-2.3984 2.3984-3.1992 4-1.9023-1.6992-4-3-6.1992-4zm27.797 10c0 5.5-4.5 10-10 10s-10-4.5-10-10 4.5-10 10-10 10 4.5 10 10zm5.1016-13h-87v-60.699h35.898v11.699c0 0.39844 0.10156 0.69922 0.39844 1l0.89844 1-10.195 6.1992c-0.69922 0.39844-0.89844 1.3984-0.5 2.1016 0.30078 0.5 0.80078 0.69922 1.3008 0.69922 0.30078 0 0.5-0.10156 0.80078-0.19922l10.699-6.3984 4.1016 4.6016-9.6992 5.8984c-0.69922 0.39844-0.89844 1.3984-0.5 2.1016 0.30078 0.5 0.80078 0.69922 1.3008 0.69922 0.30078 0 0.5-0.10156 0.80078-0.19922l10.199-6.1992 4.1016 4.6016-9.3008 5.6016c-0.69922 0.39844-0.89844 1.3984-0.5 2.1016 0.30078 0.5 0.80078 0.69922 1.3008 0.69922 0.30078 0 0.5-0.10156 0.80078-0.19922l9.5-5.8008c0.10156-0.10156 0.19922-0.10156 0.19922-0.19922l4.1016 4.6016-8.8984 5.3984c-0.69922 0.39844-0.89844 1.3984-0.5 2.1016 0.30078 0.5 0.80078 0.69922 1.3008 0.69922 0.30078 0 0.5-0.10156 0.80078-0.19922l9-5.3984c0.10156-0.10156 0.19922-0.19922 0.30078-0.30078l0.80078 0.89844c0.30078 0.30078 0.69922 0.5 1.1016 0.5h14.199c7.3984 0 13.301 6 13.301 13.301l-0.011719 9.2891z"/>
  <path d="m21.699 76.199c-3.1016 0-5.6016 2.5-5.6016 5.6016 0 3.1016 2.5 5.6016 5.6016 5.6016 3.1016 0 5.6016-2.5 5.6016-5.6016 0-3.1016-2.5-5.6016-5.6016-5.6016zm0 8.3008c-1.5 0-2.6016-1.1992-2.6016-2.6016 0-1.3984 1.1992-2.6016 2.6016-2.6016 1.3984 0 2.6016 1.1992 2.6016 2.6016 0 1.4023-1.1992 2.6016-2.6016 2.6016z"/>
  <path d="m78.301 87.5c3.1016 0 5.6016-2.5 5.6016-5.6016 0-3.1016-2.5-5.6016-5.6016-5.6016-3.1016 0-5.6016 2.5-5.6016 5.6016 0 3.1016 2.5 5.6016 5.6016 5.6016zm0-8.3008c1.5 0 2.6016 1.1992 2.6016 2.6016 0 1.3984-1.1992 2.6016-2.6016 2.6016-1.3984 0-2.6016-1.1992-2.6016-2.6016 0-1.4023 1.1992-2.6016 2.6016-2.6016z"/>
 </g>
</svg>
