<?xml version="1.0" encoding="UTF-8"?>
<svg width="100pt" height="100pt" version="1.1" viewBox="0 0 100 100" xmlns="http://www.w3.org/2000/svg">
 <g>
  <path d="m27.785 30.301c-4.8203-0.11719-10.414 1.1484-14.895 3.3867 0.097656 0.066406 0.19531 0.13281 0.28906 0.20312 1.9102 1.5078 2.2383 4.2773 0.73047 6.1914-1.5078 1.9102-4.2773 2.2383-6.1914 0.73047-0.39062-0.30859-0.71484-0.67188-0.96875-1.0703-1.168 2.7461-1.4336 5.9688-1.5898 9.125-0.17188 3.4492-0.22266 6.5078-0.066406 9.9883 0.18359 4.0078 1.1445 7.9453 1.5312 11.926 0.03125 0.30469 0.09375 0.60547 0.10938 0.91406 0.015625 0.28906-0.082031 0.57422-0.054687 0.85938 1 0.20703 2.1484 0.13672 3.1758 0.20312 1.125 0.074219 2.2539 0.15234 3.3789 0.22266 2.3086 0.14453 4.6211 0.26953 6.9336 0.28906 0.55078 0.003907 7.0078-0.25391 6.9766-0.41016-1.0625-5.3242-1.2539-11.359-1.7188-16.91-0.26172-3.1328-1.6992-7.3125 0.60156-9.7188 1.5898-1.6602 5.5742-1.5312 4.6406-4.7227-2.9727-0.17969-5.7812 1.2812-8.7305 0.78516 0.76953-1.2461 2.6133-2.4062 4.0703-3.2539 2.1641-1.2578 5.9062-2.1055 6.4688-4.6289 0.73438-3.2539-2.2656-4.0508-4.6914-4.1094z"/>
  <path d="m13.68 37.367c0 3.332-4.9961 3.332-4.9961 0 0-3.3281 4.9961-3.3281 4.9961 0"/>
  <path d="m42.418 45.871c0 2.3516-3.5273 2.3516-3.5273 0 0-2.3477 3.5273-2.3477 3.5273 0"/>
  <path d="m58.945 67.91c-0.875-2.2734-2.3359-4.4844-3.0352-6.7578-0.80078-2.6094-0.28516-3.7617 0.44531-6.1055 0.75781-2.4297 0.78906-5.2305 1.1836-7.9336 0.45313-3.1133 1.25-4.8398-1.9141-6.4609-1.1367-0.58594-2.3047-0.875-3.5078-0.93359 0.36719 0.54688 0.61719 1.1875 0.71094 1.8828 0.3125 2.4141-1.3867 4.625-3.8008 4.9414-2.4141 0.3125-4.625-1.3867-4.9375-3.8008-0.007813-0.066407-0.015625-0.12891-0.019532-0.19531-0.29297 0.21094-0.58203 0.42578-0.875 0.64062-0.14453-0.003906-0.28906 0.003906-0.43359 0.019531 0.89844 1.3516 1.0156 3.1445 0.15234 4.6445-1.2148 2.1094-3.9102 2.832-6.0195 1.6172-0.49219-0.28125-0.90625-0.64844-1.2383-1.0625-0.21094 0.22656-0.41016 0.4375-0.58984 0.62891-2.3906 2.4961-4.3438 5.043-1.6914 8.0703 2.6914 3.0703 4.9844 2.2969 6.1523 6.6914 0.83203 3.1289 0.76953 5.9961 0.94141 9.3594 3.5273 0.17969 6.8633 0.61719 10.238 0.94141 2.7305 0.26172 7.6328 0.68359 9.9609-0.66797-0.89453-1.6641-1.0391-3.7461-1.7227-5.5195zm-21.438-10.457c0.79688-0.62109 1.9375-1.4141 3.2617-2.2617 8.2656 2.4141 8.7852-3.3945 8.793-4.8008 1.7617-0.76172 3.3203-1.2656 4.375-1.2891-2.9492 9.8945-9.8477 10.355-16.43 8.3516z"/>
  <path d="m51.602 41.398c0 2.3516-3.5273 2.3516-3.5273 0 0-2.3516 3.5273-2.3516 3.5273 0"/>
  <path d="m85.609 41.914c0 2.3516-3.5234 2.3516-3.5234 0 0-2.3516 3.5234-2.3516 3.5234 0"/>
  <path d="m91.352 35.996c-0.62109-0.58203-1.2695-0.94141-1.9453-1.1836-0.11328 0.125-0.23047 0.24219-0.35938 0.35547-1.8281 1.6094-4.6133 1.4297-6.2188-0.39844-0.59375-0.67578-0.94141-1.4805-1.0547-2.3086-1.6484-0.77734-3.2891-1.6523-4.832-2.4297-2.0664-1.0391-4.3828-1.7422-6.3945-2.8164-1.0195-0.54297-2.1016-2.2617-2.8672-2.5859-6.2656-2.6406-8.1406 5.2383-4.2695 7.9492 3.8008 5.1484 9.6406 5.2578 11.34 12.016 1.6914 6.7188-7.5195 6.6133-10.062 11.449-2.5664 4.8867 8.4453 1.8555 10.363 5.918 2.0977 4.4414-0.12109 9.5977 1.6133 13.941 3.375-0.47266 12.578 0.41406 14.469-2.7578 1.1836-1.9883-0.26562-6.2344-0.23047-8.4062 0.046875-3.0664 1.8398-4.7891 2.6562-7.625 1.6992-5.8945 2.8398-16.387-2.207-21.117zm-3.582 10.332c-1.9727 1.4297-4.7266 0.98438-6.1523-0.98438-1.4258-1.9727-0.98438-4.7266 0.98437-6.1562 1.9727-1.4258 4.7266-0.98438 6.1562 0.98438 1.4258 1.9766 0.98438 4.7305-0.98828 6.1562z"/>
  <path d="m86.488 31.145c0 2.3516-3.5234 2.3516-3.5234 0 0-2.3516 3.5234-2.3516 3.5234 0"/>
 </g>
</svg>
