<?xml version="1.0" encoding="UTF-8"?>
<svg width="100pt" height="100pt" version="1.1" viewBox="0 0 100 100" xmlns="http://www.w3.org/2000/svg">
 <g>
  <path d="m65.289 14.848c-0.25-1.7617-1-6.2695-2.3008-7.5703-1.6289-1.6289-4.2656-1.6289-5.8906 0-1.6289 1.6289-1.6289 4.2656 0 5.8906 0.73047 0.73047 2.4727 1.2852 4.1719 1.6797z"/>
  <path d="m75.395 12.902c1.8086-1.8086 1.8086-4.7383 0-6.5469-1.8086-1.8086-4.7383-1.8086-6.5469 0-1.4648 1.4648-2.3008 6.5898-2.5703 8.4922h4.1211c2-0.44141 4.1328-1.082 4.9961-1.9453z"/>
  <path d="m52.793 23.508h8.1484v13.434h-8.1484z"/>
  <path d="m71.156 23.508h8.1523v13.434h-8.1523z"/>
  <path d="m71.156 16.879h10.176v4.5938h-10.176z"/>
  <path d="m50.77 16.879h10.176v4.5938h-10.176z"/>
  <path d="m62.977 16.879h6.1445v20.059h-6.1445z"/>
  <path d="m39.121 27.73c0 4.6719-3.7852 8.457-8.457 8.457-4.668 0-8.4531-3.7852-8.4531-8.457 0-4.668 3.7852-8.457 8.4531-8.457 4.6719 0 8.457 3.7891 8.457 8.457"/>
  <path d="m28.656 95h8.0117c2.6055 0 4.7344-2.1328 4.7344-4.7344v-39.164h13.539c4.8242 0 8.7383-3.9102 8.7383-8.7383v-1.3594h-34.812c-5.6055 0-10.199 4.5859-10.199 10.199v17.316c0 2.6055 2.1328 4.7344 4.7344 4.7344h0.51953v17.012c0 2.6055 2.1367 4.7344 4.7344 4.7344z"/>
 </g>
</svg>
