<?xml version="1.0" encoding="UTF-8"?>
<svg width="100pt" height="100pt" version="1.1" viewBox="0 0 100 100" xmlns="http://www.w3.org/2000/svg">
 <g>
  <path d="m31.25 57.5c0-6.2031-5.0469-11.25-11.25-11.25s-11.25 5.0469-11.25 11.25 5.0469 11.25 11.25 11.25 11.25-5.0469 11.25-11.25zm-15 0c0-2.0664 1.6836-3.75 3.75-3.75s3.75 1.6836 3.75 3.75-1.6836 3.75-3.75 3.75-3.75-1.6836-3.75-3.75z"/>
  <path d="m55.305 46.895l-5.3047 5.3008-5.3047-5.3008-5.3008 5.3008 5.3008 5.3047-5.3008 5.3047 5.3008 5.3008 5.3047-5.3008 5.3047 5.3008 5.3008-5.3008-5.3008-5.3047 5.3008-5.3047z"/>
  <path d="m77.348 57.5l-5.3008-5.3047-5.3047 5.3047 10.605 10.605 15.91-15.91-5.3047-5.3008z"/>
  <path d="m22.5 37.5c0-15.164 12.336-27.5 27.5-27.5s27.5 12.336 27.5 27.5v2.5h5v-2.5c0-17.922-14.578-32.5-32.5-32.5s-32.5 14.578-32.5 32.5v2.5h5z"/>
  <path d="m47.5 77.5c0 6.8945-5.6055 12.5-12.5 12.5s-12.5-5.6055-12.5-12.5v-2.5h-5v2.5c0 9.6484 7.8516 17.5 17.5 17.5s17.5-7.8516 17.5-17.5v-2.5h-5z"/>
 </g>
</svg>
