<?xml version="1.0" encoding="UTF-8"?>
<svg width="100pt" height="100pt" version="1.1" viewBox="0 0 100 100" xmlns="http://www.w3.org/2000/svg">
 <g>
  <path d="m5.793 22.332c-0.60938-0.60938-1.6016-0.60938-2.2109 0l-3.125 3.125c-0.29297 0.29297-0.45703 0.69141-0.45703 1.1055v7.8125c0 0.41406 0.16406 0.8125 0.45703 1.1055s0.69141 0.45703 1.1055 0.45703h6.25c0.41406 0 0.8125-0.16406 1.1055-0.45703s0.45703-0.69141 0.45703-1.1055v-7.8125c0-0.41406-0.16406-0.8125-0.45703-1.1055zm0.45703 10.48h-3.125v-5.6016l1.5625-1.5625 1.5625 1.5625z"/>
  <path d="m4.6875 20.312c0.41406-0.007812 0.80859-0.16797 1.1094-0.45312 0.60547-0.61719 0.60547-1.6016 0-2.2188-0.625-0.57812-1.5938-0.57812-2.2188 0-0.28906 0.29688-0.45312 0.69531-0.45312 1.1094 0.003906 0.41406 0.16797 0.80859 0.45312 1.1094 0.30078 0.28516 0.69531 0.44922 1.1094 0.45312z"/>
  <path d="m98.438 21.875h-21.875c-0.86328 0-1.5625 0.69922-1.5625 1.5625s0.69922 1.5625 1.5625 1.5625h21.875c0.86328 0 1.5625-0.69922 1.5625-1.5625s-0.69922-1.5625-1.5625-1.5625z"/>
  <path d="m14.062 25h25c0.86328 0 1.5625-0.69922 1.5625-1.5625s-0.69922-1.5625-1.5625-1.5625h-25c-0.86328 0-1.5625 0.69922-1.5625 1.5625s0.69922 1.5625 1.5625 1.5625z"/>
  <path d="m53.125 25h9.375c0.86328 0 1.5625-0.69922 1.5625-1.5625s-0.69922-1.5625-1.5625-1.5625h-9.375c-0.86328 0-1.5625 0.69922-1.5625 1.5625s0.69922 1.5625 1.5625 1.5625z"/>
  <path d="m79.23 31.707c-0.29297-0.29297-0.69141-0.45703-1.1055-0.45703h-10.938v-1.7617c3.0469-0.78516 5.0352-3.7148 4.6367-6.8398-0.39453-3.1211-3.0508-5.4609-6.1992-5.4609-0.86328 0-1.5625 0.69922-1.5625 1.5625s0.69922 1.5625 1.5625 1.5625c1.7266 0 3.125 1.3984 3.125 3.125s-1.3984 3.125-3.125 3.125c-0.86328 0-1.5625 0.69922-1.5625 1.5625v3.125h-20.312v-1.7617c3.0469-0.78516 5.0352-3.7148 4.6367-6.8398-0.39453-3.1211-3.0508-5.4609-6.1992-5.4609-0.86328 0-1.5625 0.69922-1.5625 1.5625s0.69922 1.5625 1.5625 1.5625c1.7266 0 3.125 1.3984 3.125 3.125s-1.3984 3.125-3.125 3.125c-0.86328 0-1.5625 0.69922-1.5625 1.5625v3.125h-14.062c-0.29297 0-0.57812 0.082031-0.82812 0.23828l-12.5 7.8125c-0.68359 0.42578-0.92969 1.3008-0.57031 2.0234l6.25 12.5c0.18359 0.37109 0.51172 0.65234 0.90234 0.78516 0.39453 0.12891 0.82422 0.097656 1.1953-0.085937l3.9883-1.9961v28.723c0 0.41406 0.16406 0.8125 0.45703 1.1055s0.69141 0.45703 1.1055 0.45703h59.375c0.41406 0 0.8125-0.16406 1.1055-0.45703s0.45703-0.69141 0.45703-1.1055v-40.625c0-0.41406-0.16406-0.8125-0.45703-1.1055zm-33.004 2.668-4.0391 4.0391-4.0391-4.0391zm10.766 14.297c-0.46094 0.28125-0.74219 0.78516-0.74219 1.3281v29.688h-28.125v-29.688c0-0.54297-0.28125-1.043-0.74219-1.3281-0.46094-0.28516-1.0352-0.3125-1.5195-0.070313l-4.8516 2.4258-4.918-9.832 10.918-6.8203h6.7188l7.3555 7.3555c0.60937 0.60938 1.5977 0.60938 2.207 0l7.3555-7.3555h6.7188l10.914 6.8203-4.9141 9.832-4.8516-2.4258h-0.003906c-0.48438-0.24219-1.0586-0.21484-1.5195 0.070313zm19.57 31.016v-20.312c0-0.86328-0.69922-1.5625-1.5625-1.5625s-1.5625 0.69922-1.5625 1.5625v20.312h-14.062v-27.16l3.9883 2.0039c0.77344 0.38672 1.7109 0.070312 2.0977-0.69922l6.25-12.5c0.35937-0.72266 0.11328-1.5977-0.57031-2.0234l-7.8828-4.9336h14.219l6.8984 6.8984v32.164h-1.5625c-0.86328 0-1.5625 0.69922-1.5625 1.5625s0.69922 1.5625 1.5625 1.5625h1.5625v3.125z"/>
  <path d="m78.125 46.875c0 0.86328 0.69922 1.5625 1.5625 1.5625s1.5625-0.69922 1.5625-1.5625v-3.6641c0-0.41406-0.16406-0.80859-0.45703-1.1016l-2.4531-2.4531h-0.003906c-0.28906-0.30469-0.69141-0.47656-1.1094-0.48047-0.41797 0-0.82031 0.16406-1.1172 0.46094s-0.46094 0.69922-0.45703 1.1172c0.003906 0.41797 0.17578 0.82031 0.47656 1.1094l1.9961 1.9961z"/>
  <path d="m64.062 64.062c-0.86328 0-1.5625 0.69922-1.5625 1.5625v9.375c0 0.86328 0.69922 1.5625 1.5625 1.5625s1.5625-0.69922 1.5625-1.5625v-9.375c0-0.41406-0.16406-0.8125-0.45703-1.1055s-0.69141-0.45703-1.1055-0.45703z"/>
  <path d="m45.312 51.562c-1.0977 0-2.1797 0.29688-3.125 0.85156-0.94531-0.55469-2.0273-0.85156-3.125-0.85156-3.4531 0-6.25 2.7969-6.25 6.25 0 5.5859 7.8945 8.9062 8.7969 9.2656 0.37109 0.14844 0.78516 0.14844 1.1562 0 0.90234-0.35938 8.7969-3.6797 8.7969-9.2656 0-1.6562-0.66016-3.2461-1.832-4.418s-2.7617-1.832-4.418-1.832zm-3.125 12.359c-2.1016-0.96484-6.25-3.4258-6.25-6.1094-0.007812-1.2344 0.71484-2.3594 1.8438-2.8594s2.4492-0.28516 3.3594 0.55078c0.59375 0.53516 1.5 0.53516 2.0938 0 0.91016-0.83594 2.2305-1.0508 3.3594-0.55078s1.8516 1.625 1.8438 2.8594c0 2.6719-4.1523 5.1406-6.25 6.1094z"/>
  <path d="m80.797 52.016c-0.625-0.57812-1.5938-0.57812-2.2188 0-0.29297 0.29297-0.45703 0.69531-0.45312 1.1094 0.003906 0.51953 0.26562 1.0039 0.69922 1.293 0.43359 0.28906 0.98047 0.33984 1.4609 0.14062 0.48047-0.19922 0.83203-0.625 0.93359-1.1367 0.10156-0.50781-0.054688-1.0352-0.42188-1.4062z"/>
  <path d="m62.953 58.266c-0.60547 0.61719-0.60547 1.6016 0 2.2188 0.29688 0.28906 0.69531 0.44922 1.1094 0.45312 0.41406-0.007812 0.80859-0.16797 1.1094-0.45312 0.60547-0.61719 0.60547-1.6016 0-2.2188-0.625-0.57812-1.5938-0.57812-2.2188 0z"/>
 </g>
</svg>
