<?xml version="1.0" encoding="UTF-8"?>
<svg width="100pt" height="100pt" version="1.1" viewBox="0 0 100 100" xmlns="http://www.w3.org/2000/svg">
 <g>
  <path d="m95 9.5391h-90c-0.55469 0-1 0.44922-1 1v74.461c0 0.55469 0.44531 1 1 1h90c0.55469 0 1-0.44531 1-1v-74.461c0-0.55469-0.44531-1-1-1zm-89 2.707 2.8828 2.8828c-0.019531 0.078125-0.050781 0.15625-0.050781 0.24219v64.797c0 0.085937 0.027344 0.16406 0.050781 0.24219l-2.8828 2.8828zm32.461 48.672c-2.1992-2.4922-2.6211-8.6406-2.625-8.6992-0.015626-0.23047-0.1875-0.42188-0.41406-0.46094-0.22656-0.035156-0.45312 0.082032-0.54297 0.29688-0.054687 0.12109-1.2969 3.0469-1.2969 6.0312 0 0.79297 0.14062 2.4375 0.27344 3.8125-1.2344-2.1055-3.0703-5.3945-3.4531-6.9336-1.4414-5.8477 1.6133-13.277 1.6445-13.355 0.085937-0.20312 0.023437-0.44141-0.14844-0.58203-0.17578-0.14062-0.42188-0.14844-0.60156-0.019532l-3.1523 2.2148-0.16016-6.6055c6.5117-1.3047 10.316-4.4375 13.383-6.9727 1.8555-1.5352 3.4609-2.8594 5.3086-3.5586 4.1094-1.5586 7-0.015626 8.3555 1.0391 2.0586 1.6055 3.332 4.1484 3.0977 6.1836-0.37891 3.2617-2.3242 5.0859-3.8828 5.6602-1.0195 0.375-1.9766 0.27344-2.5625-0.26953-0.76172-0.70703-0.89062-2.0938-0.36719-3.9023 0.51172-1.7734 0.23828-3.4219-0.73438-4.4062-0.74609-0.76172-1.7969-1.0273-2.875-0.73438-1.9805 0.53906-3.5977 2.7734-4.4375 6.1328-0.58594 2.3477-0.03125 5.1055 1.4492 7.1914 1.3945 1.9688 3.4609 3.168 5.8164 3.3828 4.3945 0.39844 7-1.5469 9.3086-3.2656 2.0586-1.5352 3.8359-2.8555 6.5391-2.4141 1.5234 0.25 3.0547 1.4219 3.8125 2.9102 0.44141 0.87109 0.80859 2.2344 0.03125 3.7578-1.2148 2.3867-2.4961 3.1719-3.168 2.9023-0.49219-0.19922-0.80078-1.0938-0.41016-2.3594 0.89453-2.8867-0.37109-3.8398-0.95313-4.1133-1.2617-0.59375-3.0273 0.054688-3.9414 1.4414-2.0898 3.1836-0.76562 6.5664 1.6289 8.2656 1.3125 0.93359 2.5742 1.3359 3.8047 1.3359 3.6953 0 7.0977-3.6367 10.641-7.4297 3.5078-3.75 7.125-7.6133 11.344-8.4883v11.148c-1.2148-0.61719-3.0898-1.2344-4.8359-0.41797-1.3945 0.65234-2.6367 1.9961-3.8398 3.2969-1.3164 1.4258-2.6758 2.8945-4.1406 3.3438-1.3828 0.42578-3.2422 0.33203-5.207 0.23438-2.0898-0.10156-4.457-0.21875-6.7461 0.25391-1.9844 0.40625-3.5195 1.3047-5 2.1719-1.7969 1.0508-3.4922 2.0469-5.9414 2.1914-1.4414 0.089844-2.7344-0.28516-4.1055-0.67578-1.5312-0.4375-3.1094-0.88672-5.1172-0.82422-1.7695 0.058594-3.5039 0.72266-5.5391 1.6016-0.085938-0.10547-0.15234-0.21484-0.23828-0.3125zm50.707-23.043c-4.6172 0.85547-8.4062 4.9062-12.074 8.832-4.6094 4.9336-8.5898 9.1875-13.137 5.9648-2-1.4219-3.1133-4.25-1.3711-6.9023 0.69531-1.0586 1.9688-1.4219 2.6797-1.0859 0.73438 0.34766 0.89062 1.4102 0.42578 2.9141-0.51562 1.6641-0.10938 3.1367 0.98828 3.582 1.0938 0.44531 2.8281-0.21094 4.4336-3.375 0.75391-1.4805 0.74219-3.1367-0.03125-4.6641-0.89453-1.7617-2.7188-3.1445-4.5391-3.4453-3.1172-0.51562-5.1484 1-7.2969 2.5977-2.2695 1.6875-4.6133 3.4375-8.6172 3.0742-2.0586-0.1875-3.8672-1.2422-5.0938-2.9648-1.3164-1.8555-1.8125-4.2969-1.2969-6.3672 0.73828-2.9492 2.1328-4.9727 3.7305-5.4102 0.72266-0.19531 1.4141-0.023438 1.8984 0.46875 0.71484 0.72656 0.89844 2.0078 0.48828 3.4297-0.85547 2.9531 0.039062 4.3438 0.64844 4.9102 0.86328 0.80469 2.207 0.98438 3.5898 0.47656 1.8203-0.67188 4.0977-2.7695 4.5273-6.4805 0.27344-2.3633-1.1562-5.2812-3.4766-7.0859-1.5195-1.1875-4.7617-2.918-9.3242-1.1875-2.0039 0.75781-3.668 2.1328-5.5938 3.7227-3.1055 2.5664-6.6172 5.457-12.77 6.7266l-0.37891-15.613c-0.007813-0.25781-0.21094-0.46875-0.46875-0.48828-0.24219-0.011718-0.48438 0.16406-0.52734 0.42188l-2.5586 16.129c-0.32031-0.011719-0.64844-0.039063-0.97656-0.085938l-0.91016-3.1875c-0.0625-0.22656-0.28125-0.37891-0.51562-0.35938-0.23438 0.015625-0.42969 0.19531-0.46094 0.42969-0.011718 0.089844-0.13281 1.0156-0.19922 2.5938-5.0391-1.7852-8.7812-7-10.137-9.1367v-9.9336h78.336l0.003906 21.5zm-65.293-0.82812-0.18359 1.1445-0.33984-1.1797c0.17969 0.015625 0.35156 0.023437 0.52344 0.035156zm-1.957 23.488c-0.078125 0.83594-0.35156 2.0703-0.65625 3.4023-5.1875-1.0469-8.9688-3.4805-10.43-4.5508v-31.266c1.8594 2.6523 5.4258 6.8477 10.105 8.3672-0.050781 2.4102 0.042969 5.8867 0.65234 10.082 0.53125 3.668 0.68359 10.195 0.32812 13.965zm-11.086 0.085938c1.8125 1.2461 5.3945 3.3203 10.203 4.2891-0.44141 1.918-0.86719 3.8438-0.86719 5.0859-0.003907 4.3125 1.0703 7.5156 1.7852 9.168l-11.121 0.003907zm12.223 18.547c-0.64453-1.3945-1.8945-4.6758-1.8867-9.1641 0.003906-1.2227 0.48047-3.293 0.94531-5.2969 0.007813-0.023437 0.011719-0.046875 0.015625-0.070312 0-0.003907 0.003906-0.007813 0.003906-0.015625v-0.007813c0.35547-1.5391 0.6875-2.9883 0.78125-3.9805 0.36328-3.8359 0.20313-10.473-0.33594-14.203-0.66016-4.5391-0.69922-8.2812-0.61719-10.656l1.3906 4.8633c0.0625 0.22656 0.26953 0.37109 0.51172 0.36328 0.23438-0.015625 0.42578-0.1875 0.46484-0.42188l2.3906-15.066 0.44922 18.668c0.003906 0.18359 0.10938 0.35156 0.27344 0.43359 0.16406 0.082031 0.35938 0.070313 0.51172-0.035156l2.6094-1.832c-0.85547 2.5586-2.2656 7.8711-1.1328 12.461 0.61719 2.5078 4.5625 8.875 4.7266 9.1445 0.12109 0.19922 0.36719 0.28516 0.58984 0.21094s0.35938-0.29688 0.33594-0.52734c-0.003906-0.046875-0.5-4.5312-0.5-5.9453 0-1.2617 0.24609-2.5312 0.51953-3.5469 0.33984 2.1484 1.0742 5.3047 2.6094 7.0469 2.3203 2.6328 1.8828 7.1523 1.8789 7.1992-0.023438 0.21875 0.097656 0.42578 0.30078 0.51172 0.19922 0.085938 0.43359 0.03125 0.57812-0.13281 0.015625-0.019531 1.6328-1.8984 2.6484-2.9805 0.62109-0.66016 1.2109-1.0078 1.6875-1.1836-1.125 1.6406-2.5898 5.1367 0.53516 9.9141 1.2188 1.8633 1.4805 3.375 1.5 4.2617zm24.785 0c-0.019532-1.0469-0.3125-2.7422-1.6641-4.8086-3.9023-5.9688-0.011719-9.5 0.15625-9.6484 0.14453-0.125 0.20312-0.32031 0.15234-0.50781-0.050781-0.18359-0.19922-0.32422-0.38672-0.35938-0.078125-0.015625-1.8477-0.33594-3.7109 1.6484-0.53125 0.5625-1.2188 1.3359-1.7617 1.9609-0.03125-1.3906-0.29688-3.5469-1.3594-5.3828 1.8633-0.79687 3.4492-1.3906 5.0039-1.4414 1.832-0.0625 3.3516 0.36719 4.8125 0.78516 1.457 0.41406 2.8359 0.80859 4.4414 0.71484 2.6836-0.16016 4.5664-1.2617 6.3867-2.3281 1.4766-0.86328 2.8711-1.6797 4.6953-2.0586 2.168-0.44531 4.3672-0.33984 6.4961-0.23438 2.0547 0.10156 3.9961 0.19531 5.5469-0.27734 1.7227-0.52734 3.1758-2.1016 4.582-3.6211 1.1367-1.2305 2.3125-2.5 3.5273-3.0703 1.5859-0.74219 3.4336 0.085938 4.4102 0.65625v27.977zm42.57-64.746c-0.078125-0.019531-0.15625-0.050781-0.24219-0.050781h-80.336c-0.085937 0-0.16406 0.027344-0.24219 0.050781l-2.8828-2.8828h86.586zm-80.82 66.695c0.078125 0.019531 0.15625 0.050781 0.24219 0.050781h80.336c0.085937 0 0.16406-0.027344 0.24219-0.050781l2.8828 2.8828h-86.586zm81.527-0.70703c0.019531-0.078125 0.050781-0.15625 0.050781-0.24219v-64.797c0-0.085938-0.027344-0.16406-0.050781-0.24219l2.8828-2.8828v71.047z"/>
  <path d="m81.203 33.875c2.7266 0 5.0977-1.9375 5.6367-4.6055v-0.019531c0.007812-0.035156 0.003906-0.070312 0-0.10547 0-0.03125 0-0.0625-0.007813-0.089843-0.007812-0.027344-0.019531-0.050782-0.03125-0.078126-0.015625-0.03125-0.023437-0.066406-0.046875-0.097656-0.015625-0.019531-0.035156-0.035156-0.050781-0.050781-0.027344-0.027344-0.054687-0.058594-0.089844-0.082031-0.003906-0.003906-0.007812-0.007813-0.011719-0.011719-0.019531-0.011719-0.046874-0.015625-0.066406-0.023437-0.027344-0.011719-0.054687-0.027344-0.085937-0.035157h-0.019531c-0.03125-0.003906-0.0625 0-0.09375 0-0.035157 0-0.070313 0-0.10156 0.007813-0.027344 0.007812-0.054687 0.019531-0.078125 0.03125-0.03125 0.015625-0.0625 0.023437-0.09375 0.046875-0.023438 0.015625-0.039062 0.039062-0.058594 0.058593-0.027344 0.027344-0.054687 0.050782-0.074218 0.085938-0.003907 0.003906-0.007813 0.007812-0.011719 0.011719-0.58203 0.99609-1.6562 1.6133-2.8086 1.6133-1.793 0-3.25-1.457-3.25-3.25s1.457-3.25 3.25-3.25c0.26562 0 0.42578 0.011719 0.66406 0.066406 0.011718 0.003906 0.019531 0 0.027343 0 0.03125 0.007813 0.0625 0.003906 0.09375 0.003906 0.035157 0 0.070313 0.003907 0.10547-0.003906 0.023438-0.003906 0.042969-0.015625 0.0625-0.023437 0.039062-0.015625 0.078125-0.027344 0.10938-0.050781 0.019531-0.011719 0.03125-0.03125 0.050781-0.046876 0.027344-0.027343 0.058594-0.054687 0.082032-0.089843 0.003906-0.007813 0.011718-0.011719 0.015624-0.015625 0.015626-0.023438 0.015626-0.046875 0.023438-0.070313 0.007812-0.023437 0.023438-0.042969 0.03125-0.070312 0.003906-0.007813 0-0.015625 0-0.023438 0.007812-0.035156 0.003906-0.070312 0.003906-0.10547 0-0.03125 0-0.058593-0.003906-0.089843-0.007812-0.03125-0.019531-0.058594-0.03125-0.085938-0.011719-0.03125-0.023438-0.0625-0.042969-0.089843-0.015625-0.023438-0.035156-0.042969-0.058593-0.0625-0.023438-0.027344-0.050782-0.054688-0.082032-0.074219-0.007812-0.003907-0.011718-0.011719-0.015625-0.015625-0.88672-0.53125-1.9062-0.80859-2.9414-0.80859-3.1719 0-5.75 2.5781-5.75 5.75-0.003906 3.1719 2.5781 5.75 5.75 5.75zm0-10.5c0.070313 0 0.14062 0.011719 0.21484 0.015625-1.5039 0.65625-2.5586 2.1523-2.5586 3.8945 0 2.3438 1.9062 4.25 4.25 4.25 0.60938 0 1.2031-0.14062 1.7461-0.38672-0.88281 1.0586-2.1992 1.7266-3.6484 1.7266-2.6172 0-4.75-2.1328-4.75-4.75-0.003906-2.6172 2.1289-4.75 4.7461-4.75z"/>
  <path d="m66.836 33.25c1.2383 0 2.25-1.0078 2.25-2.25s-1.0117-2.25-2.25-2.25c-1.2383 0-2.25 1.0078-2.25 2.25s1.0078 2.25 2.25 2.25zm0-3.5c0.6875 0 1.25 0.5625 1.25 1.25s-0.5625 1.25-1.25 1.25-1.25-0.5625-1.25-1.25 0.55859-1.25 1.25-1.25z"/>
  <path d="m59.043 23.25c1.0352 0 1.875-0.83984 1.875-1.875s-0.83984-1.875-1.875-1.875c-1.0352 0-1.875 0.83984-1.875 1.875s0.83984 1.875 1.875 1.875zm0-2.75c0.48047 0 0.875 0.39453 0.875 0.875s-0.39453 0.875-0.875 0.875-0.875-0.39453-0.875-0.875 0.39453-0.875 0.875-0.875z"/>
  <path d="m31.586 29.168c1.1016 0 2-0.89844 2-2 0-1.1016-0.89844-2-2-2-1.1016 0-2 0.89844-2 2 0 1.1016 0.89453 2 2 2zm0-3c0.55078 0 1 0.44922 1 1s-0.44922 1-1 1c-0.55078 0-1-0.44922-1-1s0.44531-1 1-1z"/>
  <path d="m38.949 47.27c-1.3516 0-2.4492 1.0977-2.4492 2.4492s1.0977 2.4492 2.4492 2.4492c1.3516 0 2.4492-1.0977 2.4492-2.4492s-1.0977-2.4492-2.4492-2.4492zm0 3.8984c-0.80078 0-1.4492-0.64844-1.4492-1.4492s0.64844-1.4492 1.4492-1.4492 1.4492 0.64844 1.4492 1.4492c0 0.79688-0.64844 1.4492-1.4492 1.4492z"/>
  <path d="m15.543 41c-1.2656 0-2.293 1.0273-2.293 2.293s1.0273 2.293 2.293 2.293 2.2891-1.0273 2.2891-2.293c0.003907-1.2656-1.0234-2.293-2.2891-2.293zm0 3.582c-0.71484 0-1.293-0.57812-1.293-1.293 0-0.71094 0.57812-1.293 1.293-1.293 0.71094 0 1.2891 0.57812 1.2891 1.293 0.003907 0.71484-0.57812 1.293-1.2891 1.293z"/>
  <path d="m38.586 37.793c0-0.89453-0.73047-1.625-1.625-1.625-0.89453 0-1.625 0.73047-1.625 1.625s0.73047 1.625 1.625 1.625c0.89453 0 1.625-0.73047 1.625-1.625zm-2.25 0c0-0.34375 0.28125-0.625 0.625-0.625s0.625 0.28125 0.625 0.625-0.28125 0.625-0.625 0.625c-0.34766 0-0.625-0.28125-0.625-0.625z"/>
  <path d="m19.086 22.582c1.2383 0 2.25-1.0078 2.25-2.25 0-1.2422-1.0117-2.25-2.25-2.25-1.2383 0-2.25 1.0078-2.25 2.25 0 1.2422 1.0078 2.25 2.25 2.25zm0-3.5c0.6875 0 1.25 0.5625 1.25 1.25s-0.5625 1.25-1.25 1.25-1.25-0.5625-1.25-1.25 0.55859-1.25 1.25-1.25z"/>
  <path d="m34.418 21.332c1.0117 0 1.832-0.82031 1.832-1.832s-0.82031-1.832-1.832-1.832-1.832 0.82031-1.832 1.832 0.82031 1.832 1.832 1.832zm0-2.6641c0.46094 0 0.83203 0.375 0.83203 0.83203 0 0.46094-0.375 0.83203-0.83203 0.83203-0.46094 0-0.83203-0.375-0.83203-0.83203 0-0.46094 0.37109-0.83203 0.83203-0.83203z"/>
  <path d="m42.816 24.668c1.332 0 2.4141-1.0859 2.4141-2.418s-1.0859-2.418-2.4141-2.418c-1.332 0-2.418 1.0859-2.418 2.418s1.0859 2.418 2.418 2.418zm0-3.8359c0.78125 0 1.4141 0.63672 1.4141 1.418s-0.63672 1.418-1.4141 1.418c-0.78125 0-1.418-0.63672-1.418-1.418s0.63672-1.418 1.418-1.418z"/>
 </g>
</svg>
