<?xml version="1.0" encoding="UTF-8"?>
<svg width="100pt" height="100pt" version="1.1" viewBox="0 0 100 100" xmlns="http://www.w3.org/2000/svg">
 <g>
  <path d="m39.266 32.09c0.066406-0.14062 0.15234-0.26953 0.25391-0.38281 0.29297-0.29297 0.69141-0.45703 1.1055-0.45703s0.8125 0.16406 1.1055 0.45703l6.707 6.707v-4.9531l-7.3555-7.3555c-0.60156-0.61328-0.60156-1.5977 0.007813-2.2031 0.60547-0.60938 1.5898-0.60938 2.2031-0.007813l5.1445 5.1445v-4.9531l-4.2305-4.2305c-0.60156-0.61328-0.60156-1.5977 0.007813-2.2031 0.60547-0.60938 1.5898-0.60938 2.2031-0.007813l2.0195 2.0195v-4.0391c0-0.86328 0.69922-1.5625 1.5625-1.5625s1.5625 0.69922 1.5625 1.5625v4.0391l2.0195-2.0195c0.29297-0.29688 0.69141-0.46094 1.1094-0.46484 0.41406 0 0.8125 0.16406 1.1094 0.45703 0.29297 0.29688 0.45703 0.69531 0.45703 1.1094-0.003906 0.41797-0.16797 0.81641-0.46484 1.1094l-4.2305 4.2305v4.957l5.1445-5.1445v-0.003907c0.29297-0.29688 0.69141-0.46094 1.1094-0.46484 0.41406 0 0.8125 0.16406 1.1094 0.45703 0.29297 0.29688 0.45703 0.69531 0.45703 1.1094-0.003906 0.41797-0.16797 0.81641-0.46484 1.1094l-7.3555 7.3555v4.957l6.707-6.707v-0.003907c0.29297-0.29688 0.69141-0.46094 1.1094-0.46484 0.41406 0 0.8125 0.16406 1.1094 0.45703 0.29297 0.29688 0.45703 0.69531 0.45703 1.1094-0.003906 0.41797-0.16797 0.81641-0.46484 1.1094l-8.918 8.918v2.4766c0 0.86328-0.69922 1.5625-1.5625 1.5625s-1.5625-0.69922-1.5625-1.5625v-2.4766l-8.418-8.418v-0.003907c0.39453 1.5195 0.59766 3.0781 0.60547 4.6484v5.2383c0.69531-0.003906 1.375 0.22656 1.9219 0.65625 1.0703 0.96094 1.5312 2.4297 1.2031 3.832-0.054688 0.34375-0.058594 0.69922-0.011719 1.0469 0.36328-0.007813 0.71875-0.089844 1.0469-0.24609 1.2773-0.66797 2.8125-0.58594 4.0078 0.21094 0.60156 0.48438 1.0273 1.1562 1.2109 1.9062 0.17969-0.75391 0.60547-1.4297 1.2109-1.9141 1.1992-0.79688 2.7344-0.87891 4.0117-0.21484 0.32031 0.14062 0.66406 0.23047 1.0117 0.27344 0.085938-0.35156 0.09375-0.71875 0.027344-1.0781-0.32812-1.3984 0.13281-2.8672 1.2031-3.8281 0.37891-0.28125 0.81641-0.47266 1.2773-0.5625 1.3906-2.8867 4.1602-4.8672 7.3438-5.25-2.8398-3.9766-2.6836-9.3555 0.38672-13.16-0.54687-0.50391-0.85547-1.2188-0.85156-1.9688 0.078125-1.082 0.64844-2.0703 1.5469-2.6758-1.168 0.375-2.4492 0.1875-3.4648-0.50391-1.0703-0.96094-1.5352-2.4258-1.207-3.8281 0.058594-0.34766 0.0625-0.69922 0.011719-1.0508-0.36328 0.007813-0.72266 0.089844-1.0508 0.24219-1.2734 0.66797-2.8125 0.58984-4.0078-0.20703-1.0703-0.96094-1.5312-2.4297-1.2031-3.832 0.054688-0.34375 0.058594-0.69922 0.011719-1.0469-0.36328 0.007813-0.71875 0.089844-1.0469 0.24609-1.2773 0.66406-2.8125 0.58594-4.0078-0.21094-0.60156-0.48438-1.0273-1.1562-1.2109-1.9062-0.17969 0.75391-0.60547 1.4297-1.2109 1.9141-1.1992 0.79688-2.7344 0.87891-4.0117 0.21484-0.32031-0.14453-0.66016-0.23438-1.0117-0.27344-0.085938 0.35156-0.09375 0.71875-0.027344 1.0781 0.32812 1.3984-0.13281 2.8672-1.2031 3.8281-1.1992 0.79687-2.7344 0.875-4.0078 0.21094-0.32422-0.14062-0.66406-0.23438-1.0117-0.27344-0.082031 0.35156-0.09375 0.71875-0.027344 1.0742 0.33203 1.4023-0.12891 2.8672-1.1992 3.8281-1.0156 0.69141-2.293 0.875-3.4609 0.5 0.90234 0.60938 1.4727 1.5977 1.5508 2.6836-0.003906 0.32422-0.0625 0.64453-0.17969 0.94922 2.2266 1.9414 3.9648 4.3828 5.0703 7.125z"/>
  <path d="m73.438 48.438c0 3.4531-2.7969 6.25-6.25 6.25s-6.25-2.7969-6.25-6.25 2.7969-6.25 6.25-6.25 6.25 2.7969 6.25 6.25"/>
  <path d="m90.625 48.438c0 3.4531-2.7969 6.25-6.25 6.25s-6.25-2.7969-6.25-6.25 2.7969-6.25 6.25-6.25 6.25 2.7969 6.25 6.25"/>
  <path d="m82.812 32.812c0 4.3164-3.4961 7.8125-7.8125 7.8125s-7.8125-3.4961-7.8125-7.8125 3.4961-7.8125 7.8125-7.8125 7.8125 3.4961 7.8125 7.8125"/>
  <path d="m21.875 54.688h15.625v-15.625c-0.003906-4.1445-1.6523-8.1133-4.582-11.043-2.9297-2.9297-6.8984-4.5781-11.043-4.582h-15.625v15.625c0.003906 4.1445 1.6523 8.1133 4.582 11.043 2.9297 2.9297 6.8984 4.5781 11.043 4.582zm-3.125-6.25h-3.125c-0.86328 0-1.5625-0.69922-1.5625-1.5625s0.69922-1.5625 1.5625-1.5625h3.125c0.86328 0 1.5625 0.69922 1.5625 1.5625s-0.69922 1.5625-1.5625 1.5625zm7.8125-14.062c0-0.86328 0.69922-1.5625 1.5625-1.5625s1.5625 0.69922 1.5625 1.5625v3.125c0 0.86328-0.69922 1.5625-1.5625 1.5625s-1.5625-0.69922-1.5625-1.5625zm-6.25-7.8125c0-0.86328 0.69922-1.5625 1.5625-1.5625s1.5625 0.69922 1.5625 1.5625v3.125c0 0.86328-0.69922 1.5625-1.5625 1.5625s-1.5625-0.69922-1.5625-1.5625zm-10.438 0.41797c0.63281-0.58594 1.6211-0.55078 2.207 0.082031l20.312 21.875c0.58594 0.63281 0.54688 1.6172-0.082031 2.207-0.63281 0.58594-1.6211 0.55078-2.207-0.082031l-20.312-21.875c-0.58594-0.63281-0.55078-1.6211 0.082031-2.207zm-2.0625 12.082c0-0.86328 0.69922-1.5625 1.5625-1.5625h3.125c0.86328 0 1.5625 0.69922 1.5625 1.5625s-0.69922 1.5625-1.5625 1.5625h-3.125c-0.86328 0-1.5625-0.69922-1.5625-1.5625z"/>
  <path d="m35.938 90.625h28.125v3.125h-28.125z"/>
  <path d="m6.2891 57.812c0.41016 8.0039 3.875 15.547 9.6836 21.07 5.8086 5.5234 13.512 8.6094 21.527 8.6172h25c8.0156-0.007812 15.719-3.0938 21.527-8.6172 5.8086-5.5234 9.2734-13.066 9.6836-21.07z"/>
 </g>
</svg>
