<?xml version="1.0" encoding="UTF-8"?>
<svg width="100pt" height="100pt" version="1.1" viewBox="0 0 100 100" xmlns="http://www.w3.org/2000/svg">
 <path d="m40 6c-3.332 13.336-7.5781 19.977-15.062 24.719l13.844 16.625c0.30469 0.34375 0.32422 0.90234 0.046875 1.2695-0.27734 0.36328-0.82422 0.49609-1.2344 0.29297l-5.0312-2.1562 1.4062 4.9688c0.10938 0.42969-0.10938 0.92188-0.50391 1.1289-0.39062 0.20703-0.92188 0.10938-1.2148-0.22266l-15.125-17.969c-1.8906 0.78125-3.9141 1.5625-6.125 2.3438v14l36 43v-13c15-5 24-16 30-29zm8 88c19-5 32-10 38-13v-10.969c-9.25 7.3711-26.883 16.707-38 20.969zm2-83l-1.875 1.875 30.438 37.844c0.46094 0.57812 0.5625 1.4219 0.25 2.0938-6.0938 13.199-15.445 24.68-30.844 29.938l0.03125 2.25c16-4 28-18 39-31zm-26.812 20.781c-1.293 0.72656-2.6719 1.3984-4.1562 2.0625l11.719 13.938-0.71875-2.5312c-0.21094-0.73047 0.68359-1.5039 1.375-1.1875l3.125 1.3438zm61.094 28.5c-9.2539 10.738-23 22.344-36.281 26.719v2c15-4 29-14 41-24z"/>
</svg>
