<?xml version="1.0" encoding="UTF-8"?>
<svg width="100pt" height="100pt" version="1.1" viewBox="0 0 100 100" xmlns="http://www.w3.org/2000/svg">
 <g>
  <path d="m41.078 28.266c0.53516-0.28125 0.76562-0.92578 0.53516-1.4844-0.23047-0.55469-0.84766-0.84766-1.4258-0.67188-8.4297 3.4844-14.41 11.137-15.75 20.156-0.042969 0.30859 0.035156 0.62109 0.22266 0.87109s0.46875 0.41406 0.77734 0.45703h0.17188c0.57812 0 1.0703-0.42578 1.1562-1 1.2227-8.1992 6.6562-15.156 14.312-18.328z"/>
  <path d="m43.484 34.719c0.55469-0.27734 0.79688-0.93359 0.55859-1.5039-0.23828-0.57031-0.88281-0.85547-1.4648-0.65234-6.1836 2.582-10.551 8.2266-11.5 14.859-0.082031 0.64062 0.35938 1.2305 1 1.3281h0.17188c0.58203-0.007812 1.0703-0.4375 1.1562-1.0156 0.82812-5.8125 4.6562-10.758 10.078-13.016z"/>
  <path d="m50 47.203c-1.1289 0.011719-2.1367 0.70312-2.5625 1.7461-0.42188 1.0469-0.17578 2.2461 0.62891 3.0391 0.80078 0.79297 2 1.0273 3.043 0.59375 1.0391-0.4375 1.7188-1.4531 1.7188-2.582-0.003906-0.74609-0.30469-1.4609-0.83594-1.9844-0.52734-0.52344-1.2461-0.81641-1.9922-0.8125z"/>
  <path d="m84.219 54.219c-0.53516-0.03125-1.0703 0.058594-1.5625 0.26562 0-0.23438-0.078125-0.48438-0.10938-0.71875 0.16016-1.25 0.25-2.5078 0.26562-3.7656 0-8.7031-3.457-17.047-9.6094-23.203-6.1562-6.1523-14.5-9.6094-23.203-9.6094s-17.047 3.457-23.203 9.6094c-6.1523 6.1562-9.6094 14.5-9.6094 23.203s3.457 17.047 9.6094 23.203c6.1562 6.1523 14.5 9.6094 23.203 9.6094 1.7891-0.011719 3.5781-0.16797 5.3438-0.46875 0.74609 1.0703 1.4141 2.1914 2 3.3594 1.1094 2.6133 2.9336 4.8633 5.2656 6.4844 1.7656 1.1719 6.3906 1.9375 10.938 1.9375 3.8594 0 7.625-0.5625 9.4844-1.9375 5.6406-4.1562 5.6406-11.297 5.6406-14.812l0.10938-15.922c-0.3125-3.6406-0.875-7.1562-4.5625-7.2344zm-34.219 25.469c-7.8047-0.007812-15.293-3.0859-20.844-8.5703-5.5508-5.4844-8.7188-12.934-8.8164-20.738-0.10156-7.8008 2.875-15.332 8.2852-20.957 5.4062-5.625 12.812-8.8945 20.613-9.0977 7.8008-0.20703 15.371 2.668 21.07 8 5.6953 5.3281 9.0664 12.691 9.3789 20.488-0.49219-0.21875-1.0234-0.32422-1.5625-0.3125-1.125-0.046875-2.2188 0.37891-3.0156 1.1719-0.5625-1.4648-1.9492-2.4492-3.5156-2.5-2.6875 0-3.7969 1.7344-4.2969 4.0156-0.54297-0.34375-1.1719-0.52344-1.8125-0.51562-1.332-0.070313-2.6055 0.55859-3.3594 1.6562 0.15625-0.76562 0.23828-1.5469 0.25-2.3281 0.035156-6.2656-4.6367-11.559-10.855-12.309-6.2188-0.74609-12.012 3.2891-13.465 9.3828-1.4531 6.0938 1.8945 12.309 7.7812 14.445 5.8906 2.1406 12.445-0.47656 15.242-6.082-0.16797 1.2969-0.26172 2.6016-0.28125 3.9062-0.09375 2.5938 0 10.125 0 10.547 0.09375 1.2812 0.15625 2.8125 0.15625 3.7188h-0.015625c-3.0312-3.2969-7.4375-4.8594-10.562-4-1.543 0.40234-2.6992 1.6758-2.9531 3.25-0.40625 2.625 1.9219 4.2656 4 5.7031l1.3594 0.98438c-0.92188 0.14062-1.8438 0.14062-2.7812 0.14062zm9.25-29.688c0.042969 3.75-2.1797 7.1562-5.6328 8.625-3.4531 1.4648-7.4492 0.69922-10.117-1.9375s-3.4805-6.6211-2.0547-10.094c1.4258-3.4688 4.8047-5.7344 8.5547-5.7344 5.0781-0.027344 9.2148 4.0625 9.25 9.1406zm26.25 27.391c0 3.3594 0 8.9844-4.375 12.203-2.8125 2.0781-14.516 1.4062-16.781-0.09375-1.8867-1.2969-3.3594-3.1172-4.2344-5.2344-1.0391-2.1875-2.4023-4.207-4.0469-5.9844-0.87891-0.84766-1.8359-1.6133-2.8594-2.2812-1.25-0.875-2.7969-1.9531-2.6875-2.6562 0-0.17188 0.078125-0.53125 0.76562-0.73438 0.30469-0.09375 0.62109-0.13672 0.9375-0.125 2.4062 0.19922 4.6484 1.3164 6.25 3.125 1.207 1.1758 3.0586 1.3867 4.5 0.51562 0.92188-0.45312 1.2812-0.875 0.875-6.4531 0 0-0.09375-7.8125 0-10.312 0.14062-4.5156 0.46875-5.625 1.5625-5.6406 0.09375 0.007812 0.17578 0.050781 0.23438 0.125 0.84375 1.4453 1.2148 3.1172 1.0625 4.7812v5.0781 2.8438c0 0.41406 0.16406 0.8125 0.45703 1.1055 0.29297 0.29297 0.69141 0.45703 1.1055 0.45703s0.8125-0.16406 1.1055-0.45703c0.29297-0.29297 0.45703-0.69141 0.45703-1.1055v-11.766c0.23438-4.4844 0.95312-4.4844 1.5625-4.4844s1.3438 1.5625 1.5625 4.4844c0.10938 2.0469 0.20312 10 0.20312 11.312v0.1875c0 0.41406 0.16406 0.8125 0.45703 1.1055s0.69141 0.45703 1.1055 0.45703 0.8125-0.16406 1.1055-0.45703 0.45703-0.69141 0.45703-1.1055v-0.15625l-0.078125-10.156c0.35938-4.4062 1.3281-4.4062 1.9219-4.4062 0.17969 0 0.35156 0.082031 0.46875 0.21875 0.80469 1.1836 1.1914 2.6016 1.0938 4.0312 0 2.3594 0 8.25 0.09375 10.938v1.3281c0 0.41406 0.16406 0.8125 0.45703 1.1055 0.29297 0.29297 0.69141 0.45703 1.1055 0.45703s0.8125-0.16406 1.1055-0.45703c0.29297-0.29297 0.45703-0.69141 0.45703-1.1055v-0.70312c0-1.2656 0-4.2656 0.20312-6.0469v-0.375c0.15625-1.9219 0.35938-3.625 1.0781-3.625 0.51562 0 1.1562 0 1.4688 4.125z"/>
 </g>
</svg>
