<?xml version="1.0" encoding="UTF-8"?>
<svg width="100pt" height="100pt" version="1.1" viewBox="0 0 100 100" xmlns="http://www.w3.org/2000/svg">
 <g>
  <path d="m50 17.977c4.4258 0 8.4336 1.793 11.336 4.6953 2.9023 2.9023 4.6953 6.9062 4.6953 11.336 0 4.4258-1.793 8.4336-4.6953 11.336-2.9023 2.9023-6.9062 4.6953-11.336 4.6953-4.4258 0-8.4336-1.793-11.336-4.6953-2.9023-2.9023-4.6953-6.9102-4.6953-11.336 0-4.4258 1.793-8.4336 4.6953-11.336 2.9023-2.9023 6.9062-4.6953 11.336-4.6953zm9.6758 6.3516c-2.4766-2.4766-5.8984-4.0078-9.6758-4.0078-3.7812 0-7.1992 1.5312-9.6758 4.0078-2.4766 2.4766-4.0078 5.8984-4.0078 9.6758 0 3.7812 1.5312 7.1992 4.0078 9.6758 2.4766 2.4766 5.8984 4.0078 9.6758 4.0078 3.7812 0 7.1992-1.5312 9.6758-4.0078 2.4766-2.4766 4.0078-5.8984 4.0078-9.6758 0-3.7812-1.5312-7.1992-4.0078-9.6758z"/>
  <path d="m37.148 72.168c0 0.60938-0.49219 1.1016-1.1016 1.1016s-1.1016-0.49219-1.1016-1.1016c0-8.9492-0.25391-9.457-3-14.941-0.52734-1.0547-1.1367-2.2734-1.7461-3.5312h-0.003907c-0.078124-0.16016-0.11328-0.33203-0.10937-0.5v-11.387c-0.17969-0.51953-0.47266-0.91016-0.81641-1.1719-0.32812-0.24609-0.70312-0.38281-1.0781-0.40625-0.375-0.023438-0.75 0.0625-1.0781 0.25391-0.29688 0.17578-0.55859 0.44531-0.75 0.8125v13.031c0 0.066406-0.003906 0.12891-0.015625 0.19141-0.070312 0.46484-0.65234 3.582-3.7227 3.8906-0.60547 0.058594-1.1406-0.38281-1.2031-0.98438-0.058594-0.60547 0.38281-1.1406 0.98438-1.2031 1.3828-0.13672 1.6992-1.6484 1.75-1.9688v-13.176c-0.003906-0.14844 0.023438-0.29688 0.085938-0.44141l1.0195 0.42188-1.0156-0.42188c0.38672-0.92969 1.0078-1.6133 1.75-2.0469 0.71094-0.41797 1.5234-0.60547 2.3281-0.55469 0.80078 0.050782 1.5977 0.33203 2.2773 0.84375 0.71484 0.53906 1.2969 1.3281 1.6211 2.3672 0.046875 0.125 0.074219 0.25781 0.074219 0.39844v11.32c0.66797 1.3789 1.1758 2.3945 1.6172 3.2773 2.9688 5.9258 3.2422 6.4766 3.2422 15.926z"/>
  <path d="m37.148 72.168c0 0.60938-0.49219 1.1016-1.1016 1.1016s-1.1016-0.49219-1.1016-1.1016c0-8.9492-0.25391-9.457-3-14.941-0.52734-1.0547-1.1367-2.2734-1.7461-3.5312h-0.003907c-0.078124-0.16016-0.11328-0.33203-0.10937-0.5v-11.387c-0.17969-0.51953-0.47266-0.91016-0.81641-1.1719-0.32812-0.24609-0.70312-0.38281-1.0781-0.40625-0.375-0.023438-0.75 0.0625-1.0781 0.25391-0.29688 0.17578-0.55859 0.44531-0.75 0.8125v13.031c0 0.066406-0.003906 0.12891-0.015625 0.19141-0.070312 0.46484-0.65234 3.582-3.7227 3.8906-0.60547 0.058594-1.1406-0.38281-1.2031-0.98438-0.058594-0.60547 0.38281-1.1406 0.98438-1.2031 1.3828-0.13672 1.6992-1.6484 1.75-1.9688v-13.176c-0.003906-0.14844 0.023438-0.29688 0.085938-0.44141l1.0195 0.42188-1.0156-0.42188c0.38672-0.92969 1.0078-1.6133 1.75-2.0469 0.71094-0.41797 1.5234-0.60547 2.3281-0.55469 0.80078 0.050782 1.5977 0.33203 2.2773 0.84375 0.71484 0.53906 1.2969 1.3281 1.6211 2.3672 0.046875 0.125 0.074219 0.25781 0.074219 0.39844v11.32c0.66797 1.3789 1.1758 2.3945 1.6172 3.2773 2.9688 5.9258 3.2422 6.4766 3.2422 15.926z"/>
  <path d="m19.578 72.191c0 0.60938-0.49219 1.1016-1.1016 1.1016-0.60937 0-1.1016-0.49219-1.1016-1.1016v-4.9258c-7.2812-20.289-6-22.402 1.1641-34.188 2.1172-3.4844 4.7734-7.8555 7.9062-13.926l0.97656 0.50391-0.98047-0.50391c0.058594-0.11328 0.13281-0.20703 0.21875-0.29297 1.1172-1.1992 2.4531-1.6758 3.707-1.6367 0.78125 0.023438 1.5273 0.24609 2.1602 0.61719 0.64453 0.375 1.1914 0.91016 1.5664 1.543 0.56641 0.96484 0.74219 2.1484 0.29297 3.3711l-1.0352-0.37891 1.0352 0.38281c-0.019531 0.054688-0.042969 0.10156-0.070313 0.15234l-8.0508 18.59c-0.23828 0.55469-0.88672 0.8125-1.4414 0.57422-0.55469-0.23828-0.8125-0.88672-0.57422-1.4414l8.0508-18.594c0.003907-0.011718 0.007813-0.027343 0.011719-0.039062 0.20312-0.55078 0.12891-1.0781-0.12109-1.5-0.17969-0.30469-0.44922-0.5625-0.77344-0.75391-0.33594-0.19531-0.71875-0.3125-1.1211-0.32422-0.64453-0.019531-1.3516 0.23828-1.9805 0.87891-3.1094 6.0117-5.7773 10.406-7.9102 13.918-6.7109 11.047-7.9062 13.012-0.9375 32.41 0.066406 0.14062 0.10156 0.30078 0.10156 0.46484v5.1016z"/>
  <path d="m19.578 72.191c0 0.60938-0.49219 1.1016-1.1016 1.1016-0.60937 0-1.1016-0.49219-1.1016-1.1016v-4.9258c-7.2812-20.289-6-22.402 1.1641-34.188 2.1172-3.4844 4.7734-7.8555 7.9062-13.926l0.97656 0.50391-0.98047-0.50391c0.058594-0.11328 0.13281-0.20703 0.21875-0.29297 1.1172-1.1992 2.4531-1.6758 3.707-1.6367 0.78125 0.023438 1.5273 0.24609 2.1602 0.61719 0.64453 0.375 1.1914 0.91016 1.5664 1.543 0.56641 0.96484 0.74219 2.1484 0.29297 3.3711l-1.0352-0.37891 1.0352 0.38281c-0.019531 0.054688-0.042969 0.10156-0.070313 0.15234l-8.0508 18.59c-0.23828 0.55469-0.88672 0.8125-1.4414 0.57422-0.55469-0.23828-0.8125-0.88672-0.57422-1.4414l8.0508-18.594c0.003907-0.011718 0.007813-0.027343 0.011719-0.039062 0.20312-0.55078 0.12891-1.0781-0.12109-1.5-0.17969-0.30469-0.44922-0.5625-0.77344-0.75391-0.33594-0.19531-0.71875-0.3125-1.1211-0.32422-0.64453-0.019531-1.3516 0.23828-1.9805 0.87891-3.1094 6.0117-5.7773 10.406-7.9102 13.918-6.7109 11.047-7.9062 13.012-0.9375 32.41 0.066406 0.14062 0.10156 0.30078 0.10156 0.46484v5.1016z"/>
  <path d="m62.852 72.168c0 0.60938 0.49219 1.1016 1.1016 1.1016s1.1016-0.49219 1.1016-1.1016c0-8.9492 0.25391-9.457 3-14.941 0.52734-1.0547 1.1367-2.2734 1.7461-3.5312h0.003907c0.078124-0.16016 0.11328-0.33203 0.10937-0.5v-11.387c0.17969-0.51953 0.47266-0.91016 0.81641-1.1719 0.32812-0.24609 0.70312-0.38281 1.0781-0.40625 0.375-0.023438 0.75 0.0625 1.0781 0.25391 0.29688 0.17578 0.55859 0.44531 0.75 0.8125v13.031c0 0.066406 0.003906 0.12891 0.015625 0.19141 0.070312 0.46484 0.65234 3.582 3.7227 3.8906 0.60547 0.058594 1.1406-0.38281 1.2031-0.98438 0.058594-0.60547-0.38281-1.1406-0.98438-1.2031-1.3828-0.13672-1.6992-1.6484-1.75-1.9688v-13.176c0.003906-0.14844-0.023438-0.29688-0.085938-0.44141l-1.0195 0.42188 1.0156-0.42188c-0.38672-0.92969-1.0078-1.6133-1.75-2.0469-0.71094-0.41797-1.5234-0.60547-2.3281-0.55469-0.80078 0.050782-1.5977 0.33203-2.2773 0.84375-0.71484 0.53906-1.2969 1.3281-1.6211 2.3672-0.046875 0.125-0.074219 0.25781-0.074219 0.39844v11.32c-0.66797 1.3789-1.1758 2.3945-1.6172 3.2773-2.9688 5.9258-3.2422 6.4766-3.2422 15.926z"/>
  <path d="m80.422 72.191c0 0.60938 0.49219 1.1016 1.1016 1.1016 0.60937 0 1.1016-0.49219 1.1016-1.1016v-4.9258c7.2812-20.289 6-22.402-1.1641-34.188-2.1172-3.4844-4.7734-7.8555-7.9062-13.926l-0.97656 0.50391 0.98047-0.50391c-0.058594-0.11328-0.13281-0.20703-0.21875-0.29297-1.1172-1.1992-2.4531-1.6758-3.707-1.6367-0.78125 0.023438-1.5273 0.24609-2.1602 0.61719-0.64453 0.375-1.1914 0.91016-1.5664 1.543-0.56641 0.96484-0.74219 2.1484-0.29297 3.3711l1.0352-0.37891-1.0352 0.38281c0.019531 0.054688 0.042969 0.10156 0.070313 0.15234l8.0508 18.59c0.23828 0.55469 0.88672 0.8125 1.4414 0.57422 0.55469-0.23828 0.8125-0.88672 0.57422-1.4414l-8.0508-18.594c-0.003907-0.011718-0.007813-0.027343-0.011719-0.039062-0.20312-0.55078-0.12891-1.0781 0.12109-1.5 0.17969-0.30469 0.44922-0.5625 0.77344-0.75391 0.33594-0.19531 0.71875-0.3125 1.1211-0.32422 0.64453-0.019531 1.3516 0.23828 1.9805 0.87891 3.1094 6.0117 5.7773 10.406 7.9102 13.918 6.7109 11.047 7.9062 13.012 0.9375 32.41-0.066406 0.14062-0.10156 0.30078-0.10156 0.46484v5.1016z"/>
  <path d="m38.977 71.273h-23.484c-0.60938 0-1.1016 0.49219-1.1016 1.1016v9.3008c0 0.60938 0.49219 1.1016 1.1016 1.1016h23.484c0.60938 0 1.1016-0.49219 1.1016-1.1016v-9.3008c0-0.60938-0.49219-1.1016-1.1016-1.1016zm-22.383 2.2031h21.281v7.0977h-21.281z"/>
  <path d="m61.023 71.273h23.484c0.60938 0 1.1016 0.49219 1.1016 1.1016v9.3008c0 0.60938-0.49219 1.1016-1.1016 1.1016h-23.484c-0.60938 0-1.1016-0.49219-1.1016-1.1016v-9.3008c0-0.60938 0.49219-1.1016 1.1016-1.1016zm22.383 2.2031h-21.281v7.0977h21.281z"/>
 </g>
</svg>
