<?xml version="1.0" encoding="UTF-8"?>
<svg width="100pt" height="100pt" version="1.1" viewBox="0 0 100 100" xmlns="http://www.w3.org/2000/svg">
 <path d="m72.27 40.906c-0.13281-0.41406-0.51562-0.69531-0.95312-0.69531s-0.82031 0.28125-0.95312 0.69531l-3.0078 9.4531-0.10156 0.41406c-0.019531 0.078124-0.027344 0.15625-0.027344 0.23437v33.953c0 0.55469 0.44531 1 1 1h6.1836c0.55469 0 1-0.44531 1-1v-33.953c0-0.078124-0.007812-0.16016-0.027344-0.23828zm-1.5625 5.5234h1.2227l1.2031 3.7695h-3.6172zm2.7031 37.535h-4.1836v-31.766h4.1836zm-14.191-27.98v-37.84c0-1.6562-1.3438-3-3-3h-2.9102v-0.11328c0-1.1016-0.89844-2-2-2h-2.0117c-1.1016 0-2 0.89844-2 2v0.11328h-3.4844v-0.11328c0-1.1016-0.89844-2-2-2h-2.0117c-1.1016 0-2 0.89844-2 2v0.11328h-3.4883v-0.11328c0-1.1016-0.89844-2-2-2h-2.0117c-1.1016 0-2 0.89844-2 2v0.11328h-3.4844v-0.11328c0-1.1016-0.89844-2-2-2h-2.0117c-1.1016 0-2 0.89844-2 2v0.11328h-3.4844v-0.11328c0-1.1016-0.89844-2-2-2h-2.0117c-1.1016 0-2 0.89844-2 2v0.11328h-2.9141c-1.6562 0-3 1.3438-3 3v44.152c0 1.6562 1.3438 3 3 3h46.555l4.7695 20.895c0.10547 0.46094 0.51562 0.77734 0.97266 0.77734 0.074219 0 0.14844-0.007812 0.22266-0.023438l6.0312-1.375c0.25781-0.058593 0.48438-0.21875 0.625-0.44141 0.14063-0.22656 0.1875-0.49609 0.12891-0.75391zm-9.9219-40.953h2.0117v5.1719h-2.0117zm-9.4961 0h2.0117v5.1719h-2.0117zm-9.5 0h2.0117v5.1719h-2.0117zm-9.4961 0h2.0117v5.1719h-2.0156zm-9.4961 0h2.0117v5.1719h-2.0156zm-4.9141 48.266c-0.55078 0-1-0.44922-1-1v-44.152c0-0.55078 0.44922-1 1-1h2.9102v3.0586c0 1.1016 0.89844 2 2 2h2.0117c1.1016 0 2-0.89844 2-2v-3.0586h3.4844v3.0586c0 1.1016 0.89844 2 2 2h2.0117c1.1016 0 2-0.89844 2-2v-3.0586h3.4844v3.0586c0 1.1016 0.89844 2 2 2h2.0117c1.1016 0 2-0.89844 2-2v-3.0586h3.4844v3.0586c0 1.1016 0.89844 2 2 2h2.0117c1.1016 0 2-0.89844 2-2v-3.0586h3.4844v3.0586c0 1.1016 0.89844 2 2 2h2.0117c1.1016 0 2-0.89844 2-2v-3.0586h2.9102c0.55078 0 1 0.44922 1 1v31.457l-4.3828-7.4844c-0.21875-0.375-0.65625-0.5625-1.0859-0.46875-0.42188 0.097656-0.73828 0.45703-0.77344 0.89062l-0.11328 1.3672c-0.31641-0.48047-0.91406-0.83203-1.5273-0.8125 1.0898-1.0234 2.1758-2.0547 3.2344-3.1172 1.2344-1.2383-0.32422-3.125-1.8164-2.3555-6.5469 3.3672-13.098 6.7344-19.645 10.102 3.4453-2.5977 6.8906-5.1992 10.336-7.7969 1.4961-1.1289 0.19922-3.5977-1.5156-2.5898-3.832 2.25-7.6641 4.4961-11.496 6.7461-1.0273 0.60156-2.0547 1.207-3.082 1.8086 4.5547-4.0312 9.2031-7.9609 13.648-12.125 1.0898-1.0195-0.039063-2.9375-1.4609-2.5078-4.8945 1.4844-9.5312 3.6133-13.871 6.2422 2.457-2.6797 5.0156-5.2617 7.7617-7.6562 1.0898-0.94922-0.066406-3.0664-1.4609-2.5078-6.4219 2.5781-12.844 5.1562-19.266 7.7344-1.7695 0.71094-0.99609 3.6133 0.79688 2.8945 4.0781-1.6367 8.1602-3.2773 12.238-4.9141-3.9922 4.1289-7.6719 8.5625-11.336 12.98-1.2148 1.4688 0.68359 3.457 2.1211 2.1211 4.8789-4.5352 10.395-8.3438 16.41-11.145-5.1055 4.4961-10.301 8.8906-15.184 13.645-0.82813 0.80859-0.39844 2.1836 0.66016 2.5078 1.0234 0.3125 2.0078 0.10156 2.9453-0.30859-1.2617 0.95313-2.5273 1.9062-3.7891 2.8594-1.5117 1.1406-0.24609 3.4961 1.5156 2.5898 8.4375-4.3398 16.879-8.6758 25.316-13.016-2.4922 2.1211-5.0625 4.1523-7.7227 6.0625-1.5469 1.1094-0.09375 3.6953 1.5156 2.5898 0.78125-0.53906 1.582-1.0508 2.3789-1.5664-0.074219 1.1484 1.4688 2.2344 2.582 1.207 3.0273-2.7969 6.168-5.4648 9.4258-7.9922 0.058594-0.046876 0.10547-0.097657 0.15625-0.14453l-0.58984 6.9805-0.007813 0.42969c0 0.078126 0.007813 0.15625 0.023438 0.23438l2.3281 10.211zm49.352-12.312-3.5273 0.80469 0.32031-3.9375 1.1953-0.27344zm3.6992 33.789-7.0625-30.969 4.0781-0.92969 7.0664 30.969zm23.422-43.867c-0.13281-0.41406-0.51563-0.69531-0.95313-0.69531s-0.82031 0.28125-0.95312 0.69531l-3.0078 9.4531-0.10156 0.41406c-0.019531 0.078124-0.027343 0.15625-0.027343 0.23437v33.953c0 0.55469 0.44531 1 1 1h6.1836c0.55469 0 1-0.44531 1-1v-33.953c0-0.078124-0.007812-0.16016-0.027343-0.23828zm-1.5625 5.5234h1.2227l1.2031 3.7695h-3.6172zm2.7031 37.535h-4.1836v-31.766h4.1836zm12.566-33.191-3.1094-9.8672c-0.13281-0.41406-0.51562-0.69531-0.95312-0.69531s-0.82031 0.28125-0.95312 0.69531l-3.0078 9.4531-0.10156 0.41406c-0.019531 0.078124-0.027344 0.15625-0.027344 0.23437v33.953c0 0.55469 0.44531 1 1 1h6.1836c0.55469 0 1-0.44531 1-1v-33.953c0-0.078124-0.011719-0.15625-0.03125-0.23437zm-4.6719-4.3438h1.2266l1.2031 3.7695h-3.6172zm2.7031 37.535h-4.1836v-31.766h4.1836z"/>
</svg>
