<?xml version="1.0" encoding="UTF-8"?>
<svg width="100pt" height="100pt" version="1.1" viewBox="0 0 100 100" xmlns="http://www.w3.org/2000/svg">
 <g>
  <path d="m38.281 99.219h0.078125l2.6562-0.078125c1.1719-0.078125 2.1094-0.9375 2.2656-2.0312 0.3125-2.6562 0.54688-5.3125 0.54688-8.0469 0-20.625-10.625-40.078-27.969-51.25 1.875-1.7969 3.9844-3.2812 6.1719-4.5312 0.078125 0.078125 0.23438 0.078125 0.3125 0.15625 17.969 9.8438 29.219 28.828 29.219 49.375v6.7188c0 5.3906 4.375 9.6875 9.6875 9.6875 3.5156 0 6.7969-1.9531 8.5156-5l0.078125-0.078125c0.85938-1.6406 2.5781-2.5781 4.375-2.5781 1.875 0 3.5156 0.9375 4.375 2.5781l0.078125 0.078125c1.7188 3.125 5 5 8.5156 5h1.0938c1.3281 0 2.3438-1.0156 2.3438-2.3438s-1.0156-2.3438-2.3438-2.3438h-1.0938c-1.7969 0-3.5156-1.0156-4.375-2.5781l-0.078125-0.078125c-1.7188-3.125-4.9219-5-8.5156-5s-6.7969 1.875-8.5156 5l-0.078125 0.078125c-0.85938 1.6406-2.5781 2.5781-4.375 2.5781-2.7344 0-5-2.2656-5-5v-6.7188c0-21.25-11.094-40.938-29.141-51.953 2.7344-1.0156 5.7031-1.6406 8.6719-1.875 16.953 10.156 27.5 28.672 27.5 48.438 0 2.0312 1.3281 3.6719 3.2031 4.1406 1.9531 0.46875 3.9062-0.39062 4.8438-2.1094 3.2812-6.0938 4.7656-12.969 4.375-20-1.0938-18.984-16.875-34.453-35.938-35.234-10.312-0.39062-20.078 3.2812-27.5 10.469-7.4219 7.1094-11.484 16.719-11.484 27.031 0 20.703 16.797 37.5 37.5 37.5zm32.734-39.453c0.3125 5.5469-0.70312 11.094-3.125 16.016-0.46875-18.047-9.0625-35-23.047-46.172 14.219 2.8906 25.312 15.312 26.172 30.156zm-58.438-18.438c10.312 6.4062 18.125 16.016 22.5 27.031-7.1875-2.8125-13.828-7.1094-19.375-12.656-2.3438-2.3438-4.5312-4.9219-6.4062-7.6562-0.15625-0.23438-0.3125-0.39062-0.54688-0.54688 1.0156-2.1875 2.2656-4.2969 3.8281-6.1719zm-5.7812 11.25c1.7188 2.2656 3.5938 4.4531 5.625 6.4844 6.875 6.875 15.391 12.031 24.609 15 0.78125 2.8906 1.4062 5.9375 1.7188 8.9844-10.391-2.3438-19.844-7.5-27.422-15.078-1.25-1.25-2.4219-2.5-3.5156-3.8281l-2.3438-3.2031c0.078125-2.8906 0.54688-5.7031 1.3281-8.3594zm1.1719 18.594c8.5156 8.5156 19.297 14.297 31.094 16.641v1.25c0 1.7969-0.078125 3.6719-0.23438 5.4688h-0.54688c-15.391 0-28.281-10.625-31.797-24.922 0.46875 0.46875 0.9375 1.0156 1.4844 1.5625z"/>
  <path d="m99.219 96.875c0 3.125-4.6875 3.125-4.6875 0s4.6875-3.125 4.6875 0"/>
 </g>
</svg>
