<?xml version="1.0" encoding="UTF-8"?>
<svg width="100pt" height="100pt" version="1.1" viewBox="0 0 100 100" xmlns="http://www.w3.org/2000/svg">
 <g>
  <path d="m50 31.688h40.625c0.41406 0 0.8125-0.16406 1.1055-0.45703s0.45703-0.69141 0.45703-1.1055v-20.613c0-0.41406-0.16406-0.8125-0.45703-1.1055s-0.69141-0.45703-1.1055-0.45703h-3.5156v-1.3789c0-0.57031-0.30859-1.0938-0.80469-1.3672-0.85156-0.47266-8.5-4.4727-14.414 0.13672v-0.003906c-0.57422 0.44922-1.1016 0.95312-1.5781 1.5078-0.47656-0.55469-1.0039-1.0586-1.5781-1.5078-5.9141-4.6094-13.559-0.60547-14.414-0.13672v0.003906c-0.49609 0.27344-0.80469 0.79688-0.80469 1.3672v1.3828l-3.5156-0.003906c-0.41406 0-0.8125 0.16406-1.1055 0.45703s-0.45703 0.69141-0.45703 1.1055v20.613c0 0.41406 0.16406 0.8125 0.45703 1.1055s0.69141 0.45703 1.1055 0.45703zm39.062-20.613v17.488h-17.188v-0.86328c2.9336-4.3359 8.3164-6.3047 13.352-4.8789 0.46094 0.097657 0.94141-0.019531 1.3047-0.31641 0.36719-0.29688 0.57812-0.74219 0.57812-1.2109v-10.219zm-15.25-3.2734c3.5664-2.7812 8.2578-1.1367 10.172-0.26562v11.938c-4.3555-0.5625-8.7461 0.72266-12.109 3.543v-13.059c0.51953-0.82031 1.1758-1.5508 1.9375-2.1562zm-17.172-0.26562c1.9102-0.87109 6.6055-2.5156 10.172 0.26562 0.76172 0.60547 1.418 1.3359 1.9375 2.1562v13.059c-2.8359-2.418-6.457-3.7148-10.184-3.6406-0.64453 0-1.2852 0.03125-1.9258 0.097656zm-5.0781 3.5391h1.9531v10.219c0 0.46875 0.21094 0.91406 0.57812 1.2109 0.36328 0.29688 0.84375 0.41406 1.3047 0.31641 5.0352-1.4258 10.418 0.54297 13.352 4.8789v0.86328h-17.188z"/>
  <path d="m7.832 23.859c0.054688 2.8008 0.79688 5.5469 2.1641 7.9961l0.011718 0.019531h0.003907c2.7852 4.9766 7.8594 8.2461 13.539 8.7305 0.0625 0.015625 0.12109 0.027343 0.18359 0.035156 0.03125 0 0.0625-0.015625 0.09375-0.019531 0.37109 0.023437 0.74219 0.054687 1.1211 0.058594 0.019531 0 0.03125 0.011718 0.050781 0.011718s0.03125-0.007812 0.050781-0.011718c0.35547 0 0.70703-0.03125 1.0586-0.054688 0.027344 0 0.050781 0.015625 0.078125 0.015625 0.054688-0.007813 0.10547-0.015625 0.15625-0.027344 5.7227-0.45312 10.84-3.7305 13.645-8.7383l0.011719-0.023438 0.003906 0.003907c1.3672-2.4492 2.1094-5.1953 2.1641-7.9961 0.003906-0.03125 0.019531-0.058594 0.019531-0.09375 0-0.019531-0.011719-0.035156-0.011719-0.054687 0-0.074219 0.011719-0.14453 0.011719-0.21875-0.003906-4.5547-1.8164-8.9258-5.0391-12.148-3.2227-3.2227-7.5898-5.0352-12.148-5.0391-0.14453 0-0.28516 0.019531-0.42969 0.023437-0.023437 0-0.046874-0.015625-0.070312-0.015625-0.050781 0-0.09375 0.019531-0.14062 0.023438-4.4414 0.16797-8.6445 2.0508-11.727 5.2461-3.0859 3.1992-4.8125 7.4688-4.8203 11.91 0 0.074218 0.011719 0.14453 0.011719 0.21875 0 0.019531-0.011719 0.035156-0.011719 0.054687 0 0.035156 0.015625 0.058594 0.019531 0.09375zm4.6172-6.6719h3.4648c-0.48828 1.6289-0.76562 3.3164-0.83203 5.0156h-4.0781c0.16016-1.7461 0.65234-3.4492 1.4453-5.0156zm25.156 12.5h-3.6562c0.15234-0.50391 0.3125-1.0039 0.43359-1.543 0.125-0.59375 0.32422-1.5664 0.46484-2.8164h4.0859-0.003906c-0.19922 1.5156-0.64844 2.9883-1.3242 4.3594zm-18.879-2.0586c-0.17187-0.76172-0.30469-1.5273-0.39453-2.3008h5.1055v4.3594h-4.1172c-0.23828-0.67578-0.43359-1.3633-0.59375-2.0586zm4.7109 5.1836v3.7461c-1.043-1.1406-1.9531-2.3984-2.7148-3.7461zm3.125 0h2.6953c-0.75781 1.3281-1.6602 2.5664-2.6953 3.6953zm0-3.125v-4.3594h5.1289c-0.12109 0.9375-0.27344 1.7031-0.375 2.1875h0.003906c-0.17187 0.73828-0.38281 1.4609-0.64062 2.1719zm12.434-7.4844h-4.0273c-0.054688-1.6992-0.32422-3.3828-0.80469-5.0156h3.3867c0.79297 1.5664 1.2852 3.2695 1.4453 5.0156zm-7.1953 0h-5.2383v-5.0156h4.2852c0.57031 1.6133 0.89062 3.3047 0.95312 5.0156zm-5.2383-8.1406v-3.4297c1.0859 1.0117 2.0352 2.168 2.8164 3.4297zm-3.125-3.2578v3.2578h-2.707c0.76562-1.1953 1.6719-2.2891 2.707-3.2578zm0 6.3828v5.0156h-5.1914c0.066406-1.7109 0.39453-3.4023 0.97656-5.0156zm-8.2578 8.1406c0.10547 1.0039 0.26953 1.9961 0.49609 2.9766 0.10547 0.48047 0.24609 0.92578 0.37891 1.3828h-3.6602c-0.67578-1.3711-1.125-2.8438-1.3242-4.3594zm-0.67969 7.4844h2.7227c0.57031 1.2227 1.2461 2.3945 2.0234 3.5-1.8125-0.82031-3.4297-2.0117-4.7461-3.5zm16.195 3.5273h-0.003906c0.79297-1.1133 1.4844-2.293 2.0664-3.5273h2.7422c-1.332 1.5039-2.9727 2.707-4.8086 3.5273zm4.707-22.277h-2.4531c-0.25781-0.52344-0.53516-1.0391-0.84375-1.543h-0.003907c-0.375-0.62109-0.78906-1.2148-1.2305-1.7891 1.7188 0.79688 3.2578 1.9297 4.5312 3.332zm-16.035-3.4453c-0.51953 0.63672-1 1.3047-1.4336 2.0039-0.28906 0.46875-0.54688 0.95312-0.79297 1.4414h-2.543c1.3281-1.4688 2.9531-2.6445 4.7695-3.4453z"/>
  <path d="m4.6875 75.41h18.75c0.86328 0 1.5625-0.69922 1.5625-1.5625 0-0.86328-0.69922-1.5625-1.5625-1.5625h-17.188v-22.285c0-0.86328-0.69922-1.5625-1.5625-1.5625s-1.5625 0.69922-1.5625 1.5625v23.848c0 0.41406 0.16406 0.8125 0.45703 1.1055s0.69141 0.45703 1.1055 0.45703z"/>
  <path d="m26.32 49.566c-0.71484-0.48047-1.6875-0.29297-2.168 0.42188l-6.918 10.266-1.3398-1.4922c-0.33203-0.36719-0.81641-0.55469-1.3125-0.51172-0.49219 0.050781-0.93359 0.32812-1.1875 0.75391l-5.3594 8.9453c-0.21094 0.35156-0.27734 0.77734-0.17578 1.1797s0.35938 0.74609 0.71484 0.96094c0.73828 0.44141 1.6953 0.20312 2.1406-0.53906l4.2695-7.125 1.2617 1.4062c0.32422 0.35547 0.79297 0.54688 1.2734 0.51562 0.48047-0.035156 0.91797-0.28906 1.1875-0.6875l8.0352-11.926v0.003906c0.48437-0.71484 0.29297-1.6875-0.42188-2.1719z"/>
  <path d="m38.75 43.824c-3.5742 1.9844-5.9609 5.582-6.4023 9.6484-3.1094 2.8203-5.1211 6.6523-5.6719 10.812-0.40234 3.5508 0.45703 7.1328 2.4297 10.113-0.72656 2.8086-0.58984 5.7695 0.39453 8.5 0.96875 2.668 2.8438 4.9062 5.3008 6.3242 1.0938 3.3203 3.6211 5.9727 6.8867 7.2266 0.88672 0.28125 1.8086 0.42578 2.7383 0.42578 1.3164-0.007812 2.6172-0.29688 3.8125-0.84375 0.62109 0.125 1.25 0.19141 1.8789 0.19922 3.0898 0.042969 5.9883-1.4922 7.6836-4.0742 1.7812-3.0156 1.9375-6.7227 0.41797-9.875 1.7344-2.832 2.6562-6.0898 2.6641-9.4141-0.015624-2.7852-0.70312-5.5273-2-7.9961 1.5703-4.3555 2.2461-8.9844 1.9961-13.609-0.17969-2.9219-0.42188-6.9258-3.2266-10.164-1.6484-2.1289-4.1406-3.4414-6.832-3.5977-3.3672 0.22266-6.375 2.1875-7.9336 5.1836-1.4414 0.089844-2.8516 0.48047-4.1367 1.1406zm12.039-3.1992h0.023438c1.7891 0.16797 3.4219 1.0898 4.4883 2.5352 2.0977 2.4219 2.2891 5.543 2.457 8.293 0.1875 3.3828-0.17969 6.7734-1.0938 10.035-0.60547-0.75-1.2734-1.4492-1.9961-2.0898-0.65234-0.56641-1.6367-0.49609-2.2031 0.15625-0.5625 0.65625-0.49219 1.6406 0.16016 2.207 3.1797 2.832 5.0391 6.8594 5.1328 11.117-0.003906 2.2266-0.50781 4.4219-1.4805 6.4258-0.51562-0.57813-1.0938-1.0977-1.7188-1.5508-0.33594-0.24609-0.75391-0.34375-1.1641-0.27734-0.41016 0.066407-0.77734 0.29297-1.0195 0.62891-0.24219 0.33594-0.33984 0.75781-0.27344 1.168 0.066407 0.41016 0.29297 0.77344 0.63281 1.0156 3.25 2.3047 4.293 6.6602 2.4336 10.188-0.66016 1.0078-1.625 1.7812-2.7539 2.1992 0.12891-0.16797 0.26953-0.32812 0.39453-0.50781v0.003906c0.48828-0.71094 0.30469-1.6836-0.40625-2.1719-0.71094-0.48828-1.6836-0.30859-2.1719 0.40234-0.73438 1.0977-1.7344 2-2.9062 2.6172-1.4375 0.77344-3.1289 0.9375-4.6875 0.44922-1.5273-0.53516-2.8281-1.5781-3.6797-2.9531 0.14453 0.015625 0.28516 0.050781 0.42969 0.058594 0.027343 0 0.054687 0.003906 0.082031 0.003906v-0.003906c0.84766 0 1.5391-0.67578 1.5625-1.5234 0.019531-0.84766-0.63672-1.5547-1.4805-1.6016-3.2852-0.29688-6.082-2.5156-7.125-5.6445-1.4766-4.0391-0.51562-8.5625 2.4648-11.656 0.61719-0.60547 0.625-1.5977 0.019531-2.2109-0.60547-0.61719-1.5938-0.625-2.207-0.019531-0.80469 0.80859-1.5 1.7188-2.0664 2.7109-0.80859-1.8711-1.1055-3.9219-0.85938-5.9453 0.45312-3.5664 2.2305-6.832 4.9727-9.1562 0.66797-0.52344 1.4336-0.90234 2.2539-1.1133 0.83594-0.20703 1.3477-1.0508 1.1445-1.8906-0.20313-0.83594-1.0469-1.3516-1.8867-1.1484-0.070313 0.015625-0.14062 0.046875-0.21094 0.066406 0.73828-2.0664 2.207-3.7852 4.1289-4.8398 1.1055-0.57422 2.3359-0.85937 3.5781-0.82812 1.2031 0.023437 2.3867 0.30078 3.4727 0.80859 0.36328 0.19922 0.79297 0.24609 1.1914 0.12891 0.39844-0.11719 0.73438-0.39063 0.92969-0.75391 0.19922-0.36328 0.24219-0.79297 0.125-1.1914-0.12109-0.39844-0.39062-0.73047-0.75781-0.92969-0.71094-0.35938-1.4609-0.63672-2.2383-0.82422 1.0234-1.3828 2.5977-2.2539 4.3086-2.3867z"/>
  <path d="m91.09 53.473c-0.44141-4.0664-2.832-7.668-6.4102-9.6523-1.2852-0.65625-2.6875-1.0391-4.1289-1.1328-1.543-2.9844-4.5312-4.9492-7.8828-5.1875-2.7188 0.13672-5.2383 1.457-6.8945 3.6133-2.7891 3.2227-3.0352 7.2266-3.2148 10.148-0.25 4.625 0.42578 9.2539 1.9961 13.609-1.2969 2.4688-1.9844 5.2109-2 7.9961 0.007812 3.3242 0.92969 6.582 2.6641 9.4141-1.5195 3.1562-1.3633 6.8633 0.41797 9.8789 1.6992 2.5781 4.5938 4.1133 7.6836 4.0703 0.62891-0.007813 1.2578-0.074219 1.8789-0.20312 1.1953 0.55078 2.4961 0.83984 3.8125 0.84766 0.92969 0 1.8516-0.14453 2.7344-0.42578 3.2656-1.25 5.7969-3.9062 6.8906-7.2266 2.457-1.418 4.332-3.6562 5.3008-6.3242 0.98438-2.7305 1.1211-5.6914 0.39453-8.5 1.9727-2.9844 2.832-6.5625 2.4297-10.113-0.55078-4.1641-2.5625-7.9922-5.6719-10.812zm1.7109 17.156c-0.56641-0.99219-1.2617-1.9023-2.0625-2.7109-0.29688-0.29297-0.69531-0.45703-1.1133-0.45703-0.41406 0.003906-0.8125 0.17187-1.1055 0.46875-0.29297 0.29687-0.45312 0.69922-0.44922 1.1133 0.003907 0.41797 0.17578 0.8125 0.47656 1.1055 2.9805 3.0938 3.9414 7.6172 2.4648 11.656-1.043 3.1289-3.8398 5.3477-7.125 5.6445-0.84375 0.046875-1.5 0.75391-1.4805 1.6016 0.023438 0.84766 0.71484 1.5234 1.5625 1.5234 0.027344 0 0.054688 0 0.082031-0.003907 0.14453-0.007812 0.28516-0.042968 0.42969-0.058593v0.003906c-0.85547 1.375-2.1523 2.418-3.6836 2.9531v0.003906c-1.5625 0.48438-3.2539 0.32031-4.6953-0.45703-1.1641-0.61719-2.1602-1.5156-2.8945-2.6133-0.23438-0.34375-0.59766-0.57812-1.0039-0.65234-0.40625-0.078125-0.82812 0.011719-1.1719 0.24609-0.33984 0.23438-0.57422 0.59766-0.65234 1.0039-0.074218 0.40625 0.015625 0.82812 0.25 1.1719 0.12109 0.17578 0.26172 0.33594 0.39062 0.50391h0.003907c-1.1289-0.41797-2.0938-1.1875-2.75-2.1992-1.8633-3.5234-0.82422-7.8828 2.4297-10.188 0.33984-0.24219 0.56641-0.60547 0.63281-1.0156 0.066406-0.41016-0.03125-0.83203-0.27344-1.168-0.24219-0.33594-0.60938-0.5625-1.0195-0.62891-0.41016-0.066406-0.82812 0.035157-1.1641 0.27734-0.625 0.45312-1.2031 0.97266-1.7188 1.5508-0.97266-2.0039-1.4766-4.1992-1.4805-6.4258 0.09375-4.2578 1.9531-8.2852 5.1328-11.117 0.65234-0.56641 0.72266-1.5508 0.16016-2.207-0.56641-0.65234-1.5508-0.72266-2.2031-0.15625-0.72266 0.64062-1.3906 1.3398-1.9961 2.0898-0.91406-3.2617-1.2812-6.6523-1.0938-10.035 0.16797-2.75 0.35937-5.8711 2.4648-8.3047 1.0664-1.4414 2.7031-2.3594 4.4922-2.5234 1.7109 0.14844 3.2812 1.0156 4.3164 2.3867-0.77344 0.1875-1.5234 0.46484-2.2344 0.82422-0.36719 0.19922-0.63672 0.53125-0.75781 0.92969-0.11719 0.39844-0.074219 0.82812 0.125 1.1914 0.19531 0.36328 0.53125 0.63672 0.92969 0.75391 0.39844 0.11719 0.82812 0.070312 1.1914-0.12891 1.0898-0.50781 2.2734-0.78516 3.4727-0.80859 1.2422-0.023438 2.4688 0.25781 3.5703 0.82422 1.9258 1.0547 3.3984 2.7773 4.1367 4.8438-0.070313-0.019531-0.14062-0.046875-0.21094-0.066406-0.83984-0.20312-1.6836 0.3125-1.8867 1.1484-0.20312 0.83984 0.30859 1.6836 1.1445 1.8906 0.82422 0.21094 1.5938 0.59375 2.2617 1.1211 2.7383 2.3203 4.5117 5.582 4.9648 9.1445 0.24609 2.0234-0.050781 4.0781-0.85938 5.9492z"/>
 </g>
</svg>
