<?xml version="1.0" encoding="UTF-8"?>
<svg width="100pt" height="100pt" version="1.1" viewBox="0 0 100 100" xmlns="http://www.w3.org/2000/svg">
 <g>
  <path d="m57.527 43.176c0.45703 4.1562-2.543 7.8984-6.6992 8.3516-4.1602 0.45703-7.8984-2.543-8.3555-6.6992-0.45703-4.1562 2.543-7.8945 6.6992-8.3516 4.1602-0.45703 7.8984 2.543 8.3555 6.6992"/>
  <path d="m75.633 88.98c-0.003906-0.074219-0.007812-0.15234-0.015624-0.22656-0.007813-0.09375-0.015626-0.1875-0.03125-0.28125-0.011719-0.085937-0.023438-0.16797-0.039063-0.24609-0.015625-0.085937-0.03125-0.16797-0.054687-0.25391-0.019532-0.085937-0.042969-0.17188-0.066407-0.25781-0.019531-0.070313-0.042969-0.14844-0.070312-0.22266-0.03125-0.089844-0.0625-0.17969-0.097657-0.26563-0.027343-0.066406-0.054687-0.13281-0.085937-0.19922-0.039063-0.089844-0.082031-0.17578-0.125-0.25781-0.035156-0.066406-0.070313-0.12891-0.10547-0.19141-0.046875-0.085937-0.097656-0.16406-0.14453-0.24219-0.042969-0.066407-0.085937-0.12891-0.13281-0.19531-0.027343-0.035156-0.054687-0.070313-0.082031-0.10938-0.45703-0.34375-2.6953-1.9141-6.3164-2.6133l-9.5938-1.8555h-17.355l-9.5938 1.8555c-3.6523 0.70703-5.8633 2.2695-6.3125 2.6133-0.027344 0.035156-0.054687 0.074219-0.082031 0.10938-0.046875 0.0625-0.089844 0.12891-0.13281 0.19531-0.050781 0.078124-0.097656 0.15625-0.14062 0.23437-0.039063 0.066407-0.074219 0.12891-0.10547 0.19531-0.046875 0.085937-0.085938 0.17188-0.125 0.25781-0.03125 0.070312-0.0625 0.14062-0.089844 0.20703-0.03125 0.082031-0.066406 0.16797-0.09375 0.25781-0.027344 0.078125-0.050781 0.15625-0.074219 0.23047-0.023437 0.078125-0.046875 0.16797-0.066406 0.25391-0.019531 0.085938-0.039062 0.17188-0.054688 0.25391-0.015624 0.078126-0.027343 0.16016-0.039062 0.23828-0.015625 0.10156-0.023438 0.19531-0.03125 0.28906-0.007812 0.074219-0.011719 0.15234-0.015625 0.23047-0.003906 0.097656-0.003906 0.19922 0 0.30078v0.125l0.011719 0.11719c0.007812 0.082031 0.015625 0.17578 0.027344 0.26953 0.011718 0.097656 0.023437 0.19141 0.039062 0.28125 0.003906 0.019531 0.015625 0.09375 0.015625 0.11328l0.027344 0.10938c0.023437 0.10156 0.046875 0.20312 0.074219 0.30078 0.019531 0.074219 0.042968 0.14453 0.066406 0.21484 0.03125 0.09375 0.0625 0.1875 0.097656 0.27734 0.03125 0.078125 0.058594 0.14844 0.089844 0.21875 0.039062 0.085938 0.078125 0.16797 0.11719 0.24609 0.039063 0.074218 0.078125 0.14844 0.11719 0.21875 0.042969 0.078125 0.085937 0.14844 0.13281 0.21875 0.050781 0.078125 0.097657 0.14844 0.14844 0.22266 0.042969 0.0625 0.089843 0.125 0.14062 0.1875 0.054687 0.070312 0.11328 0.14062 0.17188 0.20703 0.054687 0.0625 0.10938 0.12109 0.16406 0.18359 0.058594 0.0625 0.11719 0.12109 0.17969 0.17969 0.058593 0.058594 0.125 0.11328 0.1875 0.17188 0.058593 0.050781 0.12109 0.10156 0.18359 0.15234 0.074219 0.058594 0.14844 0.11328 0.22266 0.16797 0.0625 0.042969 0.12109 0.082031 0.17969 0.12109 0.082032 0.054687 0.16797 0.10547 0.25 0.15234 0.0625 0.035156 0.125 0.066406 0.18359 0.10156 0.085938 0.042969 0.17188 0.085938 0.26172 0.12891 0.066406 0.027344 0.12891 0.054688 0.19141 0.082032 0.097656 0.039062 0.1875 0.074218 0.27734 0.10156 0.070312 0.023438 0.14453 0.046875 0.22266 0.070312 0.082031 0.023438 0.16797 0.046876 0.25781 0.066407 0.085937 0.019531 0.17187 0.035156 0.25781 0.054687 0.0625 0.011719 0.14844 0.027344 0.23047 0.035156 0.097656 0.011719 0.19531 0.023438 0.28906 0.03125 0.074219 0.007813 0.15234 0.011719 0.23047 0.015626 0.09375 0.003906 0.19922 0.003906 0.30469 0h0.11719l20.031-2.3164c0.085937-0.011719 0.17188-0.011719 0.25781 0l20.094 2.3242s0.027343-0.003906 0.0625-0.003906c0.042968 0 0.10937 0 0.15625 0.003906 0.12109 0 0.28906-0.011719 0.45312-0.027344 0.011719 0 0.097657-0.015625 0.10938-0.015625 0.125-0.015625 0.24609-0.03125 0.36328-0.054687l0.10938-0.023438c0.16016-0.035156 0.25781-0.058594 0.35156-0.085937 0.066406-0.019531 0.12891-0.039063 0.19531-0.0625 0.085937-0.027344 0.16797-0.058594 0.25-0.089844 0.0625-0.023437 0.13281-0.054687 0.19922-0.082031 0.082031-0.035156 0.16016-0.070313 0.23437-0.10938 0.0625-0.03125 0.12891-0.0625 0.19531-0.097657 0.066406-0.039062 0.14062-0.082031 0.21484-0.125 0.070312-0.042968 0.125-0.074218 0.17969-0.11328 0.078125-0.054687 0.14844-0.10547 0.22266-0.16016l0.15234-0.11328c0.09375-0.074219 0.18359-0.15234 0.26953-0.23047 0.007812-0.007813 0.058593-0.054687 0.066406-0.058594 0.25-0.23828 0.46094-0.48047 0.64453-0.73438l0.046875-0.070312c0.070312-0.10156 0.14453-0.21094 0.21094-0.32422l0.035156-0.066406c0.003906-0.003907 0.039062-0.070313 0.039062-0.074219 0.046875-0.089844 0.097656-0.17578 0.14062-0.26953l0.058594-0.12891c0-0.003906 0.027344-0.066406 0.03125-0.070312 0.035156-0.085938 0.066406-0.16016 0.097656-0.23828 0.027344-0.070313 0.050781-0.14844 0.074219-0.22266 0.027344-0.082031 0.050781-0.16016 0.070312-0.23828 0.019532-0.078125 0.039063-0.16016 0.058594-0.24219 0.003906-0.015625 0.023438-0.10156 0.027344-0.11328 0.003906-0.019531 0.015625-0.097656 0.019531-0.11719 0.015625-0.09375 0.027344-0.1875 0.039063-0.28516 0.011718-0.089844 0.019531-0.17578 0.023437-0.26172 0-0.019531 0.007813-0.097656 0.011719-0.11719v-0.12109c0.011719-0.10938 0.011719-0.21094 0.007812-0.3125z"/>
  <path d="m75.676 79.242c-0.14453-0.023438-0.28125-0.078126-0.40234-0.15625-1.4805-0.92969-5.0938-4.3594-7.0273-6.4141-0.085938-0.089844-0.15625-0.19531-0.20703-0.3125-0.42187-0.94141-1.1992-3.4102-2.0938-6.3008-3.1641-10.199-4.1953-13.141-6.9062-13.141h-8.793c-0.046875 0-0.089844 0.003906-0.13281 0.007812-0.054687 0.003907-0.13281 0.007813-0.19141 0.003907-0.070313-0.003907-0.11328-0.007813-0.16016-0.007813h-8.793c-2.7109 0-3.7422 2.9414-6.9062 13.141-0.89453 2.8906-1.6719 5.3594-2.0938 6.3008-0.050781 0.11328-0.12109 0.21875-0.20703 0.3125-1.9375 2.0508-5.5469 5.4844-7.0273 6.4141-0.125 0.078125-0.26172 0.12891-0.40234 0.15625-0.94922 0.16797-1.6914 0.88281-1.8945 1.8242-0.27344 1.2695 0.53906 2.5234 1.8086 2.793 0.082031 0.019531 0.17578 0.035157 0.27734 0.050781 0.79297-0.53516 2.3203-1.4297 4.4961-2.1211 0.003907-0.003907 0.007813-0.011719 0.015625-0.015625 1.7617-1.3945 3.9219-3.4648 6.418-6.1523 0.097656-0.10547 1.0312-1.2852 3.8125-10.176 0.15625-0.49219 0.625-0.8125 1.1445-0.78516 0.51562 0.03125 0.94531 0.41016 1.0391 0.92188 0.55078 3.0234 0.64062 7.3984 0.70703 10.594 0.023438 1.1875 0.046875 2.3281 0.09375 3.1289h15.527c0.042968-0.80469 0.066406-1.9414 0.09375-3.1289 0.066406-3.1953 0.15625-7.5703 0.70703-10.594 0.09375-0.51172 0.51953-0.89063 1.0391-0.92188 0.51562-0.027343 0.98828 0.29297 1.1445 0.78516 2.7852 8.8945 3.7148 10.07 3.8125 10.176 2.4922 2.6836 4.6523 4.7539 6.418 6.1523 0.003906 0.003906 0.007812 0.011718 0.015624 0.015625 2.1758 0.69141 3.7031 1.5859 4.4961 2.1211 0.10156-0.015624 0.19141-0.03125 0.27344-0.046874 1.2695-0.27344 2.082-1.5273 1.8086-2.7969-0.21484-0.94531-0.96094-1.6641-1.9102-1.8281z"/>
  <path d="m80.18 23.301c-5.957-9.5547-17.52-15.488-30.18-15.488s-24.223 5.9336-30.18 15.488c-0.39844 0.64062-0.20312 1.4844 0.4375 1.8828 0.64063 0.39844 1.4844 0.20312 1.8828-0.4375 5.4609-8.7578 16.137-14.199 27.859-14.199s22.398 5.4414 27.859 14.199c0.25781 0.41406 0.70703 0.64453 1.1602 0.64453 0.24609 0 0.49609-0.066406 0.72266-0.20703 0.64062-0.39844 0.83594-1.2422 0.4375-1.8828z"/>
  <path d="m68.695 30.484c0.25781 0.41406 0.70703 0.64453 1.1602 0.64453 0.24609 0 0.49609-0.066406 0.72266-0.20703 0.64062-0.39844 0.83594-1.2422 0.4375-1.8828-4.1523-6.6641-12.207-10.801-21.016-10.801s-16.863 4.1367-21.016 10.801c-0.39844 0.64063-0.20312 1.4844 0.4375 1.8828s1.4844 0.20312 1.8828-0.4375c3.6562-5.8672 10.82-9.5117 18.695-9.5117s15.039 3.6445 18.695 9.5117z"/>
  <path d="m61.648 36.762c0.25781 0.41406 0.70703 0.64453 1.1602 0.64453 0.24609 0 0.49609-0.066406 0.72266-0.20703 0.64062-0.39844 0.83594-1.2422 0.4375-1.8828-2.7656-4.4375-8.1211-7.1953-13.969-7.1953s-11.203 2.7578-13.969 7.1953c-0.39844 0.64062-0.20312 1.4844 0.4375 1.8828 0.64062 0.39844 1.4844 0.20312 1.8828-0.4375 2.2734-3.6445 6.7344-5.9062 11.648-5.9062s9.375 2.2617 11.648 5.9062z"/>
 </g>
</svg>
