<?xml version="1.0" encoding="UTF-8"?>
<svg width="100pt" height="100pt" version="1.1" viewBox="0 0 100 100" xmlns="http://www.w3.org/2000/svg">
 <g>
  <path d="m38.645 39.645c0.51172 0 0.99609-0.25391 1.2852-0.67969 0.29297-0.42578 0.35547-0.96484 0.16797-1.4453-2.2734-5.875-5.1211-10.859-8.0234-14.035h0.003906c-0.58203-0.63672-1.5703-0.68359-2.207-0.10156-0.63672 0.58203-0.68359 1.5703-0.10156 2.2109 2.6055 2.8516 5.3086 7.6094 7.4141 13.055v-0.003907c0.23438 0.60547 0.8125 1 1.4609 1z"/>
  <path d="m15.898 77.176c0.37109-1.043 1.043-1.9492 1.9297-2.6094-4.3008-1.5078-8.0273-4.3164-10.66-8.0352-2.6367-3.7227-4.0469-8.168-4.043-12.727 0-12.137 9.793-38.18 21.875-38.18 11.059 0 20.199 21.949 21.664 34.844 0.98438-0.17969 2.0156-0.34375 3.0859-0.5-1-7.5039-3.1914-14.797-6.4961-21.605-5.168-10.23-11.652-15.863-18.254-15.863-6.6055 0-13.086 5.6328-18.258 15.863-4.0312 7.9805-6.7422 18.672-6.7422 25.441 0 5.0391 1.5156 9.9648 4.3516 14.133 2.8359 4.168 6.8594 7.3867 11.547 9.2383z"/>
  <path d="m99.691 65.152c-1.1836-2.8359-4.4844-2.8359-7.3945-2.8359h-0.67188c-1.0938 0.015625-2.1875-0.03125-3.2773-0.13672 0.4375 1.043 0.78516 2.1211 1.0391 3.2227 0.73828 0.035156 1.4961 0.039062 2.2383 0.039062h0.67188c3.7656 0 6.6562 0.11328 2.625 4.1875-6.418 6.4922 8.6289 11.559-6.207 11.676-12.34 0.097656-9.9375 0.69922-25.602 2.5391v0.003906c-2.3281 0.30469-4.668 0.48047-7.0156 0.52734-10.211 0 6.1094-6.4648-10.77-6.4648-3.9922 0-9.8359 0.36328-18.328 1.2539-2.1562 0.22656-3.543 0.33203-4.3242 0.33203-6.5117 0 29.184-7.3555 16.383-13.418-11.578-5.4844 5.1016-8.8555 11.148-9.8438v-0.003906c1.4336-1.5781 3.0898-2.9375 4.9141-4.043-1.6953 0.27344-2.9883 0.55859-3.4336 0.66016-0.82422 0.11328-4.6172 0.65625-8.5352 1.6328-7.3086 1.8203-10.648 3.9727-11.156 7.1953-0.66406 4.2031 4.1445 6.4805 5.7227 7.2266 0.15234 0.070312 0.28516 0.14062 0.40234 0.20312l0.003906-0.003907c-1.3086 0.91406-2.7109 1.6758-4.1875 2.2773-2.8125 1.2383-6.0625 2.3438-8.6719 3.2344-1.3242 0.44922-2.4648 0.83984-3.3047 1.1641-0.98828 0.38281-3.6133 1.3945-3.168 4.0859 0.13672 0.82812 0.78906 2.7578 3.8828 2.7578 0.91797 0 2.3555-0.10938 4.6523-0.35156 7.8047-0.82031 13.859-1.2383 18-1.2383v0.003906c1.4688-0.023437 2.9336 0.054688 4.3906 0.23438-0.58594 1.2656-0.51172 2.7422 0.19531 3.9414 1.25 2.0117 3.7109 2.2891 6.1836 2.2891 2.4688-0.046875 4.9336-0.23047 7.3789-0.55078 5.582-0.65625 8.9375-1.1602 11.383-1.5312 4.4531-0.67188 6.1211-0.92578 13.879-0.98438 4.8711-0.039063 7.9609-0.52344 9.3359-2.8789 1.3008-2.2305 0.082031-4.4141-0.71875-5.8555-1.2773-2.293-1.3047-2.7656-0.21094-3.8711 1.1211-1.1367 3.75-3.793 2.5469-6.6758z"/>
  <path d="m85.199 56.988c1.0703 1.2891 1.9805 2.7031 2.7148 4.2109 0.41016-1.1172 1.0039-3.2969-0.26172-5.168v-0.003906c-0.96484-1.3555-2.5625-2.1094-4.2227-1.9922-0.37109 0.003906-0.74609 0.03125-1.1133 0.078125 1.0469 0.86719 2.0117 1.8281 2.8828 2.875z"/>
  <path d="m67.371 51.691c-5.918-0.066406-11.551 2.5156-15.363 7.0391-2.6172 3.0938-4.0547 7.0117-4.0664 11.059 0 0.91406 0.39844 1.7852 1.0938 2.3789 3.7148 3.1875 10.57 5.0898 18.336 5.0898s14.621-1.9023 18.336-5.0898c0.69531-0.59375 1.0938-1.4648 1.0898-2.3789-0.007813-4.0508-1.4492-7.9688-4.0664-11.062-3.8125-4.5234-9.4453-7.1016-15.359-7.0352zm16.301 18.105c-3.0039 2.5742-9.1758 4.3359-16.301 4.3359s-13.297-1.7617-16.305-4.3359c0.015625-3.3242 1.2031-6.5352 3.3477-9.0703 3.2578-3.7539 7.9844-5.9102 12.957-5.9102 4.9688 0 9.6953 2.1562 12.957 5.9102 2.1445 2.5352 3.3281 5.7461 3.3438 9.0703z"/>
  <path d="m67.371 57.547c-0.86328 0-1.5625 0.69922-1.5625 1.5625s0.69922 1.5625 1.5625 1.5625c3.0938-0.046875 6.0469 1.293 8.0508 3.6523 0.55078 0.66406 1.5352 0.75781 2.1992 0.20703 0.66406-0.55078 0.75781-1.5352 0.20703-2.1992-2.5977-3.0781-6.4336-4.832-10.457-4.7852z"/>
 </g>
</svg>
