<?xml version="1.0" encoding="UTF-8"?>
<svg width="100pt" height="100pt" version="1.1" viewBox="0 0 100 100" xmlns="http://www.w3.org/2000/svg">
 <g>
  <path d="m82.168 11.895h-8.0781c-18.965 0-37.945 0.011719-56.914 0.035157-8.9766 0.011718-14.559 5.5781-14.566 14.516-0.011719 14.25-0.019531 28.496 0 42.75 0.015625 8.9023 4.75 14.152 13.32 14.766 0.015624 0 0.023437-0.011719 0.042968-0.011719 0.007813 0 0.011719 0.003906 0.019532 0.003906v2.5547c0 0.875 0.71094 1.5859 1.5859 1.5859 0.87891 0 1.5859-0.71484 1.5859-1.5859v-2.5352c2.0195 0.035156 12.195 0.11719 12.195 0.11719l18.367-0.003906 9.2852 0.003906s18.801-0.082032 21.605-0.12109v2.5352c0 0.875 0.71094 1.5859 1.5859 1.5859s1.5859-0.71484 1.5859-1.5859v-2.5469c0.015626 0.003907 0.027344 0.011719 0.046876 0.011719 8.7227-0.59766 13.527-5.9258 13.547-15.004 0.011719-11.91 0.007813-23.816 0.003907-35.727v-5.957c0-10.059-5.2617-15.387-15.219-15.387zm12.043 57.07c-0.007813 7.4375-3.4375 11.301-10.473 11.82l-67.605 0.003906c-6.9453-0.50781-10.328-4.3047-10.348-11.598-0.019531-14.246-0.011718-28.488 0-42.738 0.007813-7.1992 4.1602-11.332 11.391-11.34 18.965-0.019531 37.941-0.035156 56.914-0.035156h8.0781c8.2109 0 12.047 3.8828 12.051 12.211l0.003906 5.957c0.003906 11.914 0.007813 23.816-0.011718 35.719z"/>
  <path d="m81.191 57.266c-4.5625 0.019531-8.3125 3.7539-8.3633 8.3203-0.023437 2.2344 0.82422 4.3398 2.3984 5.9414 1.582 1.6055 3.7031 2.4961 5.9531 2.5039h0.042968c4.6914 0 8.3672-3.6758 8.3633-8.3633 0-2.25-0.875-4.3672-2.4531-5.9492-1.5742-1.582-3.6719-2.4531-5.9414-2.4531zm0.03125 13.156h-0.023437c-1.2852-0.003906-2.4922-0.51172-3.3906-1.4258-0.89453-0.91016-1.3828-2.1133-1.3711-3.3828 0.027344-2.6055 2.168-4.7344 4.7656-4.7422 1.2969 0 2.4883 0.49609 3.3828 1.3945 0.89844 0.90234 1.3984 2.1094 1.3984 3.3906 0.003906 2.6719-2.0898 4.7656-4.7617 4.7656z"/>
  <path d="m88.113 23.297h-13.801c-0.875 0-1.5859 0.71094-1.5859 1.5859s0.71094 1.5859 1.5859 1.5859h13.801c0.87891 0 1.5859-0.71094 1.5859-1.5859s-0.71094-1.5859-1.5859-1.5859z"/>
  <path d="m87.953 34.617c0.875 0 1.5859-0.71094 1.5859-1.5859 0-0.87891-0.71094-1.5859-1.5859-1.5859h-13.488c-0.875 0-1.5859 0.71094-1.5859 1.5859 0 0.87891 0.71094 1.5859 1.5859 1.5859z"/>
  <path d="m74.465 42.758h13.488c0.875 0 1.5859-0.71094 1.5859-1.5859 0-0.87891-0.71094-1.5859-1.5859-1.5859h-13.488c-0.875 0-1.5859 0.71094-1.5859 1.5859s0.70703 1.5859 1.5859 1.5859z"/>
  <path d="m74.465 50.895h13.488c0.875 0 1.5859-0.71094 1.5859-1.5859 0-0.87891-0.71094-1.5859-1.5859-1.5859h-13.488c-0.875 0-1.5859 0.71094-1.5859 1.5859s0.70703 1.5859 1.5859 1.5859z"/>
  <path d="m57.879 23.496c-2.3398-0.035156-4.6875-0.042969-7.0273-0.042969l-10.648 0.023437-10.871-0.019531c-2.2656 0-4.5391 0.003907-6.8047 0.023438-7.0586 0.066406-11.141 4.082-11.188 11.023-0.0625 9.0664-0.066406 18.137 0.003906 27.207 0.050781 6.3945 4.3711 10.73 10.75 10.785 6.0117 0.050781 12.02 0.078125 18.023 0.078125 6.0078 0 12.012-0.023438 18.012-0.078125 6.3477-0.054688 10.652-4.4258 10.711-10.871 0.082031-9.6641 0.082031-18.566-0.003906-27.223-0.050782-6.6406-4.2539-10.82-10.957-10.906zm7.7891 38.102c-0.042969 4.7227-2.9375 7.6797-7.5625 7.7227-11.98 0.11719-23.977 0.11328-35.98 0.003907-4.6523-0.039063-7.5664-2.957-7.6016-7.625-0.070313-9.0508-0.066407-18.109-0.003907-27.164 0.042969-5.1719 2.7422-7.8242 8.043-7.8711 2.2578-0.023437 4.5156-0.027343 6.7695-0.027343l10.871 0.015625 10.648-0.019532c2.3203 0 4.6523 0.007813 6.9844 0.042969 4.9258 0.0625 7.7773 2.8906 7.8242 7.7617 0.089844 8.6367 0.089844 17.52 0.007813 27.16z"/>
  <path d="m29.621 28.871-11.754 11.762c-0.62109 0.62109-0.62109 1.625 0 2.2461 0.30859 0.30859 0.71484 0.46484 1.125 0.46484 0.40234 0 0.8125-0.15234 1.1211-0.46484l11.758-11.762c0.62109-0.62109 0.62109-1.625 0-2.2461-0.625-0.62109-1.6289-0.62109-2.25 0z"/>
  <path d="m18.707 35.879 4.7539-4.7656c0.62109-0.62109 0.62109-1.625 0-2.2461-0.62109-0.62109-1.6289-0.62109-2.25 0l-4.7539 4.7617c-0.62109 0.62109-0.62109 1.6289 0 2.25 0.30859 0.30859 0.71484 0.46484 1.125 0.46484 0.40625 0.003906 0.8125-0.15625 1.125-0.46484z"/>
  <path d="m83.855 65.648c0 3.5312-5.293 3.5312-5.293 0 0-3.5273 5.293-3.5273 5.293 0"/>
 </g>
</svg>
