<?xml version="1.0" encoding="UTF-8"?>
<svg width="100pt" height="100pt" version="1.1" viewBox="0 0 100 100" xmlns="http://www.w3.org/2000/svg">
 <path d="m31.934 33.16c0 2.0703-1.6797 3.75-3.75 3.75-2.0664 0-3.75-1.6797-3.75-3.75 0-2.0703 1.6836-3.75 3.75-3.75 2.0703 0 3.75 1.6836 3.75 3.75zm-0.24609 28c-0.42188 0-0.78125 0.26172-0.92969 0.63281-0.19141 0.13281-0.71094 0.36719-1.4023 0.36719-0.69141 0-1.2109-0.23438-1.4023-0.36719-0.003906-0.003907-0.003906-0.007813-0.007813-0.011719-0.007812-0.019531-0.023437-0.035156-0.03125-0.054688-0.042968-0.085937-0.09375-0.16406-0.15625-0.23437-0.023437-0.027344-0.054687-0.050782-0.082031-0.074219-0.0625-0.054688-0.12891-0.10156-0.20312-0.13672-0.03125-0.015625-0.0625-0.035156-0.097656-0.046875-0.10938-0.042969-0.22656-0.070313-0.35156-0.070313s-0.24219 0.027344-0.35156 0.070313c-0.035156 0.011719-0.0625 0.03125-0.097656 0.046875-0.074219 0.039062-0.14062 0.082031-0.20312 0.13672-0.027344 0.023437-0.058594 0.050781-0.082032 0.078125-0.0625 0.070312-0.11719 0.14844-0.15625 0.23438-0.011718 0.019531-0.023437 0.035156-0.03125 0.054687 0 0.003906-0.003906 0.007813-0.007812 0.011719-0.19141 0.13281-0.71094 0.36719-1.4023 0.36719s-1.2109-0.23437-1.4023-0.36719c-0.14453-0.37109-0.50781-0.63281-0.92969-0.63281-0.55469 0-1 0.44531-1 1 0 1.1953 1.7227 2 3.332 2 0.83594 0 1.6953-0.21875 2.3359-0.59375 0.64062 0.375 1.4961 0.59375 2.332 0.59375 1.6094 0 3.3359-0.80469 3.3359-2-0.007812-0.55469-0.45703-1.0039-1.0078-1.0039zm26.207-30.207c-0.39062-0.39062-1.0234-0.39062-1.4141 0l-1.793 1.793-1.793-1.793c-0.39062-0.39062-1.0234-0.39062-1.4141 0s-0.39062 1.0234 0 1.4141l2.5 2.5c0.19531 0.19531 0.44922 0.29297 0.70703 0.29297s0.51172-0.097656 0.70703-0.29297l2.5-2.5c0.39062-0.38672 0.39062-1.0195 0-1.4141zm-11.414-4l-1.793 1.793-1.793-1.793c-0.39062-0.39062-1.0234-0.39062-1.4141 0s-0.39062 1.0234 0 1.4141l2.5 2.5c0.19531 0.19531 0.44922 0.29297 0.70703 0.29297s0.51172-0.097656 0.70703-0.29297l2.5-2.5c0.39062-0.39063 0.39062-1.0234 0-1.4141s-1.0234-0.39062-1.4141 0zm-14.066 2.9922c0.25781 0 0.51172-0.097656 0.70703-0.29297l1.4141-1.4141c0.39062-0.39062 0.39062-1.0234 0-1.4141s-1.0234-0.39062-1.4141 0l-1.4141 1.4141c-0.39062 0.39062-0.39062 1.0234 0 1.4141 0.19531 0.19922 0.44922 0.29297 0.70703 0.29297zm3.707 2.2969h-2c-0.55078 0-1 0.44531-1 1 0 0.55469 0.44531 1 1 1h2c0.55078 0 1-0.44531 1-1 0-0.55469-0.44531-1-1-1zm-3.1211 4.5352c-0.39062-0.39062-1.0234-0.39062-1.4141 0-0.39063 0.39062-0.39063 1.0234 0 1.4141l1.4141 1.4141c0.19531 0.19531 0.44922 0.29297 0.70703 0.29297 0.25781 0 0.51172-0.097657 0.70703-0.29297 0.39063-0.39062 0.39063-1.0234 0-1.4141zm-5 1.4141c-0.55469 0-1 0.44531-1 1v2c0 0.55469 0.44531 1 1 1s1-0.44531 1-1v-2c0-0.55078-0.44531-1-1-1zm-4.9492-1.5352l-1.4141 1.4141c-0.39062 0.39063-0.39062 1.0234 0 1.4141 0.19531 0.19531 0.44922 0.29297 0.70703 0.29297s0.51172-0.097656 0.70703-0.29297l1.4141-1.4141c0.39062-0.39062 0.39062-1.0234 0-1.4141s-1.0234-0.39062-1.4141 0zm0-3.5859c0-0.55469-0.44531-1-1-1h-2c-0.55469 0-1 0.44531-1 1 0 0.55469 0.44531 1 1 1h2c0.55469 0 1-0.44922 1-1zm0.12109-6.3633c-0.39062-0.39062-1.0234-0.39062-1.4141 0-0.39062 0.39062-0.39062 1.0234 0 1.4141l1.4141 1.4141c0.19531 0.19531 0.44922 0.29297 0.70703 0.29297 0.25781 0 0.51172-0.097656 0.70703-0.29297 0.39062-0.39062 0.39062-1.0234 0-1.4141zm5-2.5859c-0.55469 0-1 0.44531-1 1v2c0 0.55469 0.44531 1 1 1s1-0.44531 1-1v-2c0-0.55469-0.44531-1-1-1zm63.238-1.3633l-38.324 38.328-12.723 12.723c-0.32031 2.6641-1.9883 5.5234-4.9531 8.4883-4.0078 4.0078-8.5703 6.043-13.562 6.043-8.1016 0-14.328-5.3906-14.59-5.6211-0.33203-0.29297-0.51172-0.71094-0.50781-1.1406-0.039062-0.13281-0.066406-0.26953-0.066406-0.41406v-69.5h78.5c0.1875 0 0.35938 0.039063 0.52344 0.10156 0.36328-0.0625 0.73047-0.10156 1.1055-0.10156 1.7344 0 3.3672 0.67578 4.5977 1.9023 2.5352 2.5352 2.5352 6.6602 0 9.1914zm-81.727-8.0977v64.836c1.0352-0.46484 2.5508-1.2773 4.5195-2.6523-0.007813-0.058594-0.019531-0.11719-0.019531-0.17969v-57.5h62.441l4.5-4.5zm21.48 49.957l6.1016-6.1016h-20.082v16.055c1.6328-1.332 3.457-2.9648 5.4961-5.0039 0.25781-0.25781 0.51562-0.48828 0.76953-0.72656-0.53906 0.20312-1.1602 0.32031-1.7695 0.32031-1.6094 0-3.332-0.80469-3.332-2 0-0.55469 0.44531-1 1-1 0.42188 0 0.78125 0.26172 0.92969 0.63281 0.19141 0.13281 0.71094 0.36719 1.4023 0.36719 0.69141 0 1.2109-0.23438 1.4023-0.36719 0.003907-0.003907 0.003907-0.007813 0.007813-0.011719 0.007812-0.019531 0.023437-0.035156 0.03125-0.054688 0.042968-0.085937 0.09375-0.16406 0.15625-0.23437 0.023437-0.027344 0.054687-0.050782 0.082031-0.078126 0.0625-0.054687 0.12891-0.097656 0.20312-0.13672 0.03125-0.015625 0.0625-0.035156 0.097656-0.046875 0.10938-0.042969 0.22656-0.070313 0.35156-0.070313s0.24219 0.027344 0.35156 0.070313c0.035157 0.011719 0.0625 0.03125 0.097657 0.046875 0.074218 0.039062 0.14453 0.082031 0.20312 0.13672 0.027344 0.023438 0.054688 0.046876 0.082032 0.074219 0.0625 0.070313 0.11719 0.14844 0.15625 0.23438 0.011718 0.019532 0.023437 0.035156 0.03125 0.054688 0 0.003906 0.003906 0.007812 0.007812 0.011718 0.11328 0.078126 0.34766 0.1875 0.65234 0.26563 1.9219-1.3984 3.7852-2.2227 5.5664-2.4375zm0.83203-17.055l-4.5469 5.0977c-0.28516 0.32031-0.69141 0.50391-1.1172 0.50391h-9.1484v2.3555h19.41zm11.695 4.5312l1.6055-1.6055-4.6055-7.9727-4.0742 7.0547 3.4336 5.9453h0.21094zm7.7188-7.7188l-2.7266-5.1523-3.0742 5.8086 1.8828 3.2617zm22.215-22.215h-56.441v28.004h8.4766l5.4805-6.1445c0.32031-0.35938 0.78516-0.53906 1.2734-0.49219 0.48047 0.050781 0.90625 0.32422 1.1445 0.74219l1.332 2.3047 4.5078-7.8047c0.26953-0.46484 0.76172-0.75 1.3008-0.75 0.53516 0 1.0312 0.28516 1.3008 0.75l1.8438 3.1953 3.5195-6.6484c0.26172-0.48828 0.76953-0.79688 1.3242-0.79688s1.0664 0.30859 1.3242 0.79688l3.6211 6.8398zm-37.863 47.055c-1.1172-1.1172-2.3047-1.6602-3.625-1.6602-2.1172 0-4.5859 1.3945-7.332 4.1406-6.1758 6.1758-10.711 9.0195-13.414 10.316 2.2656 1.4297 6.0977 3.3281 10.457 3.3281 4.1641 0 8.0156-1.7383 11.441-5.1641 2.4922-2.4922 3.8711-4.7617 4.1055-6.7539 0.17578-1.5547-0.35547-2.9297-1.6328-4.207zm13.082-8.1289l-4.9492-4.9492-8.4844 8.4844 4.9492 4.9492zm40.445-45.398c-1.3203-1.3203-3.6289-1.3203-4.9492 0l-38.324 38.328 4.9492 4.9492 38.324-38.324c1.3672-1.3672 1.3672-3.5898 0-4.9531z"/>
</svg>
