<?xml version="1.0" encoding="UTF-8"?>
<svg width="100pt" height="100pt" version="1.1" viewBox="0 0 100 100" xmlns="http://www.w3.org/2000/svg">
 <g>
  <path d="m18.863 24.375c-6.3477 6.9219-21.215 23.129 1.9102 63.152 0.375 0.64453 0.75391 1.332 0.92187 1.9844 0.62891 2.4141 4.5 10.289 27.797 10.289 23.305 0 27.164-7.8789 27.793-10.289 0.16797-0.64453 0.55078-1.3359 0.92578-1.9883 23.129-40.027 8.2578-56.23 1.9062-63.148-0.39844-0.4375-0.76953-0.83984-1.0898-1.2109-2.0078-2.3086-2.0586-3.5391-1.9883-3.957 0.085938-0.49609 0.71484-0.92969 0.80078-0.98828 2.6016-0.98047 3.9453-2.2148 3.9453-3.7109v-7.582c0-0.30469-0.070312-0.59375-0.17969-0.88281-0.011719-0.03125-0.035157-0.058594-0.046875-0.09375-1.5781-3.6641-12.34-5.5234-32.102-5.5234-19.766 0-30.527 1.8633-32.105 5.5234-0.015624 0.035156-0.035156 0.0625-0.046874 0.09375-0.10938 0.28516-0.17969 0.57422-0.17969 0.88281v7.582c0 1.5312 1.4023 2.793 4.1445 3.7852 0.0625 0.039062 0.10547 0.10156 0.17578 0.13672 0.003907 0 0.41016 0.26562 0.50781 0.73828 0.066406 0.32812 0.12109 1.582-1.9805 4-0.33594 0.36328-0.70703 0.76953-1.1094 1.207zm55.289 60.809c-0.51172 0.89062-1.0859 1.9375-1.4023 3.1484-0.019531 0.066407-2.0117 6.7891-23.258 6.7891-21.242 0-23.242-6.7227-23.262-6.7852-0.31641-1.2227-0.89062-2.2695-1.4023-3.1523-16.41-28.406-12.734-43.199-7.3672-51.57 1.7539 0.92188 4.6914 1.5859 9.2305 2.1602 6.0938 0.77734 14.176 1.1992 22.75 1.1992 8.5781 0 16.656-0.42578 22.75-1.1992 4.5977-0.58203 7.5586-1.2578 9.3008-2.1992 5.3828 8.3672 9.0938 23.16-7.3398 51.609zm-50.422-54.59c5-0.89062 14.012-1.6914 25.715-1.6914 11.699 0 20.711 0.80078 25.715 1.6914-5.0039 0.89453-14.012 1.6953-25.715 1.6953-11.703 0-20.715-0.80078-25.715-1.6953zm-1.9336-16.957v-2.7305c5.0938 1.6719 14.328 2.5156 27.648 2.5156 13.316 0 22.555-0.84375 27.648-2.5156v2.7305c-2.3594 1.0547-11.746 2.6836-27.648 2.6836-15.902 0-25.289-1.6289-27.648-2.6836zm27.648-8.5273c11.902 0 20.152 0.91406 24.543 1.8125-4.3867 0.90234-12.641 1.8164-24.543 1.8164-11.902 0-20.156-0.91016-24.539-1.8125 4.3828-0.90234 12.637-1.8164 24.539-1.8164zm0 15.895c9.9102 0 17.535-0.47266 22.902-1.3984 0.046875 1.9453 0.99219 4.0352 2.8242 6.2422-0.90625-0.15234-1.8945-0.29297-2.9766-0.42969-6.0938-0.77734-14.172-1.1992-22.75-1.1992-8.5781 0-16.656 0.42578-22.75 1.1992-1.0391 0.13281-1.9961 0.26953-2.8711 0.41016 1.8164-2.1953 2.7578-4.2773 2.8125-6.2109 5.3594 0.92187 12.953 1.3867 22.809 1.3867z"/>
  <path d="m42.312 61.984c-1.293 0-2.3438 1.0469-2.3438 2.3398v3.0273c0 1.293 1.0508 2.3398 2.3438 2.3398s2.3398-1.0469 2.3398-2.3398v-3.0273c0.003906-1.2891-1.0469-2.3398-2.3398-2.3398z"/>
  <path d="m47.617 68.559c-1.2891-0.14844-2.4453 0.78516-2.5898 2.0703-0.14062 1.2852 0.78516 2.4453 2.0703 2.5859l4.5391 0.50781c0.089843 0.007813 0.17578 0.015625 0.26172 0.015625 1.1797 0 2.1914-0.88672 2.3242-2.082 0.14062-1.2852-0.78125-2.4453-2.0703-2.5898z"/>
  <path d="m37.238 68.145c-2.7773-0.12891-3.3477-0.027343-3.5352 0.003907-1.2695 0.22656-2.1641 1.4492-1.9375 2.7227 0.22656 1.2773 1.3984 2.125 2.6719 1.9023 0.3125-0.03125 1.5859 0.003906 2.5781 0.054687 0.039063 0.003906 0.074219 0.003906 0.11328 0.003906 1.2422 0 2.2773-0.97656 2.3398-2.2305 0.0625-1.2969-0.9375-2.3945-2.2305-2.457z"/>
  <path d="m42.48 72.586c-1.3242-0.074219-2.4062 0.88281-2.5 2.1719l-0.25 3.5664c-0.09375 1.293 0.87891 2.4102 2.168 2.5039 0.058593 0.003906 0.11328 0.003906 0.16797 0.003906 1.2188 0 2.2461-0.94141 2.3359-2.1758l0.25-3.5664c0.089844-1.2969-0.88281-2.4141-2.1719-2.5039z"/>
  <path d="m64.355 40.043c-5.2539 0-10.016 2.4141-13.168 6.2305-3.1484-2.8789-7.2227-4.5078-11.59-4.5078-9.5 0-17.23 7.7305-17.23 17.23 0 2.5039 0.57422 4.9844 1.625 7.2422-0.39063 1.5352-0.61719 3.1328-0.61719 4.7852 0 10.754 8.75 19.504 19.504 19.504 9.7227 0 17.785-7.1602 19.246-16.477 0.73438 0.09375 1.4844 0.14453 2.2344 0.14453 9.418 0 17.074-7.6602 17.074-17.074 0-9.418-7.6602-17.078-17.078-17.078zm-37.301 18.953c0-6.918 5.6289-12.551 12.547-12.551 3.4805 0 6.7188 1.4062 9.082 3.8945-0.26172 0.60938-0.48047 1.2383-0.67578 1.8789-1.6367-0.44922-3.3516-0.70703-5.1289-0.70703-6.4922 0-12.242 3.207-15.789 8.1016-0.011719-0.20312-0.035156-0.41016-0.035156-0.61719zm15.82 26.844c-8.1719 0-14.82-6.6523-14.82-14.82 0-8.1719 6.6484-14.82 14.82-14.82s14.82 6.6484 14.82 14.82-6.6484 14.82-14.82 14.82zm21.48-16.332c-0.69922 0-1.3828-0.074218-2.0625-0.19141-0.32031-3.6992-1.6875-7.0977-3.793-9.918l1.4414 0.058593c0.03125 0.003907 0.066406 0.003907 0.097656 0.003907 1.2461 0 2.2891-0.98828 2.3398-2.2461 0.050782-1.293-0.95312-2.3828-2.2422-2.4375l-2.8164-0.11328c-0.94531-0.050781-1.75 0.46484-2.1562 1.2305-0.87109-0.70703-1.8047-1.3398-2.7891-1.8906 0.25781-1 0.62891-1.9492 1.1133-2.832 0.003907-0.003906 0.007813-0.011719 0.011719-0.015625 2.1211-3.8555 6.2305-6.4297 10.859-6.4297 6.832 0 12.391 5.5586 12.391 12.391 0 6.832-5.5625 12.391-12.395 12.391z"/>
  <path d="m66.215 52.57v-1.9375c0-1.293-1.0508-2.3438-2.3438-2.3438-1.293 0-2.3398 1.0508-2.3398 2.3438v1.9375c0 1.293 1.0508 2.3398 2.3398 2.3398 1.2969 0 2.3438-1.0469 2.3438-2.3398z"/>
  <path d="m72.25 55.094l-3.3789-0.21484c-1.3555-0.070312-2.4062 0.89844-2.4883 2.1875-0.082031 1.2891 0.89844 2.4062 2.1875 2.4883l3.3789 0.21484c0.054687 0.003907 0.10547 0.003907 0.15234 0.003907 1.2227 0 2.2578-0.95313 2.3359-2.1914 0.082031-1.2852-0.89844-2.4023-2.1875-2.4883z"/>
  <path d="m64.414 58.91c-1.293 0-2.3398 1.0469-2.3398 2.3438v2.6719c0 1.293 1.0469 2.3398 2.3398 2.3398 1.293 0 2.3438-1.0508 2.3438-2.3398v-2.6719c0-1.293-1.0508-2.3438-2.3438-2.3438z"/>
 </g>
</svg>
