<?xml version="1.0" encoding="UTF-8"?>
<svg width="100pt" height="100pt" version="1.1" viewBox="0 0 100 100" xmlns="http://www.w3.org/2000/svg">
 <g>
  <path d="m55.992 48.988c-4.9141 0-9.3516 0.22656-12.555 0.59375-2.8125 0.32031-4.5547 0.57422-4.5547 0.67969s1.7383 0.35938 4.5547 0.67969c3.2031 0.36719 7.6406 0.59375 12.555 0.59375 4.9141 0 9.3516-0.22656 12.555-0.59375 2.8125-0.32031 4.5547-0.57422 4.5547-0.67969s-1.7383-0.35938-4.5547-0.67969c-3.2031-0.36719-7.6406-0.59375-12.555-0.59375zm-12.73-0.9375c3.2695-0.375 7.7695-0.60547 12.73-0.60547 4.9609 0 9.4609 0.23047 12.73 0.60547 3.6602 0.41797 5.9219 1.1875 5.9219 2.2109 0 1.0234-2.2617 1.793-5.9219 2.2109-3.2695 0.375-7.7695 0.60547-12.73 0.60547-4.9609 0-9.4609-0.23047-12.73-0.60547-3.6602-0.41797-5.9219-1.1875-5.9219-2.2109 0-1.0234 2.2617-1.793 5.9219-2.2109z"/>
  <path d="m74.637 50.152c-0.058594-0.42188-0.44922-0.71484-0.87109-0.65234-0.42188 0.058594-0.71484 0.44922-0.65234 0.87109 0.003907 0.03125 1.6562 10.223-17.059 10.875-0.42578 0.011718-0.75781 0.36719-0.74609 0.79297 0.011718 0.42578 0.36719 0.75781 0.79297 0.74609 20.453-0.71094 18.539-12.594 18.535-12.629z"/>
  <path d="m39.043 50.367c0.058593-0.42188-0.23438-0.8125-0.65234-0.87109-0.42188-0.058594-0.8125 0.23438-0.87109 0.65234-0.003906 0.035156-1.918 11.914 18.535 12.629 0.42578 0.011718 0.77734-0.32031 0.79297-0.74609 0.011719-0.42578-0.32031-0.77734-0.74609-0.79297-18.715-0.65234-17.062-10.844-17.059-10.875z"/>
  <path d="m49.871 61.16c-0.03125-0.42578-0.40234-0.74219-0.82422-0.71094-0.42578 0.03125-0.74219 0.40234-0.71094 0.82422l0.19922 2.5586 0.76953-0.058593-0.76953 0.058593c0.015625 0.19922 0.10547 0.375 0.23828 0.5 0.37109 0.39844 2.3867 2.2383 7.4258 1.8555 5.6367 0.42578 7.4883-1.9258 7.4922-1.9297l-0.59766-0.48437 0.59766 0.48828c0.10938-0.13672 0.16797-0.30078 0.17188-0.46484l0.19531-2.5234c0.03125-0.42578-0.28516-0.79297-0.71094-0.82422-0.42578-0.03125-0.79297 0.28516-0.82422 0.71094l-0.17578 2.2812c-0.46484 0.41406-2.0938 1.5156-6.0586 1.2109-0.050781-0.003906-0.10156-0.007813-0.15234-0.003906-3.9844 0.31641-5.6211-0.79297-6.0898-1.207z"/>
  <path d="m61.188 33.961c0.007812 0.007812 3.2305 2.8945-0.55469 5.8711-2.0078 1.582 0.31641 2.4883 0.32031 2.4922l-0.57422 1.4297c-0.011718-0.003906-4.8242-1.8828-0.69922-5.1289 2.3477-1.8477 0.47266-3.5234 0.46875-3.5273l1.0352-1.1328z"/>
  <path d="m57.348 33.961c0.007813 0.007812 3.2305 2.8945-0.55469 5.8711-2.0078 1.582 0.31641 2.4883 0.32031 2.4922l-0.57422 1.4297c-0.011718-0.003906-4.8242-1.8828-0.69922-5.1289 2.3477-1.8477 0.47266-3.5234 0.46875-3.5273l1.0352-1.1328z"/>
  <path d="m53.508 33.961c0.007813 0.007812 3.2305 2.8945-0.55469 5.8711-2.0078 1.582 0.31641 2.4883 0.32031 2.4922l-0.57422 1.4297c-0.011719-0.003906-4.8242-1.8828-0.69922-5.1289 2.3477-1.8477 0.47266-3.5234 0.46875-3.5273l1.0352-1.1328z"/>
  <path d="m31.395 35.297c-1.2227 0-2.3398 0.62109-3.1602 1.6289-0.85156 1.0508-1.3828 2.5117-1.3828 4.1328 0 1.3281 0.35156 2.5469 0.94922 3.5195 0.59375 0.96875 1.4219 1.6914 2.375 2.0312l0.51562 0.18359v17.914h1.4023v-17.914l0.51562-0.18359c0.95312-0.33594 1.7812-1.0625 2.375-2.0312 0.59766-0.97266 0.94922-2.1953 0.94922-3.5195 0-1.625-0.52734-3.0859-1.3828-4.1328-0.81641-1.0039-1.9336-1.6289-3.1602-1.6289zm-4.3516 0.65625c1.1055-1.3594 2.6445-2.1992 4.3516-2.1992 1.7109 0 3.2461 0.83984 4.3516 2.1992 1.0703 1.3164 1.7305 3.1211 1.7305 5.1055 0 1.6172-0.4375 3.1133-1.1797 4.3242-0.67188 1.0977-1.5898 1.957-2.6602 2.4688v18.398h-4.4844v-18.398c-1.0703-0.50781-1.9883-1.3711-2.6602-2.4688-0.73828-1.2109-1.1797-2.707-1.1797-4.3242 0-1.9844 0.66016-3.7891 1.7305-5.1055z"/>
  <path d="m50.77 0.45312 20.879 12.055v0.003907l20.875 12.051 0.77734 0.44922v49.984l-0.77734 0.44922-20.875 12.051v0.003906l-20.879 12.055-0.76953 0.44531-0.76953-0.44531-20.879-12.055v-0.003906l-20.875-12.051-0.77734-0.44922v-49.984l0.77734-0.44922 20.875-12.051v-0.003907l20.879-12.055 0.76953-0.44531zm19.336 14.719-20.105-11.609-20.105 11.609h-0.007812l-20.102 11.605v46.453l20.102 11.605h0.007812l20.105 11.609 20.105-11.609h0.007812l20.102-11.605v-46.453l-20.102-11.605z"/>
 </g>
</svg>
