<?xml version="1.0" encoding="UTF-8"?>
<svg width="100pt" height="100pt" version="1.1" viewBox="0 0 100 100" xmlns="http://www.w3.org/2000/svg">
 <g>
  <path d="m77.508 57.203c-2.793-5.9805-5.1797-12.141-7.1484-18.438 2.1172-0.79297 3.3672-2.9844 2.9727-5.207-0.39453-2.2266-2.3203-3.8555-4.582-3.8711h-0.78125v-3.4766c1.457-0.58203 2.5273-1.8555 2.8516-3.3906 0.070313-0.35937 0.24219-0.5 1.1875-0.98437 1.4219-0.72656 3.5703-1.8203 4-5.7031 0.082032-0.69922 0.003907-1.4062-0.22656-2.0703h0.78125c0.86328 0 1.5625-0.69922 1.5625-1.5625s-0.69922-1.5625-1.5625-1.5625h-0.32031c0.15625-0.44922 0.24609-0.92188 0.26562-1.3984 0.054688-0.84375 0.054688-1.6875 0.054688-2.5078-0.011719-1.1172-0.47656-2.1797-1.2891-2.9453-3.7188-3.6953-15.734-4.1406-27.008-4.0859h-2.7734c-8.1719-0.046875-17.188 0.20312-20.594 3.6172-0.92969 0.89453-1.457 2.125-1.4609 3.4141 0 0.78125 0 1.6328 0.054688 2.5234 0.023437 0.47266 0.11328 0.9375 0.27344 1.3828h-0.32812c-0.86328 0-1.5625 0.69922-1.5625 1.5625s0.69922 1.5625 1.5625 1.5625h0.84375c-0.24219 0.67969-0.32422 1.4023-0.24219 2.1172 0.12109 2.4727 1.6602 4.6523 3.9531 5.5859 0.96094 0.5 1.1328 0.64062 1.2109 1.0234 0.3125 1.5391 1.3711 2.8203 2.8281 3.4141v3.4844h-0.78125c-2.2695 0-4.2148 1.6289-4.6133 3.8672-0.39453 2.2344 0.86719 4.4336 2.9961 5.2188-1.9688 6.2969-4.3555 12.457-7.1484 18.438-2.3281 5.1094-3.7344 8.1875-3.7344 14.273 0 12.602 3.3906 18.438 10.016 21.141 1.7031 3.8906 6.5391 7.375 10.297 7.375h21.875c3.7422 0 8.5938-3.5234 10.297-7.375 6.625-2.7031 10.016-8.5391 10.016-21.141 0-6.0859-1.4062-9.1641-3.7422-14.281zm-50.891-47.789c-0.054688-0.82031-0.054688-1.6016-0.054688-2.3828 0-0.46094 0.19531-0.89844 0.53906-1.2031 2.8047-2.7891 13.328-2.7031 18.375-2.7031h2.7969c5.3203 0 21.492-0.09375 24.789 3.1797 0.22266 0.17578 0.35938 0.44141 0.375 0.72656 0 0.78125 0 1.5625-0.046875 2.3438-0.019531 0.84766-0.71484 1.5234-1.5625 1.5234h-43.648c-0.83203 0-1.5195-0.65234-1.5625-1.4844zm2.8047 9.5703c-1.1875-0.60938-2.0391-1.0547-2.2812-3.125-0.058594-0.45312 0.085937-0.90625 0.39062-1.2422 0.28906-0.34375 0.71484-0.54688 1.1641-0.55469h42.656c0.44531-0.003906 0.87109 0.18359 1.1719 0.51562 0.29687 0.33203 0.44141 0.77734 0.39062 1.2188-0.24219 2.2031-1.1094 2.6484-2.3438 3.2578-1.0312 0.52344-2.4375 1.2422-2.8281 3.125-0.15234 0.73437-0.8125 1.2578-1.5625 1.2422h-32.383c-0.75391 0.015625-1.4102-0.51172-1.5625-1.25-0.35156-1.9141-1.7656-2.6406-2.8125-3.1875zm1.8281 13.828h37.5c0.86328 0 1.5625 0.69922 1.5625 1.5625s-0.69922 1.5625-1.5625 1.5625h-37.5c-0.86328 0-1.5625-0.69922-1.5625-1.5625s0.69922-1.5625 1.5625-1.5625zm29.688 64.062h-21.875c-1.6719 0-3.9062-1.2656-5.5625-2.9062 4.5 0.85156 10.008 0.95312 16.5 0.95312s12.016-0.10938 16.523-0.96094c-1.6797 1.6562-3.8828 2.9141-5.5859 2.9141zm-10.938-5.0781c-21.258 0-28.125-1.5625-28.125-20.312-0.007812-1.1484 0.058594-2.2969 0.19531-3.4375 0.1875-0.30469 0.38281-0.59375 0.58594-0.85938 3.3984-4.5312 8.0312-11.227 11.719-8.5938 0.74219 0.53516 1.5273 1.0156 2.3438 1.4297l-1.5625 4.1641c-2.3438-0.33594-3.3594 3-3.3594 3 0.60938-1.0312 2.0156-0.92188 2.6875-0.78125-0.25391 0.83203 0.21875 1.7109 1.0508 1.9648 0.83203 0.25391 1.7109-0.21875 1.9648-1.0508 0.63281 0.26563 1.8594 0.94531 1.8047 2.1484 0 0 1.0078-3.375-1.1328-4.3828l0.89062-4.1484c8.3438 2.3984 14.109-5.4688 17.969-5.4688 4.5312 0 9.1016 7.1875 12.5 11.719 1.5625 2.1328 5.1406 5.5312 8.4453 8.5391-1.0781 14.727-8.4453 16.07-27.977 16.07z"/>
  <path d="m33.484 79.148l-4.1641-3.6094c-0.60937-0.60937-1.3281-0.88281-1.9297-0.27344s-0.32812 1.3281 0.27344 1.9297l3.5859 4.1641c-1.4062 1.9062 1.0859 4.3984 1.0859 4.3984-0.61719-1.0312 0.14062-2.2109 0.57031-2.7422 0.60938 0.62109 1.6094 0.62891 2.2305 0.019531 0.62109-0.60938 0.62891-1.6094 0.019531-2.2305 0.53906-0.42969 1.7188-1.1875 2.7422-0.57031-0.015626-0.007813-2.5078-2.4922-4.4141-1.0859z"/>
  <path d="m48.438 78.312c0-0.86328-0.69922-1.5625-1.5625-1.5625s-1.5625 0.69922-1.5625 1.5625c-0.67969-0.078125-2.0547-0.375-2.3438-1.5625 0 0 0 3.5234 2.3438 3.9062l0.39062 5.4688c0 0.85938 0.3125 1.5625 1.1719 1.5625s1.1719-0.70312 1.1719-1.5625l0.39062-5.4688c2.3438-0.35156 2.3438-3.9062 2.3438-3.9062-0.28906 1.1953-1.6562 1.4922-2.3438 1.5625z"/>
  <path d="m69.07 73.094l-4.1797-3.5625c1.1094-2.0938-1.7109-4.1953-1.7109-4.1953 0.78125 0.92969 0.17969 2.2031-0.16406 2.7969-0.69141-0.43359-1.5977-0.26562-2.0859 0.39063-0.48828 0.65234-0.38672 1.5742 0.22656 2.1094-0.46875 0.5-1.5625 1.4297-2.6328 0.96875 0 0 2.8281 2.1016 4.5078 0.42969l4.6406 2.9688c0.6875 0.51562 1.4375 0.67969 1.9531 0s0.13281-1.3906-0.55469-1.9062z"/>
  <path d="m62.977 81.633c1.7969-1.5625-0.078124-4.5312-0.078124-4.5312 0.375 1.1406-0.63281 2.125-1.1719 2.5469-0.48437-0.66016-1.3984-0.83594-2.0898-0.40234-0.69531 0.4375-0.9375 1.3359-0.55078 2.0586-0.61719 0.29687-1.9375 0.78125-2.8047-0.054688 0 0 1.875 2.9844 4.0469 2.0391l3.2578 4.4531c0.45312 0.72656 1.0938 1.1562 1.8203 0.70312 0.72656-0.45312 0.61719-1.2188 0.16406-1.9453z"/>
  <path d="m56.977 62.938c-0.45312-0.72656-1.2188-0.61719-1.9453-0.16406l-4.8672 2.5938c-1.5625-1.7969-4.5312 0.078124-4.5312 0.078124 1.1406-0.375 2.125 0.63281 2.5469 1.1719-0.66016 0.48437-0.83594 1.3984-0.40234 2.0898 0.4375 0.69531 1.3359 0.9375 2.0586 0.55078 0.29687 0.61719 0.78125 1.9375-0.054688 2.8047 0 0 2.9844-1.875 2.0391-4.0469l4.4297-3.2578c0.78125-0.46094 1.1875-1.0938 0.72656-1.8203z"/>
 </g>
</svg>
