<?xml version="1.0" encoding="UTF-8"?>
<svg fill="#8C8F95" width="100pt" height="100pt" version="1.1" viewBox="0 0 100 100" xmlns="http://www.w3.org/2000/svg">
 <g fill-rule="evenodd">
  <path d="m62.75 23.477c-3.4688-0.48828-7.2148 0.097657-10.332 1.793-2.4297 1.3242-4.0391 3.4062-5.4883 5.3906-1.4453 1.9844-2.7539 3.8945-4.3398 5.168-2.6602 2.1367-5.3945 4.1758-8.3008 4.9023-2.793 0.69531-7.7305 0.55469-11.828 0.16016-4.0977-0.39453-7.4023-0.98828-7.4023-0.98828-0.49219-0.089844-0.99609 0.0625-1.3594 0.41016-0.35938 0.34375-0.53125 0.83984-0.46875 1.3359 0 0 0.30469 2.2344 0.83594 4.9688 0.53125 2.7344 1.2539 5.9375 2.3008 8.1953 2.3516 5.082 5.5469 10.207 10.18 13.762 5.2461 4.0273 11.84 6.8711 18.547 7.2578 6.543 0.37891 13.309-1.5625 18.828-4.9688 4.8438-2.9883 8.4219-7.6992 11.066-12.48 2.582-4.6719 4.6875-10.102 4.5898-15.699-0.078125-4.5273-1.2656-9.5312-4.4375-13.141-3.1484-3.5859-7.9219-5.4375-12.395-6.0664zm-0.4375 3.0938c3.9219 0.55469 8.0469 2.25 10.492 5.0352 2.457 2.8008 3.5859 7.1289 3.6562 11.133 0.082031 4.7656-1.7695 9.7305-4.1992 14.129-2.4805 4.4883-5.8008 8.7617-9.9727 11.336-4.9961 3.082-11.215 4.8438-17.012 4.5117-5.9375-0.34375-12.02-2.9297-16.82-6.6172-4.0234-3.0898-7.0156-7.7734-9.2461-12.598-0.78516-1.6914-1.5625-4.8477-2.0742-7.4844-0.29297-1.5117-0.32422-1.8672-0.45703-2.7461 1.2383 0.20312 2.4492 0.4375 5.4883 0.73438 4.2344 0.41016 9.2383 0.66797 12.883-0.23828 3.7617-0.9375 6.8047-3.3281 9.5039-5.5 2.0898-1.6797 3.5117-3.8477 4.9062-5.7617 1.3945-1.9141 2.7422-3.5547 4.457-4.4844 2.4453-1.332 5.5938-1.8438 8.3984-1.4453z"/>
  <path d="m64.348 32.395c-0.89062-0.03125-1.7852 0.20703-2.5859 0.67188-1.5469 0.89453-2.2773 2.5-2.2266 4.1484 0.042969 1.4961 0.81641 2.7422 2.0625 3.4922 1.3594 0.81641 3 0.9375 4.4688 0.19531 1.4141-0.71484 2.1602-2.043 2.3516-3.4531 0.1875-1.3945-0.054688-3.0508-1.5-4.1367-0.78516-0.58984-1.6719-0.88672-2.5625-0.91406zm-1.0234 3.3828c0.48828-0.29688 1.2695-0.32812 1.7148 0.03125 0.32422 0.26562 0.34766 0.8125 0.28125 1.2266-0.070312 0.41797-0.28906 0.88281-0.66406 1.082-0.42969 0.22656-1.1172 0.11719-1.4453-0.078126-0.21484-0.12891-0.53516-0.55078-0.55078-0.90234-0.023437-0.50391 0.23438-1.0938 0.66406-1.3555z"/>
  <path d="m77.098 32.938l-0.98828 2.9609 5.5781 1.8555-4.4492 2.9648 1.7344 2.6016 7.1094-4.7422c0.5-0.33203 0.76562-0.91797 0.68359-1.5078-0.078125-0.59375-0.48828-1.0898-1.0547-1.2773z"/>
  <path d="m60.414 49.18c-0.80078-0.027344-1.4922 0.55469-1.6016 1.3477 0 0-0.48828 2.918-0.82812 3.8867-0.62109 1.7656-1.2656 3.4219-2.2461 4.5703-1.5859 1.8594-3.7383 3.3789-6.0234 4.3086-1.7656 0.71484-3.8086 1-5.7617 0.86719-0.76562-0.054687-2.3516-0.48047-3.6211-0.91406-1.2656-0.43359-2.2656-0.84766-2.2656-0.84766-0.38281-0.16797-0.81641-0.17188-1.207-0.015626-0.38672 0.16016-0.69531 0.46484-0.85547 0.85156s-0.16016 0.82031 0.003906 1.207c0.16406 0.38672 0.47266 0.69141 0.86328 0.84375 0 0 1.0781 0.44531 2.4492 0.91406 1.3672 0.46875 2.9766 0.98047 4.418 1.082 2.3945 0.16406 4.8867-0.17188 7.1523-1.0938 2.7461-1.1172 5.2812-2.9023 7.2188-5.1758 1.4727-1.7227 2.1875-3.7617 2.8203-5.5586 0.60156-1.7109 0.96875-4.457 0.96875-4.457h0.003906c0.074218-0.44141-0.046875-0.89844-0.33203-1.2461-0.28516-0.34766-0.70703-0.55859-1.1562-0.57031z"/>
  <path d="m56.914 17.062c-0.82031 0.0625-1.4531 0.75391-1.4414 1.5781 0.011719 0.82422 0.66016 1.5 1.4844 1.5391 0.10156 0 0.64062 0.10547 1.0938 0.30078 0.45312 0.19531 0.84375 0.49609 0.93359 0.61719 0.34766 0.46094 0.49609 1.8086 0.35547 2.8555-0.054688 0.41016 0.054687 0.82812 0.30469 1.1562 0.25391 0.33203 0.625 0.54688 1.0352 0.60156 0.85937 0.11328 1.6445-0.48438 1.7578-1.3438 0.19141-1.4297 0.32422-3.4453-0.95312-5.1445-0.625-0.83203-1.4375-1.2891-2.2109-1.6172-0.77344-0.32812-1.4844-0.51562-2.2031-0.54297h0.003907c-0.054688-0.003906-0.10547-0.003906-0.16016 0z"/>
  <path d="m65.965 17.531c-0.73047-0.082031-1.457 0-2.2695 0.23047-0.8125 0.21875-1.6797 0.55859-2.4102 1.293-1.5 1.5078-1.6523 3.5273-1.6602 4.9688-0.007812 0.41797 0.15234 0.82031 0.44141 1.1211 0.28906 0.30078 0.6875 0.46875 1.1055 0.47266 0.41797 0.007812 0.82031-0.15625 1.1133-0.44922 0.29688-0.29297 0.46484-0.69531 0.46484-1.1133 0.007812-1.0547 0.34375-2.375 0.75-2.7812 0.10547-0.10547 0.53906-0.34766 1.0117-0.47656 0.47656-0.12891 1.0234-0.15625 1.1094-0.14844l0.003906 0.003906c0.41406 0.042968 0.82422-0.074219 1.1484-0.33594 0.32422-0.25781 0.53125-0.63672 0.57812-1.0469 0.046876-0.41406-0.074218-0.82812-0.33594-1.1523-0.25781-0.32031-0.63672-0.52734-1.0508-0.57422z"/>
  <path d="m50.531 79.488l-8.9531 0.32812c-0.42969-0.003906-0.84375 0.16406-1.1406 0.47266-0.30078 0.30469-0.46094 0.72266-0.44531 1.1484 0.015624 0.42969 0.20703 0.83203 0.52734 1.1172 0.32422 0.28125 0.74609 0.42187 1.1719 0.38281l8.9531-0.32422h0.003907c0.86328-0.03125 1.5352-0.75781 1.5039-1.6211-0.03125-0.86328-0.75781-1.5352-1.6211-1.5039z"/>
  <path d="m43.926 74.52l-0.57422 5.8047 3.1055 0.30469 0.57422-5.8047z"/>
  <path d="m24.461 45.395c-0.12109 0.007813-0.23828 0.042969-0.34766 0.10156l-7.0547 3.9297v0.003907c-0.375 0.21094-0.51172 0.6875-0.30078 1.0625 0.21094 0.37891 0.6875 0.51562 1.0625 0.30469l7.0508-3.9297v-0.003907c0.32422-0.17188 0.48828-0.54688 0.38672-0.89844-0.097656-0.35547-0.42969-0.59375-0.79687-0.57031z"/>
  <path d="m26.398 47.477c-0.12109 0.011719-0.23828 0.050782-0.34375 0.11328l-7.6289 4.625v0.003906c-0.1875 0.10156-0.32812 0.27344-0.38281 0.48047-0.058594 0.20703-0.027344 0.42578 0.082031 0.60938 0.11328 0.18359 0.29297 0.31641 0.5 0.35938 0.21094 0.046875 0.42969 0.007812 0.60547-0.11328l7.6289-4.625 0.003906-0.003907c0.3125-0.18359 0.46094-0.5625 0.34766-0.91016-0.10938-0.34766-0.44922-0.57422-0.8125-0.53906z"/>
  <path d="m28.809 49.559c-0.12109 0.011718-0.23828 0.058594-0.34375 0.125l-8.6719 5.5469v0.003906c-0.36328 0.23047-0.46875 0.71484-0.23828 1.0781 0.23437 0.36328 0.71875 0.47266 1.082 0.23828l8.6719-5.5547c0.30859-0.19141 0.44531-0.57422 0.32422-0.91797-0.12109-0.34375-0.46094-0.5625-0.82422-0.51953z"/>
  <path d="m29.793 51.633c-0.17578 0.007813-0.34375 0.074219-0.47656 0.19141l-8.0938 6.707c-0.17188 0.12891-0.28516 0.32031-0.30859 0.53125-0.027343 0.21484 0.035157 0.42578 0.17188 0.59375 0.13672 0.16406 0.33594 0.26562 0.55078 0.28125 0.21094 0.011719 0.42188-0.058594 0.57812-0.20312l8.0938-6.707v-0.003906c0.26562-0.20703 0.36328-0.56641 0.24609-0.88281-0.11719-0.31641-0.42578-0.51953-0.76172-0.50781z"/>
  <path d="m31.555 54.523c-0.17578 0.003906-0.34375 0.0625-0.48047 0.17187l-7.9766 6.1211-0.003906 0.003906c-0.16406 0.125-0.26953 0.3125-0.29688 0.51563-0.027344 0.20703 0.027344 0.41406 0.15234 0.57812 0.12891 0.16797 0.3125 0.27344 0.51953 0.30078s0.41406-0.03125 0.57812-0.15625l7.9766-6.1211c0.27344-0.20312 0.38672-0.55469 0.27734-0.87891-0.10547-0.32031-0.40625-0.53516-0.74609-0.53125z"/>
  <path d="m31.988 57.766c-0.14844 0.003906-0.29297 0.050781-0.41406 0.13672l-7.5195 5.0898c-0.17188 0.11328-0.28906 0.29687-0.32813 0.5-0.039062 0.20312 0.003907 0.41406 0.12109 0.58594 0.11328 0.17188 0.29688 0.28906 0.5 0.32812s0.41406-0.003906 0.58594-0.12109l7.5117-5.0898c0.28906-0.19531 0.41406-0.55469 0.30859-0.88672-0.10938-0.32812-0.41797-0.55078-0.76562-0.54297z"/>
  <path d="m32.574 61.055c-0.14844 0.003906-0.29688 0.050781-0.42188 0.13672l-5.3047 3.4648c-0.35938 0.23828-0.46484 0.72266-0.22656 1.0859 0.23438 0.35937 0.71875 0.46484 1.082 0.22656l5.3047-3.4727c0.29688-0.1875 0.42969-0.55078 0.32813-0.88281-0.10156-0.33594-0.41016-0.5625-0.76172-0.55859z"/>
 </g>
</svg>
