<?xml version="1.0" encoding="UTF-8"?>
<svg width="100pt" height="100pt" version="1.1" viewBox="0 0 100 100" xmlns="http://www.w3.org/2000/svg">
 <path d="m93.91 73.766c-0.375-13.469-2.3984-24.754-9.0547-36.723-2.5781-4.6328-5.5469-9.1758-8.8008-13.367-1.7891-2.3047-3.5508-4.5742-4.6562-7.082-0.1875-0.42188-0.13672-0.55469-0.65234-0.61719-0.17578-0.019531-0.35938-0.007812-0.53516 0.039063-0.38672 0.10547-0.54688-0.48438-0.15625-0.58984 0.16797-0.046875 0.33984-0.070312 0.50781-0.070312 0.4375-0.003907 0.40234 0.17188 0.24219-0.34766-0.20703-0.66016-0.35938-1.3398-0.45703-2.043-0.26953-1.9805 0.042969-4.0391 0.45312-5.9766 0.57812-2.7344-1.2109-3.8359-3.4453-2.543-1.8828 1.0898-3.7891 3.832-4.1602 8.4727-0.066406 0.8125-0.054687 1.5664 0.011719 2.2656 0.046875 0.48828 0.10547 1.0117 0.61328 1.2539 0.33594 0.16016 0.35938 0.57031 0.15625 0.80078-0.29687 0.33594-0.44531-0.097656-0.15234 0.73047 0.40234 1.1328 0.93359 2.0898 1.4375 2.9258 0.46484 0.77344 0.35547 0.58984 1.2188 0.78125 3.082 0.67188 6.6836 2.3398 8.7695 4.7383 0.4375 0.50391-0.32812 1.1719-0.76953 0.66797-1.9766-2.2695-5.2969-3.7383-8.1953-4.4102-2.6992-0.625-5.3711-0.64062-7.1797 0.10938-3.5039 1.457-9.207 5.3398-11.734 8.2734-1.1992 1.3945-1.6641 3.1211-0.32031 4.3047 0.65234 0.57422 0.57422 0.47656 1.0859-0.023437 1.6641-1.6211 6.4883-4.3438 7.2305-5.7539 0.3125-0.58984 1.2109-0.11719 0.89844 0.47266-1.0508 1.9961-6.0117 4.3359-8.0234 6.6445-1.7422 2-2.1602 5.2148 0.66406 5.7031 0.98828 0.17188 0.70703 0.10547 1.3984-0.53906 1.0273-0.95703 2.2969-1.875 3.5-2.7422 1.5898-1.1484 3.0508-2.2031 3.5117-3.0234 0.13672-0.24219 0.44531-0.33203 0.69141-0.19141 0.24219 0.13672 0.33203 0.44531 0.19141 0.69141-0.57422 1.0156-2.1211 2.1328-3.8047 3.3477-1.918 1.3867-4.0273 2.9062-4.8398 4.3711-0.5625 1.0117-0.49219 2.2812 0.16406 3.2305 0.81641 1.1758 1.707 1.3359 2.75 0.48438 1.418-1.1602 5.8281-3.6562 6.1523-5.0117 0.15625-0.64844 1.1406-0.41406 0.98828 0.23438-0.68359 2.2891-5.8984 4.3945-7.1211 6.1758-0.21094 0.30859-0.35938 0.67187-0.44141 1.0625-0.58594 2.832 1.793 5.5664 4.4727 6.2109 1.8164 0.4375 4.1602 0.17969 6.9922-1.2734 0.79297-0.40625 0.75781-0.30859-0.019531-0.79688-0.97656-0.61328-1.9375-1.0391-2.9336-1.0547-0.38281-0.007813-0.55859 0.007813-0.60938 0.45703-0.019531 0.17969 0.015625 0.44141 0.16797 0.55859 0.32031 0.24219-0.050782 0.72656-0.36719 0.48438-0.28125-0.21484-0.42578-0.58984-0.41406-0.9375 0.011718-0.35156 0.16016-0.46094-0.35547-0.23438-0.44141 0.19531-0.89453 0.48438-1.3633 0.87891-0.51172 0.42969-1.168-0.34375-0.65625-0.77734 3.5625-3.0273 6.2344-0.98437 9.3008 1.3633 2.6875 2.0547 5.707 4.3633 9.918 3.1719 0.64453-0.17969 0.91797 0.79688 0.27344 0.98047-0.78516 0.22266-1.5312 0.33984-2.2383 0.36719-0.75781 0.03125-0.58594-0.078125-0.39453 0.76562 0.94922 4.2031 0.98047 8.2734 1.0234 13.117 0.007812 0.78906 0.011719 1.6016 0.023438 2.4375 0.011718 0.88672-0.050782 0.48047 0.55078 0.98437 0.94922 0.79688 1.8398 2.5391 2.6016 4.6016 0.73828 1.9961 1.3828 4.3203 1.8477 6.3477 0.37109 1.6328 0.15625 1.4766 0.73828 0.046875 0.89453-2.2031 2.3203-4.5156 3.9805-6.6172 2.7695-3.5039 6.2227-6.4375 9-7.3164 0.41406-0.13281 0.33594-0.03125 0.32422-0.49609zm-89.188 19.191c-0.003906 0.40234-0.61328 0.39453-0.60938-0.007812 0.09375-6.1094 0.76172-12.094 2.4922-17.969 0.11328-0.38672 0.69922-0.21094 0.58594 0.17188-1.7148 5.8203-2.3789 11.754-2.4688 17.805zm30.949-14.371c0 0.32422-0.10938 0.65234-0.35547 0.86719-0.30078 0.26172-0.70312-0.19531-0.40234-0.45703 0.14453-0.12891 0.16406-0.39062 0.13281-0.57031-0.09375-0.5-0.33594-0.45312-0.76172-0.40625-0.96094 0.11328-1.8672 0.59766-2.7734 1.2656-0.67578 0.49609-0.75 0.41016-0.011719 0.73047 2.9648 1.293 5.3477 1.3945 7.1484 0.83203 2.625-0.82031 5.0078-4.1758 3.9961-6.7188-0.53125-1.3359-2.1367-2.0391-3.3281-2.7266-2.0078-1.1602-4.2539-2.457-4.6641-3.7617-0.19922-0.63672 0.77344-0.94141 0.97266-0.30078 0.29297 0.92969 2.3516 2.1211 4.1992 3.1836 0.89844 0.51953 1.7539 1.0117 2.3789 1.4688 0.62109 0.45703 0.62109 0.60547 1.4844 0.25781 1.0078-0.40625 1.5469-1.5117 1.5586-2.5586 0.007812-0.77344-0.33984-1.5-0.88281-2.1719-1.2266-1.5117-3.4414-2.7305-4.7266-3.5312-1.7617-1.0977-3.3789-2.1055-4.0234-3.082-0.36719-0.55859 0.48047-1.1133 0.84766-0.55859 0.51562 0.78516 2.0469 1.7383 3.7109 2.7773 1.2656 0.78906 2.6055 1.625 3.6953 2.5156 0.71484 0.58203 0.48047 0.66406 1.4453 0.41797 1.2852-0.32422 1.9375-1.2266 1.8477-2.5234-0.074218-1.0625-0.64453-2.2461-1.6016-3.207-2.1602-2.168-7.2695-4.1602-8.4531-6.082-0.35156-0.56641 0.51172-1.1016 0.86328-0.53516 0.83594 1.3516 5.4727 3.543 7.6523 5.3047 0.50391 0.40625 0.41406 0.5 0.97266-0.050781 1.4375-1.418 0.64844-3.1172-0.54688-4.3281-2.7188-2.7539-8.6719-6.2422-12.266-7.457-1.8828-0.63672-4.6094-0.41797-7.3047 0.42187-2.7969 0.87109-5.9531 2.5469-7.7461 4.9141-0.40234 0.53125-1.2109-0.082031-0.80859-0.61328 1.9258-2.5391 5.2695-4.3477 8.2812-5.2812 1.1289-0.34766 0.84375 0.003906 1.3516-0.99609 0.42969-0.84766 0.875-1.8047 1.1875-2.9219 0.23828-0.84766 0.125-0.40625-0.19922-0.72266-0.24219-0.23438-0.19531-0.64062 0.10156-0.80859 0.09375-0.054687 0.17578-0.12109 0.23828-0.19531 0.25781-0.30078 0.27344-0.67578 0.28516-1.0469 0.11328-3.5977-1.4648-8.8047-4.8672-10.477-2.3164-1.1406-4.0273 0.082031-3.2656 2.7695 0.53906 1.9062 0.99219 3.9414 0.85938 5.9336-0.046875 0.69922-0.15234 1.3789-0.3125 2.043-0.13672 0.58203-0.17969 0.36719 0.32031 0.35547 0.14844-0.003907 0.30078 0.007812 0.44922 0.039062 0.39453 0.078125 0.27734 0.67578-0.11719 0.59766-0.19141-0.039062-0.39062-0.035156-0.58203 0.007813-0.42188 0.09375-0.39062 0.15625-0.51953 0.51562-0.92969 2.6289-2.5586 5.0508-4.2148 7.5195-2.9609 4.4023-5.6133 9.1367-7.8711 13.934-5.1953 11.043-6.793 21.402-6.6445 33.434 0.007812 0.66797-1.0078 0.67969-1.0156 0.011719-0.15234-12.195 1.4727-22.684 6.7383-33.875 2.2773-4.8398 4.957-9.625 7.9453-14.07 2.3008-3.4219 4.543-6.7578 4.8008-10.574 0.125-1.8633-0.31641-3.8086-0.82031-5.5938-1.0078-3.5547 1.5977-5.4766 4.6914-3.957 3.7656 1.8516 5.5312 7.3438 5.4453 11.328-0.046875 2.2109-0.65234 3.9531-1.3281 5.3945-0.45703 0.98438-0.58203 0.80469 0.48047 0.66406 1.7773-0.23047 3.4414-0.15625 4.7578 0.28906 3.75 1.2656 9.832 4.8359 12.668 7.707 1.6094 1.6289 2.4023 3.9219 0.53516 5.7656-0.59375 0.58594-0.65234 0.25391-0.18359 0.93359 0.625 0.91016 0.99219 1.9102 1.0586 2.8438 0.10156 1.4648-0.54688 2.7148-1.9023 3.332-1.2227 0.55469-0.9375-0.046875-0.35938 1.1797 0.24609 0.52344 0.36328 1.0859 0.34766 1.7305-0.019531 1.4609-0.80078 2.9258-2.1953 3.4883-0.83203 0.33594-0.67188-0.054688-0.39062 0.87109 0.98047 3.1953-1.5938 6.7812-4.7227 7.7617-2.1172 0.66406-4.9102 0.51953-8.3633-1.1016-0.68359-0.32031-0.48047-0.29297-1.082 0.23438-1.7852 1.5664-3.7422 3.1719-6.1797 3.9609-0.60547 0.19531-0.5 0.18359-0.65234 1.1211-0.56641 3.4922-0.60938 6.9492-0.42188 10.496 0.035156 0.66797-0.98047 0.71875-1.0156 0.050781-0.1875-3.5273-0.14844-6.9766 0.39453-10.453 0.16406-1.0664 0.36719-0.89844-0.57812-0.88672-0.66406 0.007813-1.3633-0.0625-2.1016-0.21875-0.65625-0.13672-0.44922-1.1328 0.20703-0.99609 4.2812 0.90234 7.1406-1.6055 9.6797-3.8359 2.9023-2.5469 5.4258-4.7656 9.1875-1.9883 0.53516 0.39844-0.070313 1.2148-0.60547 0.81641-0.5-0.37109-0.98047-0.62891-1.4414-0.79297-0.57422-0.20312-0.30469-0.09375-0.30469 0.36328zm-6.4492-10.488c-0.58203 0.32812-1.082-0.55859-0.49609-0.88672 0.51563-0.28906 1.1094-0.4375 1.6992-0.41016 0.66797 0.03125 0.62109 1.0469-0.046875 1.0156-0.40625-0.019531-0.80078 0.082032-1.1523 0.28125zm0.070313-7.9336c-0.57422 0.33984-1.0898-0.53125-0.51562-0.87109 0.63281-0.37891 1.3594-0.53516 2.0938-0.41797 0.66016 0.10156 0.50391 1.1055-0.15625 1.0039-0.48828-0.078125-1 0.035156-1.4219 0.28906zm-6.9805-27.781c-0.23047-0.32812 0.26562-0.67578 0.49609-0.35156 0.59375 0.83984 1.0352 3.0312 0.93359 4.1133-0.050782 0.52734-0.24609 1.1562-0.84766 1.2539-0.39453 0.0625-0.49219-0.53906-0.09375-0.60156 0.25781-0.042969 0.31641-0.50391 0.33594-0.70703 0.085937-0.9375-0.3125-2.9844-0.82422-3.707zm7.0898 19.684c0.27344-0.1875 1.2969-0.82422 2.6328-0.44531 0.64453 0.17969 0.37109 1.1602-0.27344 0.98047-0.875-0.24609-1.5586 0.15234-1.7656 0.29297-0.66016 0.44531-1.1914-0.41406-0.58984-0.82812zm62.402 14.355c0.03125 0.40234-0.57422 0.44922-0.60938 0.050781-0.50391-6.0352-1.5664-11.902-3.6719-17.598-0.13672-0.37891 0.43359-0.58594 0.57422-0.21094 2.125 5.7383 3.2031 11.672 3.707 17.758zm-8.0117 26.023c-0.37109 0.65234-0.37109 1.75 0 2.4023 0.30469 0.53906 0.70703 0.53906 1.0117 0 0.37109-0.65234 0.37109-1.75 0-2.4023-0.30469-0.53906-0.70703-0.53906-1.0117 0zm-0.53125-0.30078c0.53906-0.94922 1.5312-0.94922 2.0742 0 0.48047 0.83984 0.48047 2.1641 0 3.0078-0.54297 0.94922-1.5312 0.94922-2.0742 0-0.48047-0.83984-0.48047-2.1641 0-3.0078zm-2.6445 3.3281c0 0.66797-1.0156 0.66797-1.0156 0 0-1.3008 0.074219-2.6484-0.10937-3.9336-0.30859-2.1992-1.2461-6.207-2.4258-9.3945-0.89844-2.4336-1.8906-4.3438-2.7227-4.4023-1.2852-0.089844-2.0742 2.9688-2.5703 6.7812-0.52734 4.0508-0.65625 8.9102-0.71484 12.016-0.011719 0.66797-1.0234 0.65234-1.0156-0.015624 0.058593-3.1289 0.19141-8.0312 0.72266-12.129 0.46094-3.5547 1.2617-6.5312 2.6445-7.4062 0.53906-0.34375 0.45312-0.015625 0.44141-0.78516-0.011718-0.82812-0.015624-1.6367-0.023437-2.4258-0.039063-4.918-0.074219-9.0312-1.0781-13.254-0.21484-0.90234 0.023438-0.64844-0.875-0.85938-2.4102-0.56641-4.3906-2.082-6.2266-3.4844-0.67578-0.51563-0.44531-0.51563-1.1641-0.12109-3.3047 1.8164-6.0586 2.1406-8.1992 1.6289-3.1914-0.76562-5.9258-4-5.2344-7.4023 0.17969-0.875 0.42578-0.60547-0.33984-0.82422-0.74609-0.21094-1.375-0.6875-1.832-1.3438-0.80469-1.1602-0.97656-2.8047-0.33594-4.0742 0.33984-0.66797 0.56641-0.48047-0.39062-0.77734-2.7109-0.83594-2.8359-3.9219-1.4062-6.2617 0.33984-0.55469 0.33594-0.32031-0.18359-0.72266-2.0234-1.5703-1.6016-4.0039 0.027344-5.8945 2.6328-3.0547 8.4609-7.0273 12.113-8.5469 1.2617-0.52344 2.8789-0.71484 4.6289-0.61719 1.1719 0.066406 1.0703 0.28906 0.50391-0.74609-1.0156-1.8516-1.9375-4.2383-1.6641-7.6328 0.40234-5.0312 2.5469-8.043 4.668-9.2734 2.9805-1.7266 5.7148 0.011719 4.9492 3.6289-0.38281 1.8125-0.69141 3.7891-0.44141 5.6367 0.51562 3.7891 2.9805 6.9688 5.5078 10.223 3.2812 4.2305 6.2812 8.8203 8.8828 13.496 6.7305 12.098 8.7969 23.512 9.1836 37.137 0.011719 0.45703-0.046875 0.29688 0.35547 0.39844 1.4648 0.375 2.3164 2.4688 2.793 5.2891 1 5.9336 0.27734 11.355 0.52344 17.141 0.027344 0.66797-0.98828 0.70703-1.0156 0.039063-0.24219-5.7344 0.47656-11.137-0.51172-17.012-0.46484-2.75-1.2266-4.6914-2.4883-4.4805-2.6406 0.44531-6.2812 3.4609-9.1953 7.1445-2.3906 3.0234-4.2734 6.4727-4.6836 9.293-0.17188 1.1758-0.085938 2.8398-0.085938 3.9766zm-15.117-53.059c0.60547 0.28516 0.17188 1.2031-0.43359 0.91797-0.36328-0.17188-0.77344-0.25-1.1719-0.20312-0.66406 0.074219-0.78125-0.93359-0.11719-1.0117 0.58984-0.070313 1.1836 0.039062 1.7227 0.29297zm-0.58594-7.8984c0.59766 0.30078 0.14063 1.207-0.45703 0.90625-0.44141-0.22266-0.95312-0.30078-1.4375-0.19141-0.65234 0.14844-0.875-0.84375-0.22266-0.99219 0.72266-0.16406 1.4609-0.058593 2.1172 0.27734zm4.1016-27.602c0.20703-0.34375 0.73047-0.023437 0.51953 0.31641-0.46094 0.75781-0.72266 2.8203-0.57031 3.75 0.03125 0.19922 0.12109 0.66016 0.38281 0.68359 0.39844 0.035157 0.34375 0.64453-0.054687 0.60547-0.60547-0.054687-0.84375-0.66406-0.92969-1.1914-0.17188-1.0703 0.11719-3.2891 0.65234-4.168zm-5.6953 21.336h-0.003906c-0.12891-0.078125-0.89062-0.54297-1.8359-0.20312-0.63281 0.22656-0.97266-0.73438-0.34375-0.96094 1.1992-0.42969 2.1914 0.007812 2.5703 0.21484 0.82031 0.44922 0.15234 1.2852-0.39062 0.94922z"/>
</svg>
