<?xml version="1.0" encoding="UTF-8"?>
<svg width="100pt" height="100pt" version="1.1" viewBox="0 0 100 100" xmlns="http://www.w3.org/2000/svg">
 <g>
  <path d="m64.582 60.273c0.69141-1.7969 1.043-3.668 1.043-5.5859 0-6.9844-4.6055-12.91-10.938-14.906v-21.031h1.5625c0.86328 0 1.5625-0.69922 1.5625-1.5625v-3.125h3.125v-3.125h-3.125v-1.5625h3.125v-3.125h-3.125v-3.125c0-0.86328-0.69922-1.5625-1.5625-1.5625h-12.5c-0.86328 0-1.5625 0.69922-1.5625 1.5625v3.125h-3.125v3.125h3.125v1.5625h-3.125v3.125h3.125v3.125c0 0.86328 0.69922 1.5625 1.5625 1.5625h1.5625v21.031c-6.332 1.9961-10.938 7.9219-10.938 14.906 0 1.918 0.35156 3.7891 1.043 5.5859-4.6484 4.1523-7.293 10.027-7.293 16.289 0 12.062 9.8125 21.875 21.875 21.875s21.875-9.8125 21.875-21.875c0-6.2617-2.6445-12.137-7.293-16.289zm-16.145-35.273h3.125v3.125h-3.125zm0 6.25h3.125v3.125h-3.125zm-3.125-20.312v-1.5625h3.125v-3.125h-3.125v-1.5625h9.375v1.5625h-3.125v3.125h3.125v1.5625h-3.125v3.125h3.125v1.5625h-9.375v-1.5625h3.125v-3.125zm6.25 7.8125v3.125h-3.125v-3.125zm-3.125 18.75h3.125v1.6406c-0.51562-0.050781-1.0352-0.078125-1.5625-0.078125s-1.0469 0.027344-1.5625 0.078125zm3.125 42.031c-0.50391 0.10156-1.0273 0.15625-1.5625 0.15625s-1.0586-0.054688-1.5625-0.15625v-15.309c0.50391-0.10547 1.0273-0.16016 1.5625-0.16016s1.0586 0.054688 1.5625 0.15625zm3.125-13.867c1.8867 1.4297 3.125 3.668 3.125 6.2109 0 2.5391-1.2383 4.7812-3.125 6.2109zm-6.25 20.273v-3.25c0.51172 0.074219 1.0312 0.125 1.5625 0.125s1.0508-0.050781 1.5625-0.125v3.25zm-3.125-7.8516c-1.8867-1.4297-3.125-3.668-3.125-6.2109 0-2.5391 1.2383-4.7812 3.125-6.2109zm4.6875-17.148c-0.53125 0-1.0508 0.050781-1.5625 0.125v-18.766c0.51172-0.066406 1.0312-0.10938 1.5625-0.10938s1.0508 0.042969 1.5625 0.10938v18.766c-0.51172-0.074219-1.0312-0.125-1.5625-0.125zm0 34.375c-10.34 0-18.75-8.4102-18.75-18.75 0-5.7109 2.5664-11.039 7.0391-14.625 0.56641-0.45312 0.74609-1.2344 0.43359-1.8906-0.8125-1.7031-1.2227-3.5078-1.2227-5.3594 0-5.2344 3.2383-9.7188 7.8125-11.578v18.898c-3.6875 1.7578-6.25 5.5156-6.25 9.8672s2.5625 8.1094 6.25 9.8672v4.1953h-3.125v3.125h15.625v-3.125h-3.125v-4.1953c3.6875-1.7578 6.25-5.5156 6.25-9.8672s-2.5625-8.1094-6.25-9.8672v-18.898c4.5742 1.8594 7.8125 6.3438 7.8125 11.578 0 1.8516-0.41016 3.6562-1.2188 5.3594-0.3125 0.65625-0.13281 1.4375 0.43359 1.8906 4.4688 3.5859 7.0352 8.9141 7.0352 14.625 0 10.34-8.4102 18.75-18.75 18.75z"/>
  <path d="m85.938 14.062h-7.8125c-0.86328 0-1.5625 0.69922-1.5625 1.5625v9.6641c-0.49219-0.17578-1.0117-0.28906-1.5625-0.28906-2.5859 0-4.6875 2.1016-4.6875 4.6875s2.1016 4.6875 4.6875 4.6875 4.6875-2.1016 4.6875-4.6875v-12.5h6.25zm-10.938 17.188c-0.85938 0-1.5625-0.70312-1.5625-1.5625s0.70312-1.5625 1.5625-1.5625 1.5625 0.70312 1.5625 1.5625-0.70312 1.5625-1.5625 1.5625z"/>
  <path d="m10.938 29.688v-12.5h9.375v4.9766c-0.49219-0.17578-1.0117-0.28906-1.5625-0.28906-2.5859 0-4.6875 2.1016-4.6875 4.6875s2.1016 4.6875 4.6875 4.6875 4.6875-2.1016 4.6875-4.6875v-10.938c0-0.86328-0.69922-1.5625-1.5625-1.5625h-12.5c-0.86328 0-1.5625 0.69922-1.5625 1.5625v9.6641c-0.49219-0.17578-1.0117-0.28906-1.5625-0.28906-2.5859 0-4.6875 2.1016-4.6875 4.6875s2.1016 4.6875 4.6875 4.6875 4.6875-2.1016 4.6875-4.6875zm7.8125-1.5625c-0.85938 0-1.5625-0.70312-1.5625-1.5625s0.70312-1.5625 1.5625-1.5625 1.5625 0.70312 1.5625 1.5625-0.70312 1.5625-1.5625 1.5625zm-12.5 3.125c-0.85938 0-1.5625-0.70312-1.5625-1.5625s0.70312-1.5625 1.5625-1.5625 1.5625 0.70312 1.5625 1.5625-0.70312 1.5625-1.5625 1.5625z"/>
  <path d="m31.25 59.375v-10.938c0-0.86328-0.69922-1.5625-1.5625-1.5625h-12.5c-0.86328 0-1.5625 0.69922-1.5625 1.5625v9.6641c-0.49219-0.17578-1.0117-0.28906-1.5625-0.28906-2.5859 0-4.6875 2.1016-4.6875 4.6875s2.1016 4.6875 4.6875 4.6875 4.6875-2.1016 4.6875-4.6875v-12.5h9.375v4.9766c-0.49219-0.17578-1.0117-0.28906-1.5625-0.28906-2.5859 0-4.6875 2.1016-4.6875 4.6875s2.1016 4.6875 4.6875 4.6875 4.6875-2.1016 4.6875-4.6875zm-17.188 4.6875c-0.85938 0-1.5625-0.70312-1.5625-1.5625s0.70312-1.5625 1.5625-1.5625 1.5625 0.70312 1.5625 1.5625-0.70312 1.5625-1.5625 1.5625zm12.5-3.125c-0.85938 0-1.5625-0.70312-1.5625-1.5625s0.70312-1.5625 1.5625-1.5625 1.5625 0.70312 1.5625 1.5625-0.70312 1.5625-1.5625 1.5625z"/>
  <path d="m90.625 31.25c-0.86328 0-1.5625 0.69922-1.5625 1.5625v9.6641c-0.49219-0.17578-1.0117-0.28906-1.5625-0.28906-2.5859 0-4.6875 2.1016-4.6875 4.6875s2.1016 4.6875 4.6875 4.6875 4.6875-2.1016 4.6875-4.6875v-12.5h6.25v-3.125zm-3.125 17.188c-0.85938 0-1.5625-0.70312-1.5625-1.5625s0.70312-1.5625 1.5625-1.5625 1.5625 0.70312 1.5625 1.5625-0.70312 1.5625-1.5625 1.5625z"/>
 </g>
</svg>
