<?xml version="1.0" encoding="UTF-8"?>
<svg width="100pt" height="100pt" version="1.1" viewBox="0 0 100 100" xmlns="http://www.w3.org/2000/svg">
 <g>
  <path d="m25 32.824c4.3086 0 7.8125-3.5039 7.8125-7.8125 0-4.3086-3.5039-7.8125-7.8125-7.8125s-7.8125 3.5039-7.8125 7.8125c0 4.3086 3.5039 7.8125 7.8125 7.8125zm0-12.5c2.5859 0 4.6875 2.1016 4.6875 4.6875 0 2.5859-2.1016 4.6875-4.6875 4.6875s-4.6875-2.1016-4.6875-4.6875c0-2.5859 2.1016-4.6875 4.6875-4.6875z"/>
  <path d="m98.438 76.121v-11.594l-4.2266-1.4766c-0.47656-1.5586-1.0938-3.0625-1.8555-4.4883l1.9453-4.0273-1.5078-1.5078c-0.69922-0.91797-1.8438-2.1289-2.7109-3.0039-1.0781-1.0938-2.3242-2.2773-3.1719-3.0156l-45.082-39.43c-4.4258-3.875-10.102-6.0078-15.984-6.0078v0.042969c-0.28516-0.007812-0.55859-0.039062-0.84375-0.039062-12.922 0-23.438 10.516-23.438 23.438 0 0.28516 0.03125 0.55859 0.042969 0.83984h-0.042969c0 5.8828 2.1328 11.559 6.0078 15.984l39.422 45.047c0.71094 0.8125 1.7773 1.9414 2.7812 2.9531 0.94922 0.95312 2.2578 2.2148 3.2383 2.9609l1.5156 1.5156 4.0273-1.9453c1.4258 0.75781 2.9297 1.3828 4.4883 1.8555l1.4766 4.2266h11.594l1.4766-4.2266c1.5586-0.47656 3.0625-1.0938 4.4883-1.8555l4.0273 1.9453 8.1992-8.1992-1.9453-4.0273c0.75781-1.4258 1.3828-2.9297 1.8555-4.4883zm-73.438-62.047c6.0312 0 10.938 4.9062 10.938 10.938s-4.9062 10.938-10.938 10.938-10.938-4.9062-10.938-10.938 4.9062-10.938 10.938-10.938zm-17.188 10.938h3.125c0 7.7539 6.3086 14.062 14.062 14.062v3.125c-9.4766 0-17.188-7.7109-17.188-17.188zm38.512 29.523 1.9453 4.0273c-0.75781 1.4258-1.3828 2.9297-1.8555 4.4883l-4.2266 1.4766v11.594l4.2266 1.4766c0.47656 1.5586 1.0938 3.0625 1.8555 4.4883l-0.47266 0.98047-31.898-36.457c2.8008 1.1836 5.875 1.8398 9.1016 1.8398 12.922 0 23.438-10.516 23.438-23.438 0-3.2305-0.65625-6.3086-1.8438-9.1094l36.477 31.898-1 0.48438c-1.4258-0.75781-2.9297-1.3828-4.4883-1.8555l-1.4766-4.2266h-11.594l-1.4766 4.2266c-1.5586 0.47656-3.0625 1.0938-4.4883 1.8555l-4.0273-1.9453zm23.988 31.414c-8.6172 0-15.625-7.0078-15.625-15.625 0-8.6172 7.0078-15.625 15.625-15.625s15.625 7.0078 15.625 15.625c0 8.6133-7.0078 15.625-15.625 15.625z"/>
  <path d="m26.562 25.012c0 2.082-3.125 2.082-3.125 0 0-2.0859 3.125-2.0859 3.125 0"/>
  <path d="m76.562 70.324c0 3.4492-2.7969 6.25-6.25 6.25s-6.25-2.8008-6.25-6.25c0-3.4531 2.7969-6.25 6.25-6.25s6.25 2.7969 6.25 6.25"/>
  <path d="m70.312 57.824c-6.8906 0-12.5 5.6094-12.5 12.5s5.6094 12.5 12.5 12.5 12.5-5.6094 12.5-12.5c0-6.8945-5.6094-12.5-12.5-12.5zm0 21.875c-5.1719 0-9.375-4.2031-9.375-9.375s4.2031-9.375 9.375-9.375 9.375 4.2031 9.375 9.375c0 5.168-4.2031 9.375-9.375 9.375z"/>
  <path d="m77.879 31.996c0.22656-0.085938 0.45312-0.17578 0.67188-0.27344l3.7227 1.8594 4.418-4.418-1.8594-3.7227c0.10156-0.21875 0.1875-0.44531 0.27344-0.67188l3.957-1.3203v-6.25l-3.9531-1.3164c-0.085937-0.22656-0.17578-0.45312-0.27344-0.67187l1.8594-3.7227-4.418-4.418-3.7227 1.8594c-0.21875-0.10156-0.44531-0.1875-0.67188-0.27344l-1.3203-3.957h-6.25l-1.3164 3.9531c-0.22656 0.085937-0.45312 0.17578-0.67188 0.27344l-3.7227-1.8594-4.4219 4.418 1.8594 3.7227c-0.10156 0.21875-0.1875 0.44531-0.27344 0.67188l-3.9531 1.3203v0.21094l19.305 16.883zm-10.691-11.672c0-3.4531 2.7969-6.25 6.25-6.25s6.25 2.7969 6.25 6.25-2.7969 6.25-6.25 6.25-6.25-2.8008-6.25-6.25z"/>
  <path d="m34.293 77.121-16.887-19.297h-0.21875l-1.3164 3.9531c-0.22656 0.085937-0.45312 0.17578-0.67188 0.27344l-3.7227-1.8594-4.4219 4.418 1.8594 3.7227c-0.10156 0.21875-0.1875 0.44531-0.27344 0.67188l-3.9531 1.3203v6.25l3.9531 1.3164c0.085937 0.22656 0.17578 0.45312 0.27344 0.67188l-1.8594 3.7227 4.418 4.418 3.7227-1.8594c0.21875 0.10156 0.44531 0.1875 0.67188 0.27344l1.3203 3.957h6.25l1.3164-3.9531c0.22656-0.085938 0.45312-0.17578 0.67188-0.27344l3.7227 1.8594 4.418-4.418-1.8594-3.7227c0.10156-0.21875 0.1875-0.44531 0.27344-0.67188zm-13.98 2.5781c-3.4531 0-6.25-2.7969-6.25-6.25s2.7969-6.25 6.25-6.25 6.25 2.7969 6.25 6.25c0 3.4492-2.7969 6.25-6.25 6.25z"/>
 </g>
</svg>
