<?xml version="1.0" encoding="UTF-8"?>
<svg width="100pt" height="100pt" version="1.1" viewBox="0 0 100 100" xmlns="http://www.w3.org/2000/svg">
 <g>
  <path d="m44.32 18.559c0.5 0.058594 1.0781 0.28125 1.1914 0.75 0.046875 0.22656 0.27344 0.37109 0.5 0.32031 0.23047-0.042968 0.38281-0.26562 0.33984-0.5-0.25-0.85156-1.0312-1.4375-1.9219-1.4375-0.12109-0.015625-0.24219 0.023438-0.32813 0.10938-0.097656 0.097657-0.14844 0.23047-0.14062 0.37109 0.003906 0.19922 0.15625 0.36719 0.35937 0.38672z"/>
  <path d="m88.461 68.199c-2.8008 1.5312-5.2109 3.8281-7.8086 5.6602h-0.003906c-2.0508 1.4375-4.5742 2.043-7.0586 1.6914-1.332-0.12109-2.6523-0.35938-3.9414-0.72266 0.023437-0.17188 0.058593-0.33984 0.10156-0.50781 0.41016-1.3594-0.21875-2.75-0.76172-3.9414 0.14062 0.09375 0.28906 0.17188 0.44141 0.24219 0.17969 0.078125 0.39062 0.046875 0.53906-0.078125 0.15234-0.12891 0.21484-0.33203 0.16016-0.52344-0.37891-0.98828-0.82031-1.9531-1.3203-2.8906l0.35156 0.17188c0.14062 0.066407 0.30078 0.066407 0.44141 0.003907 0.14063-0.066407 0.24219-0.19531 0.27734-0.34375 0.058594-1.0469-0.17969-2.0859-0.6875-3 0.37109 0.09375 0.75391 0.15234 1.1367 0.17969 0.35938 0 0.5-0.37891 0.44922-0.64844-0.21094-1.0898-2.1797-4.0586-2.6992-5.1094v-0.003906c-0.99609-2.2227-1.8086-4.5273-2.418-6.8906-0.58984-2-1.1719-4-1.8203-6-0.71875-2.2188-2.3086-4.7891-2.2383-7.1484 0.70313-0.80859 1.0859-1.8477 1.0703-2.918-0.007813-0.69922-0.39062-1.3398-1-1.6719 0.53516-0.51953 0.79688-1.2578 0.70703-2-0.21094-0.82812-1.1211-1.1602-1.8984-1.3086-0.10156-1.4102-0.35938-2.8008-0.76953-4.1523-0.40234-1.6484-1.0273-3.2383-1.8594-4.7188 0.078126-0.75391-0.023437-1.5156-0.30078-2.2188l-0.15234-0.35156c-0.21875-0.52344-0.50781-1.0156-0.85938-1.4609-0.79687-0.93359-1.7891-1.6797-2.9102-2.1875-1.4141-0.51953-2.8906-0.85937-4.3906-1-1.2773-0.15625-2.5742-0.10156-3.8398 0.16016-0.8125 0.23828-1.5586 0.67578-2.168 1.2695-0.39453 0.34375-0.8125 0.65625-1.25 0.9375-0.98047 0.30078-2.0352 0.27734-3-0.070312l-0.58984-0.12891c-0.48828-0.10156-4.8398-1-5-0.53906-0.035156 0.058593-0.054687 0.12109-0.0625 0.19141-0.18359 0.74219-0.22266 1.5156-0.11719 2.2773 0.023437 0.36719 0.023437 0.73438 0 1.1016-0.0625 0.60938-0.027344 1.2227 0.10937 1.8203 0.28516 1.0156 0.78125 1.9609 1.4609 2.7695 0.71875 0.875 1.582 1.6211 2.5469 2.2109 1.582 0.86328 3.2617 1.5352 5 2 0.57031 0.17969 1.1289 0.35938 1.6797 0.55078l0.32031 0.12109v-0.003907c0.50781 0.10156 0.90234 0.49609 1 1 0.125 0.74219 0.35156 1.4609 0.67188 2.1406 0.17969 0.53906 0.80078 3.4609 0.58984 3.6484-0.67969 0.64844-2.3008 1.3398-3 2.2188v0.003906c-0.67969 0.89062-1.2617 1.8594-1.7305 2.8789 0-0.16016-3.2695-3.1484-3.6992-3.5312-1.1992-1-4-3.7617-5.8789-4.3711v0.003907c-0.90234-0.21094-1.832-0.27734-2.75-0.19141-1.375-0.17578-2.6758 0.67188-3.0703 2-0.55078 1.4102-0.15234 3.0156 1 4 1.1289 0.80859 1.4219-0.75 3.7617-0.73828l-0.003906-0.003906c0.43359 0.16016 0.87109 0.29297 1.3203 0.39062 1.7812 0.39062 5.7188 5.5391 7.8516 8l0.078125 0.089844c-1.3906-0.53125-2.6406-1.6406-4-2.2109v0.003906c-1.7188-0.82422-3.5703-1.332-5.4688-1.5-1.4414-0.066406-2.8359 0.51563-3.8008 1.5898-0.35938 0.30859-0.55078 0.76562-0.52344 1.2383 0.027344 0.47266 0.27344 0.90625 0.66406 1.1719 0.55078 0.48828 1.1016 0.89063 1.6211 1.4102 0.375 0.41016 0.82031 0.75 1.3203 1 0.41016 0.1875 0.88672 0.1875 1.2969 0 0.41016-0.21094 0.66016-1 1.0898-1h0.003906c0.14453-0.023438 0.26953-0.11719 0.32812-0.25 0.0625-0.13281 0.050781-0.28906-0.03125-0.41016 0.92188-0.26172 2.6992 1.7617 3.1289 2.1094 0.60938 0.5 0.71875 1.1289 1.25 1.7188h0.003906c0.19531 0.19141 0.51172 0.19141 0.70703 0 0.27734-0.30078 0.45703-0.67578 0.51953-1.0781 0.37891 0.28125 0.64062 0.69141 1 1 0.24219 0.12891 0.53906 0.050782 0.68359-0.17969 0.23828-0.37891 0.42969-0.57812 0.85156-0.53125h0.089844 0.82812c0.28906 0.042969 0.57812 0.10547 0.85938 0.1875 0.33203 0.050781 0.64062 0.21484 0.87109 0.46094 0.64844 0.76172 2.1914 5.8711 3.7812 9.7188l-0.003907 0.003907c0.92188 2.0742 1.7266 4.2031 2.4102 6.3672 0.16797 0.64062 0.29688 1.2891 0.39062 1.9414-0.64062 0-4.8594-1.0586-4.8594-1.0586-2.7422-0.89844-5.668-1.0781-8.5-0.52344-1.3711 0.26953-3.6914 1.0703-2.8984 3h-0.003906c0.96484 1.6484 2.0859 3.1953 3.3516 4.6211 1.0625 1.1094 2.0078 2.332 2.8086 3.6406-1.1797-0.078125-2.4102 0-3.5195 0-1.4336-0.11719-2.8789 0.015625-4.2695 0.39844-1.1719 0.46875-1.3281 1.7891-1.4414 2.9492-0.058593 0.62891 0.28906 1.1211 1.5195 1.1914 0 0 1.5508 0.10156 2.2695 0.10938h0.003906c-0.17969 0.53516-0.28516 1.0898-0.3125 1.6523 0 0.92969 0.30859 1.1406 1 1.1797 0.058594 0 25.219 0.17969 26 0.17969 0.65625 0.10156 1.3281 0 1.9219-0.30078 0.94141-0.71875 0.10938-2-0.78906-2.5312 0.51172-0.60156 1.7305-0.48047 2.3789-0.5 0.75391-0.003906 1.4961-0.16797 2.1797-0.47656 1.4102-0.67969 1.2891-1.7617 1.2383-3.1602h0.003906c0.003906-0.039062 0.003906-0.074218 0-0.11328 0.78125 0.12891 1.8203 0.26172 2.1992 0.28125 3.0273 0.29297 6.0859-0.011719 9-0.89844 4.6289-1.6602 8.4805-4.9219 10-9.7188 0.44922-1.6914-0.35156-1.4805-1.1602-1.043zm-45.621-18.551c-0.55859-0.16016-2.2109-0.58984-3.1211 0.39062-0.33203-0.42969-0.76172-0.77344-1.2578-1-0.21875-0.054687-0.44531 0.039063-0.5625 0.23047-0.125 0.19922-0.21484 0.41797-0.25781 0.65234-0.11328-0.36719-0.30078-0.71094-0.55078-1-0.48828-0.5-1.2812-0.87891-1.8203-1.4102-0.29297-0.32422-0.60547-0.625-0.94141-0.90234-0.39062-0.35156-0.92578-0.49219-1.4414-0.37891-0.51172 0.11328-0.94141 0.46484-1.1484 0.94922-0.078125 0.11719-0.097656 0.26562-0.046875 0.39844-0.097656 0.13281-0.20312 0.25391-0.32031 0.36328-0.85938 0.75-1.5195-0.33984-2.1016-0.92969-0.57812-0.58984-2.168-1.0117-1.1602-2.0117 0.77344-0.74609 1.8164-1.1484 2.8906-1.1211 2.1484 0.33203 4.2383 0.94922 6.2188 1.8398 1.2812 0.67188 2.3203 1.7109 3.7812 2 0.17578 0.042969 0.35938-0.015625 0.48047-0.14844 0.78125 0.83984 1.5898 1.6602 2.4102 2.4414l0.070313 0.070312v-0.003906c-0.35156-0.19141-0.73047-0.33594-1.1211-0.42969zm-9.8398 33.16c-0.42188 0-1.2109-0.12109-1-1.0703 0.14062-0.62891 0.21094-1.1797 0.87891-1.4883 0.82812-0.19141 1.6797-0.27734 2.5312-0.25 1.8047-0.21094 3.625-0.21094 5.4297 0 0.16016 0.30078 1.6094 0.89062 1.3086 0.32031 0-0.089843-1.7812-3.2188-2.5195-4.1719-0.58984-0.75-5.6602-6-4.4219-6.9297 1.5781-1.2305 7-1.3789 8.3984-0.57031-1.9219 0.21875-2.4688 1.0586-3.5117 1.8906-1.3203 1 0.37891 4.1289 1.1094 5.6094 0.85938 1.6484 2.1719 4.1914 3.0508 5.8086-1.3281-0.14844-2.7695-0.070312-4.0586-0.089843l0.003907 0.003906c-1.4336-0.12109-2.8789 0.015625-4.2695 0.39844-0.32813 0.13281-0.61328 0.35156-0.82813 0.62891-0.10156-0.027344-1.3906-0.058594-2.1016-0.089844zm47.449-5.4102c-2.1133 0.99219-4.4258 1.4727-6.7578 1.4023-4.5-0.12109-5.9219-0.32812-6.5703-1.1289-0.41016-0.5-1.8398-0.42969-0.78906 1.2305 0.17969 0.28125 0.37891 0.67188 0.53906 1s1.1211 1.8086-0.57812 2.1992h-0.003907c-0.89453 0.16406-1.8086 0.24219-2.7188 0.23828-2.9297 0.12891-2.5703 1.7383-1.7812 2.2109 0.44922 0.26953 0.87891 0.57812 0.89063 0.73828 0 0.39063-1.5781 0.35938-2.0898 0.32031-1-0.070313-22.762 0.17969-24.648 0-0.64062-0.050781-0.19141-2 0.42188-2.3984h-0.003906c1.3203-0.37891 2.6953-0.51172 4.0625-0.39063 1.7461 0.12109 3.4375 0.65625 4.9375 1.5586 0.32812 0.25 1.3594 0 0.76172-1.0781-1.9609-3.4688-3.7227-7.043-5.2812-10.711-0.44141-1.0898 0-1.1992 0.30078-1.3398 0.46094-0.14062 7.4219-0.17188 10.16 1.5391 1.1016 0.67969 1.3516-0.46875 0.78906-1-0.27344-0.37891-0.45703-0.81641-0.53125-1.2773-0.042969-0.34375-0.125-0.67969-0.25-1-0.23828-1.1289-0.39844-2.3203-0.67188-3.2695l0.003906-0.003907c-0.47266-1.5977-1.0586-3.1602-1.75-4.6797-0.82812-1.8516-0.62891-1.7383-1.4219-3.6094-1-2.3086-1.2188-3.9297-2.2891-6.8008h0.16016c1.5898 0.10937 2.4883-2.7812 4-3.1797 0.66016-0.17969 0.71094 0.25 1.2617-0.28125v0.003906c0.41406-0.59375 0.68359-1.2812 0.77734-2 0.20312 0.16797 0.42578 0.3125 0.66016 0.42969 0.19922 0.11328 0.44922 0.078125 0.60938-0.082032 0.62109-0.62891 0.55859-1.7383 0.53906-2.6602 0-0.51172 0-0.80078-0.25-0.89062h0.003906c-0.15625-0.074219-0.33984-0.070312-0.49219 0.015625-0.14844 0.085938-0.24609 0.24219-0.25781 0.41797 0 1.1797 0.23047 2.2188-0.87109 1.5117v-0.003906c-0.13281-0.078126-0.29687-0.085938-0.4375-0.027344-0.14453 0.058594-0.25 0.17969-0.29297 0.32812-0.26172 0.87891-0.37109 1.8281-1.1094 2.2188-0.30859 0.011719-0.61719 0.035156-0.92188 0.082031-0.51172 0.21094-1 0.91016-1.3789 1.3008-0.23047 0.23047-1.0781 2.1406-2.1406 1.2695-0.84766-0.73047-1.6523-1.5078-2.4102-2.332-1-1.1211-2-2.2891-2.9219-3.4609h0.003907c-1.625-1.9648-3.3477-3.8477-5.1602-5.6367-0.44922-0.24609-0.91797-0.45312-1.4023-0.61328-0.61328-0.23828-1.25-0.41797-1.8984-0.53906-0.69141-0.074219-1.3906 0.070313-2 0.41016-0.23047 0.089843-0.94141 0.60156-1.2617 0.28125-0.12109-0.21484-0.23828-0.42969-0.35156-0.64844-1.1289-2.8008 1.0508-3.2188 3-3.1797l0.003906-0.003906c1.3633 0.11719 2.6562 0.67188 3.6797 1.582 0.16016 0.12109 2.1094 1.5781 2.5898 2.0586 0.85156 0.82031 1.6992 1.5898 2.5 2.4609 0.72656 0.83203 1.6055 1.5156 2.5898 2.0195 0.14062 0.13672 0.35156 0.17578 0.53516 0.097656 0.17969-0.078125 0.29688-0.26172 0.29297-0.45703 0.054687-0.57422 0.28125-1.1211 0.65234-1.5625 0.28125-0.5625 0.61719-1.0977 1-1.5977 0.73047-0.72656 1.6484-1.2383 2.6484-1.4805 1.0508-0.28906 0.37891-2 0.37109-2.7891 0.18359-0.69531 0.3125-1.3984 0.39062-2.1094 0.089844-1.3086 0.76172-1.0898 1.6016-1.7695l-0.003907-0.003906c0.32422-0.35938 0.62109-0.73828 0.89062-1.1367 0.30078-0.32031 0.67969-0.55859 1-0.89844v-0.003907c0.32812-0.47266 0.58203-0.99609 0.75-1.5508 0.042969-0.15625 0.003906-0.32422-0.097656-0.44922-0.12109-0.15234-0.32812-0.21094-0.51172-0.14844-0.41016 0.19531-0.77734 0.46875-1.0781 0.80859-0.44141 0.42188-0.94141 0.89062-1.3086 0.85938h-0.003906c-0.125-0.011719-0.23828-0.078125-0.30859-0.17969l-0.10937-0.16016c-0.16406-0.18359-0.44141-0.21484-0.64063-0.070312l-0.42969 0.35156c-0.46094 0.50781-1.1133 0.80078-1.8008 0.80078-0.58984-0.09375-1.1641-0.28125-1.6992-0.55078-0.26172-0.10938-0.51953-0.21875-0.76172-0.30078l-1.2891-0.42188v0.003906c-1.2109-0.34375-2.3867-0.79297-3.5195-1.3398-1.1523-0.58984-2.1719-1.4023-3-2.3906-0.45312-0.55078-0.8125-1.168-1.0703-1.832-0.23438-0.68359-0.32422-1.4062-0.26953-2.1289v-0.39062h0.070312l0.51953-0.37109c0.35156-0.21875 0.68359-0.46875 1-0.73828 0.26563-0.26562 0.41797-0.625 0.42969-1 0.92188 0.13672 1.8398 0.32812 2.7383 0.57031 3.8516 1.1289 4.4492-0.75 4.7617-1 0.54297-0.52344 1.2031-0.91797 1.9219-1.1484 1.3125-0.27734 2.668-0.3125 4-0.10156 1.2305 0.13672 2.4453 0.42578 3.6094 0.85938 0.81641 0.37109 1.5547 0.90234 2.168 1.5586 0.62891 0.875 1.0898 1.8594 1.3594 2.9023 0.050781 1.1094-0.46875 1.3398-1.2617 1.6914l-0.54688 0.17969c-0.41016 0.24609-0.75 0.58984-1 1-0.55859 0.80078-1 1.2695-1.6602 1-0.28125-0.11719-0.52734-0.29687-0.71875-0.53125-0.45312-0.73437-0.67188-1.5898-0.63281-2.4492-0.011719-0.39844-0.054687-0.78906-0.11719-1.1797-0.23828-0.59375-0.57422-1.1367-1-1.6133-0.46094-0.60156-1.1602-1.5117-1-1.7305v0.003906c0.13672-0.17187 0.13672-0.41406 0-0.58203-0.09375-0.11719-0.23047-0.1875-0.38281-0.19141-0.13281 0.007813-0.25781 0.074219-0.33984 0.18359-0.34375 0.41797-0.34375 1.0195 0 1.4375 0.097656 0.17188 0.20703 0.33203 0.33203 0.48047 0.14062 0.17187 0.28906 0.32031 0.44141 0.48047 0.14844 0.16016 0.28906 0.30859 0.42188 0.46875h-0.003906c0.082031 0.097656 0.16016 0.20312 0.23047 0.3125 0.32813 0.57031 0.47656 1.2227 0.42969 1.8789v0.30859c0.10547 1.0703 0.52344 2.0859 1.1992 2.9219 0.51172 0.76562 1.4258 1.1562 2.332 1 0.5-0.10547 0.89453-0.5 1-1 0.058594-0.17188 0.13281-0.33203 0.21875-0.49219 0.33203-0.46875 0.80469-0.82031 1.3516-1 0.39453-0.16016 0.75781-0.38672 1.0781-0.66797 0.61719 1.1484 1.0938 2.3711 1.4102 3.6406 0.30859 1.3281 1 3.2383 0.76172 4.6211v-0.003906c-0.046874 0.21875 0.050782 0.44531 0.24219 0.55859 0.19531 0.11328 0.4375 0.089844 0.60547-0.058593 0.55078 0.10156 1.1914 0.28906 1.0898 0.89062-0.14453 0.46484-0.39844 0.89063-0.73828 1.2422-0.89844 0.26953-1.2812 1.6406 0.5 1.0898 0.67188 0.28906 0.64844 1.1914 0.42188 1.8906h-0.003906c-0.32422 0.8125-0.82422 1.543-1.4688 2.1367-0.16016 0.19531-0.15234 0.47656 0.015625 0.66016s0.44922 0.21484 0.65625 0.070312c0.42188 1.8672 1.043 3.6797 1.8594 5.4102 0.78125 2.0625 1.4492 4.1641 2 6.3008 0.60938 2.4805 1.4336 4.9023 2.457 7.2383 0.37891 0.57031 2.3984 4 2.6406 4.6914-0.39062-0.09375-0.78125-0.21094-1.1602-0.34766-0.37109-0.12891-0.69141 0.32031-0.57812 0.64062v-0.003906c0.39844 0.88672 0.73047 1.7969 1 2.7305l-0.75-0.35937c-0.17969-0.082032-0.39062-0.050782-0.53906 0.078124-0.15234 0.12891-0.21484 0.33203-0.16016 0.52344 0.25 0.8125 0.58594 1.6016 1 2.3477l-0.30078-0.28125v0.003906c-0.16797-0.14844-0.41406-0.16797-0.60156-0.046874-0.1875 0.12109-0.27344 0.35156-0.21094 0.56641 0.44141 1.6289 2.0586 3.7812 1.5391 5.5195h0.003906c-0.007813 0.046875-0.007813 0.09375 0 0.14062-0.30078-0.11719-0.59375-0.25781-0.87109-0.42188-0.23438-0.10547-0.50781-0.015625-0.63672 0.20312-0.12891 0.22266-0.070312 0.50781 0.13672 0.65625 2.8711 1.6992 8 2.3281 11.129 1.1406 1.7188-0.77344 3.3203-1.7852 4.7617-3 0.60938-0.46094 4-3.6094 5.1016-3.9219-1.3828 3.9922-4.3633 6.5508-8.043 8.2109z"/>
  <path d="m51.871 44.941c-0.10156-0.24219-0.36719-0.36328-0.61328-0.28516-0.24609 0.078125-0.39453 0.33203-0.33594 0.58203 0.027344 0.12891 0.070313 0.25391 0.12891 0.37109-0.078125 0.12109-0.14844 0.23828-0.21875 0.37109l-0.070312 0.078125c-0.5 0.50781-1.0391 0.96875-1.6133 1.3906-0.050782 0.007812-0.10156 0.027343-0.14844 0.050781-1.1133 0.70312-2.0195 1.6953-2.6211 2.8711-0.19531-0.16016-0.48047-0.16016-0.67969 0-0.066407 0.023437-0.125 0.054687-0.17969 0.097656-0.14062-0.19141-0.40234-0.25-0.61328-0.14062-0.21484 0.10938-0.31641 0.35547-0.24609 0.58203 0.09375 0.44141 0.23438 0.875 0.41797 1.2891 0.25 0.89844 0.41016 1.8086 0.66016 2.7383v0.003906c0.0625 0.18359 0.22656 0.31641 0.41797 0.34375 0.19531 0.027344 0.38672-0.0625 0.49219-0.22656 1-1.4883 0.94141-3.4609 2.1016-4.9102 0.48828-0.60938 0.83984-1.2109 1.2891-1.8086 0.26953-0.35938 0.71875-0.60938 1-1 0.19922-0.27344 0.38281-0.5625 0.53906-0.85938 0.21094-0.3125 0.48828-0.57422 0.8125-0.76172 0.60938-0.17969 0.058594-1.0391-0.51953-0.77734z"/>
 </g>
</svg>
