<?xml version="1.0" encoding="UTF-8"?>
<svg width="100pt" height="100pt" version="1.1" viewBox="0 0 100 100" xmlns="http://www.w3.org/2000/svg">
 <g>
  <path d="m3.125 3.125h65.625v9.375h-65.625z"/>
  <path d="m71.875 3.125h9.375v9.375h-9.375z"/>
  <path d="m63.906 80c-1.4062 0.78125-2.9688 1.25-4.5312 1.25-5.1562 0-9.375-4.2188-9.375-9.375s4.2188-9.375 9.375-9.375c1.5625 0 3.125 0.46875 4.5312 1.25l17.344-10.469v-37.656h-78.125v81.25h78.125v-6.4062zm-43.594-58.125h-3.125c-0.9375 0-1.5625 0.625-1.5625 1.5625v5c0 0.78125-0.3125 1.5625-0.9375 2.1875l-0.625 0.625 0.625 0.625c0.625 0.625 0.9375 1.4062 0.9375 2.1875v5c0 0.9375 0.625 1.5625 1.5625 1.5625h3.125v3.125h-3.125c-2.6562 0-4.6875-2.0312-4.6875-4.6875v-4.6875c0-0.9375-0.625-1.5625-1.5625-1.5625h-1.5625v-3.125h1.5625c0.9375 0 1.5625-0.625 1.5625-1.5625v-4.6875c0-2.6562 2.0312-4.6875 4.6875-4.6875h3.125zm17.188 10.938h-1.5625c-0.9375 0-1.5625 0.625-1.5625 1.5625v4.6875c0 2.6562-2.0312 4.6875-4.6875 4.6875h-3.125v-3.125h3.125c0.9375 0 1.5625-0.625 1.5625-1.5625v-5c0-0.78125 0.3125-1.5625 0.9375-2.1875l0.625-0.625-0.625-0.625c-0.625-0.625-0.9375-1.4062-0.9375-2.1875v-5c0-0.9375-0.625-1.5625-1.5625-1.5625h-3.125v-3.125h3.125c2.6562 0 4.6875 2.0312 4.6875 4.6875v4.6875c0 0.9375 0.625 1.5625 1.5625 1.5625h1.5625z"/>
  <path d="m90.625 84.375c-1.7188 0-3.2812 0.625-4.375 1.875l-20.938-12.5c0.15625-0.625 0.3125-1.0938 0.3125-1.7188s-0.15625-1.25-0.3125-1.7188l20.938-12.5c1.0938 1.0938 2.6562 1.875 4.375 1.875 3.4375 0 6.25-2.8125 6.25-6.25s-2.8125-6.25-6.25-6.25-6.25 2.8125-6.25 6.25c0 0.625 0.15625 1.25 0.3125 1.7188l-20.938 12.5c-1.0938-1.4062-2.6562-2.0312-4.375-2.0312-3.4375 0-6.25 2.8125-6.25 6.25s2.8125 6.25 6.25 6.25c1.7188 0 3.2812-0.625 4.375-1.875l20.938 12.5c-0.15625 0.625-0.3125 1.25-0.3125 1.875 0 3.4375 2.8125 6.25 6.25 6.25s6.25-2.8125 6.25-6.25-2.8125-6.25-6.25-6.25z"/>
 </g>
</svg>
