<?xml version="1.0" encoding="UTF-8"?>
<svg width="100pt" height="100pt" version="1.1" viewBox="0 0 100 100" xmlns="http://www.w3.org/2000/svg">
 <g>
  <path d="m88.75 3.75h-77.5c-4.1406 0.003906-7.4961 3.3594-7.5 7.5v35c0 1.3789 1.1211 2.5 2.5 2.5s2.5-1.1211 2.5-2.5v-35c0-1.3789 1.1211-2.5 2.5-2.5h77.5c0.66406 0 1.3008 0.26172 1.7695 0.73047s0.73047 1.1055 0.73047 1.7695v35c0 1.3789 1.1211 2.5 2.5 2.5s2.5-1.1211 2.5-2.5v-35c-0.003906-4.1406-3.3594-7.4961-7.5-7.5z"/>
  <path d="m70 24.918c-1.1758-1.5508-3.0117-2.457-4.957-2.4492h-0.042969c-1.9609 0.003906-3.8047 0.9375-4.9688 2.5156l-19.531 26.219-11.457-8.7617c-2.4219-1.8633-5.832-1.6953-8.0586 0.39453l-15.25 14.223c-1.2617 1.1836-1.9805 2.8359-1.9844 4.5664v9.625c0 1.3789 1.1211 2.5 2.5 2.5s2.5-1.1211 2.5-2.5v-9.625c0-0.34766 0.14453-0.67578 0.39453-0.91406l15.246-14.219c0.44531-0.41797 1.125-0.44922 1.6094-0.078126l19.102 14.605c1.0977 0.83984 2.668 0.62891 3.5078-0.46875 0.83594-1.0938 0.62891-2.6641-0.46875-3.5039l-3.6719-2.8086 19.57-26.266c0.23438-0.31641 0.60156-0.50391 0.99609-0.5h0.007813c0.39062-0.003906 0.75781 0.17578 0.99219 0.48828l24.957 32.551c0.16797 0.21875 0.25781 0.48438 0.25781 0.75781v28.73c0 0.33203-0.13281 0.64844-0.36719 0.88281-0.23437 0.23438-0.55078 0.36719-0.88281 0.36719h-32.5c-1.3789 0-2.5 1.1211-2.5 2.5s1.1211 2.5 2.5 2.5h32.5c3.4492-0.003906 6.2461-2.8008 6.25-6.25v-28.727c-0.003906-1.375-0.45703-2.7109-1.2891-3.8047z"/>
  <path d="m36.25 32.5c3.5391 0 6.7305-2.1328 8.082-5.4023 1.3555-3.2695 0.60938-7.0312-1.8945-9.5352s-6.2656-3.25-9.5352-1.8945c-3.2695 1.3516-5.4023 4.543-5.4023 8.082 0.003906 4.832 3.918 8.7461 8.75 8.75zm0-12.5c1.5156 0 2.8828 0.91406 3.4648 2.3164 0.58203 1.3984 0.25781 3.0117-0.8125 4.0859-1.0742 1.0703-2.6875 1.3945-4.0859 0.8125-1.4023-0.58203-2.3164-1.9492-2.3164-3.4648 0-2.0703 1.6797-3.75 3.75-3.75z"/>
  <path d="m6.25 96.25c0.66406 0 1.3008-0.26172 1.7695-0.73047s0.73047-1.1055 0.73047-1.7695v-5h2.5c3.4531 0 6.25-2.7969 6.25-6.25s-2.7969-6.25-6.25-6.25h-5c-1.3789 0-2.5 1.1211-2.5 2.5v15c0 0.66406 0.26172 1.3008 0.73047 1.7695s1.1055 0.73047 1.7695 0.73047zm2.5-15h2.5c0.69141 0 1.25 0.55859 1.25 1.25s-0.55859 1.25-1.25 1.25h-2.5z"/>
  <path d="m27.5 91.25h-5c-1.3789 0-2.5 1.1211-2.5 2.5s1.1211 2.5 2.5 2.5h5c3.4531 0 6.25-2.7969 6.25-6.25s-2.7969-6.25-6.25-6.25h-1.25c-0.69141 0-1.25-0.55859-1.25-1.25s0.55859-1.25 1.25-1.25h5c1.3789 0 2.5-1.1211 2.5-2.5s-1.1211-2.5-2.5-2.5h-5c-3.4531 0-6.25 2.7969-6.25 6.25s2.7969 6.25 6.25 6.25h1.25c0.69141 0 1.25 0.55859 1.25 1.25s-0.55859 1.25-1.25 1.25z"/>
  <path d="m45 96.25c4.1406-0.003906 7.4961-3.3594 7.5-7.5v-5c-0.003906-4.1406-3.3594-7.4961-7.5-7.5h-6.25c-1.3789 0-2.5 1.1211-2.5 2.5v15c0 0.66406 0.26172 1.3008 0.73047 1.7695s1.1055 0.73047 1.7695 0.73047zm-3.75-15h3.75c0.66406 0 1.3008 0.26172 1.7695 0.73047s0.73047 1.1055 0.73047 1.7695v5c0 0.66406-0.26172 1.3008-0.73047 1.7695s-1.1055 0.73047-1.7695 0.73047h-3.75z"/>
 </g>
</svg>
