<?xml version="1.0" encoding="UTF-8"?>
<svg width="100pt" height="100pt" version="1.1" viewBox="0 0 100 100" xmlns="http://www.w3.org/2000/svg">
 <g>
  <path d="m56.84 14.062c0 4.3945-3.5625 7.9531-7.9531 7.9531s-7.9492-3.5586-7.9492-7.9531c0-4.3906 3.5586-7.9492 7.9492-7.9492s7.9531 3.5586 7.9531 7.9492"/>
  <path d="m18.75 14.445c0.035156 0.078126 0.070312 0.15234 0.10938 0.22656 0.035156 0.074219 0.070313 0.15234 0.10938 0.22656 0.035156 0.078124 0.070312 0.15234 0.10938 0.22656 0.035156 0.074219 0.070313 0.15234 0.10938 0.22656 0.035156 0.078126 0.070312 0.15234 0.10938 0.22656 0.035156 0.078125 0.070313 0.15234 0.10938 0.22656 0.03125 0.078124 0.066406 0.15234 0.10547 0.22656 0.03125 0.078125 0.070312 0.15234 0.10547 0.22656 0.03125 0.078126 0.070312 0.15625 0.10937 0.23047 0.03125 0.078125 0.066407 0.15234 0.10547 0.22656 0.03125 0.078125 0.066407 0.15234 0.10547 0.22656 0.03125 0.078125 0.070312 0.15234 0.10547 0.23047 0.046875 0.10938 0.097656 0.21875 0.15234 0.32422 0.03125 0.074218 0.066407 0.14844 0.10547 0.22266 0.035157 0.078125 0.070313 0.15625 0.10938 0.23047 0.03125 0.074219 0.066406 0.15234 0.10547 0.22656 0.03125 0.078125 0.066406 0.15625 0.10547 0.23047 0.03125 0.074219 0.066406 0.14844 0.10156 0.22266 0.03125 0.078125 0.070313 0.15625 0.10547 0.23438 0.03125 0.074219 0.066406 0.15234 0.10547 0.22656 0.03125 0.078125 0.066406 0.15234 0.10547 0.22656 0.03125 0.078125 0.066407 0.15234 0.10547 0.23047 0.03125 0.078125 0.066407 0.15234 0.10547 0.22656 0.03125 0.078124 0.066406 0.15234 0.10547 0.23047 0.03125 0.078125 0.066406 0.15234 0.10547 0.22656 0.039062 0.10156 0.085937 0.20312 0.13672 0.30078 0.035156 0.085938 0.070313 0.16797 0.11328 0.24609 0.03125 0.078125 0.066406 0.15234 0.10156 0.22656 0.03125 0.078125 0.066406 0.15625 0.10547 0.23047 0.03125 0.078125 0.066406 0.15234 0.10156 0.22656 0.03125 0.078124 0.066407 0.15234 0.10156 0.23047 0.03125 0.078125 0.066406 0.15625 0.10156 0.23047 0.03125 0.078125 0.066406 0.15234 0.10156 0.22656 0.03125 0.078124 0.066406 0.15625 0.10156 0.23047 0.03125 0.078125 0.066407 0.15234 0.10156 0.23047 0.03125 0.078125 0.066406 0.15234 0.10156 0.23047 0.03125 0.078125 0.066406 0.15234 0.10156 0.23047 0.03125 0.078126 0.066406 0.15234 0.10156 0.23047 0.03125 0.082031 0.066407 0.16016 0.10547 0.23828 0.039062 0.10547 0.085938 0.21094 0.13672 0.3125 0.03125 0.078126 0.0625 0.15625 0.10156 0.23047 0.03125 0.078125 0.0625 0.15234 0.10156 0.23047 0.03125 0.078125 0.0625 0.15625 0.10156 0.23047 0.03125 0.078125 0.0625 0.15625 0.10156 0.23047 0.03125 0.078124 0.0625 0.15234 0.097656 0.23047 0.03125 0.078125 0.0625 0.15234 0.10156 0.23047 0.03125 0.078125 0.0625 0.15625 0.10156 0.23438 0.03125 0.078125 0.0625 0.15234 0.097656 0.23047 0.03125 0.078125 0.0625 0.15234 0.097656 0.23047 0.03125 0.078124 0.0625 0.15625 0.097657 0.23047 0.03125 0.078125 0.066406 0.15625 0.10156 0.23438 0.027344 0.078125 0.0625 0.15234 0.097657 0.22656 0.035156 0.089844 0.074218 0.17969 0.11328 0.26953 0.035156 0.097656 0.074219 0.19141 0.12109 0.28516 0.41406 1.0508 1.3008 1.8633 2.3984 2.1758 0.089844 0.03125 0.17969 0.058594 0.26953 0.085938 0.10938 0.039062 0.21875 0.074219 0.32812 0.10547 0.085938 0.03125 0.16797 0.058593 0.25781 0.082031 0.085937 0.03125 0.17188 0.058594 0.26172 0.085938 0.085937 0.03125 0.16797 0.058593 0.25391 0.085937 0.085937 0.03125 0.17188 0.058594 0.25781 0.085937 0.085938 0.03125 0.16797 0.058594 0.25391 0.085938 0.085938 0.03125 0.17188 0.0625 0.25781 0.085938 0.085937 0.03125 0.16797 0.058593 0.25781 0.085937 0.085937 0.03125 0.17187 0.0625 0.25781 0.089844 0.09375 0.035156 0.1875 0.066406 0.28516 0.097656 0.10938 0.042969 0.21875 0.078125 0.32812 0.11328 0.085938 0.03125 0.17188 0.0625 0.25781 0.089844 0.085937 0.03125 0.17188 0.0625 0.25781 0.089844 0.085938 0.03125 0.16797 0.0625 0.25391 0.089844 0.082032 0.03125 0.16797 0.0625 0.25391 0.089843 0.085937 0.035157 0.17188 0.0625 0.25781 0.089844 0.085938 0.03125 0.16797 0.0625 0.25391 0.089844 0.082031 0.035156 0.16797 0.0625 0.25391 0.089843 0.082031 0.035157 0.16797 0.0625 0.25391 0.089844 0.082031 0.035156 0.16797 0.0625 0.25391 0.089844 0.089844 0.035156 0.17969 0.066406 0.26953 0.097656 0.11719 0.050782 0.24219 0.09375 0.36328 0.13281 0.085937 0.03125 0.16797 0.066406 0.25781 0.09375 0.082031 0.03125 0.16406 0.0625 0.25 0.089843 0.085938 0.03125 0.17188 0.066407 0.25781 0.09375 0.085937 0.03125 0.16797 0.066407 0.25391 0.09375 0.085938 0.035157 0.16797 0.066407 0.25391 0.09375 0.082032 0.03125 0.16406 0.0625 0.25 0.09375 0.082032 0.035157 0.16797 0.066407 0.25391 0.09375 0.082032 0.035157 0.16797 0.0625 0.25391 0.09375 0.082031 0.035157 0.16797 0.0625 0.25391 0.09375 0.082031 0.035157 0.16797 0.066407 0.25391 0.09375 0.082031 0.035157 0.16797 0.0625 0.25 0.09375 0.11328 0.046876 0.22656 0.089844 0.34375 0.12891 0.10547 0.042969 0.21094 0.085937 0.32031 0.12109 0.085937 0.03125 0.16797 0.066407 0.25391 0.09375 0.082031 0.03125 0.16797 0.066407 0.25391 0.09375 0.085938 0.035157 0.16797 0.066407 0.25391 0.097657 0.082032 0.035156 0.16406 0.066406 0.25 0.09375 0.085938 0.035156 0.16797 0.066406 0.25391 0.097656 0.082031 0.035156 0.16797 0.066406 0.25391 0.097656 0.082031 0.035157 0.16406 0.066407 0.25 0.097657 0.027344 0.011718 0.050781 0.023437 0.078125 0.035156 0 0.011718-0.003906 0.023437-0.003906 0.035156 0 0.066406 0.007812 0.12891 0.011718 0.19531-0.003906 0.066407-0.011718 0.12891-0.011718 0.19531s0.007812 0.12891 0.011718 0.19531c-0.003906 0.066406-0.011718 0.12891-0.011718 0.19531s0.007812 0.12891 0.011718 0.19531c-0.003906 0.066407-0.011718 0.12891-0.011718 0.19531s0.007812 0.12891 0.011718 0.19531c-0.003906 0.066406-0.011718 0.12891-0.011718 0.19531s0.007812 0.12891 0.011718 0.19531c-0.003906 0.066407-0.011718 0.12891-0.011718 0.19531s0.007812 0.12891 0.011718 0.19531c-0.003906 0.066406-0.011718 0.12891-0.011718 0.19531s0.007812 0.12891 0.011718 0.19531c-0.003906 0.066407-0.011718 0.12891-0.011718 0.19531s0.007812 0.12891 0.011718 0.19531c-0.003906 0.066406-0.011718 0.12891-0.011718 0.19531s0.007812 0.12891 0.011718 0.19531c-0.003906 0.066407-0.011718 0.12891-0.011718 0.19531s0.007812 0.12891 0.011718 0.19531c-0.003906 0.066406-0.011718 0.12891-0.011718 0.19531s0.007812 0.12891 0.011718 0.19531c-0.003906 0.066407-0.011718 0.12891-0.011718 0.19531s0.007812 0.12891 0.011718 0.19531c-0.003906 0.066406-0.011718 0.12891-0.011718 0.19531s0.007812 0.12891 0.011718 0.19531c-0.003906 0.066407-0.011718 0.12891-0.011718 0.19531s0.007812 0.12891 0.011718 0.19531c-0.003906 0.066406-0.011718 0.12891-0.011718 0.19531s0.007812 0.12891 0.011718 0.19531c-0.003906 0.066407-0.011718 0.12891-0.011718 0.19531s0.007812 0.12891 0.011718 0.19531c-0.003906 0.066406-0.011718 0.12891-0.011718 0.19531s0.007812 0.12891 0.011718 0.19531c-0.003906 0.066407-0.011718 0.12891-0.011718 0.19531s0.007812 0.12891 0.011718 0.19531c-0.003906 0.066406-0.011718 0.12891-0.011718 0.19531s0.007812 0.12891 0.011718 0.19531c-0.003906 0.066407-0.011718 0.12891-0.011718 0.19531s0.007812 0.12891 0.011718 0.19531c-0.003906 0.066406-0.011718 0.12891-0.011718 0.19531s0.007812 0.12891 0.011718 0.19531c-0.003906 0.066407-0.011718 0.12891-0.011718 0.19531s0.007812 0.12891 0.011718 0.19531c-0.003906 0.066406-0.011718 0.12891-0.011718 0.19531s0.007812 0.12891 0.011718 0.19531c-0.003906 0.066407-0.011718 0.12891-0.011718 0.19531s0.007812 0.12891 0.011718 0.19531c-0.003906 0.066406-0.011718 0.12891-0.011718 0.19531s0.007812 0.12891 0.011718 0.19531c-0.003906 0.066407-0.011718 0.12891-0.011718 0.19531s0.007812 0.12891 0.011718 0.19531c-0.003906 0.066406-0.011718 0.12891-0.011718 0.19531s0.007812 0.12891 0.011718 0.19531v0.027344c2.8281 0.4375 5.9375 1.043 9.5234 1.8516l0.070312 0.015625c3.7344 0.9375 7.4297 1.6406 11.062 2.1133-0.003906-0.039063-0.003906-0.082031-0.007812-0.12109 0.003906-0.09375 0.015625-0.1875 0.015625-0.28516s-0.007813-0.1875-0.015625-0.28125c0.003906-0.09375 0.015625-0.1875 0.015625-0.28125 0-0.097656-0.007813-0.1875-0.015625-0.28516 0.003906-0.09375 0.015625-0.1875 0.015625-0.28125 0-0.097657-0.007813-0.1875-0.015625-0.28516 0.003906-0.09375 0.015625-0.1875 0.015625-0.28125 0-0.097656-0.007813-0.1875-0.015625-0.28125 0.003906-0.09375 0.015625-0.1875 0.015625-0.28516s-0.007813-0.1875-0.015625-0.28516c0.003906-0.09375 0.015625-0.1875 0.015625-0.28125 0-0.097656-0.007813-0.1875-0.015625-0.28125 0.003906-0.09375 0.015625-0.1875 0.015625-0.28516s-0.007813-0.1875-0.015625-0.28125c0.003906-0.09375 0.015625-0.1875 0.015625-0.28125 0-0.097656-0.007813-0.1875-0.015625-0.28125 0.003906-0.09375 0.015625-0.1875 0.015625-0.28125 0-0.097656-0.007813-0.1875-0.015625-0.28516 0.003906-0.09375 0.015625-0.1875 0.015625-0.28125 0-0.097657-0.007813-0.1875-0.015625-0.28125 0.003906-0.09375 0.015625-0.1875 0.015625-0.28516 0-0.097656-0.007813-0.1875-0.015625-0.28516 0.003906-0.09375 0.015625-0.1875 0.015625-0.28125 0-0.097656-0.007813-0.1875-0.015625-0.28125 0.003906-0.066406 0.007812-0.12891 0.011719-0.19531 0.035156 0.023438 0.070312 0.046876 0.10547 0.066407 0.074218 0.054687 0.15625 0.10547 0.23437 0.15625 0.074219 0.054687 0.15234 0.10547 0.23438 0.15625 0.074218 0.054687 0.15234 0.10938 0.23047 0.15625 0.074219 0.054687 0.15234 0.10938 0.23438 0.16016 0.0625 0.046875 0.125 0.089844 0.19141 0.13281 0.074218 0.054687 0.15234 0.10547 0.23047 0.15625 0.074219 0.054687 0.15234 0.10937 0.23047 0.16016 0.074219 0.054687 0.15234 0.10938 0.23047 0.16016 0.074218 0.054688 0.14844 0.10938 0.22656 0.16016 0.074219 0.054688 0.14844 0.10938 0.22656 0.16016 0.066406 0.050782 0.13281 0.097657 0.19922 0.14063 0.074218 0.054687 0.14844 0.10547 0.22656 0.15625 0.074219 0.058593 0.15234 0.10937 0.23047 0.16406 0.070312 0.054688 0.14453 0.10938 0.22266 0.16016 0.074219 0.058594 0.14844 0.11328 0.22656 0.16406 0.074218 0.058593 0.14844 0.11328 0.22266 0.16406 0.066406 0.050781 0.13281 0.10156 0.20312 0.14844 0.003906 0.011719 0.003906 0.019531 0.007812 0.03125 0.007813 0.097656 0.019531 0.19141 0.039063 0.28516 0.007812 0.097656 0.019531 0.19141 0.039062 0.28906 0.007813 0.09375 0.019532 0.1875 0.035156 0.27734 0.011719 0.097657 0.019532 0.19141 0.039063 0.28906 0.007813 0.082031 0.019531 0.16016 0.03125 0.24219 0.007813 0.097657 0.023437 0.19141 0.039063 0.28516 0.007812 0.097656 0.023437 0.19141 0.039062 0.28906 0.007812 0.09375 0.023438 0.1875 0.039062 0.28125 0.007813 0.097656 0.019532 0.19141 0.035157 0.28516 0.007812 0.097656 0.019531 0.19141 0.035156 0.28516 0.007813 0.097657 0.019531 0.19141 0.035156 0.28516 0.007813 0.097656 0.019531 0.19141 0.035157 0.28516 0.007812 0.097656 0.019531 0.19141 0.035156 0.28516 0.007812 0.097657 0.019531 0.19141 0.035156 0.28516 0.007812 0.097656 0.019531 0.19141 0.035156 0.28516 0.007813 0.09375 0.019532 0.19141 0.035156 0.28516 0.007813 0.097656 0.019532 0.19141 0.035157 0.28516 0 0.011719 0.003906 0.023438 0.003906 0.035156 2.0508 0.15625 4.0742 0.23828 6.0703 0.23828 0.39453 0 0.78516-0.003906 1.1758-0.011719-0.007813-0.089844-0.019531-0.17969-0.03125-0.26562-0.007813-0.09375-0.019531-0.18359-0.03125-0.27734-0.007813-0.09375-0.019531-0.18359-0.03125-0.27344-0.007813-0.09375-0.019531-0.18359-0.03125-0.27344-0.007813-0.12109-0.023438-0.24219-0.042969-0.35938-0.007812-0.09375-0.015625-0.18359-0.03125-0.27734-0.007812-0.09375-0.019531-0.18359-0.03125-0.27734-0.007812-0.09375-0.019531-0.18359-0.03125-0.27734-0.007812-0.09375-0.015625-0.18359-0.03125-0.27344-0.007812-0.09375-0.015625-0.1875-0.03125-0.27734-0.007812-0.09375-0.015625-0.1875-0.03125-0.27734-0.007812-0.09375-0.015625-0.18359-0.03125-0.27344-0.007812-0.09375-0.015625-0.1875-0.03125-0.27734-0.007812-0.09375-0.015625-0.18359-0.03125-0.27734-0.007812-0.09375-0.015625-0.18359-0.03125-0.27344-0.007812-0.09375-0.015625-0.1875-0.03125-0.27734-0.007812-0.09375-0.015625-0.1875-0.03125-0.27734-0.003906-0.09375-0.015625-0.18359-0.027344-0.27344-0.003906-0.09375-0.015625-0.1875-0.03125-0.28125-0.007812-0.12109-0.019531-0.23828-0.039062-0.35547-0.007813-0.09375-0.015625-0.1875-0.03125-0.28125-0.007813-0.09375-0.015625-0.18359-0.027344-0.27344-0.007812-0.09375-0.015625-0.18359-0.027344-0.27734-0.007812-0.09375-0.015625-0.1875-0.027344-0.27734-0.007812-0.09375-0.015624-0.18359-0.027343-0.27344-0.007813-0.097656-0.015625-0.19141-0.03125-0.28906-0.070313-1.0742-0.60547-2.0195-1.4062-2.6445-0.066407-0.058594-0.13281-0.11719-0.20312-0.17188-0.0625-0.058593-0.12891-0.11328-0.19531-0.16797-0.0625-0.058594-0.12891-0.11328-0.19922-0.16797-0.0625-0.058594-0.12891-0.11328-0.19531-0.16797-0.089844-0.085937-0.18359-0.16406-0.28125-0.24219-0.066406-0.058594-0.12891-0.11719-0.19922-0.17188-0.0625-0.058594-0.12891-0.11719-0.19531-0.16797-0.0625-0.058594-0.12891-0.11328-0.19141-0.16797-0.0625-0.058594-0.12891-0.11719-0.19531-0.17188-0.0625-0.058593-0.125-0.11328-0.19141-0.16797-0.0625-0.0625-0.12891-0.11719-0.19531-0.17578-0.0625-0.058593-0.125-0.11719-0.19141-0.17188-0.078125-0.078125-0.16016-0.14844-0.24609-0.22266-0.074219-0.070312-0.14844-0.14062-0.23047-0.20703-0.0625-0.058594-0.125-0.11719-0.19141-0.17188-0.0625-0.0625-0.12891-0.12109-0.19141-0.17578-0.0625-0.058593-0.125-0.11719-0.19141-0.17578-0.0625-0.058593-0.125-0.11719-0.1875-0.17578-0.0625-0.0625-0.125-0.12109-0.19141-0.17578-0.0625-0.0625-0.125-0.11719-0.1875-0.17578-0.058594-0.0625-0.125-0.11719-0.1875-0.17578-0.085938-0.085937-0.17188-0.17188-0.26563-0.25-0.070312-0.066406-0.13672-0.13672-0.21094-0.19922-0.0625-0.0625-0.12109-0.12109-0.1875-0.17969-0.0625-0.0625-0.12109-0.12109-0.1875-0.17969-0.0625-0.0625-0.12109-0.12109-0.1875-0.17969-0.058594-0.0625-0.12109-0.12109-0.18359-0.17969-0.058593-0.0625-0.12109-0.12109-0.1875-0.17969-0.058593-0.0625-0.12109-0.12109-0.18359-0.17969-0.058594-0.0625-0.12109-0.12109-0.1875-0.18359-0.058594-0.0625-0.12109-0.11719-0.18359-0.17578-0.09375-0.10156-0.19531-0.19922-0.29688-0.29297-0.0625-0.0625-0.12109-0.125-0.1875-0.18359-0.0625-0.0625-0.12109-0.125-0.18359-0.18359-0.058594-0.0625-0.11719-0.12109-0.18359-0.17969-0.058593-0.0625-0.12109-0.125-0.18359-0.18359-0.058594-0.0625-0.12109-0.125-0.18359-0.18359-0.058594-0.0625-0.12109-0.12109-0.18359-0.18359-0.058594-0.0625-0.12109-0.125-0.18359-0.18359-0.058594-0.0625-0.12109-0.12109-0.18359-0.18359-0.058593-0.0625-0.12109-0.12109-0.17969-0.18359s-0.11719-0.12109-0.17969-0.17969c-0.09375-0.10547-0.19531-0.20703-0.30078-0.30469-0.066406-0.066406-0.12891-0.13672-0.19531-0.19922-0.058594-0.0625-0.11719-0.125-0.18359-0.18359-0.058594-0.0625-0.11719-0.125-0.17969-0.18359-0.058593-0.0625-0.11719-0.12891-0.18359-0.1875-0.058594-0.0625-0.11719-0.125-0.17969-0.1875-0.058593-0.0625-0.11719-0.125-0.17969-0.18359-0.058594-0.0625-0.11719-0.125-0.17969-0.1875-0.058594-0.0625-0.11719-0.125-0.17969-0.1875-0.058594-0.0625-0.11719-0.125-0.17969-0.1875-0.058593-0.0625-0.11719-0.125-0.17969-0.1875-0.058594-0.066406-0.11719-0.125-0.17969-0.1875-0.085937-0.097656-0.17969-0.19141-0.26953-0.28125-0.79297-0.86328-1.875-1.4492-3.0938-1.6055-0.070313-0.011719-0.14062-0.023438-0.21094-0.03125-0.058594-0.007813-0.11719-0.015626-0.17578-0.023438-0.058594-0.011719-0.11719-0.015625-0.17578-0.023438-0.058594-0.011718-0.11719-0.015624-0.17578-0.023437-0.058594-0.011719-0.11719-0.015625-0.17578-0.023437-0.058593-0.011719-0.11719-0.015626-0.17578-0.023438-0.058593-0.011719-0.11719-0.015625-0.17578-0.023438-0.058594-0.011718-0.11328-0.015624-0.17188-0.023437-0.058594-0.011719-0.12109-0.015625-0.17969-0.027344-0.054688-0.011719-0.11328-0.015625-0.17188-0.023437-0.058593-0.011719-0.11719-0.015625-0.17578-0.023438-0.058593-0.011718-0.11719-0.015625-0.17578-0.023437-0.058594-0.011719-0.11719-0.015625-0.17578-0.023438-0.0625-0.011719-0.12891-0.019531-0.19141-0.027343-0.13281-0.023438-0.26562-0.042969-0.40234-0.058594-0.082031-0.011719-0.16016-0.027344-0.24219-0.035156-0.058593-0.007813-0.11328-0.019532-0.17578-0.027344-0.058594-0.007813-0.11719-0.019532-0.17578-0.027344-0.058594-0.007812-0.11719-0.019531-0.17578-0.027344-0.058594-0.007812-0.11719-0.019531-0.17578-0.027344-0.058594-0.007812-0.11719-0.019531-0.17578-0.027343-0.058594-0.007813-0.11719-0.019531-0.17578-0.027344s-0.11719-0.019531-0.17578-0.027344c-0.058593-0.007812-0.11719-0.019531-0.17578-0.027343-0.058593-0.007813-0.11719-0.019532-0.17578-0.027344-0.058594-0.007813-0.11719-0.019532-0.17578-0.027344-0.058594-0.011719-0.11719-0.019531-0.17578-0.027344-0.058594-0.011718-0.11719-0.019531-0.17969-0.027344-0.058594-0.011718-0.11328-0.019531-0.17188-0.027343-0.058594-0.011719-0.11719-0.019531-0.17578-0.027344-0.058594-0.011719-0.11719-0.019531-0.17578-0.027344-0.058593-0.011719-0.11719-0.019531-0.17578-0.027343-0.058593-0.011719-0.11328-0.019532-0.17188-0.027344-0.058594-0.011719-0.11719-0.019532-0.17578-0.027344-0.058594-0.011719-0.11719-0.019531-0.17578-0.027344-0.058594-0.011718-0.11719-0.019531-0.17578-0.027344-0.058593-0.011718-0.11719-0.019531-0.17578-0.027343-0.058593-0.011719-0.11719-0.019531-0.17578-0.027344-0.058594-0.011719-0.11719-0.019531-0.17578-0.027344-0.058594-0.011719-0.11719-0.019531-0.17578-0.027343-0.058594-0.011719-0.11719-0.019532-0.17578-0.027344-0.058594-0.011719-0.11719-0.015625-0.17188-0.027344-0.058593-0.011719-0.11719-0.019531-0.17578-0.027344-0.085938-0.019531-0.17188-0.027344-0.25781-0.039062-0.11328-0.019532-0.22656-0.039063-0.33984-0.054688-0.082032-0.011718-0.16016-0.03125-0.24219-0.039062-0.058594-0.007813-0.11328-0.019532-0.17188-0.027344-0.058593-0.007812-0.11328-0.019531-0.17188-0.027344-0.058594-0.007812-0.11719-0.019531-0.17578-0.027344-0.058594-0.007812-0.11719-0.019531-0.17578-0.027343-0.058594-0.007813-0.11328-0.019531-0.17188-0.027344-0.058594-0.007813-0.11328-0.019531-0.17578-0.027344-0.058594-0.011719-0.11719-0.019531-0.17578-0.027343-0.058594-0.011719-0.11719-0.019532-0.17969-0.027344-0.066407-0.011719-0.13281-0.023438-0.19531-0.03125-0.09375-0.015625-0.19141-0.03125-0.28516-0.042969-0.078125-0.011719-0.15625-0.019531-0.23438-0.03125-0.097656-0.015625-0.19531-0.03125-0.29688-0.042969-0.097656-0.015625-0.19141-0.03125-0.28906-0.042968-0.097657-0.015626-0.19531-0.03125-0.29297-0.042969-0.097657-0.015625-0.19531-0.03125-0.29688-0.042969-0.09375-0.015625-0.19141-0.03125-0.28516-0.042969-0.097657-0.015625-0.19141-0.035156-0.28906-0.042969-0.039063-0.007812-0.078125-0.011718-0.11719-0.019531-0.007813-0.003906-0.019532-0.003906-0.027344-0.003906-0.050782-0.007813-0.097656-0.015625-0.14844-0.023437-0.039062-0.007813-0.078125-0.011719-0.12109-0.019532-0.097656-0.019531-0.19531-0.03125-0.29297-0.042968-0.097656-0.019532-0.19531-0.03125-0.29297-0.042969-0.097656-0.019531-0.19531-0.03125-0.29297-0.046875-0.097656-0.019532-0.19531-0.03125-0.29297-0.046875-0.097657-0.019531-0.19531-0.03125-0.29297-0.046875-0.09375-0.019532-0.19141-0.03125-0.28516-0.046875-0.097656-0.019531-0.19531-0.035157-0.29297-0.046875-0.097656-0.019532-0.19141-0.035156-0.28906-0.046875-0.097656-0.019531-0.19141-0.035157-0.28906-0.046875-0.097657-0.019532-0.19531-0.074219-0.29297-0.085938-0.058594-0.042968-0.11328-0.097656-0.16406-0.097656h-0.003907c-0.039062 0-0.082031 0.023438-0.12109 0.019531-0.054688-0.011719-0.10938 0-0.16406-0.007812-0.097656-0.019531-0.19531-0.023438-0.29297-0.039063-0.09375-0.019531-0.19141-0.027344-0.28906-0.042968-0.097656-0.019532-0.19141-0.03125-0.28906-0.046876-0.09375-0.019531-0.19141-0.035156-0.28906-0.046874-0.097657-0.019532-0.19141-0.035157-0.28906-0.046876-0.09375-0.019531-0.19141-0.035156-0.28906-0.050781-0.09375-0.019531-0.19141-0.035156-0.28516-0.050781-0.09375-0.019531-0.19141-0.035156-0.28516-0.050781-0.097656-0.019531-0.19141-0.039063-0.28906-0.050781-0.066407-0.011719-0.12891-0.023438-0.19531-0.035157-0.09375-0.019531-0.19141-0.035156-0.28906-0.050781-0.09375-0.019531-0.19141-0.035156-0.28516-0.050781-0.09375-0.019531-0.19141-0.035157-0.28906-0.050781-0.09375-0.019532-0.1875-0.035157-0.28125-0.050782-0.097656-0.019531-0.19141-0.039062-0.28906-0.050781-0.09375-0.019531-0.1875-0.039063-0.28516-0.050781-0.09375-0.019532-0.19141-0.039063-0.28516-0.054688-0.09375-0.019531-0.1875-0.039062-0.28125-0.054687-0.074219-0.015625-0.14844-0.027344-0.22266-0.039063-0.09375-0.023437-0.19141-0.039062-0.28516-0.050781-0.09375-0.019531-0.1875-0.035156-0.28125-0.050781-0.09375-0.023438-0.1875-0.039063-0.28516-0.054688-0.09375-0.019531-0.1875-0.039062-0.28125-0.054687-0.09375-0.023438-0.1875-0.039063-0.28516-0.054688-0.09375-0.019531-0.1875-0.039062-0.28125-0.054687-0.09375-0.019532-0.1875-0.042969-0.28125-0.058594-0.078125-0.019531-0.16016-0.035156-0.24219-0.046875-0.09375-0.023437-0.1875-0.039063-0.28125-0.054687-0.015626-0.003907-0.027344-0.007813-0.042969-0.011719-0.015625-0.03125-0.03125-0.066407-0.046875-0.10156-0.035156-0.082031-0.074219-0.16016-0.11328-0.23828-0.035156-0.082031-0.074218-0.16016-0.11328-0.23828-0.035156-0.082032-0.074219-0.16016-0.11328-0.23828-0.035156-0.082031-0.074219-0.16016-0.11328-0.23828-0.035157-0.078125-0.070313-0.16016-0.10938-0.23828-0.035156-0.082031-0.070313-0.16016-0.11328-0.23828-0.035156-0.082031-0.070312-0.16016-0.11328-0.24219-0.035156-0.078125-0.070312-0.16016-0.10938-0.23828-0.035156-0.082031-0.070312-0.16016-0.10938-0.23828-0.035156-0.082031-0.070312-0.16016-0.10938-0.23828-0.027344-0.0625-0.058594-0.125-0.089844-0.1875-0.03125-0.082032-0.070312-0.16016-0.10937-0.23828-0.035157-0.082031-0.070313-0.16016-0.10938-0.24219-0.035156-0.082031-0.070312-0.16016-0.10937-0.23828-0.035157-0.082032-0.070313-0.16016-0.10938-0.24219-0.035156-0.082031-0.070312-0.16016-0.10937-0.24219-0.035157-0.078124-0.070313-0.16016-0.10938-0.23828-0.035156-0.082031-0.070312-0.16406-0.10937-0.24219-0.03125-0.082032-0.066407-0.16016-0.10938-0.23828-0.035156-0.082031-0.070312-0.16406-0.10937-0.24219-0.027344-0.0625-0.054688-0.125-0.085938-0.1875-0.003906-0.011719-0.007812-0.019531-0.015625-0.03125-0.003906-0.007813-0.007813-0.015625-0.011719-0.023437-0.027344-0.0625-0.054687-0.125-0.085937-0.1875-0.03125-0.082032-0.070313-0.16016-0.10938-0.24219-0.03125-0.082031-0.070313-0.16016-0.10938-0.24219-0.03125-0.082031-0.070313-0.16406-0.10938-0.24219-0.03125-0.082031-0.066406-0.16016-0.10547-0.23828-0.03125-0.082032-0.070313-0.16406-0.10938-0.24219-0.03125-0.082031-0.066406-0.16016-0.10547-0.23828-0.03125-0.082031-0.066406-0.16406-0.10547-0.24219-0.03125-0.082032-0.066406-0.16406-0.10547-0.24219-0.035156-0.082031-0.066406-0.16406-0.10547-0.24219-0.023437-0.0625-0.050781-0.12109-0.078125-0.18359-0.03125-0.082031-0.070312-0.16406-0.10938-0.24219-0.03125-0.082031-0.070313-0.16016-0.10547-0.24219-0.03125-0.082032-0.066406-0.16406-0.10547-0.24219-0.03125-0.082031-0.066407-0.16016-0.10547-0.23828-0.03125-0.082031-0.066407-0.16406-0.10547-0.24219-0.03125-0.082032-0.066406-0.16406-0.10547-0.24219-0.03125-0.082031-0.066406-0.16016-0.10547-0.23828-0.03125-0.082031-0.066406-0.16406-0.10547-0.24609-0.03125-0.082031-0.066406-0.16406-0.10547-0.24219-0.03125-0.082032-0.066406-0.16406-0.10547-0.24219-0.023437-0.0625-0.050781-0.12109-0.078125-0.18359-0.03125-0.082031-0.066406-0.16406-0.10547-0.24609-0.03125-0.082031-0.066406-0.16016-0.10547-0.24219-0.03125-0.082031-0.066406-0.16406-0.10547-0.24609-0.03125-0.082031-0.066406-0.16016-0.10156-0.24219-0.03125-0.082032-0.066406-0.16406-0.10547-0.24609-0.52344-1.3789-1.8555-2.3555-3.4141-2.3555-2.0195 0-3.6562 1.6367-3.6562 3.6562 0 0.63281 0.16016 1.2305 0.44531 1.7461 0.023437 0.09375 0.058594 0.16797 0.097656 0.24219z"/>
  <path d="m48.566 65.422c-0.75781-0.14062-1.4961-0.28906-2.2148-0.45312l-0.070312 0.019531c-2.6484-0.66406-5.2773-1.207-7.8789-1.6367-0.003906 0.0625-0.011719 0.125-0.011719 0.1875 0 0.066407 0.007813 0.12891 0.011719 0.19531-0.003906 0.066406-0.011719 0.12891-0.011719 0.19531 0 0.066406 0.007813 0.12891 0.011719 0.19531-0.003906 0.066406-0.011719 0.12891-0.011719 0.19531 0 0.066407 0.007813 0.12891 0.011719 0.19531-0.003906 0.066406-0.011719 0.12891-0.011719 0.19531 0 0.066406 0.007813 0.12891 0.011719 0.19531-0.003906 0.066406-0.011719 0.12891-0.011719 0.19531 0 0.066407 0.007813 0.12891 0.011719 0.19531-0.003906 0.066406-0.011719 0.12891-0.011719 0.19531 0 0.066406 0.007813 0.12891 0.011719 0.19531-0.003906 0.066406-0.011719 0.12891-0.011719 0.19531 0 0.066407 0.007813 0.12891 0.011719 0.19531-0.003906 0.066406-0.011719 0.12891-0.011719 0.19531 0 0.066406 0.007813 0.12891 0.011719 0.19531-0.003906 0.066406-0.011719 0.12891-0.011719 0.19531 0 0.066407 0.007813 0.12891 0.011719 0.19531-0.003906 0.066406-0.011719 0.12891-0.011719 0.19531 0 0.066406 0.007813 0.12891 0.011719 0.19531-0.003906 0.066406-0.011719 0.12891-0.011719 0.19531 0 0.066407 0.007813 0.12891 0.011719 0.19531-0.003906 0.066406-0.011719 0.12891-0.011719 0.19531 0 0.066406 0.007813 0.12891 0.011719 0.19531-0.003906 0.066406-0.011719 0.12891-0.011719 0.19531 0 0.066407 0.007813 0.12891 0.011719 0.19531-0.003906 0.066406-0.011719 0.12891-0.011719 0.19531 0 0.066406 0.007813 0.12891 0.011719 0.19531-0.003906 0.066406-0.011719 0.12891-0.011719 0.19531 0 0.066407 0.007813 0.12891 0.011719 0.19531-0.003906 0.066406-0.011719 0.12891-0.011719 0.19531 0 2.8086 2.2773 5.0898 5.0898 5.0898 2.8086 0 5.0898-2.2773 5.0898-5.0898 0-0.066407-0.007812-0.13281-0.011718-0.19922 0.003906-0.0625 0.011718-0.12891 0.011718-0.19141 0-0.066406-0.007812-0.12891-0.011718-0.19141 0.003906-0.066406 0.011718-0.13281 0.011718-0.19922 0-0.066407-0.007812-0.12891-0.011718-0.19531 0.003906-0.066406 0.011718-0.12891 0.011718-0.19531 0-0.066406-0.007812-0.12891-0.011718-0.19531 0.003906-0.066406 0.011718-0.12891 0.011718-0.19531 0-0.066407-0.007812-0.12891-0.011718-0.19531 0.003906-0.066406 0.011718-0.12891 0.011718-0.19531 0-0.066406-0.007812-0.12891-0.011718-0.19531 0.003906-0.066406 0.011718-0.12891 0.011718-0.19531 0-0.066407-0.007812-0.12891-0.011718-0.19531 0.003906-0.066406 0.011718-0.12891 0.011718-0.19531 0-0.066406-0.007812-0.12891-0.011718-0.19531 0.003906-0.066406 0.011718-0.12891 0.011718-0.19531 0-0.066407-0.007812-0.12891-0.011718-0.19531 0.003906-0.066406 0.011718-0.12891 0.011718-0.19531 0-0.066406-0.007812-0.12891-0.011718-0.19531 0.003906-0.066406 0.011718-0.12891 0.011718-0.19531 0-0.023438-0.003906-0.046876-0.003906-0.070313z"/>
  <path d="m59.062 66.645c-3.6211-0.21484-7.0469-0.60156-10.172-1.1641 0 0.027343-0.003906 0.054687-0.003906 0.082031 0 0.097656 0.007812 0.1875 0.015625 0.28516-0.003906 0.09375-0.015625 0.1875-0.015625 0.28125 0 0.097656 0.007812 0.1875 0.015625 0.28125-0.003906 0.09375-0.015625 0.1875-0.015625 0.28516 0 0.097657 0.007812 0.1875 0.015625 0.28516-0.003906 0.09375-0.015625 0.1875-0.015625 0.28125 0 0.097656 0.007812 0.1875 0.015625 0.28125-0.003906 0.09375-0.015625 0.1875-0.015625 0.28516s0.007812 0.1875 0.015625 0.28125c-0.003906 0.09375-0.015625 0.1875-0.015625 0.28516 0 0.097657 0.007812 0.1875 0.015625 0.28125-0.003906 0.09375-0.015625 0.1875-0.015625 0.28516 0 0.097656 0.007812 0.1875 0.015625 0.28516-0.003906 0.09375-0.015625 0.1875-0.015625 0.28125 0 0.097656 0.007812 0.1875 0.015625 0.28125-0.003906 0.09375-0.015625 0.1875-0.015625 0.28516s0.007812 0.1875 0.015625 0.28125c-0.003906 0.09375-0.015625 0.1875-0.015625 0.28125 0 0.097656 0.007812 0.1875 0.015625 0.28516-0.003906 0.09375-0.015625 0.1875-0.015625 0.28125 0 0.097656 0.007812 0.1875 0.015625 0.28516-0.003906 0.09375-0.015625 0.1875-0.015625 0.28125 0 0.097657 0.007812 0.1875 0.015625 0.28125-0.003906 0.09375-0.015625 0.1875-0.015625 0.28125 0 0.097657 0.007812 0.1875 0.015625 0.28125-0.003906 0.09375-0.015625 0.1875-0.015625 0.28125 0 0.097657 0.007812 0.1875 0.015625 0.28516-0.003906 0.09375-0.015625 0.1875-0.015625 0.28125 0 0.097656 0.007812 0.1875 0.015625 0.28516-0.003906 0.09375-0.015625 0.1875-0.015625 0.28125 0 0.097656 0.007812 0.1875 0.015625 0.28516-0.003906 0.09375-0.015625 0.1875-0.015625 0.28125 0 0.097657 0.007812 0.1875 0.015625 0.28125-0.003906 0.09375-0.015625 0.1875-0.015625 0.28516 0 0.097656 0.007812 0.1875 0.015625 0.28516-0.003906 0.09375-0.015625 0.1875-0.015625 0.28125s0.007812 0.1875 0.015625 0.28125c-0.003906 0.09375-0.015625 0.1875-0.015625 0.28516s0.007812 0.1875 0.015625 0.28516c-0.003906 0.09375-0.015625 0.1875-0.015625 0.28125 0 0.097656 0.007812 0.1875 0.015625 0.28125-0.003906 0.09375-0.015625 0.1875-0.015625 0.28516 0 0.097657 0.007812 0.1875 0.015625 0.28516-0.003906 0.09375-0.015625 0.1875-0.015625 0.28125 0 0.097656 0.007812 0.1875 0.015625 0.28125-0.003906 0.09375-0.015625 0.1875-0.015625 0.28516s0.007812 0.1875 0.015625 0.28516c-0.003906 0.09375-0.015625 0.1875-0.015625 0.28125 0 0.097657 0.007812 0.1875 0.015625 0.28125-0.003906 0.09375-0.015625 0.1875-0.015625 0.28516 0 0.097656 0.007812 0.1875 0.015625 0.28516-0.003906 0.09375-0.015625 0.1875-0.015625 0.28125 0 0.097656 0.007812 0.1875 0.015625 0.28516-0.003906 0.09375-0.015625 0.1875-0.015625 0.28125 0 0.097656 0.007812 0.1875 0.015625 0.28125-0.003906 0.09375-0.015625 0.1875-0.015625 0.28516s0.007812 0.1875 0.015625 0.28125c-0.003906 0.09375-0.015625 0.1875-0.015625 0.28125 0 0.097656 0.007812 0.1875 0.015625 0.28516-0.003906 0.09375-0.015625 0.1875-0.015625 0.28125 0 0.097657 0.007812 0.1875 0.015625 0.28125-0.003906 0.09375-0.015625 0.1875-0.015625 0.28125 0 0.097657 0.007812 0.1875 0.015625 0.28125-0.003906 0.09375-0.015625 0.1875-0.015625 0.28516 0 0.097656 0.007812 0.1875 0.015625 0.28125-0.003906 0.09375-0.015625 0.1875-0.015625 0.28125 0 0.097656 0.007812 0.1875 0.015625 0.28516-0.003906 0.09375-0.015625 0.1875-0.015625 0.28125 0 0.097656 0.007812 0.1875 0.015625 0.28516-0.003906 0.09375-0.015625 0.1875-0.015625 0.28125 0 0.097657 0.007812 0.1875 0.015625 0.28125-0.003906 0.09375-0.015625 0.1875-0.015625 0.28516 0 0.09375 0.007812 0.1875 0.015625 0.28125-0.007813 0.09375-0.015625 0.19141-0.015625 0.28516 0 0.097656 0.007812 0.19141 0.015625 0.28516-0.003906 0.09375-0.015625 0.1875-0.015625 0.28125 0 0.097656 0.007812 0.1875 0.015625 0.28516-0.003906 0.09375-0.015625 0.1875-0.015625 0.28125s0.007812 0.1875 0.015625 0.28125c-0.007813 0.09375-0.015625 0.19141-0.015625 0.28516 0 0.097657 0.007812 0.19141 0.015625 0.28516-0.003906 0.09375-0.015625 0.1875-0.015625 0.28125 0 2.8086 2.2773 5.0898 5.0898 5.0898 2.8086 0 5.0898-2.2773 5.0898-5.0898 0-0.097657-0.007812-0.1875-0.015625-0.28125 0.003907-0.09375 0.015625-0.1875 0.015625-0.28516 0-0.097656-0.007812-0.1875-0.015625-0.28516 0.003907-0.09375 0.015625-0.1875 0.015625-0.28125 0-0.097656-0.007812-0.1875-0.015625-0.28125 0.003907-0.09375 0.015625-0.1875 0.015625-0.28516s-0.007812-0.1875-0.015625-0.28516c0.003907-0.09375 0.015625-0.1875 0.015625-0.28125s-0.007812-0.1875-0.015625-0.28125c0.003907-0.09375 0.015625-0.1875 0.015625-0.28516 0-0.097657-0.007812-0.1875-0.015625-0.28516 0.003907-0.09375 0.015625-0.1875 0.015625-0.28125 0-0.097656-0.007812-0.1875-0.015625-0.28125 0.003907-0.09375 0.015625-0.1875 0.015625-0.28516s-0.007812-0.1875-0.015625-0.28125c0.003907-0.09375 0.015625-0.1875 0.015625-0.28125 0-0.097656-0.007812-0.1875-0.015625-0.28125 0.003907-0.09375 0.015625-0.1875 0.015625-0.28125s-0.007812-0.1875-0.015625-0.28516c0.003907-0.09375 0.015625-0.1875 0.015625-0.28125 0-0.097657-0.007812-0.1875-0.015625-0.28125 0.003907-0.09375 0.015625-0.1875 0.015625-0.28125 0-0.097657-0.007812-0.1875-0.015625-0.28125 0.003907-0.09375 0.015625-0.1875 0.015625-0.28516 0-0.097656-0.007812-0.1875-0.015625-0.28125 0.003907-0.09375 0.015625-0.1875 0.015625-0.28125 0-0.097656-0.007812-0.1875-0.015625-0.28516 0.003907-0.09375 0.015625-0.1875 0.015625-0.28125 0-0.097656-0.007812-0.1875-0.015625-0.28516 0.003907-0.09375 0.015625-0.1875 0.015625-0.28125 0-0.097656-0.007812-0.1875-0.015625-0.28125 0.003907-0.09375 0.015625-0.1875 0.015625-0.28516s-0.007812-0.1875-0.015625-0.28516c0.003907-0.09375 0.015625-0.1875 0.015625-0.28125 0-0.097657-0.007812-0.1875-0.015625-0.28125 0.003907-0.09375 0.015625-0.1875 0.015625-0.28516 0-0.097656-0.007812-0.1875-0.015625-0.28516 0.003907-0.09375 0.015625-0.1875 0.015625-0.28125 0-0.097656-0.007812-0.1875-0.015625-0.28125 0.003907-0.09375 0.015625-0.1875 0.015625-0.28516 0-0.097657-0.007812-0.1875-0.015625-0.28516 0.003907-0.09375 0.015625-0.1875 0.015625-0.28125 0-0.097656-0.007812-0.1875-0.015625-0.28125 0.003907-0.09375 0.015625-0.1875 0.015625-0.28516s-0.007812-0.1875-0.015625-0.28516c0.003907-0.09375 0.015625-0.1875 0.015625-0.28125s-0.007812-0.1875-0.015625-0.28125c0.003907-0.09375 0.015625-0.1875 0.015625-0.28516s-0.007812-0.1875-0.015625-0.28516c0.003907-0.09375 0.015625-0.1875 0.015625-0.28125 0-0.097657-0.007812-0.1875-0.015625-0.28125 0.003907-0.09375 0.015625-0.1875 0.015625-0.28516 0-0.097656-0.007812-0.1875-0.015625-0.28125 0.003907-0.09375 0.015625-0.1875 0.015625-0.28516s-0.007812-0.1875-0.015625-0.28125c0.003907-0.09375 0.015625-0.1875 0.015625-0.28516 0-0.09375-0.007812-0.1875-0.015625-0.28125 0.003907-0.09375 0.015625-0.1875 0.015625-0.28125 0-0.097657-0.007812-0.1875-0.015625-0.28125 0.003907-0.09375 0.015625-0.1875 0.015625-0.28125 0-0.097657-0.007812-0.1875-0.015625-0.28125 0.003907-0.09375 0.015625-0.1875 0.015625-0.28516 0-0.097656-0.007812-0.1875-0.015625-0.28125 0.003907-0.09375 0.015625-0.1875 0.015625-0.28516s-0.007812-0.1875-0.015625-0.28125c0.003907-0.09375 0.015625-0.1875 0.015625-0.28125 0-0.097656-0.007812-0.1875-0.015625-0.28516 0.003907-0.09375 0.015625-0.1875 0.015625-0.28125 0-0.097656-0.007812-0.1875-0.015625-0.28125 0.003907-0.09375 0.015625-0.1875 0.015625-0.28516s-0.007812-0.1875-0.015625-0.28516c0.003907-0.09375 0.015625-0.1875 0.015625-0.28125 0-0.097657-0.007812-0.1875-0.015625-0.28516 0.003907-0.09375 0.015625-0.1875 0.015625-0.28125 0-0.097656-0.007812-0.1875-0.015625-0.28516 0.003907-0.09375 0.015625-0.1875 0.015625-0.28125 0-0.097656-0.007812-0.1875-0.015625-0.28125 0.003907-0.09375 0.015625-0.1875 0.015625-0.28516-0.003906-0.023438-0.003906-0.039063-0.003906-0.054688z"/>
  <path d="m89.277 48.789c-13.676 3.8047-27.984 3.2188-41.98-0.29297-14.312-3.2188-23.215-3.8047-36.891-0.29297 0 4.3906-3.4961 9.0703-5.4062 13.754 13.676-3.8047 27.984-3.2188 41.98 0.29297 14.309 3.2188 34.344 2.0469 48.02-1.4648-2.2266-4.0977-5.7227-7.6094-5.7227-11.996z"/>
 </g>
</svg>
