<?xml version="1.0" encoding="UTF-8"?>
<svg fill="#8C8F95" width="100pt" height="100pt" version="1.1" viewBox="0 0 100 100" xmlns="http://www.w3.org/2000/svg">
 <path d="m71 11c-7.1445 0-13 5.8555-13 13 0 1.3828 0.21875 2.7461 0.625 4l-21.469 11.938c-2.2383-1.8164-5.0703-2.9375-8.1562-2.9375-7.1445 0-13 5.8555-13 13s5.8555 13 13 13c3.0859 0 5.918-1.0898 8.1562-2.9062l21.5 11.938c-0.41016 1.2578-0.65625 2.582-0.65625 3.9688 0 7.1445 5.8555 13 13 13s13-5.8555 13-13-5.8555-13-13-13c-3.5898 0-6.8594 1.5-9.2188 3.875l-20.906-11.625c0.71484-1.6055 1.125-3.3906 1.125-5.25 0-1.8711-0.40234-3.6367-1.125-5.25l20.875-11.625c2.3633 2.3945 5.6445 3.875 9.25 3.875 7.1445 0 13-5.8555 13-13s-5.8555-13-13-13zm0 6c3.9023 0 7 3.0977 7 7s-3.0977 7-7 7-7-3.0977-7-7 3.0977-7 7-7zm-42 26c3.9023 0 7 3.0977 7 7s-3.0977 7-7 7-7-3.0977-7-7 3.0977-7 7-7zm42 26c3.9023 0 7 3.0977 7 7s-3.0977 7-7 7-7-3.0977-7-7 3.0977-7 7-7z"/>
</svg>
