<?xml version="1.0" encoding="UTF-8"?>
<svg width="100pt" height="100pt" version="1.1" viewBox="0 0 100 100" xmlns="http://www.w3.org/2000/svg">
 <g>
  <path d="m66.09 62.371h-13.652c-8.4766 0-15.371-6.8984-15.371-15.371v-35.949c0-4.1406-3.3672-7.5156-7.5156-7.5156-4.1406 0-7.5156 3.3711-7.5156 7.5156l0.003906 35.949c0 4.6328 1.082 9.2734 3.1289 13.43 0.96094 1.9492 1.4688 4.1289 1.4688 6.3047v28.688c0 0.57812 0.46484 1.043 1.043 1.043h35.254v-18.129c0-0.57813 0.47266-1.043 1.043-1.043 0.57422 0 1.043 0.46484 1.043 1.043v18.129h11.906c0.57812 0 1.043-0.46484 1.043-1.043l-0.007812-21.176c0-6.5469-5.3281-11.875-11.871-11.875z"/>
  <path d="m52.441 32.727c-7.8633 0-14.266 6.3984-14.266 14.27 0 7.8633 6.3984 14.266 14.266 14.266 7.8672 0 14.27-6.3984 14.27-14.266 0-7.8633-6.4023-14.27-14.27-14.27z"/>
 </g>
</svg>
